<svg width="193" height="34" viewBox="0 0 193 34" fill="none" xmlns="http://www.w3.org/2000/svg">
<g clip-path="url(#clip0)">
<path d="M38.3499 2.63608C48.3824 2.63608 54.3156 9.19937 52.6975 17.9684C51.0793 26.7373 42.4492 33.5696 32.4707 33.5696H22.3843C13.3766 33.5696 7.82102 26.2532 7.82102 26.2532H22.3843H34.1428C39.213 26.2532 43.3662 22.8639 44.2831 18.0759C45.1461 13.288 42.1795 9.89873 37.1633 9.89873H26.6993H14.5633C5.55562 9.95253 0 2.63608 0 2.63608H26.6993H38.3499ZM31.5538 21.7342L32.9022 14.4715H3.88354C3.88354 14.4715 9.43916 21.788 18.4468 21.788H31.5538V21.7342ZM77.6708 23.8323C77.6708 23.8323 78.318 22.7563 78.6417 21.0348C79.7204 15.1709 75.6211 10.1139 69.0407 10.1139C61.9209 10.1139 55.5562 15.4399 54.3156 22.1646C53.075 28.8892 57.3901 33.9462 64.6717 33.9462C71.8994 33.9462 75.729 29.75 75.729 29.75L71.9533 25.1234C71.9533 25.1234 69.7958 27.1139 66.5056 27.1139C63.9166 27.1139 62.3524 25.769 62.1906 23.7785H77.6708V23.8323ZM62.8918 19.2057C63.7008 17.3228 65.6426 15.8703 67.8541 15.8703C69.9037 15.8703 71.36 17.4304 71.36 19.2057H62.8918ZM79.5047 33.5696H87.5414L93.2049 2.63608H85.1682L79.5047 33.5696ZM102.159 0C99.2999 0 96.9266 1.82911 96.4951 4.41139C96.0097 6.99367 97.7357 8.82278 100.54 8.82278C103.399 8.82278 105.772 6.93987 106.204 4.41139C106.743 1.82911 105.017 0 102.159 0ZM92.0183 33.5696H100.055L104.262 10.5981H96.2255L92.0183 33.5696ZM122.979 16.1392L121.9 22.1108H128.912C127.671 24.962 125.028 26.5222 121.522 26.5222C116.884 26.5222 114.187 22.9715 115.05 18.2373C115.913 13.4494 119.85 9.95253 124.543 9.95253C128.912 9.95253 130.368 13.0728 130.368 13.0728L137.326 7.15506C137.326 7.15506 134.575 2.2057 126.053 2.2057C116.722 2.2057 108.254 9.30696 106.635 18.2373C105.017 27.1677 110.681 34 120.012 34C129.451 34 136.679 27.0601 138.243 18.3987C138.459 17.3228 138.459 16.0854 138.459 16.0854H122.979V16.1392ZM154.91 10.1677C147.628 10.1677 141.156 15.4937 139.969 22.2184C138.729 28.943 143.044 34 150.325 34C157.607 34 164.08 28.674 165.266 21.9494C166.453 15.2247 162.192 10.1677 154.91 10.1677ZM151.782 26.7373C149.085 26.7373 147.521 24.6392 148.006 22.1108C148.491 19.5285 150.811 17.4842 153.508 17.4842C156.205 17.4842 157.769 19.5823 157.337 22.1108C156.798 24.6392 154.479 26.7373 151.782 26.7373ZM182.149 10.1677C174.867 10.1677 168.395 15.4937 167.208 22.2184C165.967 28.943 170.282 34 177.564 34C184.846 34 191.318 28.674 192.505 21.9494C193.691 15.2247 189.376 10.1677 182.149 10.1677ZM178.966 26.7373C176.269 26.7373 174.705 24.6392 175.137 22.1108C175.622 19.5285 177.942 17.4842 180.638 17.4842C183.335 17.4842 184.9 19.5823 184.414 22.1108C183.983 24.6392 181.663 26.7373 178.966 26.7373Z" fill="url(#paint0_linear)"/>
</g>
<defs>
<linearGradient id="paint0_linear" x1="0" y1="17.0032" x2="192.672" y2="17.0032" gradientUnits="userSpaceOnUse">
<stop stop-color="#83CDE2"/>
<stop offset="0.4604" stop-color="#83CDE2"/>
<stop offset="1" stop-color="#8BACD6"/>
</linearGradient>
<clipPath id="clip0">
<path d="M0 0H192.667V34H0V0Z" fill="white"/>
</clipPath>
</defs>
</svg>
