<svg width="951" height="486" viewBox="0 0 951 486" fill="none" xmlns="http://www.w3.org/2000/svg">
<path d="M940 480.454C940 483.523 737.772 486 521.528 486C305.284 486 124.552 483.523 124.552 480.454C124.552 477.385 305.257 474.908 521.501 474.908C737.745 474.908 940 477.385 940 480.454Z" fill="#E9F5F9"/>
<path d="M776.162 454.879C778.88 454.879 781.112 452.671 781.112 449.925V365.311C781.112 362.592 778.906 360.357 776.162 360.357C773.418 360.357 771.212 362.565 771.212 365.311V449.925C771.212 452.671 773.445 454.879 776.162 454.879Z" fill="#B5D7FF"/>
<path d="M833.304 475.393C835.348 475.393 837.016 473.724 837.016 471.678V462.524C837.016 455.794 831.098 450.329 823.807 450.329H728.545C721.254 450.329 715.335 455.794 715.335 462.524V470.574C715.335 472.62 717.003 474.289 719.048 474.289C721.093 474.289 722.761 472.62 722.761 470.574V462.524C722.761 459.886 725.37 457.759 728.545 457.759H823.807C827.008 457.759 829.591 459.913 829.591 462.524V471.678C829.591 473.724 831.259 475.393 833.304 475.393Z" fill="#B5D7FF"/>
<path d="M843.231 470.412C843.231 470.547 843.231 470.655 843.231 470.789C843.042 475.151 839.438 478.65 834.999 478.65C830.452 478.65 826.766 474.962 826.766 470.412C826.766 469.659 826.874 468.932 827.062 468.259C828.004 464.759 831.205 462.201 834.999 462.201C839.545 462.201 843.231 465.863 843.231 470.412Z" fill="#B5D7FF"/>
<path d="M723.514 470.412C723.514 474.962 719.828 478.65 715.282 478.65C710.735 478.65 707.049 474.962 707.049 470.412C707.049 470.305 707.049 470.197 707.049 470.089C707.238 465.701 710.843 462.201 715.282 462.201C719.209 462.201 722.465 464.947 723.299 468.609C723.433 469.174 723.514 469.793 723.514 470.412Z" fill="#B5D7FF"/>
<path d="M789.775 324.848H826.444C832.712 324.848 838.012 320.217 838.873 314.025L851.517 222.923C852.566 215.385 846.701 208.628 839.088 208.628H793.999C787.3 208.628 781.785 213.905 781.462 220.608L777.239 311.71C776.916 318.871 782.619 324.848 789.775 324.848Z" fill="#7BA9D8"/>
<path d="M721.496 372.741H830.856C834.945 372.741 838.281 369.43 838.281 365.311C838.281 361.192 834.972 357.881 830.856 357.881H721.496C717.407 357.881 714.071 361.192 714.071 365.311C714.071 369.43 717.38 372.741 721.496 372.741Z" fill="#7BA9D8"/>
<path d="M805.675 470.412C805.675 474.962 801.989 478.65 797.442 478.65C792.977 478.65 789.345 475.096 789.21 470.681C789.21 470.601 789.21 470.493 789.21 470.412C789.21 465.862 792.896 462.174 797.442 462.174C801.047 462.174 804.114 464.489 805.217 467.72C805.54 468.581 805.675 469.47 805.675 470.412Z" fill="#B5D7FF"/>
<path d="M797.442 471.489C799.487 471.489 801.155 469.82 801.155 467.774V454.044C801.155 451.998 799.487 450.329 797.442 450.329C795.398 450.329 793.73 451.998 793.73 454.044V467.774C793.757 469.82 795.398 471.489 797.442 471.489Z" fill="#B5D7FF"/>
<path d="M765.509 470.412C765.509 474.962 761.823 478.65 757.277 478.65C752.918 478.65 749.34 475.231 749.071 470.924C749.071 470.762 749.044 470.574 749.044 470.412C749.044 465.863 752.73 462.174 757.277 462.174C761.016 462.174 764.191 464.678 765.186 468.097C765.401 468.851 765.509 469.632 765.509 470.412Z" fill="#B5D7FF"/>
<path d="M757.277 472.97C759.321 472.97 760.989 471.301 760.989 469.255V454.017C760.989 451.971 759.321 450.302 757.277 450.302C755.232 450.302 753.564 451.971 753.564 454.017V469.228C753.564 471.301 755.232 472.97 757.277 472.97Z" fill="#B5D7FF"/>
<path d="M765.509 470.412C765.509 474.962 761.823 478.65 757.277 478.65C752.919 478.65 749.34 475.231 749.071 470.924L765.186 468.097C765.401 468.851 765.509 469.632 765.509 470.412Z" fill="#729DD8"/>
<path d="M805.675 470.412C805.675 474.962 801.989 478.65 797.442 478.65C792.977 478.65 789.345 475.097 789.21 470.682L805.217 467.72C805.54 468.582 805.675 469.47 805.675 470.412Z" fill="#729DD8"/>
<path d="M843.231 470.789C843.042 475.151 839.438 478.65 834.999 478.65C830.452 478.65 826.766 474.962 826.766 470.412C826.766 469.659 826.874 468.932 827.062 468.259L843.231 470.789Z" fill="#729DD8"/>
<path d="M723.514 470.412C723.514 474.962 719.828 478.65 715.282 478.65C710.735 478.65 707.049 474.962 707.049 470.412C707.049 470.304 707.049 470.197 707.049 470.089L723.299 468.581C723.433 469.174 723.514 469.793 723.514 470.412Z" fill="#729DD8"/>
<path d="M802.231 380.737H748.856C746.946 380.737 745.413 379.202 745.413 377.291V372.58H805.675V377.291C805.675 379.176 804.141 380.737 802.231 380.737Z" fill="#729DD8"/>
<path d="M783.184 444.352V416.031C783.184 414.281 781.758 412.854 780.009 412.854H772.181C770.432 412.854 769.006 414.281 769.006 416.031V444.352C769.006 446.102 767.58 447.529 765.832 447.529H751.896C750.147 447.529 748.722 448.956 748.722 450.706V456.574C748.722 458.324 750.147 459.751 751.896 459.751H801.693C803.442 459.751 804.868 458.324 804.868 456.574V450.706C804.868 448.956 803.442 447.529 801.693 447.529H786.359C784.61 447.529 783.184 446.102 783.184 444.352Z" fill="#729DD8"/>
<path d="M783.023 377.722C783.023 377.722 782.996 378.395 782.969 379.606C782.942 380.198 782.942 380.925 782.915 381.76C782.915 381.868 782.915 381.975 782.915 382.083V382.245V382.325V382.379V382.406V382.514V382.675V382.729V382.81L782.942 382.998C782.942 383.052 782.969 383.133 782.969 383.187L782.996 383.348C783.023 383.456 783.049 383.537 783.076 383.644C783.318 384.425 783.857 385.179 784.637 385.664C785.013 385.906 785.471 386.094 785.928 386.175C786.036 386.202 786.17 386.202 786.278 386.229L786.52 386.256C786.654 386.256 786.789 386.283 786.923 386.283C787.488 386.337 788.053 386.39 788.618 386.444C789.802 386.552 791.04 386.66 792.304 386.767C794.86 386.983 797.577 387.225 800.321 387.467C811.243 388.437 822.139 389.406 822.139 389.406C823.565 389.54 824.829 388.463 824.964 387.037C825.098 385.61 824.022 384.344 822.596 384.21C822.543 384.21 822.516 384.21 822.462 384.21C822.462 384.21 811.513 383.806 800.563 383.375C797.819 383.268 795.102 383.16 792.519 383.079C791.228 383.025 789.99 382.971 788.834 382.945C788.242 382.918 787.677 382.891 787.112 382.891C786.977 382.891 786.843 382.891 786.708 382.864H786.601H786.547H786.52C786.493 382.864 786.493 382.864 786.466 382.864C786.412 382.864 786.358 382.837 786.305 382.837C786.197 382.783 786.116 382.702 786.063 382.595C786.063 382.595 786.063 382.568 786.036 382.568V382.541V382.514V382.352C786.036 382.164 786.036 381.975 786.009 381.787C785.982 380.952 785.982 380.225 785.955 379.633C785.928 378.422 785.901 377.749 785.901 377.749C785.874 376.941 785.202 376.268 784.368 376.295C783.668 376.295 783.023 376.941 783.023 377.722Z" fill="#729DD8"/>
<path d="M627.713 454.313C627.713 454.313 629.65 476.281 627.175 476.47C613.562 477.385 613.858 472.862 604.98 470.062C597.313 467.639 592.659 467.909 589.969 466.67C584.373 464.113 579.907 461.367 579.288 460.209C576.975 456.036 591.825 454.959 593.977 455.875C596.129 456.79 615.526 449.898 615.526 449.898L627.713 454.313Z" fill="#C97B44"/>
<path d="M835.887 251.918C839.222 269.309 845.114 294.804 838.765 297.496C829.699 301.346 788.484 274.505 788.484 274.505C788.484 274.505 806.536 272.54 807.316 270.655C807.531 270.09 806.831 265.836 805.702 260.129C803.065 246.776 832.335 233.342 835.887 251.918Z" fill="#F7B690"/>
<path d="M649.881 313.999C655.988 308.372 726.338 306.542 733.468 304.792C740.597 303.015 775.812 313.891 775.812 313.891C784.045 326.006 793.891 344.797 792.115 352.873C791.012 357.962 719.155 353.681 680.496 353.385C680.631 353.546 683.079 377.48 677.564 389.81C672.022 402.194 646.491 444.891 634.439 456.979C633.309 458.136 615.526 449.845 615.526 449.845C615.526 449.845 640.465 322.694 649.881 313.999Z" fill="#422A4F"/>
<path d="M690.235 332.548C696.665 326.356 749.045 315.83 763.76 313.891C771.051 312.922 806.105 313.891 806.105 313.891C814.337 326.006 816.355 346.305 814.58 354.408C813.261 360.492 755.367 358.715 722.814 358.096C726.904 364.288 731.638 375.676 732.526 382.272C734.409 396.298 721.012 454.637 721.012 454.637H700.055C700.082 454.61 681.841 340.624 690.235 332.548Z" fill="#422A4F"/>
<path d="M828.112 209.194C836.774 221.227 845.867 258.433 845.06 262.04C843.096 271.113 808.795 271.059 808.795 271.059C808.795 271.059 818.561 344.851 817.566 348.054C816.57 351.258 797.443 321.268 770.056 315.722C758.111 313.299 732.392 307.511 727.764 308.722C723.137 309.934 725.989 267.532 725.989 267.532C725.989 267.532 703.902 269.417 700.351 265.486C696.208 260.91 712.672 210.055 721.308 202.975C730.078 195.76 759.348 188.168 759.348 188.168H785.309C785.309 188.195 818.534 195.867 828.112 209.194Z" fill="#A0AD58"/>
<path d="M712.968 454.61C713.156 458.244 713.721 460.236 714.985 463.898C715.362 465.028 723.245 478.651 719.909 478.651C713.802 478.651 693.221 478.651 688.029 478.651C684.37 478.651 689.024 472.378 692.387 470.413C695.508 468.582 700.081 454.61 700.081 454.61C700.081 454.61 704.251 449.522 712.968 454.61Z" fill="#C97B44"/>
<path d="M809.064 269.121C809.172 269.121 809.28 269.094 809.387 269.067C809.818 268.878 810.033 268.394 809.872 267.936C808.661 264.975 805.083 244.299 805.971 235.011C806.024 234.527 805.675 234.123 805.19 234.069C804.706 234.015 804.303 234.365 804.249 234.85C803.361 244.138 806.805 265.002 808.284 268.609C808.419 268.932 808.742 269.121 809.064 269.121Z" fill="#869E55"/>
<path d="M765.052 285.274C774.145 282.797 802.312 270.655 810.275 270.655C826.793 270.655 839.276 287.05 840.594 294.292C842.639 305.357 764.46 297.819 764.46 297.819L765.052 285.274Z" fill="#F7B690"/>
<path d="M746.058 131.875C744.848 133.598 746.327 136.479 749.905 137.125C744.525 138.632 742.265 140.274 742.641 142.59C743.099 145.363 745.412 145.524 748.426 145.093C746.273 160.062 757.115 176.161 761.393 164.235C764.083 156.697 775.544 170.777 775.759 171.88C776.539 176.161 784.583 155.243 784.072 143.263C783.695 134.863 770.405 126.545 763.572 128.268C761.931 128.671 762.442 131.579 764.433 133.329C755.071 128.483 747.323 130.098 746.058 131.875Z" fill="#222B54"/>
<path d="M786.224 184.722C786.224 184.722 782.242 180.576 768.092 180.576C755.851 180.576 752.353 184.722 752.353 184.722L760.182 195.006C764.594 200.794 773.23 200.902 777.777 195.248L786.224 184.722Z" fill="#869E55"/>
<path d="M778.772 160.896C778.288 176.726 781.543 187.387 782.215 190.591L778.503 194.467C772.665 200.579 762.899 200.579 757.061 194.467L752.972 190.187C755.232 186.122 757.465 175.892 754.909 164.477C752.326 153.035 772.315 167.869 778.772 160.896Z" fill="#F7B690"/>
<path d="M779.068 155.754C776.028 155.458 776.781 161.219 776.189 161.3C774.817 161.435 773.956 152.524 773.687 147.22C771.185 147.813 757.976 149.966 750.47 146.709C748.964 148.378 747.565 171.907 751.896 178.503C753.456 180.872 757.115 183.376 760.075 183.376C769.975 183.376 774.225 177.345 775.436 174.438C776.7 171.45 776.458 167.142 776.754 165.877C779.66 166.065 780.87 155.943 779.068 155.754Z" fill="#F7B690"/>
<path d="M775.974 176.08C772.719 184.103 761.581 185.341 754.748 183.376C749.071 181.734 746.193 175.838 749.044 168.407C749.26 167.815 749.017 166.846 749.206 166.981C753.429 169.996 764.594 170.427 771.212 166.092C775.543 163.265 774.871 159.362 774.467 155.97C774.064 152.578 777.615 153.897 776.889 157.585C776.189 161.3 777.696 171.827 775.974 176.08Z" fill="#222B54"/>
<path d="M786.224 184.722L793.434 191.506L780.413 205.344L768.495 199.044L786.224 184.722Z" fill="#A0AD58"/>
<path d="M752.354 184.722L745.466 193.767L755.689 203.809L768.172 199.098L752.354 184.722Z" fill="#A0AD58"/>
<path d="M780.601 206.205L767.849 200.013L768.441 198.802L780.198 204.509L791.416 189.837L792.492 190.645L780.601 206.205Z" fill="#869E55"/>
<path d="M768.495 225.589H761.796V224.243H767.15V200.713L755.555 204.321L745.386 193.418L746.381 192.502L755.958 202.786L768.495 198.883V225.589Z" fill="#869E55"/>
<path d="M768.28 162.538H765.159C763.491 162.538 762.092 161.354 761.796 159.685L761.07 155.189C760.962 154.57 761.366 153.977 761.985 153.87L762.28 153.816C763.733 153.52 765.213 153.358 766.692 153.358H766.881C768.549 153.358 770.217 153.574 771.831 153.977C772.45 154.139 772.826 154.758 772.665 155.377L771.589 159.954C771.239 161.462 769.867 162.538 768.28 162.538ZM762.415 155.135L763.141 159.469C763.303 160.465 764.164 161.192 765.159 161.192H768.28C769.248 161.192 770.055 160.546 770.271 159.604L771.32 155.216C769.867 154.866 768.36 154.677 766.881 154.677H766.692C765.294 154.677 763.922 154.812 762.549 155.108L762.415 155.135Z" fill="white"/>
<path d="M754.237 162.539H751.116C749.529 162.539 748.183 161.462 747.807 159.927L746.731 155.351C746.596 154.731 746.973 154.112 747.565 153.951C749.179 153.547 750.847 153.331 752.515 153.331H752.703C754.183 153.331 755.663 153.493 757.115 153.789L757.411 153.843C758.03 153.978 758.434 154.543 758.326 155.162L757.573 159.685C757.304 161.327 755.905 162.539 754.237 162.539ZM748.049 155.216L749.098 159.604C749.313 160.546 750.147 161.192 751.089 161.192H754.21C755.205 161.192 756.066 160.466 756.227 159.47L756.954 155.135L756.819 155.108C755.447 154.812 754.075 154.677 752.676 154.677H752.488C751.008 154.677 749.502 154.866 748.049 155.216Z" fill="white"/>
<path d="M761.715 155.108H757.546V156.454H761.715V155.108Z" fill="white"/>
<path d="M779.848 158.231C779.068 156.616 778.099 155.889 776.647 155.889H772.019V154.543H776.647C778.61 154.543 780.036 155.566 781.059 157.666L779.848 158.231Z" fill="white"/>
<path d="M763.679 209.032C762.415 209.032 761.393 208.009 761.393 206.743C761.393 205.478 762.415 204.455 763.679 204.455C764.944 204.455 765.966 205.478 765.966 206.743C765.966 208.009 764.944 209.032 763.679 209.032ZM763.679 205.828C763.168 205.828 762.738 206.259 762.738 206.77C762.738 207.282 763.168 207.713 763.679 207.713C764.191 207.713 764.621 207.282 764.621 206.77C764.621 206.232 764.191 205.828 763.679 205.828Z" fill="#869E55"/>
<path d="M763.679 214.981C762.415 214.981 761.393 213.958 761.393 212.693C761.393 211.428 762.415 210.405 763.679 210.405C764.944 210.405 765.966 211.428 765.966 212.693C765.966 213.958 764.944 214.981 763.679 214.981ZM763.679 211.778C763.168 211.778 762.738 212.208 762.738 212.72C762.738 213.231 763.168 213.662 763.679 213.662C764.191 213.662 764.621 213.231 764.621 212.72C764.621 212.181 764.191 211.778 763.679 211.778Z" fill="#869E55"/>
<path d="M763.679 220.931C762.415 220.931 761.393 219.908 761.393 218.643C761.393 217.378 762.415 216.354 763.679 216.354C764.944 216.354 765.966 217.378 765.966 218.643C765.966 219.908 764.944 220.931 763.679 220.931ZM763.679 217.727C763.168 217.727 762.738 218.158 762.738 218.67C762.738 219.181 763.168 219.612 763.679 219.612C764.191 219.612 764.621 219.181 764.621 218.67C764.621 218.158 764.191 217.727 763.679 217.727Z" fill="#869E55"/>
<path d="M686.657 353.95C686.63 353.654 686.253 346.87 686.953 339.413C687.921 329.048 690.504 322.721 694.593 320.621C708.421 313.568 743.126 312.437 744.578 312.41L744.659 315.102C744.578 315.102 735.647 315.399 725.182 316.502C711.434 317.983 701.265 320.244 695.804 323.017C692.683 324.606 690.477 330.528 689.616 339.655C688.944 346.924 689.32 353.708 689.32 353.789L686.657 353.95Z" fill="#31203B"/>
<path d="M601.349 460.182C601.079 460.182 600.837 460.021 600.73 459.751C599.465 456.575 595.807 455.875 595.753 455.875C595.376 455.821 595.134 455.471 595.215 455.094C595.268 454.717 595.618 454.475 595.995 454.556C596.183 454.582 600.434 455.39 601.967 459.267C602.102 459.617 601.94 459.994 601.591 460.128C601.51 460.182 601.429 460.182 601.349 460.182Z" fill="white"/>
<path d="M607.267 457.759C606.998 457.759 606.756 457.598 606.648 457.329C605.384 454.152 601.725 453.452 601.671 453.452C601.295 453.398 601.053 453.048 601.133 452.671C601.187 452.294 601.537 452.052 601.913 452.133C602.102 452.16 606.352 452.967 607.886 456.844C608.02 457.194 607.859 457.571 607.509 457.705C607.429 457.759 607.348 457.759 607.267 457.759Z" fill="white"/>
<path d="M708.421 467.451C708.368 467.451 708.287 467.451 708.233 467.424C703.74 466.051 700.243 466.105 698.118 466.401C695.804 466.724 694.54 467.37 694.54 467.37C694.217 467.532 693.813 467.424 693.625 467.074C693.463 466.751 693.571 466.347 693.894 466.159C694.109 466.051 699.436 463.332 708.61 466.105C708.959 466.213 709.175 466.589 709.067 466.939C708.986 467.262 708.717 467.451 708.421 467.451Z" fill="white"/>
<path d="M707.614 463.144C707.534 463.144 707.453 463.144 707.399 463.117C699.436 460.317 696.611 462.928 696.584 462.955C696.315 463.225 695.885 463.198 695.643 462.928C695.373 462.659 695.4 462.228 695.669 461.986C695.804 461.852 699.113 458.782 707.856 461.825C708.206 461.959 708.394 462.336 708.26 462.686C708.152 462.982 707.91 463.144 707.614 463.144Z" fill="white"/>
<path d="M730.724 265.19C722.115 252.483 708.744 235.523 699.005 222.601C697.068 220.016 692.118 215.87 690.665 214.524C688.459 212.37 686.845 210.567 685.823 209.786C677.322 203.271 667.206 210.513 667.341 215.816C667.395 217.809 667.691 220.501 669.278 221.766C670.408 222.654 672.237 218.159 673.367 219.02C675.842 220.878 676.488 225.777 680.335 227.312C684.047 228.793 686.63 228.873 689.186 229.277C690.37 229.466 691.473 229.25 692.414 228.739C694.378 250.814 690.262 278.84 698.952 288.72C718.51 310.957 741.646 281.343 730.724 265.19Z" fill="#F5B58F"/>
<path d="M678.317 193.741L667.987 239.211C667.879 239.669 667.449 239.938 666.991 239.83C666.561 239.723 666.265 239.292 666.373 238.861L675.627 193.148C675.788 192.395 676.515 191.91 677.268 192.072C678.021 192.233 678.506 192.96 678.344 193.714C678.317 193.714 678.317 193.741 678.317 193.741Z" fill="#4B689D"/>
<path d="M687.276 197.025L666.615 238.807C666.399 239.211 665.915 239.4 665.512 239.184C665.108 238.996 664.947 238.484 665.135 238.08L684.801 195.814C685.124 195.114 685.958 194.818 686.63 195.141C687.33 195.464 687.625 196.298 687.303 196.971C687.276 196.998 687.276 196.998 687.276 197.025Z" fill="#4B689D"/>
<path d="M689.401 225.319C682.514 225.158 680.792 220.501 677.941 218.024C675.116 215.574 666.48 212.72 669.224 210.647C671.107 209.22 680.012 215.682 682.971 214.47L689.401 225.319Z" fill="#F5B58F"/>
<path d="M683.321 224.458C681.599 223.381 680.389 221.981 679.339 220.716C678.694 219.962 678.075 219.235 677.429 218.67C676.542 217.889 674.927 217.028 673.367 216.193C670.488 214.632 668.013 213.312 667.879 211.67C667.852 211.239 667.96 210.593 668.74 210.001C669.977 209.059 672.237 210.001 675.815 211.616C678.344 212.774 681.492 214.201 682.675 213.716C683.106 213.555 683.59 213.743 683.751 214.174C683.913 214.605 683.725 215.089 683.294 215.251C681.438 216.005 678.371 214.605 675.116 213.124C673.313 212.316 670.3 210.943 669.735 211.32C669.574 211.428 669.547 211.509 669.547 211.536C669.547 211.536 669.574 211.913 670.731 212.72C671.645 213.366 672.91 214.039 674.147 214.712C675.788 215.601 677.483 216.516 678.505 217.405C679.259 218.051 679.904 218.831 680.604 219.639C682.595 221.954 684.639 224.377 689.428 224.485C689.885 224.485 690.262 224.889 690.235 225.346C690.235 225.804 689.831 226.181 689.374 226.154C686.791 226.1 684.854 225.4 683.321 224.458Z" fill="#E8947B"/>
<path d="M772.235 283.308C770.97 277.466 766.612 273.32 763.841 271.974C761.07 270.655 756.981 271.867 756.981 271.867C756.981 271.867 755.743 280.535 756.981 283.147C758.218 285.758 766.047 292.731 766.047 292.731C766.047 292.731 773.391 288.666 772.235 283.308Z" fill="#F5B58F"/>
<path d="M716.788 296.688H761.393L764.487 263.252H713.694L716.788 296.688Z" fill="#FF533F"/>
<path d="M713.694 263.252L717.407 244.487L746.623 242.038L761.312 263.252H713.694Z" fill="#F0726E"/>
<path d="M713.694 263.252L701.83 246.695L707.776 243.545L715.846 263.252H713.694Z" fill="#E5403A"/>
<path d="M764.487 263.252L777.4 246.695L773.338 244.487L763.007 263.252H764.487Z" fill="#E5403A"/>
<path d="M715.846 263.252L731.423 245.564L760.29 244.487L763.007 263.252H715.846Z" fill="#E5403A"/>
<path d="M772.235 294.857C770.674 298.411 744.632 297.603 743.449 295.45C742.426 293.565 752.757 294.938 753.564 292.758C754.371 290.577 735.997 292.058 736.266 289.877C736.535 287.696 751.358 288.342 751.869 286.7C752.38 285.058 733.817 284.896 734.894 282.07C735.97 279.243 749.636 283.12 750.416 281.101C751.197 279.081 738.525 274.532 740.705 271.893C742.05 270.251 749.313 274.747 754.21 276.874C758.568 278.758 762.953 279.216 762.953 279.216L772.235 294.857Z" fill="#F5B58F"/>
<path d="M654.401 275.286C659.674 275.286 663.359 270.978 662.633 265.702L650.231 177.884C649.478 172.607 644.581 168.3 639.308 168.3H526.451C521.178 168.3 517.493 172.607 518.219 177.884L530.621 265.702C531.375 270.978 536.271 275.286 541.544 275.286H654.401Z" fill="#758798"/>
<path d="M649.235 275.286C654.508 275.286 658.194 270.978 657.468 265.702L645.066 177.884C644.312 172.607 639.416 168.3 634.143 168.3H521.286C516.013 168.3 512.327 172.607 513.054 177.884L525.456 265.702C526.209 270.978 531.106 275.286 536.379 275.286H649.235Z" fill="#616D7D"/>
<path d="M565.891 296.688H594.461L606.083 253.506H577.486L565.891 296.688Z" fill="#616D7D"/>
<path d="M561.667 296.688H590.265L601.86 253.506H573.262L561.667 296.688Z" fill="#7590A2"/>
<path d="M550.206 292.462H616.495C617.652 292.462 618.62 293.404 618.62 294.588C618.62 295.746 617.678 296.715 616.495 296.715H550.206C549.05 296.715 548.081 295.773 548.081 294.588C548.081 293.404 549.05 292.462 550.206 292.462Z" fill="#758798"/>
<path d="M606.083 253.506L609.177 275.286H600.245L606.083 253.506Z" fill="#616D7D"/>
<path d="M383.706 453.452C386.423 453.452 388.629 451.244 388.629 448.525V364.126C388.629 361.407 386.423 359.2 383.706 359.2C380.988 359.2 378.782 361.407 378.782 364.126V448.525C378.782 451.217 380.988 453.452 383.706 453.452Z" fill="#9797C2"/>
<path d="M440.686 473.885C442.73 473.885 444.371 472.216 444.371 470.197V461.07C444.371 454.367 438.453 448.902 431.189 448.902H336.222C328.959 448.902 323.04 454.367 323.04 461.07V469.093C323.04 471.139 324.708 472.781 326.726 472.781C328.77 472.781 330.411 471.112 330.411 469.093V461.07C330.411 458.432 332.994 456.305 336.195 456.305H431.189C434.363 456.305 436.973 458.432 436.973 461.07V470.197C437 472.216 438.641 473.885 440.686 473.885Z" fill="#9797C2"/>
<path d="M450.586 468.932C450.586 469.066 450.586 469.174 450.586 469.308C450.397 473.67 446.792 477.143 442.38 477.143C437.834 477.143 434.175 473.454 434.175 468.932C434.175 468.178 434.283 467.451 434.471 466.778C435.413 463.278 438.614 460.72 442.38 460.72C446.927 460.72 450.586 464.409 450.586 468.932Z" fill="#9797C2"/>
<path d="M331.191 468.932C331.191 473.481 327.506 477.143 322.986 477.143C318.44 477.143 314.781 473.454 314.781 468.932C314.781 468.824 314.781 468.716 314.781 468.608C314.969 464.22 318.547 460.72 322.986 460.72C326.887 460.72 330.169 463.44 331.003 467.101C331.111 467.693 331.191 468.312 331.191 468.932Z" fill="#9797C2"/>
<path d="M397.507 321.294H434.068C440.309 321.294 445.609 316.69 446.47 310.499L459.087 219.666C460.136 212.128 454.298 205.424 446.685 205.424H401.704C395.032 205.424 389.517 210.674 389.194 217.377L384.997 308.21C384.674 315.344 390.351 321.294 397.507 321.294Z" fill="#6370C7"/>
<path d="M332.133 371.529H438.237C442.327 371.529 445.636 368.218 445.636 364.126C445.636 360.034 442.327 356.723 438.237 356.723H332.133C328.044 356.723 324.735 360.034 324.735 364.126C324.735 368.218 328.044 371.529 332.133 371.529Z" fill="#6370C7"/>
<path d="M413.137 468.931C413.137 473.481 409.451 477.142 404.932 477.142C400.493 477.142 396.861 473.616 396.726 469.201C396.726 469.12 396.726 469.012 396.726 468.931C396.726 464.382 400.412 460.72 404.932 460.72C408.537 460.72 411.577 463.036 412.707 466.266C413.003 467.101 413.137 467.989 413.137 468.931Z" fill="#9797C2"/>
<path d="M404.932 469.981C406.976 469.981 408.618 468.312 408.618 466.293V452.59C408.618 450.544 406.95 448.902 404.932 448.902C402.887 448.902 401.246 450.571 401.246 452.59V466.293C401.246 468.339 402.887 469.981 404.932 469.981Z" fill="#9797C2"/>
<path d="M373.079 468.931C373.079 473.481 369.393 477.142 364.874 477.142C360.515 477.142 356.937 473.75 356.668 469.443C356.668 469.281 356.641 469.093 356.641 468.931C356.641 464.382 360.327 460.72 364.847 460.72C368.586 460.72 371.734 463.224 372.729 466.643C372.971 467.37 373.079 468.151 373.079 468.931Z" fill="#9FB6BE"/>
<path d="M364.874 471.462C366.918 471.462 368.559 469.793 368.559 467.774V452.59C368.559 450.544 366.891 448.902 364.874 448.902C362.829 448.902 361.188 450.571 361.188 452.59V467.774C361.161 469.82 362.829 471.462 364.874 471.462Z" fill="#9FB6BE"/>
<path d="M373.079 468.931C373.079 473.481 369.393 477.142 364.874 477.142C360.515 477.142 356.937 473.75 356.668 469.443L372.756 466.643C372.971 467.37 373.079 468.151 373.079 468.931Z" fill="#406985"/>
<path d="M413.137 468.932C413.137 473.481 409.451 477.143 404.932 477.143C400.493 477.143 396.861 473.616 396.726 469.201L412.707 466.266C413.003 467.101 413.137 467.989 413.137 468.932Z" fill="#4B4B6D"/>
<path d="M450.586 469.308C450.397 473.67 446.792 477.143 442.38 477.143C437.834 477.143 434.175 473.454 434.175 468.932C434.175 468.178 434.283 467.451 434.471 466.778L450.586 469.308Z" fill="#4B4B6D"/>
<path d="M331.191 468.931C331.191 473.481 327.506 477.143 322.986 477.143C318.44 477.143 314.781 473.454 314.781 468.931C314.781 468.824 314.781 468.716 314.781 468.608L330.976 467.128C331.111 467.693 331.191 468.312 331.191 468.931Z" fill="#4B4B6D"/>
<path d="M409.694 378.987H356.507C354.597 378.987 353.063 377.452 353.063 375.541V370.83H413.164V375.514C413.137 377.425 411.604 378.987 409.694 378.987Z" fill="#4B4B6D"/>
<path d="M390.727 442.952V414.712C390.727 412.962 389.301 411.562 387.58 411.562H379.778C378.029 411.562 376.63 412.989 376.63 414.712V442.952C376.63 444.702 375.204 446.102 373.483 446.102H359.601C357.852 446.102 356.453 447.529 356.453 449.252V455.121C356.453 456.871 357.879 458.271 359.601 458.271H409.263C411.012 458.271 412.411 456.844 412.411 455.121V449.252C412.411 447.502 410.985 446.102 409.263 446.102H393.929C392.126 446.102 390.727 444.702 390.727 442.952Z" fill="#4B4B6D"/>
<path d="M390.539 376.483C390.539 376.483 390.512 377.156 390.485 378.367C390.458 378.96 390.458 379.687 390.431 380.521C390.431 380.629 390.431 380.737 390.431 380.844V381.006V381.086V381.14V381.167V381.275V381.436V381.49V381.571L390.458 381.76C390.458 381.813 390.485 381.894 390.485 381.948L390.512 382.11C390.539 382.217 390.566 382.298 390.593 382.406C390.835 383.186 391.373 383.94 392.153 384.425C392.53 384.667 392.987 384.856 393.444 384.936C393.552 384.963 393.687 384.963 393.794 384.99L394.036 385.017C394.171 385.017 394.305 385.044 394.44 385.044C394.978 385.098 395.57 385.152 396.135 385.205C397.291 385.313 398.529 385.421 399.82 385.529C402.376 385.744 405.093 385.986 407.81 386.228C418.679 387.198 429.575 388.167 429.575 388.167C431.001 388.301 432.265 387.252 432.373 385.825C432.507 384.398 431.458 383.133 430.032 383.025C429.978 383.025 429.951 383.025 429.898 383.025C429.898 383.025 418.975 382.621 408.053 382.19C405.335 382.083 402.591 381.975 400.036 381.894C398.744 381.84 397.507 381.786 396.35 381.76C395.758 381.733 395.193 381.706 394.628 381.706C394.494 381.706 394.359 381.706 394.225 381.679H394.117H394.063H394.036C394.009 381.679 394.009 381.679 393.982 381.679C393.929 381.679 393.875 381.652 393.821 381.652C393.713 381.598 393.633 381.517 393.579 381.41C393.579 381.41 393.579 381.383 393.552 381.383V381.356V381.329V381.167C393.552 380.979 393.552 380.79 393.525 380.602C393.498 379.767 393.498 379.04 393.471 378.448C393.444 377.264 393.417 376.564 393.417 376.564C393.391 375.756 392.718 375.11 391.911 375.11C391.185 375.056 390.566 375.702 390.539 376.483Z" fill="#4B4B6D"/>
<path d="M361.645 150.37C367.887 142.778 381.069 139.978 390.835 150.72C391.238 151.151 394.251 151.097 396.188 152.632C401.031 156.401 398.072 165.688 399.444 168.192C402.026 172.93 410.312 174.276 412.922 178.53C417.415 185.853 411.55 189.325 412.195 196.11C412.734 201.575 424.14 203.244 424.382 213.016C424.625 223.004 413.756 230.408 409.156 231.996C404.528 233.557 354.516 237.946 348.866 235.253C343.728 232.777 327.264 230.731 326.564 219.827C325.918 209.543 332.859 210.701 334.716 203.459C335.899 198.802 332.671 194.656 337.89 188.599C343.701 181.841 352.902 182.622 354.973 178.934C357.126 175.111 353.413 160.358 361.645 150.37Z" fill="#222B56"/>
<path d="M284.112 231.162C296.352 250.033 310.907 269.794 313.947 267.802C324.681 260.775 341.63 207.955 347.763 207.444C354.22 206.905 352.364 227.285 352.445 232.211C352.552 238.242 329.739 291.546 315.157 291.546C296.46 291.546 278.462 238.511 277.655 236.411C276.821 234.311 282.686 228.954 284.112 231.162Z" fill="#F7B690"/>
<path d="M446.281 291.762C446.281 261.071 414.213 207.982 407.487 208.009C399.739 208.036 399.551 238.592 403.318 243.868C410.716 254.233 424.947 279.162 425.082 286.135C425.163 291.6 446.281 299.192 446.281 291.762Z" fill="#979DFE"/>
<path d="M347.172 248.58C346.203 260.102 350.158 287.131 355.969 297.873H404.205C409.586 291.277 412.061 261.637 412.061 253.049L407.891 208.009C405.416 206.744 398.771 206.071 395.57 205.451C388.467 204.105 368.29 203.19 362.856 204.348C354.355 206.151 350.884 206.232 347.683 207.255L347.172 248.58Z" fill="#979DFE"/>
<path d="M305.472 435.953C302.002 441.984 298.693 448.176 295.787 455.417C294.9 457.625 285.618 455.875 286.264 453.587C287.179 450.195 287.905 443.949 288.604 435.845C288.793 435.926 288.981 435.953 289.196 435.953H305.472Z" fill="#F7B690"/>
<path d="M376.792 435.953C375.904 442.441 374.855 448.66 373.778 454.502C373.509 455.983 364.739 456.683 364.551 454.502C364.067 449.253 362.614 442.98 360.65 435.953H376.792Z" fill="#F7B690"/>
<path d="M423.172 346.332C421.988 355.485 407.03 357.908 394.978 358.742C386.719 359.308 381.446 358.985 374.747 358.877C381.634 381.491 380.235 408.332 377.491 430.757C377.276 432.507 377.034 434.257 376.818 435.98H360.677C360.22 434.284 359.708 432.534 359.197 430.757C353.386 410.943 344.804 384.506 342.087 358.85L334.07 358.742C329.066 396.675 317.955 414.712 307.894 431.834C307.087 433.207 306.28 434.58 305.472 435.98H289.196C288.981 435.98 288.793 435.926 288.604 435.872C288.739 434.257 288.874 432.534 289.035 430.784C292.236 390.698 295.976 316.826 318.628 307.888C324.547 305.546 336.814 307.026 348.867 310.822C351.503 305.411 354.166 300.134 355.915 298.008H405.9C406.438 300.861 426.212 322.641 423.172 346.332Z" fill="#0A3C5F"/>
<path d="M374.532 358.958C371.707 350.181 368.102 343.801 363.152 338.928L364.847 337.205C370.066 342.374 373.886 349.051 376.818 358.231L374.532 358.958Z" fill="#222B54"/>
<path d="M339.262 358.608C338.267 349.697 338.428 340.705 339.747 333.275C341.199 325.09 343.97 319.087 347.737 315.937C352.983 311.549 364.362 311.414 381.553 315.56C394.144 318.602 405.416 322.91 405.524 322.964L404.663 325.225C404.555 325.171 393.417 320.918 380.961 317.902C364.793 313.999 353.844 313.972 349.297 317.768C345.961 320.568 343.486 326.06 342.141 333.678C340.876 340.866 340.688 349.616 341.683 358.312L339.262 358.608Z" fill="#222B54"/>
<path d="M335.819 358.635L333.478 358.042C336.088 347.893 334.904 339.494 334.339 335.455C334.231 334.648 334.151 334.029 334.097 333.544L336.518 333.356C336.545 333.759 336.626 334.379 336.733 335.132C337.325 339.305 338.563 348.028 335.819 358.635Z" fill="#222B54"/>
<path d="M395.516 205.424C391.131 204.536 388.709 201.601 387.364 199.232C385.535 194.736 386.315 184.156 386.611 170.426C385.185 170.696 368.129 163.723 369.77 173.738C371.357 183.456 372.729 194.36 369.958 199.367C368.183 202.086 364.147 203.809 362.56 204.428C362.21 205.64 379.778 253.452 379.778 253.452C379.778 253.452 395.543 207.901 395.516 205.424Z" fill="#F7B690"/>
<path d="M393.256 163.858C391.211 163.588 391.696 166.819 390.593 166.523C389.301 166.146 389.032 159.604 385.616 156.427C368.748 155.243 366.407 166.63 366.407 166.63C365.546 166.63 365.654 163.481 364.013 163.884C362.291 164.288 362.883 172.849 365.708 172.715C365.519 182.649 372.837 189.514 378.271 189.514C383.679 189.514 391.077 180.872 390.512 172.849C393.31 172.984 395.005 164.1 393.256 163.858Z" fill="#F7B690"/>
<path d="M378.486 190.94C375.904 190.94 373.483 189.81 370.604 187.306C370.335 187.064 370.308 186.633 370.55 186.364C370.792 186.095 371.223 186.068 371.492 186.31C374.128 188.598 376.28 189.621 378.513 189.621C380.773 189.621 384.163 187.01 385.589 185.152C385.804 184.856 386.234 184.802 386.53 185.018C386.826 185.233 386.88 185.664 386.665 185.96C385.024 188.033 381.311 190.94 378.486 190.94Z" fill="#F4A086"/>
<path d="M379.778 254.099H379.751C378.89 254.072 376.657 254.045 367.672 237.757C363.34 229.869 359.466 221.901 359.439 221.82L359.251 221.416L363.179 217.108L352.471 206.986L353.386 206.017L365.062 217.055L360.865 221.658C361.699 223.381 365.116 230.3 368.882 237.138C376.845 251.595 379.24 252.753 379.805 252.779C379.885 252.779 380.289 252.753 381.257 251.81C386.988 246.211 398.368 222.897 398.637 220.554C397.695 218.805 395.946 216.974 395.919 216.947L395.435 216.462L405.443 206.959L406.358 207.928L397.318 216.516C397.964 217.243 399.148 218.643 399.874 220.07C400.035 220.393 400.412 221.093 396.081 229.923C393.337 235.523 390.108 241.419 387.445 245.672C382.71 253.183 380.8 254.099 379.778 254.099Z" fill="#858BED"/>
<path d="M369.608 224.727H389.57C389.57 224.727 383.06 253.049 379.778 253.049C376.307 253.049 369.608 224.727 369.608 224.727Z" fill="#FFBF34"/>
<path d="M349.485 206.771C349.485 206.771 343.056 207.255 338.59 218.643C334.124 230.058 317.982 263.521 317.982 263.521C317.982 263.521 327.398 280.293 328.985 280.751C330.6 281.236 353.413 254.503 354.247 242.388C355.108 230.273 349.485 206.771 349.485 206.771Z" fill="#979DFE"/>
<path d="M319.3 290.308C322.018 284.978 314.081 270.871 312.117 267.532C310.853 265.379 316.529 260.317 318.735 262.014C322.179 264.679 331.111 273.913 331.837 280.347C332.564 286.97 318.224 292.408 319.3 290.308Z" fill="#858BED"/>
<path d="M383.759 250.895H382.414V296.634H383.759V250.895Z" fill="#858BED"/>
<path d="M377.356 251.164H376.011V296.634H377.356V251.164Z" fill="#858BED"/>
<path d="M379.858 259.456C378.729 259.456 377.787 258.541 377.787 257.437C377.787 256.333 378.702 255.418 379.858 255.418C380.988 255.418 381.93 256.333 381.93 257.437C381.93 258.541 380.988 259.456 379.858 259.456ZM379.858 256.764C379.455 256.764 379.132 257.06 379.132 257.437C379.132 257.814 379.455 258.11 379.858 258.11C380.262 258.11 380.585 257.814 380.585 257.437C380.585 257.06 380.262 256.764 379.858 256.764Z" fill="#858BED"/>
<path d="M379.858 271.059C378.755 271.059 377.841 270.171 377.841 269.094C377.841 268.017 378.755 267.129 379.858 267.129C380.961 267.129 381.876 268.017 381.876 269.094C381.876 270.171 380.961 271.059 379.858 271.059ZM379.858 268.448C379.482 268.448 379.186 268.717 379.186 269.067C379.186 269.417 379.482 269.686 379.858 269.686C380.235 269.686 380.531 269.417 380.531 269.067C380.531 268.717 380.235 268.448 379.858 268.448Z" fill="#858BED"/>
<path d="M379.858 282.581C378.755 282.581 377.841 281.693 377.841 280.616C377.841 279.539 378.755 278.651 379.858 278.651C380.961 278.651 381.876 279.539 381.876 280.616C381.876 281.693 380.961 282.581 379.858 282.581ZM379.858 279.97C379.482 279.97 379.186 280.239 379.186 280.589C379.186 280.939 379.482 281.208 379.858 281.208C380.235 281.208 380.531 280.939 380.531 280.589C380.531 280.266 380.235 279.97 379.858 279.97Z" fill="#858BED"/>
<path d="M437.188 296.742C425.163 296.742 387.499 296.742 384.943 296.742C382.387 296.742 379.455 288.801 383.194 289.366C400.681 292.031 421.477 282.151 428.579 283.712C433.61 284.816 447.815 291.197 445.878 293.835C444.075 296.258 441.223 296.742 437.188 296.742Z" fill="#F7B690"/>
<path d="M387.149 289.743C381.392 289.043 373.59 281.047 371.815 281.343C370.039 281.639 360.435 291.546 360.435 293.35C360.435 295.019 363.878 296.769 366.515 296.769H372.433C373.509 296.204 375.823 294.615 376.334 294.588C376.657 294.562 379.051 296.177 381.123 296.769C385.32 296.769 388.763 296.769 388.763 296.769L387.149 289.743Z" fill="#F7B690"/>
<path d="M361.78 295.019C361.753 295.019 361.753 295.019 361.726 295.019C361.511 294.992 361.349 294.777 361.376 294.562C361.538 293.404 365.95 288.02 370.685 285.166C370.873 285.058 371.115 285.112 371.25 285.301C371.357 285.489 371.303 285.731 371.115 285.866C366.515 288.612 362.291 293.942 362.183 294.669C362.129 294.885 361.968 295.019 361.78 295.019Z" fill="#F4A086"/>
<path d="M364.362 296.312C364.282 296.312 364.228 296.285 364.147 296.258C363.959 296.15 363.878 295.908 364.013 295.692C364.954 294.104 369.178 290.093 373.079 287.831C373.267 287.724 373.509 287.777 373.617 287.993C373.725 288.181 373.671 288.424 373.456 288.531C369.393 290.873 365.465 294.75 364.685 296.096C364.631 296.231 364.497 296.312 364.362 296.312Z" fill="#F4A086"/>
<path d="M368.613 296.715C368.559 296.715 368.479 296.688 368.425 296.661C368.236 296.554 368.156 296.311 368.263 296.123C368.667 295.369 370.308 294.077 372.622 292.3C373.725 291.439 374.774 290.631 375.15 290.227C375.312 290.066 375.554 290.066 375.715 290.227C375.877 290.389 375.877 290.631 375.715 290.793C375.285 291.25 374.263 292.031 373.079 292.946C371.492 294.185 369.313 295.854 368.963 296.5C368.909 296.635 368.774 296.715 368.613 296.715Z" fill="#F4A086"/>
<path d="M388.171 296.715C387.983 296.715 387.795 296.581 387.768 296.366C387.741 296.15 387.875 295.935 388.091 295.908C389.328 295.692 389.382 294.616 389.382 294.616C389.382 294.4 389.57 294.212 389.786 294.212C390.001 294.212 390.189 294.4 390.189 294.616C390.189 295.073 389.839 296.446 388.225 296.715C388.198 296.715 388.198 296.715 388.171 296.715Z" fill="#F4A086"/>
<path d="M433.476 295.961C430.974 293.377 422.311 286.916 418.948 284.87C416.796 283.551 421.342 279.001 424.113 279.485C428.445 280.239 442.542 286.404 446.308 291.762C450.128 297.254 435.117 297.657 433.476 295.961Z" fill="#858BED"/>
<path d="M309.104 431.78V434.123C309.104 435.146 308.378 435.98 307.463 435.98H289.196C288.981 435.98 288.793 435.926 288.604 435.845C288.013 435.576 287.582 434.903 287.582 434.123V431.78C287.582 430.838 288.228 430.03 289.035 429.95C289.089 429.95 289.142 429.95 289.223 429.95H307.49C308.217 429.95 308.808 430.488 309.024 431.215C309.077 431.377 309.104 431.565 309.104 431.78Z" fill="#351E6C"/>
<path d="M378.998 431.78V434.123C378.998 435.146 378.271 435.98 377.357 435.98H359.09C358.874 435.98 358.686 435.926 358.498 435.845C357.906 435.576 357.475 434.903 357.475 434.123V431.78C357.475 430.838 358.121 430.03 358.928 429.95C358.982 429.95 359.036 429.95 359.116 429.95H377.383C377.41 429.95 377.464 429.95 377.491 429.95C378.164 430.004 378.729 430.515 378.917 431.215C378.971 431.377 378.998 431.565 378.998 431.78Z" fill="#351E6C"/>
<path d="M284.731 236.303C284.327 230.811 288.47 225.588 287.636 222.062C286.802 218.535 282.767 217.081 280.023 212.37C278.166 209.166 277.144 216.408 280.399 218.427C283.143 220.123 281.96 222.035 279.081 221.523C276.202 221.012 263.128 206.959 260.249 205.801C259.549 205.505 259.011 206.313 259.334 207.04C260.33 209.328 264.796 214.631 265.038 215.331C265.361 216.354 263.074 222.062 263.585 225.427C264.688 232.534 275.718 233.988 277.655 236.33C279.592 238.645 284.731 236.303 284.731 236.303Z" fill="#F7B690"/>
<path d="M280.668 235.2L266.706 234.257C265.818 234.203 265.172 233.45 265.226 232.561L267.271 202.167C267.324 201.279 268.078 200.632 268.965 200.686L282.928 201.628C283.816 201.682 284.461 202.436 284.408 203.325L282.363 233.719C282.309 234.607 281.529 235.253 280.668 235.2Z" fill="#2C4E77"/>
<path opacity="0.2" d="M274.507 233.584L273.001 233.477C272.57 233.45 272.248 233.073 272.275 232.669C272.301 232.238 272.678 231.915 273.082 231.942L274.588 232.05C275.019 232.077 275.341 232.454 275.315 232.857C275.315 233.288 274.938 233.611 274.507 233.584Z" fill="white"/>
<path d="M277.951 203.351L273.62 203.055C273.431 203.055 273.297 202.867 273.297 202.678C273.297 202.49 273.485 202.355 273.673 202.355L278.005 202.651C278.193 202.651 278.328 202.84 278.328 203.028C278.301 203.217 278.139 203.378 277.951 203.351Z" fill="#94B0F1"/>
<path d="M267.854 203.682L266.053 230.598L281.783 231.652L283.584 204.736L267.854 203.682Z" fill="#B5D7FF"/>
<path opacity="0.2" d="M269.557 230.838L266.087 230.623L280.103 204.509L283.601 204.751L269.557 230.838Z" fill="white"/>
<path opacity="0.2" d="M278.57 204.428L266.275 227.311L267.862 203.701L278.57 204.428Z" fill="white"/>
<path d="M265.872 216.139C265.872 216.139 264.284 222.035 264.258 224.081C264.231 226.127 264.607 227.123 265.549 226.854C266.49 226.585 267.082 225.508 268.589 227.231C270.095 228.954 271.091 228.927 271.521 228.55C271.952 228.173 271.817 226.558 271.817 226.558C271.817 226.558 273.647 226.02 273.862 225.32C274.077 224.647 273.862 223.112 273.862 223.112C273.862 223.112 276.391 222.493 276.041 221.524C275.664 220.555 272.732 215.897 271.629 215.789C270.526 215.682 266.437 214.955 265.872 216.139Z" fill="#F7B690"/>
<path d="M275.853 222.816C275.503 223.085 275.099 223.193 274.696 223.22C274.723 223.247 274.723 223.274 274.723 223.301C275.422 224.808 274.83 225.697 274.534 225.993C274.158 226.397 273.62 226.585 273.055 226.585C272.812 226.585 272.543 226.558 272.301 226.477C272.543 227.043 272.705 227.554 272.705 227.877C272.705 227.904 272.705 227.931 272.705 227.958V228.012C272.705 228.039 272.678 228.093 272.678 228.12C272.651 228.173 272.651 228.2 272.624 228.254C272.624 228.281 272.597 228.281 272.597 228.308C272.194 228.927 271.979 229.116 271.844 229.223C271.333 229.6 270.822 229.789 270.311 229.789C270.176 229.789 270.068 229.789 269.961 229.762C269.369 229.654 268.858 229.304 268.481 228.712C268.4 228.604 268.266 228.389 268.131 228.146C267.862 227.716 267.297 226.8 267.028 226.45C266.813 226.504 266.437 226.666 266.114 226.827C265.791 226.989 265.387 226.881 265.226 226.558C265.065 226.235 265.172 225.831 265.495 225.67C266.437 225.158 267.136 224.997 267.566 225.212C267.943 225.4 268.32 225.966 269.234 227.446C269.369 227.662 269.477 227.85 269.557 227.985C269.746 228.254 269.934 228.416 270.176 228.47C270.499 228.523 270.849 228.335 271.064 228.173C271.064 228.173 271.171 228.093 271.414 227.716C271.252 226.8 269.154 223.408 268.535 222.762C268.105 222.681 266.571 222.654 265.334 222.789C264.984 222.816 264.661 222.574 264.607 222.197C264.58 221.847 264.822 221.524 265.199 221.47C265.226 221.47 268.347 221.174 269.154 221.578C269.557 221.793 270.902 223.651 271.817 225.374C271.979 225.131 272.301 225.05 272.597 225.158C273.001 225.32 273.431 225.293 273.646 225.077C273.862 224.835 273.835 224.404 273.593 223.839C272.947 222.439 270.822 219.101 270.203 218.751C269.611 218.562 268.185 218.643 267.028 218.724L266.544 218.751C266.194 218.778 265.872 218.509 265.845 218.132C265.818 217.782 266.114 217.459 266.463 217.432L266.948 217.405C268.347 217.324 269.799 217.243 270.633 217.512C271.467 217.782 272.92 220.043 273.862 221.658C273.969 221.658 274.077 221.685 274.158 221.739C274.454 221.901 274.696 221.955 274.938 221.874C275.153 221.793 275.261 221.658 275.341 221.578C274.992 220.528 272.839 217.566 272.032 216.839C271.387 216.247 268.616 215.574 266.41 216.22C266.06 216.328 265.71 216.113 265.603 215.763C265.495 215.413 265.71 215.063 266.06 214.955C268.535 214.255 271.817 214.874 272.92 215.87C273.754 216.651 276.337 220.016 276.66 221.389C276.713 221.928 276.31 222.493 275.853 222.816Z" fill="#F4A086"/>
<path d="M296.675 477.143H278.166C277.117 477.143 276.256 476.631 275.745 475.905C275.153 475.07 275.019 473.966 275.584 472.943L285.564 454.233C285.78 453.883 285.995 453.587 286.264 453.264C286.91 452.51 287.69 451.891 288.604 451.46C290.595 450.518 293.581 449.898 295.841 452.698C295.868 452.725 295.895 452.752 295.922 452.779C299.231 457.006 300.495 473.993 300.495 473.993C300.657 475.689 298.424 477.143 296.675 477.143Z" fill="#0A3C5F"/>
<path d="M296.272 450.625C296.272 450.625 297.698 465.405 297.106 470.224C296.917 471.732 282.121 471.032 280.641 469.766C280.399 469.551 280.399 469.066 280.561 468.393C281.421 464.894 286.21 454.933 286.479 452.617L288.578 450.733L296.272 450.625Z" fill="#F7B690"/>
<path d="M296.272 477.143C298.128 477.143 299.258 475.393 298.935 473.616C298.047 468.663 291.187 466.24 286.883 466.697C280.453 467.37 277.547 469.686 275.772 473.885C275.126 475.42 276.041 477.143 277.736 477.143H296.272Z" fill="#0A3C5F"/>
<path d="M374.29 477.143H355.78C354.731 477.143 353.87 476.631 353.359 475.905C352.767 475.07 352.633 473.966 353.198 472.943L363.179 454.233C363.394 453.883 363.609 453.587 363.878 453.264C364.524 452.51 365.304 451.891 366.219 451.46C368.21 450.518 371.196 449.898 373.456 452.698C373.483 452.725 373.509 452.752 373.536 452.779C376.845 457.006 378.11 473.993 378.11 473.993C378.271 475.689 376.011 477.143 374.29 477.143Z" fill="#0A3C5F"/>
<path d="M373.886 450.625C373.886 450.625 375.312 465.405 374.72 470.224C374.532 471.732 359.735 471.032 358.256 469.766C358.014 469.551 358.014 469.066 358.175 468.393C359.036 464.894 363.824 454.933 364.094 452.617L366.192 450.733L373.886 450.625Z" fill="#F7B690"/>
<path d="M373.886 477.143C375.742 477.143 376.872 475.393 376.549 473.616C375.662 468.663 368.801 466.24 364.497 466.697C358.067 467.37 355.162 469.686 353.386 473.885C352.741 475.42 353.655 477.143 355.35 477.143H373.886Z" fill="#0A3C5F"/>
<path d="M200.471 478.084H193.181L164.26 317.498L135.313 478.084H128.022L157.938 297.011H170.582L170.717 297.791L200.471 478.084ZM194.768 476.2H198.265L168.968 298.922H159.525L130.255 476.2H133.752L162.807 314.94C162.942 314.213 163.534 313.729 164.26 313.729C164.986 313.729 165.578 314.24 165.713 314.94L194.768 476.2Z" fill="#D0D9DF"/>
<path d="M554.161 478.085H546.871L546.736 477.304L517.95 317.472L489.003 478.085H481.712L511.628 297.011H524.272L554.161 478.085ZM548.458 476.201H551.955L522.685 298.896H513.242L483.972 476.201H487.469L516.632 314.349C516.739 313.676 517.304 313.218 517.977 313.218C518.65 313.218 519.215 313.676 519.322 314.349L548.458 476.201Z" fill="#D0D9DF"/>
<path d="M907.878 478.085H900.587L900.453 477.304L871.667 317.472L842.72 478.085H835.429L865.345 297.011H877.989L907.878 478.085ZM902.148 476.201H905.645L876.375 298.896H866.932L837.662 476.201H841.16L870.43 313.783C870.537 313.164 871.048 312.733 871.667 312.733C872.286 312.733 872.797 313.164 872.905 313.783L902.148 476.201Z" fill="#D0D9DF"/>
<path d="M157.104 306.622H878.985C884.553 306.622 885.576 304.415 885.576 301.669C885.576 298.923 884.553 296.715 878.985 296.715H157.104C151.535 296.715 149.706 298.923 149.706 301.669C149.706 304.415 151.535 306.622 157.104 306.622Z" fill="#56D1EE"/>
<path d="M489.971 295.988H469.794L466.485 265.163H493.253L489.971 295.988Z" fill="#FF533F"/>
<path d="M495.137 263.656H464.602L465.597 260.91H494.141L495.137 263.656Z" fill="#B5D7FF"/>
<path d="M492.957 257.275H466.781V259.617H492.957V257.275Z" fill="#B5D7FF"/>
<path d="M477.623 254.96C477.623 254.96 471.866 249.656 476.278 245.618C480.69 241.58 482.439 239.022 479.156 235.63C475.874 232.238 475.874 232.238 475.874 232.238C475.874 232.238 485.129 232.211 485.129 240.315C485.129 247.045 476.52 246.237 477.623 254.96Z" fill="#D0D9DF"/>
<path d="M147.857 392.973C144.646 383.573 126.708 390.718 119.404 371.04C117.905 367.004 133.464 360.025 133.155 355.254C133.012 352.999 116.716 353.165 116.644 350.815C115.74 323.374 129.111 304.573 123.853 288.408C122.021 282.758 133.988 282.521 132.608 278.106C132.132 276.586 120.142 279.649 119.071 278.438C112.838 271.364 99.3963 257.976 97.0411 249.929C95.3282 244.042 96.375 234.618 97.6834 225.692C97.9689 223.746 110.197 224.197 110.483 222.345C111.41 216.221 98.1592 220.517 97.7548 217.384C96.6604 208.767 84.2181 176.721 98.4447 171.261C109.055 167.178 136.486 208.197 139.84 219.117C140.221 220.375 129.919 231.437 131.252 232.41C132.417 233.265 145.811 223.603 147.167 224.553C157.611 231.84 172.385 241.525 175.621 251.258C179.76 263.697 170.934 287.245 172.29 295.078C174.408 307.28 192.012 329.759 195.272 352.619C195.462 354.02 178.381 350.696 178.476 352.097C178.618 354.542 195.819 361.734 195.557 364.156C195.367 365.912 164.13 351.29 163.702 353.046C163.107 355.373 193.226 374.054 192.131 376.309C183.876 393.567 168.793 387.205 161.68 386.944C154.543 386.707 147.857 392.973 147.857 392.973Z" fill="#78A72C"/>
<path d="M146.145 363.894C147.096 363.657 148.048 363.467 149.024 363.277C150.38 395.134 149.285 424.046 147.001 442.515C146.716 444.888 143.1 444.461 143.385 442.064C145.883 421.768 147.096 393.828 146.145 363.894Z" fill="#98B51C"/>
<path d="M107.651 204.02C108.27 203.497 108.603 204.21 110.316 206.18C135.224 237.561 145.787 301.084 148.714 357.153C147.786 357.319 146.834 357.509 145.906 357.723C144.098 313.76 136.247 238.629 107.604 204.874C107.366 204.589 107.413 204.233 107.651 204.02Z" fill="#98B51C"/>
<path d="M130.847 408.522C124.329 400.332 110.245 412.747 94.8286 396.89C93.7342 395.751 111.41 385.781 110.53 384.428C109.127 382.315 89.2854 388.677 88.31 386.113C81.8152 369.093 83.5519 343.622 77.2237 326.27C76.6527 324.727 88.5241 316.632 87.8104 315.208C86.9302 313.475 73.4886 318.484 72.4418 316.988C63.3063 303.956 48.0329 299.541 37.2082 291.992C35.4477 290.758 50.6736 273.002 49.1986 271.578C48.1756 270.581 30.3566 285.963 29.5001 284.824C22.0062 274.759 21.7207 260.112 20.0791 249.905C19.6747 247.341 29.3574 243.425 28.6437 241.573C28.0965 240.125 17.2243 240.552 16.3203 239.674C9.7541 233.288 -6.54233 216.292 2.85488 206.417C4.0444 205.159 11.9666 216.506 13.3227 216.031C15.0832 215.39 10.3489 203.165 12.3473 203.616C23.7666 206.156 38.707 224.197 53.4095 234.594C54.599 235.425 49.5079 249.407 50.6974 250.142C52.0296 250.949 59.6188 238.511 60.9273 239.152C71.7043 244.422 98.5399 248.125 107.842 258.308C108.508 259.044 82.9334 278.652 83.5044 279.554C84.2181 280.693 111.054 263.127 111.601 264.456C116.692 276.492 116.026 295.648 120.165 302.912C126.613 314.259 152.092 330.282 163.44 351.764C164.13 353.094 146.026 355.847 146.62 357.2C147.643 359.574 167.223 360.595 167.841 363.087C168.293 364.915 132.132 361.497 132.322 363.396C132.56 365.889 169.055 373.722 168.793 376.357C166.771 396.368 149.547 395.442 142.409 397.697C135.272 399.952 130.847 408.522 130.847 408.522Z" fill="#98B51C"/>
<path d="M54.1707 261.893C53.5522 261.37 52.7433 262.32 53.3618 262.842C100.895 303.339 130.585 391.383 137.556 453.648C137.651 454.526 138.436 455.167 139.317 455.048C140.197 454.953 140.839 454.17 140.72 453.292C134.392 396.487 104.368 303.861 54.1707 261.893Z" fill="#78A72C"/>
<path d="M162.821 414.884C166.747 406.932 181.782 415.335 190.537 398.813C192.321 395.419 179.379 387.443 180.212 383.241C180.593 381.271 194.986 383.289 195.319 381.247C199.316 357.106 189.681 338.899 196.223 325.225C198.507 320.43 187.944 318.84 189.681 315.089C190.275 313.808 200.529 317.914 201.623 316.965C207.976 311.434 221.417 301.155 224.415 294.319C226.627 289.31 226.794 280.836 226.675 272.812C226.651 271.055 215.779 270.035 215.755 268.373C215.66 262.842 226.865 268.183 227.579 265.477C229.553 257.976 244.28 231.105 232.361 224.624C223.463 219.782 194.415 252.872 190.18 262.13C189.681 263.198 197.508 274.165 196.223 274.877C195.081 275.494 184.375 265.406 183.067 266.094C173.004 271.317 158.801 278.177 154.804 286.414C149.689 296.93 154.756 318.792 152.639 325.558C149.356 336.097 131.156 353.948 125.613 373.746C125.28 374.956 140.768 374.007 140.53 375.241C140.125 377.402 124.091 381.746 124.019 383.929C123.972 385.52 153.305 376.215 153.472 377.805C153.71 379.918 124.923 392.95 125.613 395.063C130.895 411.276 144.979 407.406 151.283 408C157.635 408.546 162.821 414.884 162.821 414.884Z" fill="#B0D354"/>
<path d="M216.255 257.43C216.778 256.955 217.54 257.739 216.969 258.261C215.779 259.353 214.994 260.041 213.353 261.727C178.642 298.948 162.013 400.308 161.585 450.538C161.585 451.44 160.823 452.176 159.919 452.176C159.015 452.176 158.278 451.416 158.278 450.514C158.658 406.765 176.24 293.037 216.255 257.43Z" fill="#98B51C"/>
<path d="M176.406 440.093L174.574 443.512C174.574 443.512 173.337 479.546 164.249 479.546H131.181C122.212 479.546 120.856 443.986 120.856 443.986L119.024 440.117C119.024 439.31 119.69 438.669 120.475 438.669H174.907C175.74 438.645 176.406 439.286 176.406 440.093Z" fill="#394257"/>
<g clip-path="url(#clip0)">
<path d="M841.232 75.7922C836.663 73.8566 834.333 70.7741 833.85 68.8923C832.255 62.8527 835.803 60.7558 836.806 57.9421C838.293 53.7663 831.341 49.949 831.018 44.6083C830.553 36.9557 841.877 33.6222 842.217 31.1669C842.916 26.1667 836.914 25.0735 836.824 20.9694C836.681 14.4997 843.49 15.79 845.55 11.3992C846.984 8.33456 845.694 1.41675 852.019 0.108457C855.531 -0.608415 858.039 2.74296 858.685 5.64629C859.437 8.99767 857.394 11.4171 858.559 14.2667C859.813 17.3492 866.479 20.0196 866.192 27.475C865.906 34.7871 859.993 37.7801 860.763 42.5831C861.229 45.5581 863.881 46.2212 864.741 49.3575C865.906 53.5692 862.519 55.6839 863.307 58.6052C864.221 62.082 869.041 62.0462 869.041 69.3403C869.041 73.0681 864.329 76.8854 858.111 75.7922C849.062 78.2654 842.307 76.2402 841.232 75.7922Z" fill="#9CAF49"/>
<path d="M839.529 68.6226C839.888 67.7265 840.568 67.0096 841.106 66.2032C843.167 63.1744 843.167 58.8911 841.088 55.8802C840.353 54.787 839.368 53.855 838.812 52.6722C836.268 47.1881 843.4 41.6503 841.841 36.0049C841.106 33.3884 838.544 31.1302 839.135 28.4599C839.493 26.829 840.963 25.7178 841.841 24.2841C844.923 19.2301 840.085 12.5812 841.357 8.92511C841.715 7.88564 842.683 6.98955 843.794 7.04332C845.675 7.13293 846.392 9.57029 846.231 11.4342C846.069 13.298 845.657 15.4845 846.983 16.8107C847.915 17.7606 849.384 17.886 850.657 18.352C854.079 19.6244 855.817 24.1766 854.133 27.4204C853.309 29.0154 851.857 30.1804 850.8 31.632C849.743 33.0837 849.134 35.1626 850.155 36.6322C850.997 37.8688 852.807 38.3885 853.219 39.8223C853.398 40.4495 853.273 41.1306 852.986 41.7041C852.269 43.2095 850.746 44.0877 849.474 45.163C848.22 46.2383 847.091 47.905 847.664 49.4642C848.076 50.5754 849.187 51.2385 849.994 52.0987C851.768 54.0522 851.732 57.3677 849.922 59.2854C849.277 59.9664 848.435 60.4861 847.825 61.203C847.216 61.9199 846.858 63.0131 847.36 63.8196C852.018 66.9559 854.617 67.9953 852.341 71.8485C851.284 73.6228 849.904 75.2716 848.094 76.2215C843.4 78.7305 837.451 73.8199 839.529 68.6226Z" fill="#B6CE78"/>
<path d="M840.784 76.2393L841.339 77.2967C841.339 77.2967 841.715 88.4799 844.529 88.4799H854.778C857.555 88.4799 857.967 77.4401 857.967 77.4401L858.523 76.2393C858.523 75.9884 858.326 75.7913 858.075 75.7913H841.232C840.981 75.7913 840.784 75.9884 840.784 76.2393Z" fill="#7BA9D8"/>
<path d="M845.854 76.2393L846.41 77.2967C846.41 77.2967 846.786 88.4799 849.599 88.4799H854.76C857.537 88.4799 857.949 77.4401 857.949 77.4401L858.505 76.2393C858.505 75.9884 858.308 75.7913 858.057 75.7913H846.302C846.069 75.7913 845.854 75.9884 845.854 76.2393Z" fill="#7BA9D8"/>
<path d="M878.233 88.4976H943.17C943.51 88.4976 943.797 88.2288 943.797 87.8703V73.5329C943.797 73.1924 943.528 72.9056 943.17 72.9056H878.233C877.893 72.9056 877.606 73.1745 877.606 73.5329V87.8703C877.606 88.2288 877.893 88.4976 878.233 88.4976Z" fill="#FFBF34"/>
<path d="M939.246 85.5405H905.021C904.645 85.5405 904.34 85.2358 904.34 84.8594V76.472C904.34 76.0957 904.645 75.791 905.021 75.791H939.246C939.622 75.791 939.926 76.0957 939.926 76.472V84.8594C939.944 85.2358 939.622 85.5405 939.246 85.5405Z" fill="#F3A308"/>
<path d="M888.052 84.0172C889.972 84.0172 891.529 82.5328 891.529 80.7016C891.529 78.8705 889.972 77.3861 888.052 77.3861C886.133 77.3861 884.576 78.8705 884.576 80.7016C884.576 82.5328 886.133 84.0172 888.052 84.0172Z" fill="#F3A308"/>
<path d="M909.16 84.8057C908.677 84.8057 908.3 84.4652 908.3 84.0172V77.404C908.3 76.9739 908.695 76.6155 909.16 76.6155C909.644 76.6155 910.02 76.956 910.02 77.404V84.0172C910.02 84.4473 909.626 84.8057 909.16 84.8057Z" fill="#FFBF34"/>
<path d="M912.045 84.8057C911.561 84.8057 911.185 84.4652 911.185 84.0172V77.404C911.185 76.9739 911.579 76.6155 912.045 76.6155C912.529 76.6155 912.905 76.956 912.905 77.404V84.0172C912.923 84.4473 912.529 84.8057 912.045 84.8057Z" fill="#FFBF34"/>
<path d="M914.948 84.8057C914.464 84.8057 914.088 84.4652 914.088 84.0172V77.404C914.088 76.9739 914.482 76.6155 914.948 76.6155C915.432 76.6155 915.808 76.956 915.808 77.404V84.0172C915.808 84.4473 915.414 84.8057 914.948 84.8057Z" fill="#FFBF34"/>
<path d="M878.233 71.1672H943.17C943.51 71.1672 943.797 70.8983 943.797 70.5399V56.2025C943.797 55.8619 943.528 55.5752 943.17 55.5752H878.233C877.893 55.5752 877.606 55.844 877.606 56.2025V70.5399C877.606 70.8983 877.893 71.1672 878.233 71.1672Z" fill="#FFBF34"/>
<path d="M939.246 68.21H905.021C904.645 68.21 904.34 67.9054 904.34 67.529V59.1416C904.34 58.7652 904.645 58.4606 905.021 58.4606H939.246C939.622 58.4606 939.926 58.7652 939.926 59.1416V67.529C939.944 67.9054 939.622 68.21 939.246 68.21Z" fill="#F3A308"/>
<path d="M888.052 66.7045C889.972 66.7045 891.529 65.2201 891.529 63.389C891.529 61.5579 889.972 60.0735 888.052 60.0735C886.133 60.0735 884.576 61.5579 884.576 63.389C884.576 65.2201 886.133 66.7045 888.052 66.7045Z" fill="#F3A308"/>
<path d="M909.16 67.4753C908.677 67.4753 908.3 67.1348 908.3 66.6867V60.0736C908.3 59.6435 908.695 59.285 909.16 59.285C909.644 59.285 910.02 59.6256 910.02 60.0736V66.6867C910.02 67.1169 909.626 67.4753 909.16 67.4753Z" fill="#FFBF34"/>
<path d="M912.045 67.4753C911.561 67.4753 911.185 67.1348 911.185 66.6867V60.0736C911.185 59.6435 911.579 59.285 912.045 59.285C912.529 59.285 912.905 59.6256 912.905 60.0736V66.6867C912.923 67.1169 912.529 67.4753 912.045 67.4753Z" fill="#FFBF34"/>
<path d="M914.948 67.4753C914.464 67.4753 914.088 67.1348 914.088 66.6867V60.0736C914.088 59.6435 914.482 59.285 914.948 59.285C915.432 59.285 915.808 59.6256 915.808 60.0736V66.6867C915.808 67.1169 915.414 67.4753 914.948 67.4753Z" fill="#FFBF34"/>
<path d="M943.152 54.0878H878.233C877.893 54.0878 877.606 53.819 877.606 53.4605V39.1231C877.606 38.7826 877.875 38.4958 878.233 38.4958H943.17C943.51 38.4958 943.797 38.7647 943.797 39.1231V53.4605C943.779 53.801 943.51 54.0878 943.152 54.0878Z" fill="#90E2F5"/>
<path d="M882.139 51.1306H913.712C914.088 51.1306 914.393 50.8259 914.393 50.4496V42.0622C914.393 41.6859 914.088 41.3812 913.712 41.3812H882.139C881.763 41.3812 881.458 41.6859 881.458 42.0622V50.4496C881.458 50.8259 881.763 51.1306 882.139 51.1306Z" fill="#56D1EE"/>
<path d="M934.682 49.5099C936.463 49.0891 937.567 47.3034 937.146 45.5213C936.725 43.7393 934.94 42.6358 933.158 43.0566C931.376 43.4774 930.273 45.2631 930.694 47.0452C931.114 48.8272 932.9 49.9307 934.682 49.5099Z" fill="#56D1EE"/>
<path d="M909.573 50.3779C909.089 50.3779 908.712 50.0374 908.712 49.5893V42.9762C908.712 42.5461 909.107 42.1876 909.573 42.1876C910.056 42.1876 910.433 42.5281 910.433 42.9762V49.5893C910.451 50.0374 910.056 50.3779 909.573 50.3779Z" fill="#90E2F5"/>
<path d="M906.688 50.3779C906.204 50.3779 905.828 50.0374 905.828 49.5893V42.9762C905.828 42.5461 906.222 42.1876 906.688 42.1876C907.171 42.1876 907.548 42.5281 907.548 42.9762V49.5893C907.548 50.0374 907.153 50.3779 906.688 50.3779Z" fill="#90E2F5"/>
<path d="M903.785 50.3779C903.301 50.3779 902.925 50.0374 902.925 49.5893V42.9762C902.925 42.5461 903.319 42.1876 903.785 42.1876C904.269 42.1876 904.645 42.5281 904.645 42.9762V49.5893C904.663 50.0374 904.269 50.3779 903.785 50.3779Z" fill="#90E2F5"/>
<path d="M951.018 88.5514H831.609V98.9998H951.018V88.5514Z" fill="#C8DFEE"/>
</g>
<defs>
<clipPath id="clip0">
<rect x="831" width="120" height="99" fill="white"/>
</clipPath>
</defs>
</svg>
