<svg width="1515" height="650" viewBox="0 0 1515 650" fill="none" xmlns="http://www.w3.org/2000/svg">
<path d="M32.7441 97.3064C10.2006 97.3064 10.004 81.9443 31.0341 81.5916C48.6837 81.2977 57.3709 96.0719 68.5739 94.0145C77.4576 92.3881 64.4071 61.5072 84.769 61.5072C112.442 61.5072 123.154 93.9557 142.69 93.9557C163.563 93.9557 152.282 75.5369 165.194 75.5173C172.191 75.4977 202.773 97.3064 202.773 97.3064C202.773 97.3064 80.2682 97.3064 32.7441 97.3064Z" fill="white"/>
<path d="M208.1 53.6301C208.1 53.6301 137.993 53.6301 131.055 53.6301C124.117 53.6301 116.766 42.8531 122.466 41.6187C132.391 39.4633 143.24 50.3186 149.903 50.3186C153.893 50.3186 144.616 32.86 157.844 32.1937C171.071 31.5471 208.1 53.6301 208.1 53.6301Z" fill="white"/>
<path opacity="0.6" d="M217.848 205.997V403.666H146.877V227.629L217.848 205.997Z" fill="#E7F1F6"/>
<path opacity="0.6" d="M160.143 219.87L204.562 206.35V198.316L160.143 180.916V219.87Z" fill="#E7F1F6"/>
<path d="M193.85 190.204L168.988 180.465V172.275L193.85 159.93V190.204Z" fill="url(#paint0_linear)"/>
<path opacity="0.6" d="M132 195H82V454H132V195Z" fill="#E7F1F6"/>
<path opacity="0.6" d="M76.809 225.063H5.56213V453.966H76.809V225.063Z" fill="#E7F1F6"/>
<path opacity="0.6" d="M133.472 148.389H104.266V164.614H133.472V148.389Z" fill="#E7F1F6"/>
<path opacity="0.6" d="M121.326 114.314H117.867V145.509H121.326V114.314Z" fill="#E7F1F6"/>
<path opacity="0.6" d="M95.9523 167.709V191.321H136.814V418.695H141.668C141.668 418.225 141.668 168.434 141.668 167.709H95.9523Z" fill="#E7F1F6"/>
<path opacity="0.6" d="M65.3701 208.623H17.0009V197.787C17.0009 197.787 29.7762 198.59 41.5884 188.48C56.506 175.743 65.3701 193.104 65.3701 193.104V208.623Z" fill="#E7F1F6"/>
<path opacity="0.6" d="M10.4364 221.261H71.9347V212.581H10.4364V221.261Z" fill="#E7F1F6"/>
<path d="M221.602 139.787H2.06372V145.94H221.602V139.787Z" fill="#E7F1F6"/>
<path d="M221.425 285.472H2.57471C1.13995 285.472 0 284.101 0 282.396C0 280.691 1.1596 279.32 2.57471 279.32H221.425C222.86 279.32 224 280.691 224 282.396C224 284.101 222.86 285.472 221.425 285.472Z" fill="#E7F1F6"/>
<path d="M109.16 459.57V3.07634C109.16 1.37162 110.32 0 111.754 0C113.189 0 114.329 1.37162 114.329 3.07634V459.57H109.16Z" fill="#E7F1F6"/>
<path d="M218.202 6.74057V454.847H5.287V6.74057H218.202ZM223.371 0.587891H0.11792V461H223.371V0.587891Z" fill="#E7F1F7"/>
<path d="M1504 631.454C1504 634.523 1301.77 637 1085.53 637C869.284 637 688.552 634.523 688.552 631.454C688.552 628.385 869.257 625.908 1085.5 625.908C1301.75 625.908 1504 628.385 1504 631.454Z" fill="#E9F5F9"/>
<path d="M1340.16 605.879C1342.88 605.879 1345.11 603.671 1345.11 600.925V516.311C1345.11 513.592 1342.91 511.357 1340.16 511.357C1337.42 511.357 1335.21 513.565 1335.21 516.311V600.925C1335.21 603.671 1337.45 605.879 1340.16 605.879Z" fill="#B5D7FF"/>
<path d="M1397.3 626.393C1399.35 626.393 1401.02 624.724 1401.02 622.678V613.524C1401.02 606.794 1395.1 601.329 1387.81 601.329H1292.54C1285.25 601.329 1279.34 606.794 1279.34 613.524V621.574C1279.34 623.62 1281 625.289 1283.05 625.289C1285.09 625.289 1286.76 623.62 1286.76 621.574V613.524C1286.76 610.886 1289.37 608.759 1292.54 608.759H1387.81C1391.01 608.759 1393.59 610.913 1393.59 613.524V622.678C1393.59 624.724 1395.26 626.393 1397.3 626.393Z" fill="#B5D7FF"/>
<path d="M1407.23 621.412C1407.23 621.547 1407.23 621.655 1407.23 621.789C1407.04 626.151 1403.44 629.65 1399 629.65C1394.45 629.65 1390.77 625.962 1390.77 621.412C1390.77 620.659 1390.87 619.932 1391.06 619.259C1392 615.759 1395.21 613.201 1399 613.201C1403.55 613.201 1407.23 616.863 1407.23 621.412Z" fill="#B5D7FF"/>
<path d="M1287.51 621.412C1287.51 625.962 1283.83 629.65 1279.28 629.65C1274.74 629.65 1271.05 625.962 1271.05 621.412C1271.05 621.305 1271.05 621.197 1271.05 621.089C1271.24 616.701 1274.84 613.201 1279.28 613.201C1283.21 613.201 1286.46 615.947 1287.3 619.609C1287.43 620.174 1287.51 620.793 1287.51 621.412Z" fill="#B5D7FF"/>
<path d="M1353.78 475.848H1390.44C1396.71 475.848 1402.01 471.217 1402.87 465.025L1415.52 373.923C1416.57 366.385 1410.7 359.628 1403.09 359.628H1358C1351.3 359.628 1345.79 364.905 1345.46 371.608L1341.24 462.71C1340.92 469.871 1346.62 475.848 1353.78 475.848Z" fill="#7BA9D8"/>
<path d="M1285.5 523.741H1394.86C1398.94 523.741 1402.28 520.43 1402.28 516.311C1402.28 512.192 1398.97 508.881 1394.86 508.881H1285.5C1281.41 508.881 1278.07 512.192 1278.07 516.311C1278.07 520.43 1281.38 523.741 1285.5 523.741Z" fill="#7BA9D8"/>
<path d="M1369.67 621.412C1369.67 625.962 1365.99 629.65 1361.44 629.65C1356.98 629.65 1353.34 626.096 1353.21 621.681C1353.21 621.601 1353.21 621.493 1353.21 621.412C1353.21 616.862 1356.9 613.174 1361.44 613.174C1365.05 613.174 1368.11 615.489 1369.22 618.72C1369.54 619.581 1369.67 620.47 1369.67 621.412Z" fill="#B5D7FF"/>
<path d="M1361.44 622.489C1363.49 622.489 1365.16 620.82 1365.16 618.774V605.044C1365.16 602.998 1363.49 601.329 1361.44 601.329C1359.4 601.329 1357.73 602.998 1357.73 605.044V618.774C1357.76 620.82 1359.4 622.489 1361.44 622.489Z" fill="#B5D7FF"/>
<path d="M1329.51 621.412C1329.51 625.962 1325.82 629.65 1321.28 629.65C1316.92 629.65 1313.34 626.231 1313.07 621.924C1313.07 621.762 1313.04 621.574 1313.04 621.412C1313.04 616.863 1316.73 613.174 1321.28 613.174C1325.02 613.174 1328.19 615.678 1329.19 619.097C1329.4 619.851 1329.51 620.632 1329.51 621.412Z" fill="#B5D7FF"/>
<path d="M1321.28 623.97C1323.32 623.97 1324.99 622.301 1324.99 620.255V605.017C1324.99 602.971 1323.32 601.302 1321.28 601.302C1319.23 601.302 1317.56 602.971 1317.56 605.017V620.228C1317.56 622.301 1319.23 623.97 1321.28 623.97Z" fill="#B5D7FF"/>
<path d="M1329.51 621.412C1329.51 625.962 1325.82 629.65 1321.28 629.65C1316.92 629.65 1313.34 626.231 1313.07 621.924L1329.19 619.097C1329.4 619.851 1329.51 620.632 1329.51 621.412Z" fill="#729DD8"/>
<path d="M1369.67 621.412C1369.67 625.962 1365.99 629.65 1361.44 629.65C1356.98 629.65 1353.34 626.097 1353.21 621.682L1369.22 618.72C1369.54 619.582 1369.67 620.47 1369.67 621.412Z" fill="#729DD8"/>
<path d="M1407.23 621.789C1407.04 626.151 1403.44 629.65 1399 629.65C1394.45 629.65 1390.77 625.962 1390.77 621.412C1390.77 620.659 1390.87 619.932 1391.06 619.259L1407.23 621.789Z" fill="#729DD8"/>
<path d="M1287.51 621.412C1287.51 625.962 1283.83 629.65 1279.28 629.65C1274.74 629.65 1271.05 625.962 1271.05 621.412C1271.05 621.304 1271.05 621.197 1271.05 621.089L1287.3 619.581C1287.43 620.174 1287.51 620.793 1287.51 621.412Z" fill="#729DD8"/>
<path d="M1366.23 531.737H1312.86C1310.95 531.737 1309.41 530.202 1309.41 528.291V523.58H1369.67V528.291C1369.67 530.176 1368.14 531.737 1366.23 531.737Z" fill="#729DD8"/>
<path d="M1347.18 595.352V567.031C1347.18 565.281 1345.76 563.854 1344.01 563.854H1336.18C1334.43 563.854 1333.01 565.281 1333.01 567.031V595.352C1333.01 597.102 1331.58 598.529 1329.83 598.529H1315.9C1314.15 598.529 1312.72 599.956 1312.72 601.706V607.574C1312.72 609.324 1314.15 610.751 1315.9 610.751H1365.69C1367.44 610.751 1368.87 609.324 1368.87 607.574V601.706C1368.87 599.956 1367.44 598.529 1365.69 598.529H1350.36C1348.61 598.529 1347.18 597.102 1347.18 595.352Z" fill="#729DD8"/>
<path d="M1347.02 528.722C1347.02 528.722 1347 529.395 1346.97 530.606C1346.94 531.198 1346.94 531.925 1346.91 532.76C1346.91 532.868 1346.91 532.975 1346.91 533.083V533.245V533.325V533.379V533.406V533.514V533.675V533.729V533.81L1346.94 533.998C1346.94 534.052 1346.97 534.133 1346.97 534.187L1347 534.348C1347.02 534.456 1347.05 534.537 1347.08 534.644C1347.32 535.425 1347.86 536.179 1348.64 536.664C1349.01 536.906 1349.47 537.094 1349.93 537.175C1350.04 537.202 1350.17 537.202 1350.28 537.229L1350.52 537.256C1350.65 537.256 1350.79 537.283 1350.92 537.283C1351.49 537.337 1352.05 537.39 1352.62 537.444C1353.8 537.552 1355.04 537.66 1356.3 537.767C1358.86 537.983 1361.58 538.225 1364.32 538.467C1375.24 539.437 1386.14 540.406 1386.14 540.406C1387.56 540.54 1388.83 539.463 1388.96 538.037C1389.1 536.61 1388.02 535.344 1386.6 535.21C1386.54 535.21 1386.52 535.21 1386.46 535.21C1386.46 535.21 1375.51 534.806 1364.56 534.375C1361.82 534.268 1359.1 534.16 1356.52 534.079C1355.23 534.025 1353.99 533.971 1352.83 533.945C1352.24 533.918 1351.68 533.891 1351.11 533.891C1350.98 533.891 1350.84 533.891 1350.71 533.864H1350.6H1350.55H1350.52C1350.49 533.864 1350.49 533.864 1350.47 533.864C1350.41 533.864 1350.36 533.837 1350.3 533.837C1350.2 533.783 1350.12 533.702 1350.06 533.595C1350.06 533.595 1350.06 533.568 1350.04 533.568V533.541V533.514V533.352C1350.04 533.164 1350.04 532.975 1350.01 532.787C1349.98 531.952 1349.98 531.225 1349.95 530.633C1349.93 529.422 1349.9 528.749 1349.9 528.749C1349.87 527.941 1349.2 527.268 1348.37 527.295C1347.67 527.295 1347.02 527.941 1347.02 528.722Z" fill="#729DD8"/>
<path d="M1191.71 605.313C1191.71 605.313 1193.65 627.281 1191.18 627.47C1177.56 628.385 1177.86 623.862 1168.98 621.062C1161.31 618.639 1156.66 618.909 1153.97 617.67C1148.37 615.113 1143.91 612.367 1143.29 611.209C1140.97 607.036 1155.82 605.959 1157.98 606.875C1160.13 607.79 1179.53 600.898 1179.53 600.898L1191.71 605.313Z" fill="#C97B44"/>
<path d="M1399.89 402.918C1403.22 420.309 1409.11 445.804 1402.77 448.496C1393.7 452.346 1352.48 425.505 1352.48 425.505C1352.48 425.505 1370.54 423.54 1371.32 421.655C1371.53 421.09 1370.83 416.836 1369.7 411.129C1367.07 397.776 1396.34 384.342 1399.89 402.918Z" fill="#F7B690"/>
<path d="M1213.88 464.999C1219.99 459.372 1290.34 457.542 1297.47 455.792C1304.6 454.015 1339.81 464.891 1339.81 464.891C1348.04 477.006 1357.89 495.797 1356.12 503.873C1355.01 508.962 1283.16 504.681 1244.5 504.385C1244.63 504.546 1247.08 528.48 1241.56 540.81C1236.02 553.194 1210.49 595.891 1198.44 607.979C1197.31 609.136 1179.53 600.845 1179.53 600.845C1179.53 600.845 1204.46 473.694 1213.88 464.999Z" fill="#422A4F"/>
<path d="M1254.24 483.548C1260.66 477.356 1313.04 466.83 1327.76 464.891C1335.05 463.922 1370.11 464.891 1370.11 464.891C1378.34 477.006 1380.36 497.305 1378.58 505.408C1377.26 511.492 1319.37 509.715 1286.81 509.096C1290.9 515.288 1295.64 526.676 1296.53 533.272C1298.41 547.298 1285.01 605.637 1285.01 605.637H1264.05C1264.08 605.61 1245.84 491.624 1254.24 483.548Z" fill="#422A4F"/>
<path d="M1392.11 360.194C1400.77 372.227 1409.87 409.433 1409.06 413.04C1407.1 422.113 1372.8 422.059 1372.8 422.059C1372.8 422.059 1382.56 495.851 1381.57 499.054C1380.57 502.258 1361.44 472.268 1334.06 466.722C1322.11 464.299 1296.39 458.511 1291.76 459.722C1287.14 460.934 1289.99 418.532 1289.99 418.532C1289.99 418.532 1267.9 420.417 1264.35 416.486C1260.21 411.91 1276.67 361.055 1285.31 353.975C1294.08 346.76 1323.35 339.168 1323.35 339.168H1349.31C1349.31 339.195 1382.53 346.867 1392.11 360.194Z" fill="#A0AD58"/>
<path d="M1276.97 605.61C1277.16 609.244 1277.72 611.236 1278.99 614.898C1279.36 616.028 1287.24 629.651 1283.91 629.651C1277.8 629.651 1257.22 629.651 1252.03 629.651C1248.37 629.651 1253.02 623.378 1256.39 621.413C1259.51 619.582 1264.08 605.61 1264.08 605.61C1264.08 605.61 1268.25 600.522 1276.97 605.61Z" fill="#C97B44"/>
<path d="M1373.06 420.121C1373.17 420.121 1373.28 420.094 1373.39 420.067C1373.82 419.878 1374.03 419.394 1373.87 418.936C1372.66 415.975 1369.08 395.299 1369.97 386.011C1370.02 385.527 1369.67 385.123 1369.19 385.069C1368.71 385.015 1368.3 385.365 1368.25 385.85C1367.36 395.138 1370.8 416.002 1372.28 419.609C1372.42 419.932 1372.74 420.121 1373.06 420.121Z" fill="#869E55"/>
<path d="M1329.05 436.274C1338.14 433.797 1366.31 421.655 1374.27 421.655C1390.79 421.655 1403.28 438.05 1404.59 445.292C1406.64 456.357 1328.46 448.819 1328.46 448.819L1329.05 436.274Z" fill="#F7B690"/>
<path d="M1310.06 282.875C1308.85 284.598 1310.33 287.479 1313.91 288.125C1308.52 289.632 1306.26 291.274 1306.64 293.59C1307.1 296.363 1309.41 296.524 1312.43 296.093C1310.27 311.062 1321.12 327.161 1325.39 315.235C1328.08 307.697 1339.54 321.777 1339.76 322.88C1340.54 327.161 1348.58 306.243 1348.07 294.263C1347.7 285.863 1334.41 277.545 1327.57 279.268C1325.93 279.671 1326.44 282.579 1328.43 284.329C1319.07 279.483 1311.32 281.098 1310.06 282.875Z" fill="#222B54"/>
<path d="M1350.22 335.722C1350.22 335.722 1346.24 331.576 1332.09 331.576C1319.85 331.576 1316.35 335.722 1316.35 335.722L1324.18 346.006C1328.59 351.794 1337.23 351.902 1341.78 346.248L1350.22 335.722Z" fill="#869E55"/>
<path d="M1342.77 311.896C1342.29 327.726 1345.54 338.387 1346.22 341.591L1342.5 345.467C1336.66 351.579 1326.9 351.579 1321.06 345.467L1316.97 341.187C1319.23 337.122 1321.46 326.892 1318.91 315.477C1316.33 304.035 1336.32 318.869 1342.77 311.896Z" fill="#F7B690"/>
<path d="M1343.07 306.754C1340.03 306.458 1340.78 312.219 1340.19 312.3C1338.82 312.435 1337.96 303.524 1337.69 298.22C1335.19 298.813 1321.98 300.966 1314.47 297.709C1312.96 299.378 1311.56 322.907 1315.9 329.503C1317.46 331.872 1321.12 334.376 1324.07 334.376C1333.97 334.376 1338.23 328.345 1339.44 325.438C1340.7 322.45 1340.46 318.142 1340.75 316.877C1343.66 317.065 1344.87 306.943 1343.07 306.754Z" fill="#F7B690"/>
<path d="M1339.97 327.08C1336.72 335.103 1325.58 336.341 1318.75 334.376C1313.07 332.734 1310.19 326.838 1313.04 319.407C1313.26 318.815 1313.02 317.846 1313.21 317.981C1317.43 320.996 1328.59 321.427 1335.21 317.092C1339.54 314.265 1338.87 310.362 1338.47 306.97C1338.06 303.578 1341.61 304.897 1340.89 308.585C1340.19 312.3 1341.7 322.827 1339.97 327.08Z" fill="#222B54"/>
<path d="M1350.22 335.722L1357.43 342.506L1344.41 356.344L1332.5 350.044L1350.22 335.722Z" fill="#A0AD58"/>
<path d="M1316.35 335.722L1309.47 344.767L1319.69 354.809L1332.17 350.098L1316.35 335.722Z" fill="#A0AD58"/>
<path d="M1344.6 357.205L1331.85 351.013L1332.44 349.802L1344.2 355.509L1355.42 340.837L1356.49 341.645L1344.6 357.205Z" fill="#869E55"/>
<path d="M1332.5 376.589H1325.8V375.243H1331.15V351.713L1319.55 355.321L1309.39 344.418L1310.38 343.502L1319.96 353.786L1332.5 349.883V376.589Z" fill="#869E55"/>
<path d="M1332.28 313.538H1329.16C1327.49 313.538 1326.09 312.354 1325.8 310.685L1325.07 306.189C1324.96 305.57 1325.37 304.977 1325.98 304.87L1326.28 304.816C1327.73 304.52 1329.21 304.358 1330.69 304.358H1330.88C1332.55 304.358 1334.22 304.574 1335.83 304.977C1336.45 305.139 1336.83 305.758 1336.66 306.377L1335.59 310.954C1335.24 312.462 1333.87 313.538 1332.28 313.538ZM1326.41 306.135L1327.14 310.469C1327.3 311.465 1328.16 312.192 1329.16 312.192H1332.28C1333.25 312.192 1334.06 311.546 1334.27 310.604L1335.32 306.216C1333.87 305.866 1332.36 305.677 1330.88 305.677H1330.69C1329.29 305.677 1327.92 305.812 1326.55 306.108L1326.41 306.135Z" fill="white"/>
<path d="M1318.24 313.539H1315.12C1313.53 313.539 1312.18 312.462 1311.81 310.927L1310.73 306.351C1310.6 305.731 1310.97 305.112 1311.56 304.951C1313.18 304.547 1314.85 304.331 1316.51 304.331H1316.7C1318.18 304.331 1319.66 304.493 1321.12 304.789L1321.41 304.843C1322.03 304.978 1322.43 305.543 1322.33 306.162L1321.57 310.685C1321.3 312.327 1319.9 313.539 1318.24 313.539ZM1312.05 306.216L1313.1 310.604C1313.31 311.546 1314.15 312.192 1315.09 312.192H1318.21C1319.21 312.192 1320.07 311.466 1320.23 310.47L1320.95 306.135L1320.82 306.108C1319.45 305.812 1318.08 305.677 1316.68 305.677H1316.49C1315.01 305.677 1313.5 305.866 1312.05 306.216Z" fill="white"/>
<path d="M1325.72 306.108H1321.55V307.454H1325.72V306.108Z" fill="white"/>
<path d="M1343.85 309.231C1343.07 307.616 1342.1 306.889 1340.65 306.889H1336.02V305.543H1340.65C1342.61 305.543 1344.04 306.566 1345.06 308.666L1343.85 309.231Z" fill="white"/>
<path d="M1327.68 360.032C1326.41 360.032 1325.39 359.009 1325.39 357.743C1325.39 356.478 1326.41 355.455 1327.68 355.455C1328.94 355.455 1329.97 356.478 1329.97 357.743C1329.97 359.009 1328.94 360.032 1327.68 360.032ZM1327.68 356.828C1327.17 356.828 1326.74 357.259 1326.74 357.77C1326.74 358.282 1327.17 358.713 1327.68 358.713C1328.19 358.713 1328.62 358.282 1328.62 357.77C1328.62 357.232 1328.19 356.828 1327.68 356.828Z" fill="#869E55"/>
<path d="M1327.68 365.981C1326.41 365.981 1325.39 364.958 1325.39 363.693C1325.39 362.428 1326.41 361.405 1327.68 361.405C1328.94 361.405 1329.97 362.428 1329.97 363.693C1329.97 364.958 1328.94 365.981 1327.68 365.981ZM1327.68 362.778C1327.17 362.778 1326.74 363.208 1326.74 363.72C1326.74 364.231 1327.17 364.662 1327.68 364.662C1328.19 364.662 1328.62 364.231 1328.62 363.72C1328.62 363.181 1328.19 362.778 1327.68 362.778Z" fill="#869E55"/>
<path d="M1327.68 371.931C1326.41 371.931 1325.39 370.908 1325.39 369.643C1325.39 368.378 1326.41 367.354 1327.68 367.354C1328.94 367.354 1329.97 368.378 1329.97 369.643C1329.97 370.908 1328.94 371.931 1327.68 371.931ZM1327.68 368.727C1327.17 368.727 1326.74 369.158 1326.74 369.67C1326.74 370.181 1327.17 370.612 1327.68 370.612C1328.19 370.612 1328.62 370.181 1328.62 369.67C1328.62 369.158 1328.19 368.727 1327.68 368.727Z" fill="#869E55"/>
<path d="M1250.66 504.95C1250.63 504.654 1250.25 497.87 1250.95 490.413C1251.92 480.048 1254.5 473.721 1258.59 471.621C1272.42 464.568 1307.13 463.437 1308.58 463.41L1308.66 466.102C1308.58 466.102 1299.65 466.399 1289.18 467.502C1275.43 468.983 1265.27 471.244 1259.8 474.017C1256.68 475.606 1254.48 481.528 1253.62 490.655C1252.94 497.924 1253.32 504.708 1253.32 504.789L1250.66 504.95Z" fill="#31203B"/>
<path d="M1165.35 611.182C1165.08 611.182 1164.84 611.021 1164.73 610.751C1163.47 607.575 1159.81 606.875 1159.75 606.875C1159.38 606.821 1159.13 606.471 1159.21 606.094C1159.27 605.717 1159.62 605.475 1159.99 605.556C1160.18 605.582 1164.43 606.39 1165.97 610.267C1166.1 610.617 1165.94 610.994 1165.59 611.128C1165.51 611.182 1165.43 611.182 1165.35 611.182Z" fill="white"/>
<path d="M1171.27 608.759C1171 608.759 1170.76 608.598 1170.65 608.329C1169.38 605.152 1165.73 604.452 1165.67 604.452C1165.29 604.398 1165.05 604.048 1165.13 603.671C1165.19 603.294 1165.54 603.052 1165.91 603.133C1166.1 603.16 1170.35 603.967 1171.89 607.844C1172.02 608.194 1171.86 608.571 1171.51 608.705C1171.43 608.759 1171.35 608.759 1171.27 608.759Z" fill="white"/>
<path d="M1272.42 618.451C1272.37 618.451 1272.29 618.451 1272.23 618.424C1267.74 617.051 1264.24 617.105 1262.12 617.401C1259.8 617.724 1258.54 618.37 1258.54 618.37C1258.22 618.532 1257.81 618.424 1257.62 618.074C1257.46 617.751 1257.57 617.347 1257.89 617.159C1258.11 617.051 1263.44 614.332 1272.61 617.105C1272.96 617.213 1273.17 617.589 1273.07 617.939C1272.99 618.262 1272.72 618.451 1272.42 618.451Z" fill="white"/>
<path d="M1271.61 614.144C1271.53 614.144 1271.45 614.144 1271.4 614.117C1263.44 611.317 1260.61 613.928 1260.58 613.955C1260.32 614.225 1259.88 614.198 1259.64 613.928C1259.37 613.659 1259.4 613.228 1259.67 612.986C1259.8 612.852 1263.11 609.782 1271.86 612.825C1272.21 612.959 1272.39 613.336 1272.26 613.686C1272.15 613.982 1271.91 614.144 1271.61 614.144Z" fill="white"/>
<path d="M1294.72 416.19C1286.11 403.483 1272.74 386.523 1263.01 373.601C1261.07 371.016 1256.12 366.87 1254.67 365.524C1252.46 363.37 1250.85 361.567 1249.82 360.786C1241.32 354.271 1231.21 361.513 1231.34 366.816C1231.39 368.809 1231.69 371.501 1233.28 372.766C1234.41 373.654 1236.24 369.159 1237.37 370.02C1239.84 371.878 1240.49 376.777 1244.33 378.312C1248.05 379.793 1250.63 379.873 1253.19 380.277C1254.37 380.466 1255.47 380.25 1256.41 379.739C1258.38 401.814 1254.26 429.84 1262.95 439.72C1282.51 461.957 1305.65 432.343 1294.72 416.19Z" fill="#F5B58F"/>
<path d="M1242.32 344.741L1231.99 390.211C1231.88 390.669 1231.45 390.938 1230.99 390.83C1230.56 390.723 1230.26 390.292 1230.37 389.861L1239.63 344.148C1239.79 343.395 1240.51 342.91 1241.27 343.072C1242.02 343.233 1242.51 343.96 1242.34 344.714C1242.32 344.714 1242.32 344.741 1242.32 344.741Z" fill="#4B689D"/>
<path d="M1251.28 348.025L1230.61 389.807C1230.4 390.211 1229.92 390.4 1229.51 390.184C1229.11 389.996 1228.95 389.484 1229.13 389.08L1248.8 346.814C1249.12 346.114 1249.96 345.818 1250.63 346.141C1251.33 346.464 1251.63 347.298 1251.3 347.971C1251.28 347.998 1251.28 347.998 1251.28 348.025Z" fill="#4B689D"/>
<path d="M1253.4 376.319C1246.51 376.158 1244.79 371.501 1241.94 369.024C1239.12 366.574 1230.48 363.72 1233.22 361.647C1235.11 360.22 1244.01 366.682 1246.97 365.47L1253.4 376.319Z" fill="#F5B58F"/>
<path d="M1247.32 375.458C1245.6 374.381 1244.39 372.981 1243.34 371.716C1242.69 370.962 1242.08 370.235 1241.43 369.67C1240.54 368.889 1238.93 368.028 1237.37 367.193C1234.49 365.632 1232.01 364.312 1231.88 362.67C1231.85 362.239 1231.96 361.593 1232.74 361.001C1233.98 360.059 1236.24 361.001 1239.82 362.616C1242.34 363.774 1245.49 365.201 1246.68 364.716C1247.11 364.555 1247.59 364.743 1247.75 365.174C1247.91 365.605 1247.72 366.089 1247.29 366.251C1245.44 367.005 1242.37 365.605 1239.12 364.124C1237.31 363.316 1234.3 361.943 1233.74 362.32C1233.57 362.428 1233.55 362.509 1233.55 362.536C1233.55 362.536 1233.57 362.913 1234.73 363.72C1235.65 364.366 1236.91 365.039 1238.15 365.712C1239.79 366.601 1241.48 367.516 1242.51 368.405C1243.26 369.051 1243.9 369.831 1244.6 370.639C1246.59 372.954 1248.64 375.377 1253.43 375.485C1253.89 375.485 1254.26 375.889 1254.24 376.346C1254.24 376.804 1253.83 377.181 1253.37 377.154C1250.79 377.1 1248.85 376.4 1247.32 375.458Z" fill="#E8947B"/>
<path d="M1336.23 434.308C1334.97 428.466 1330.61 424.32 1327.84 422.974C1325.07 421.655 1320.98 422.867 1320.98 422.867C1320.98 422.867 1319.74 431.535 1320.98 434.147C1322.22 436.758 1330.05 443.731 1330.05 443.731C1330.05 443.731 1337.39 439.666 1336.23 434.308Z" fill="#F5B58F"/>
<path d="M1280.79 447.688H1325.39L1328.49 414.252H1277.69L1280.79 447.688Z" fill="#FF533F"/>
<path d="M1277.69 414.252L1281.41 395.487L1310.62 393.038L1325.31 414.252H1277.69Z" fill="#F0726E"/>
<path d="M1277.69 414.252L1265.83 397.695L1271.78 394.545L1279.85 414.252H1277.69Z" fill="#E5403A"/>
<path d="M1328.49 414.252L1341.4 397.695L1337.34 395.487L1327.01 414.252H1328.49Z" fill="#E5403A"/>
<path d="M1279.85 414.252L1295.42 396.564L1324.29 395.487L1327.01 414.252H1279.85Z" fill="#E5403A"/>
<path d="M1336.23 445.857C1334.67 449.411 1308.63 448.603 1307.45 446.45C1306.43 444.565 1316.76 445.938 1317.56 443.758C1318.37 441.577 1300 443.058 1300.27 440.877C1300.53 438.696 1315.36 439.342 1315.87 437.7C1316.38 436.058 1297.82 435.896 1298.89 433.07C1299.97 430.243 1313.64 434.12 1314.42 432.101C1315.2 430.081 1302.53 425.532 1304.7 422.893C1306.05 421.251 1313.31 425.747 1318.21 427.874C1322.57 429.758 1326.95 430.216 1326.95 430.216L1336.23 445.857Z" fill="#F5B58F"/>
<path d="M1218.4 426.286C1223.67 426.286 1227.36 421.978 1226.63 416.702L1214.23 328.884C1213.48 323.607 1208.58 319.3 1203.31 319.3H1090.45C1085.18 319.3 1081.49 323.607 1082.22 328.884L1094.62 416.702C1095.37 421.978 1100.27 426.286 1105.54 426.286H1218.4Z" fill="#758798"/>
<path d="M1213.24 426.286C1218.51 426.286 1222.19 421.978 1221.47 416.702L1209.07 328.884C1208.31 323.607 1203.42 319.3 1198.14 319.3H1085.29C1080.01 319.3 1076.33 323.607 1077.05 328.884L1089.46 416.702C1090.21 421.978 1095.11 426.286 1100.38 426.286H1213.24Z" fill="#616D7D"/>
<path d="M1129.89 447.688H1158.46L1170.08 404.506H1141.49L1129.89 447.688Z" fill="#616D7D"/>
<path d="M1125.67 447.688H1154.26L1165.86 404.506H1137.26L1125.67 447.688Z" fill="#7590A2"/>
<path d="M1114.21 443.462H1180.49C1181.65 443.462 1182.62 444.404 1182.62 445.588C1182.62 446.746 1181.68 447.715 1180.49 447.715H1114.21C1113.05 447.715 1112.08 446.773 1112.08 445.588C1112.08 444.404 1113.05 443.462 1114.21 443.462Z" fill="#758798"/>
<path d="M1170.08 404.506L1173.18 426.286H1164.25L1170.08 404.506Z" fill="#616D7D"/>
<path d="M947.706 604.452C950.423 604.452 952.629 602.244 952.629 599.525V515.126C952.629 512.407 950.423 510.2 947.706 510.2C944.988 510.2 942.782 512.407 942.782 515.126V599.525C942.782 602.217 944.988 604.452 947.706 604.452Z" fill="#9797C2"/>
<path d="M1004.69 624.885C1006.73 624.885 1008.37 623.216 1008.37 621.197V612.07C1008.37 605.367 1002.45 599.902 995.189 599.902H900.222C892.959 599.902 887.04 605.367 887.04 612.07V620.093C887.04 622.139 888.708 623.781 890.726 623.781C892.77 623.781 894.411 622.112 894.411 620.093V612.07C894.411 609.432 896.994 607.305 900.195 607.305H995.189C998.363 607.305 1000.97 609.432 1000.97 612.07V621.197C1001 623.216 1002.64 624.885 1004.69 624.885Z" fill="#9797C2"/>
<path d="M1014.59 619.932C1014.59 620.066 1014.59 620.174 1014.59 620.308C1014.4 624.67 1010.79 628.143 1006.38 628.143C1001.83 628.143 998.175 624.454 998.175 619.932C998.175 619.178 998.283 618.451 998.471 617.778C999.413 614.278 1002.61 611.72 1006.38 611.72C1010.93 611.72 1014.59 615.409 1014.59 619.932Z" fill="#9797C2"/>
<path d="M895.191 619.932C895.191 624.481 891.506 628.143 886.986 628.143C882.44 628.143 878.781 624.454 878.781 619.932C878.781 619.824 878.781 619.716 878.781 619.608C878.969 615.22 882.547 611.72 886.986 611.72C890.887 611.72 894.169 614.44 895.003 618.101C895.111 618.693 895.191 619.312 895.191 619.932Z" fill="#9797C2"/>
<path d="M961.507 472.294H998.068C1004.31 472.294 1009.61 467.69 1010.47 461.499L1023.09 370.666C1024.14 363.128 1018.3 356.424 1010.68 356.424H965.704C959.032 356.424 953.517 361.674 953.194 368.377L948.997 459.21C948.674 466.344 954.351 472.294 961.507 472.294Z" fill="#6370C7"/>
<path d="M896.133 522.529H1002.24C1006.33 522.529 1009.64 519.218 1009.64 515.126C1009.64 511.034 1006.33 507.723 1002.24 507.723H896.133C892.044 507.723 888.735 511.034 888.735 515.126C888.735 519.218 892.044 522.529 896.133 522.529Z" fill="#6370C7"/>
<path d="M977.137 619.931C977.137 624.481 973.451 628.142 968.932 628.142C964.493 628.142 960.861 624.616 960.726 620.201C960.726 620.12 960.726 620.012 960.726 619.931C960.726 615.382 964.412 611.72 968.932 611.72C972.537 611.72 975.577 614.036 976.707 617.266C977.003 618.101 977.137 618.989 977.137 619.931Z" fill="#9797C2"/>
<path d="M968.932 620.981C970.976 620.981 972.618 619.312 972.618 617.293V603.59C972.618 601.544 970.95 599.902 968.932 599.902C966.887 599.902 965.246 601.571 965.246 603.59V617.293C965.246 619.339 966.887 620.981 968.932 620.981Z" fill="#9797C2"/>
<path d="M937.079 619.931C937.079 624.481 933.393 628.142 928.874 628.142C924.515 628.142 920.937 624.75 920.668 620.443C920.668 620.281 920.641 620.093 920.641 619.931C920.641 615.382 924.327 611.72 928.847 611.72C932.586 611.72 935.734 614.224 936.729 617.643C936.971 618.37 937.079 619.151 937.079 619.931Z" fill="#9FB6BE"/>
<path d="M928.874 622.462C930.918 622.462 932.559 620.793 932.559 618.774V603.59C932.559 601.544 930.891 599.902 928.874 599.902C926.829 599.902 925.188 601.571 925.188 603.59V618.774C925.161 620.82 926.829 622.462 928.874 622.462Z" fill="#9FB6BE"/>
<path d="M937.079 619.931C937.079 624.481 933.393 628.142 928.874 628.142C924.515 628.142 920.937 624.75 920.668 620.443L936.756 617.643C936.971 618.37 937.079 619.151 937.079 619.931Z" fill="#406985"/>
<path d="M977.137 619.932C977.137 624.481 973.451 628.143 968.932 628.143C964.493 628.143 960.861 624.616 960.726 620.201L976.707 617.266C977.003 618.101 977.137 618.989 977.137 619.932Z" fill="#4B4B6D"/>
<path d="M1014.59 620.308C1014.4 624.67 1010.79 628.143 1006.38 628.143C1001.83 628.143 998.175 624.454 998.175 619.932C998.175 619.178 998.283 618.451 998.471 617.778L1014.59 620.308Z" fill="#4B4B6D"/>
<path d="M895.191 619.931C895.191 624.481 891.506 628.143 886.986 628.143C882.44 628.143 878.781 624.454 878.781 619.931C878.781 619.824 878.781 619.716 878.781 619.608L894.976 618.128C895.111 618.693 895.191 619.312 895.191 619.931Z" fill="#4B4B6D"/>
<path d="M973.694 529.987H920.507C918.597 529.987 917.063 528.452 917.063 526.541V521.83H977.164V526.514C977.137 528.425 975.604 529.987 973.694 529.987Z" fill="#4B4B6D"/>
<path d="M954.727 593.952V565.712C954.727 563.962 953.301 562.562 951.58 562.562H943.778C942.029 562.562 940.63 563.989 940.63 565.712V593.952C940.63 595.702 939.204 597.102 937.483 597.102H923.601C921.852 597.102 920.453 598.529 920.453 600.252V606.121C920.453 607.871 921.879 609.271 923.601 609.271H973.263C975.012 609.271 976.411 607.844 976.411 606.121V600.252C976.411 598.502 974.985 597.102 973.263 597.102H957.929C956.126 597.102 954.727 595.702 954.727 593.952Z" fill="#4B4B6D"/>
<path d="M954.539 527.483C954.539 527.483 954.512 528.156 954.485 529.367C954.458 529.96 954.458 530.687 954.431 531.521C954.431 531.629 954.431 531.737 954.431 531.844V532.006V532.086V532.14V532.167V532.275V532.436V532.49V532.571L954.458 532.76C954.458 532.813 954.485 532.894 954.485 532.948L954.512 533.11C954.539 533.217 954.566 533.298 954.593 533.406C954.835 534.186 955.373 534.94 956.153 535.425C956.53 535.667 956.987 535.856 957.444 535.936C957.552 535.963 957.687 535.963 957.794 535.99L958.036 536.017C958.171 536.017 958.305 536.044 958.44 536.044C958.978 536.098 959.57 536.152 960.135 536.205C961.291 536.313 962.529 536.421 963.82 536.529C966.376 536.744 969.093 536.986 971.81 537.228C982.679 538.198 993.575 539.167 993.575 539.167C995.001 539.301 996.265 538.252 996.373 536.825C996.507 535.398 995.458 534.133 994.032 534.025C993.978 534.025 993.951 534.025 993.898 534.025C993.898 534.025 982.975 533.621 972.053 533.19C969.335 533.083 966.591 532.975 964.036 532.894C962.744 532.84 961.507 532.786 960.35 532.76C959.758 532.733 959.193 532.706 958.628 532.706C958.494 532.706 958.359 532.706 958.225 532.679H958.117H958.063H958.036C958.009 532.679 958.009 532.679 957.982 532.679C957.929 532.679 957.875 532.652 957.821 532.652C957.713 532.598 957.633 532.517 957.579 532.41C957.579 532.41 957.579 532.383 957.552 532.383V532.356V532.329V532.167C957.552 531.979 957.552 531.79 957.525 531.602C957.498 530.767 957.498 530.04 957.471 529.448C957.444 528.264 957.417 527.564 957.417 527.564C957.391 526.756 956.718 526.11 955.911 526.11C955.185 526.056 954.566 526.702 954.539 527.483Z" fill="#4B4B6D"/>
<path d="M925.645 301.37C931.887 293.778 945.069 290.978 954.835 301.72C955.238 302.151 958.251 302.097 960.188 303.632C965.031 307.401 962.072 316.688 963.444 319.192C966.026 323.93 974.312 325.276 976.922 329.53C981.415 336.853 975.55 340.325 976.195 347.11C976.734 352.575 988.14 354.244 988.382 364.016C988.625 374.004 977.756 381.408 973.156 382.996C968.528 384.557 918.516 388.946 912.866 386.253C907.728 383.777 891.264 381.731 890.564 370.827C889.918 360.543 896.859 361.701 898.716 354.459C899.899 349.802 896.671 345.656 901.89 339.599C907.701 332.841 916.902 333.622 918.973 329.934C921.126 326.111 917.413 311.358 925.645 301.37Z" fill="#222B56"/>
<path d="M848.112 382.162C860.352 401.033 874.907 420.794 877.947 418.802C888.681 411.775 905.63 358.955 911.763 358.444C918.22 357.905 916.364 378.285 916.445 383.211C916.552 389.242 893.739 442.546 879.157 442.546C860.46 442.546 842.462 389.511 841.655 387.411C840.821 385.311 846.686 379.954 848.112 382.162Z" fill="#F7B690"/>
<path d="M1010.28 442.762C1010.28 412.071 978.213 358.982 971.487 359.009C963.739 359.036 963.551 389.592 967.318 394.868C974.716 405.233 988.947 430.162 989.082 437.135C989.163 442.6 1010.28 450.192 1010.28 442.762Z" fill="#979DFE"/>
<path d="M911.172 399.58C910.203 411.102 914.158 438.131 919.969 448.873H968.205C973.586 442.277 976.061 412.637 976.061 404.049L971.891 359.009C969.416 357.744 962.771 357.071 959.57 356.451C952.467 355.105 932.29 354.19 926.856 355.348C918.355 357.151 914.884 357.232 911.683 358.255L911.172 399.58Z" fill="#979DFE"/>
<path d="M869.472 586.953C866.002 592.984 862.693 599.176 859.787 606.417C858.9 608.625 849.618 606.875 850.264 604.587C851.179 601.195 851.905 594.949 852.604 586.845C852.793 586.926 852.981 586.953 853.196 586.953H869.472Z" fill="#F7B690"/>
<path d="M940.792 586.953C939.904 593.441 938.855 599.66 937.778 605.502C937.509 606.983 928.739 607.683 928.551 605.502C928.067 600.253 926.614 593.98 924.65 586.953H940.792Z" fill="#F7B690"/>
<path d="M987.172 497.332C985.988 506.485 971.03 508.908 958.978 509.742C950.719 510.308 945.446 509.985 938.747 509.877C945.634 532.491 944.235 559.332 941.491 581.757C941.276 583.507 941.034 585.257 940.818 586.98H924.677C924.22 585.284 923.708 583.534 923.197 581.757C917.386 561.943 908.804 535.506 906.087 509.85L898.07 509.742C893.066 547.675 881.955 565.712 871.894 582.834C871.087 584.207 870.28 585.58 869.472 586.98H853.196C852.981 586.98 852.793 586.926 852.604 586.872C852.739 585.257 852.874 583.534 853.035 581.784C856.236 541.698 859.976 467.826 882.628 458.888C888.547 456.546 900.814 458.026 912.867 461.822C915.503 456.411 918.166 451.134 919.915 449.008H969.9C970.438 451.861 990.212 473.641 987.172 497.332Z" fill="#0A3C5F"/>
<path d="M938.532 509.958C935.707 501.181 932.102 494.801 927.152 489.928L928.847 488.205C934.066 493.374 937.886 500.051 940.818 509.231L938.532 509.958Z" fill="#222B54"/>
<path d="M903.262 509.608C902.267 500.697 902.428 491.705 903.747 484.275C905.199 476.09 907.97 470.087 911.737 466.937C916.983 462.549 928.362 462.414 945.553 466.56C958.144 469.602 969.416 473.91 969.524 473.964L968.663 476.225C968.555 476.171 957.417 471.918 944.961 468.902C928.793 464.999 917.844 464.972 913.297 468.768C909.961 471.568 907.486 477.06 906.141 484.678C904.876 491.866 904.688 500.616 905.683 509.312L903.262 509.608Z" fill="#222B54"/>
<path d="M899.819 509.635L897.478 509.042C900.088 498.893 898.904 490.494 898.339 486.455C898.231 485.648 898.151 485.029 898.097 484.544L900.518 484.356C900.545 484.759 900.626 485.379 900.733 486.132C901.325 490.305 902.563 499.028 899.819 509.635Z" fill="#222B54"/>
<path d="M959.516 356.424C955.131 355.536 952.709 352.601 951.364 350.232C949.535 345.736 950.315 335.156 950.611 321.426C949.185 321.696 932.129 314.723 933.77 324.738C935.357 334.456 936.729 345.36 933.958 350.367C932.183 353.086 928.147 354.809 926.56 355.428C926.21 356.64 943.778 404.452 943.778 404.452C943.778 404.452 959.543 358.901 959.516 356.424Z" fill="#F7B690"/>
<path d="M957.256 314.858C955.211 314.588 955.696 317.819 954.593 317.523C953.301 317.146 953.032 310.604 949.616 307.427C932.748 306.243 930.407 317.63 930.407 317.63C929.546 317.63 929.654 314.481 928.013 314.884C926.291 315.288 926.883 323.849 929.708 323.715C929.519 333.649 936.837 340.514 942.271 340.514C947.679 340.514 955.077 331.872 954.512 323.849C957.31 323.984 959.005 315.1 957.256 314.858Z" fill="#F7B690"/>
<path d="M942.486 341.94C939.904 341.94 937.483 340.81 934.604 338.306C934.335 338.064 934.308 337.633 934.55 337.364C934.792 337.095 935.223 337.068 935.492 337.31C938.128 339.598 940.28 340.621 942.513 340.621C944.773 340.621 948.163 338.01 949.589 336.152C949.804 335.856 950.234 335.802 950.53 336.018C950.826 336.233 950.88 336.664 950.665 336.96C949.024 339.033 945.311 341.94 942.486 341.94Z" fill="#F4A086"/>
<path d="M943.778 405.099H943.751C942.89 405.072 940.657 405.045 931.672 388.757C927.34 380.869 923.466 372.901 923.439 372.82L923.251 372.416L927.179 368.108L916.471 357.986L917.386 357.017L929.062 368.055L924.865 372.658C925.699 374.381 929.116 381.3 932.882 388.138C940.845 402.595 943.24 403.753 943.805 403.779C943.885 403.779 944.289 403.753 945.257 402.81C950.988 397.211 962.368 373.897 962.637 371.554C961.695 369.805 959.946 367.974 959.919 367.947L959.435 367.462L969.443 357.959L970.358 358.928L961.318 367.516C961.964 368.243 963.148 369.643 963.874 371.07C964.035 371.393 964.412 372.093 960.081 380.923C957.337 386.523 954.108 392.419 951.445 396.672C946.71 404.183 944.8 405.099 943.778 405.099Z" fill="#858BED"/>
<path d="M933.608 375.727H953.57C953.57 375.727 947.06 404.049 943.778 404.049C940.307 404.049 933.608 375.727 933.608 375.727Z" fill="#FFBF34"/>
<path d="M913.485 357.771C913.485 357.771 907.056 358.255 902.59 369.643C898.124 381.058 881.982 414.521 881.982 414.521C881.982 414.521 891.398 431.293 892.985 431.751C894.6 432.236 917.413 405.503 918.247 393.388C919.108 381.273 913.485 357.771 913.485 357.771Z" fill="#979DFE"/>
<path d="M883.3 441.308C886.018 435.978 878.081 421.871 876.117 418.532C874.853 416.379 880.529 411.317 882.735 413.014C886.179 415.679 895.111 424.913 895.837 431.347C896.564 437.97 882.224 443.408 883.3 441.308Z" fill="#858BED"/>
<path d="M947.759 401.895H946.414V447.634H947.759V401.895Z" fill="#858BED"/>
<path d="M941.356 402.164H940.011V447.634H941.356V402.164Z" fill="#858BED"/>
<path d="M943.858 410.456C942.729 410.456 941.787 409.541 941.787 408.437C941.787 407.333 942.702 406.418 943.858 406.418C944.988 406.418 945.93 407.333 945.93 408.437C945.93 409.541 944.988 410.456 943.858 410.456ZM943.858 407.764C943.455 407.764 943.132 408.06 943.132 408.437C943.132 408.814 943.455 409.11 943.858 409.11C944.262 409.11 944.585 408.814 944.585 408.437C944.585 408.06 944.262 407.764 943.858 407.764Z" fill="#858BED"/>
<path d="M943.858 422.059C942.755 422.059 941.841 421.171 941.841 420.094C941.841 419.017 942.755 418.129 943.858 418.129C944.961 418.129 945.876 419.017 945.876 420.094C945.876 421.171 944.961 422.059 943.858 422.059ZM943.858 419.448C943.482 419.448 943.186 419.717 943.186 420.067C943.186 420.417 943.482 420.686 943.858 420.686C944.235 420.686 944.531 420.417 944.531 420.067C944.531 419.717 944.235 419.448 943.858 419.448Z" fill="#858BED"/>
<path d="M943.858 433.581C942.755 433.581 941.841 432.693 941.841 431.616C941.841 430.539 942.755 429.651 943.858 429.651C944.961 429.651 945.876 430.539 945.876 431.616C945.876 432.693 944.961 433.581 943.858 433.581ZM943.858 430.97C943.482 430.97 943.186 431.239 943.186 431.589C943.186 431.939 943.482 432.208 943.858 432.208C944.235 432.208 944.531 431.939 944.531 431.589C944.531 431.266 944.235 430.97 943.858 430.97Z" fill="#858BED"/>
<path d="M1001.19 447.742C989.163 447.742 951.499 447.742 948.943 447.742C946.387 447.742 943.455 439.801 947.194 440.366C964.681 443.031 985.477 433.151 992.579 434.712C997.61 435.816 1011.81 442.197 1009.88 444.835C1008.08 447.258 1005.22 447.742 1001.19 447.742Z" fill="#F7B690"/>
<path d="M951.149 440.743C945.392 440.043 937.59 432.047 935.815 432.343C934.039 432.639 924.435 442.546 924.435 444.35C924.435 446.019 927.878 447.769 930.515 447.769H936.433C937.509 447.204 939.823 445.615 940.334 445.588C940.657 445.562 943.051 447.177 945.123 447.769C949.32 447.769 952.763 447.769 952.763 447.769L951.149 440.743Z" fill="#F7B690"/>
<path d="M925.78 446.019C925.753 446.019 925.753 446.019 925.726 446.019C925.511 445.992 925.349 445.777 925.376 445.562C925.538 444.404 929.95 439.02 934.685 436.166C934.873 436.058 935.115 436.112 935.25 436.301C935.357 436.489 935.303 436.731 935.115 436.866C930.515 439.612 926.291 444.942 926.183 445.669C926.129 445.885 925.968 446.019 925.78 446.019Z" fill="#F4A086"/>
<path d="M928.362 447.312C928.282 447.312 928.228 447.285 928.147 447.258C927.959 447.15 927.878 446.908 928.013 446.692C928.954 445.104 933.178 441.093 937.079 438.831C937.267 438.724 937.509 438.777 937.617 438.993C937.725 439.181 937.671 439.424 937.456 439.531C933.393 441.873 929.465 445.75 928.685 447.096C928.631 447.231 928.497 447.312 928.362 447.312Z" fill="#F4A086"/>
<path d="M932.613 447.715C932.559 447.715 932.479 447.688 932.425 447.661C932.236 447.554 932.156 447.311 932.263 447.123C932.667 446.369 934.308 445.077 936.622 443.3C937.725 442.439 938.774 441.631 939.15 441.227C939.312 441.066 939.554 441.066 939.715 441.227C939.877 441.389 939.877 441.631 939.715 441.793C939.285 442.25 938.263 443.031 937.079 443.946C935.492 445.185 933.313 446.854 932.963 447.5C932.909 447.635 932.774 447.715 932.613 447.715Z" fill="#F4A086"/>
<path d="M952.171 447.715C951.983 447.715 951.795 447.581 951.768 447.366C951.741 447.15 951.875 446.935 952.091 446.908C953.328 446.692 953.382 445.616 953.382 445.616C953.382 445.4 953.57 445.212 953.786 445.212C954.001 445.212 954.189 445.4 954.189 445.616C954.189 446.073 953.839 447.446 952.225 447.715C952.198 447.715 952.198 447.715 952.171 447.715Z" fill="#F4A086"/>
<path d="M997.476 446.961C994.974 444.377 986.311 437.916 982.948 435.87C980.796 434.551 985.342 430.001 988.113 430.485C992.445 431.239 1006.54 437.404 1010.31 442.762C1014.13 448.254 999.117 448.657 997.476 446.961Z" fill="#858BED"/>
<path d="M873.104 582.78V585.123C873.104 586.146 872.378 586.98 871.463 586.98H853.196C852.981 586.98 852.793 586.926 852.604 586.845C852.013 586.576 851.582 585.903 851.582 585.123V582.78C851.582 581.838 852.228 581.03 853.035 580.95C853.089 580.95 853.142 580.95 853.223 580.95H871.49C872.217 580.95 872.808 581.488 873.024 582.215C873.077 582.377 873.104 582.565 873.104 582.78Z" fill="#351E6C"/>
<path d="M942.998 582.78V585.123C942.998 586.146 942.271 586.98 941.357 586.98H923.09C922.874 586.98 922.686 586.926 922.498 586.845C921.906 586.576 921.475 585.903 921.475 585.123V582.78C921.475 581.838 922.121 581.03 922.928 580.95C922.982 580.95 923.036 580.95 923.116 580.95H941.383C941.41 580.95 941.464 580.95 941.491 580.95C942.164 581.004 942.729 581.515 942.917 582.215C942.971 582.377 942.998 582.565 942.998 582.78Z" fill="#351E6C"/>
<path d="M848.731 387.303C848.327 381.811 852.47 376.588 851.636 373.062C850.802 369.535 846.767 368.081 844.023 363.37C842.166 360.166 841.144 367.408 844.399 369.427C847.143 371.123 845.96 373.035 843.081 372.523C840.202 372.012 827.128 357.959 824.249 356.801C823.549 356.505 823.011 357.313 823.334 358.04C824.33 360.328 828.796 365.631 829.038 366.331C829.361 367.354 827.074 373.062 827.585 376.427C828.688 383.534 839.718 384.988 841.655 387.33C843.592 389.645 848.731 387.303 848.731 387.303Z" fill="#F7B690"/>
<path d="M844.668 386.2L830.706 385.257C829.818 385.203 829.172 384.45 829.226 383.561L831.271 353.167C831.324 352.279 832.078 351.632 832.965 351.686L846.928 352.628C847.816 352.682 848.461 353.436 848.408 354.325L846.363 384.719C846.309 385.607 845.529 386.253 844.668 386.2Z" fill="#2C4E77"/>
<path opacity="0.2" d="M838.507 384.584L837.001 384.477C836.57 384.45 836.248 384.073 836.275 383.669C836.301 383.238 836.678 382.915 837.082 382.942L838.588 383.05C839.019 383.077 839.341 383.454 839.315 383.857C839.315 384.288 838.938 384.611 838.507 384.584Z" fill="white"/>
<path d="M841.951 354.351L837.62 354.055C837.431 354.055 837.297 353.867 837.297 353.678C837.297 353.49 837.485 353.355 837.673 353.355L842.005 353.651C842.193 353.651 842.328 353.84 842.328 354.028C842.301 354.217 842.139 354.378 841.951 354.351Z" fill="#94B0F1"/>
<path d="M831.854 354.682L830.053 381.598L845.783 382.652L847.584 355.736L831.854 354.682Z" fill="#B5D7FF"/>
<path opacity="0.2" d="M833.557 381.838L830.087 381.623L844.103 355.509L847.601 355.751L833.557 381.838Z" fill="white"/>
<path opacity="0.2" d="M842.57 355.428L830.275 378.311L831.862 354.701L842.57 355.428Z" fill="white"/>
<path d="M829.872 367.139C829.872 367.139 828.284 373.035 828.258 375.081C828.231 377.127 828.607 378.123 829.549 377.854C830.49 377.585 831.082 376.508 832.589 378.231C834.095 379.954 835.091 379.927 835.521 379.55C835.952 379.173 835.817 377.558 835.817 377.558C835.817 377.558 837.647 377.02 837.862 376.32C838.077 375.647 837.862 374.112 837.862 374.112C837.862 374.112 840.391 373.493 840.041 372.524C839.664 371.555 836.732 366.897 835.629 366.789C834.526 366.682 830.437 365.955 829.872 367.139Z" fill="#F7B690"/>
<path d="M839.853 373.816C839.503 374.085 839.099 374.193 838.696 374.22C838.723 374.247 838.723 374.274 838.723 374.301C839.422 375.808 838.83 376.697 838.534 376.993C838.158 377.397 837.62 377.585 837.055 377.585C836.812 377.585 836.543 377.558 836.301 377.477C836.543 378.043 836.705 378.554 836.705 378.877C836.705 378.904 836.705 378.931 836.705 378.958V379.012C836.705 379.039 836.678 379.093 836.678 379.12C836.651 379.173 836.651 379.2 836.624 379.254C836.624 379.281 836.597 379.281 836.597 379.308C836.194 379.927 835.979 380.116 835.844 380.223C835.333 380.6 834.822 380.789 834.311 380.789C834.176 380.789 834.068 380.789 833.961 380.762C833.369 380.654 832.858 380.304 832.481 379.712C832.4 379.604 832.266 379.389 832.131 379.146C831.862 378.716 831.297 377.8 831.028 377.45C830.813 377.504 830.437 377.666 830.114 377.827C829.791 377.989 829.387 377.881 829.226 377.558C829.065 377.235 829.172 376.831 829.495 376.67C830.437 376.158 831.136 375.997 831.566 376.212C831.943 376.4 832.32 376.966 833.234 378.446C833.369 378.662 833.477 378.85 833.557 378.985C833.746 379.254 833.934 379.416 834.176 379.47C834.499 379.523 834.849 379.335 835.064 379.173C835.064 379.173 835.171 379.093 835.414 378.716C835.252 377.8 833.154 374.408 832.535 373.762C832.105 373.681 830.571 373.654 829.334 373.789C828.984 373.816 828.661 373.574 828.607 373.197C828.58 372.847 828.822 372.524 829.199 372.47C829.226 372.47 832.347 372.174 833.154 372.578C833.557 372.793 834.902 374.651 835.817 376.374C835.979 376.131 836.301 376.05 836.597 376.158C837.001 376.32 837.431 376.293 837.646 376.077C837.862 375.835 837.835 375.404 837.593 374.839C836.947 373.439 834.822 370.101 834.203 369.751C833.611 369.562 832.185 369.643 831.028 369.724L830.544 369.751C830.194 369.778 829.872 369.509 829.845 369.132C829.818 368.782 830.114 368.459 830.463 368.432L830.948 368.405C832.347 368.324 833.799 368.243 834.633 368.512C835.467 368.782 836.92 371.043 837.862 372.658C837.969 372.658 838.077 372.685 838.158 372.739C838.454 372.901 838.696 372.955 838.938 372.874C839.153 372.793 839.261 372.658 839.341 372.578C838.992 371.528 836.839 368.566 836.032 367.839C835.387 367.247 832.616 366.574 830.41 367.22C830.06 367.328 829.71 367.113 829.603 366.763C829.495 366.413 829.71 366.063 830.06 365.955C832.535 365.255 835.817 365.874 836.92 366.87C837.754 367.651 840.337 371.016 840.66 372.389C840.713 372.928 840.31 373.493 839.853 373.816Z" fill="#F4A086"/>
<path d="M860.675 628.143H842.166C841.117 628.143 840.256 627.631 839.745 626.905C839.153 626.07 839.019 624.966 839.584 623.943L849.564 605.233C849.78 604.883 849.995 604.587 850.264 604.264C850.91 603.51 851.69 602.891 852.604 602.46C854.595 601.518 857.581 600.898 859.841 603.698C859.868 603.725 859.895 603.752 859.922 603.779C863.231 608.006 864.495 624.993 864.495 624.993C864.657 626.689 862.424 628.143 860.675 628.143Z" fill="#0A3C5F"/>
<path d="M860.272 601.625C860.272 601.625 861.698 616.405 861.106 621.224C860.917 622.732 846.121 622.032 844.641 620.766C844.399 620.551 844.399 620.066 844.561 619.393C845.421 615.894 850.21 605.933 850.479 603.617L852.578 601.733L860.272 601.625Z" fill="#F7B690"/>
<path d="M860.272 628.143C862.128 628.143 863.258 626.393 862.935 624.616C862.047 619.663 855.187 617.24 850.883 617.697C844.453 618.37 841.547 620.686 839.772 624.885C839.126 626.42 840.041 628.143 841.736 628.143H860.272Z" fill="#0A3C5F"/>
<path d="M938.29 628.143H919.78C918.731 628.143 917.87 627.631 917.359 626.905C916.767 626.07 916.633 624.966 917.198 623.943L927.179 605.233C927.394 604.883 927.609 604.587 927.878 604.264C928.524 603.51 929.304 602.891 930.219 602.46C932.21 601.518 935.196 600.898 937.456 603.698C937.483 603.725 937.509 603.752 937.536 603.779C940.845 608.006 942.11 624.993 942.11 624.993C942.271 626.689 940.011 628.143 938.29 628.143Z" fill="#0A3C5F"/>
<path d="M937.886 601.625C937.886 601.625 939.312 616.405 938.72 621.224C938.532 622.732 923.735 622.032 922.256 620.766C922.014 620.551 922.014 620.066 922.175 619.393C923.036 615.894 927.824 605.933 928.094 603.617L930.192 601.733L937.886 601.625Z" fill="#F7B690"/>
<path d="M937.886 628.143C939.742 628.143 940.872 626.393 940.549 624.616C939.662 619.663 932.801 617.24 928.497 617.697C922.067 618.37 919.162 620.686 917.386 624.885C916.741 626.42 917.655 628.143 919.35 628.143H937.886Z" fill="#0A3C5F"/>
<path d="M764.471 629.084H757.181L728.26 468.498L699.313 629.084H692.022L721.938 448.011H734.582L734.717 448.791L764.471 629.084ZM758.768 627.2H762.265L732.968 449.922H723.525L694.255 627.2H697.752L726.807 465.94C726.942 465.213 727.534 464.729 728.26 464.729C728.986 464.729 729.578 465.24 729.713 465.94L758.768 627.2Z" fill="#D0D9DF"/>
<path d="M1118.16 629.085H1110.87L1110.74 628.304L1081.95 468.472L1053 629.085H1045.71L1075.63 448.011H1088.27L1118.16 629.085ZM1112.46 627.201H1115.96L1086.68 449.896H1077.24L1047.97 627.201H1051.47L1080.63 465.349C1080.74 464.676 1081.3 464.218 1081.98 464.218C1082.65 464.218 1083.21 464.676 1083.32 465.349L1112.46 627.201Z" fill="#D0D9DF"/>
<path d="M1471.88 629.085H1464.59L1464.45 628.304L1435.67 468.472L1406.72 629.085H1399.43L1429.35 448.011H1441.99L1471.88 629.085ZM1466.15 627.201H1469.65L1440.38 449.896H1430.93L1401.66 627.201H1405.16L1434.43 464.783C1434.54 464.164 1435.05 463.733 1435.67 463.733C1436.29 463.733 1436.8 464.164 1436.9 464.783L1466.15 627.201Z" fill="#D0D9DF"/>
<path d="M721.104 457.622H1442.98C1448.55 457.622 1449.58 455.415 1449.58 452.669C1449.58 449.923 1448.55 447.715 1442.98 447.715H721.104C715.535 447.715 713.706 449.923 713.706 452.669C713.706 455.415 715.535 457.622 721.104 457.622Z" fill="#56D1EE"/>
<path d="M1053.97 446.988H1033.79L1030.49 416.163H1057.25L1053.97 446.988Z" fill="#FF533F"/>
<path d="M1059.14 414.656H1028.6L1029.6 411.91H1058.14L1059.14 414.656Z" fill="#B5D7FF"/>
<path d="M1056.96 408.275H1030.78V410.617H1056.96V408.275Z" fill="#B5D7FF"/>
<path d="M1041.62 405.96C1041.62 405.96 1035.87 400.656 1040.28 396.618C1044.69 392.58 1046.44 390.022 1043.16 386.63C1039.87 383.238 1039.87 383.238 1039.87 383.238C1039.87 383.238 1049.13 383.211 1049.13 391.315C1049.13 398.045 1040.52 397.237 1041.62 405.96Z" fill="#D0D9DF"/>
<path d="M607 621.195C607 621.195 546.106 651.695 385.707 635.033C324.736 628.71 98.1373 646.487 51.5029 638.402C16.1519 632.26 -8.66623 620.832 21.6901 621.195C52.0464 621.558 607 621.195 607 621.195Z" fill="#E9F5F9"/>
<path d="M345.568 640.708C330.067 639.257 268.267 642.393 297.407 647.368C326.547 652.343 390.365 644.906 345.568 640.708Z" fill="#E9F5F9"/>
<path d="M245.856 283.402C253.49 299.936 256.466 309.472 259.287 310.638C261.72 311.649 278.438 301.983 306.284 294.183C306.982 293.975 312.469 301.983 312.469 301.983C312.469 301.931 278.722 351.504 250.747 349.276C222.15 346.995 207.477 303.071 207.477 303.071C207.477 303.071 236.72 286.331 245.856 283.402Z" fill="#F7B690"/>
<path d="M306.309 294.183C308.587 292.576 309.933 287.523 313.038 286.098C315.341 285.035 320.75 284.931 322.613 284.206C324.684 283.377 325.46 281.666 326.521 282.366C327.401 282.936 326.728 286.46 324.761 287.627C323.364 288.456 321.138 288.819 320.879 290.296C320.388 293.198 342.592 288.689 343.343 291.462C344.041 294.053 329.963 294.546 328.669 295.919C327.841 296.8 336.64 297.681 341.945 296.93C344.559 296.567 345.905 298.433 345.387 299.573C343.834 303.071 340.651 308.824 328.799 308.824C317.593 308.824 311.563 306 308.147 305.222C304.42 304.315 303.929 295.867 306.309 294.183Z" fill="#F7B690"/>
<path d="M316.48 297.966C316.221 297.966 315.988 297.811 315.911 297.552C315.807 297.241 315.988 296.904 316.299 296.8C318.706 296.049 320.414 292.68 320.388 290.762C320.388 290.425 320.647 290.192 320.983 290.192C321.319 290.192 321.578 290.425 321.578 290.736C321.604 293.068 319.689 297.007 316.635 297.966C316.609 297.992 316.558 297.966 316.48 297.966Z" fill="#EB9078"/>
<path d="M338.633 306.57C338.555 306.57 338.477 306.544 338.4 306.518C338.089 306.388 337.934 306.051 338.063 305.74C338.167 305.481 338.115 305.17 337.908 304.937C337.83 304.859 337.675 304.652 337.416 304.678C336.381 304.782 332.629 304.963 330.325 304.678C328.85 304.496 326.185 304.082 325.175 303.512C324.891 303.356 324.787 302.968 324.942 302.683C325.098 302.397 325.486 302.294 325.771 302.449C326.236 302.708 327.737 303.123 330.481 303.486C332.68 303.771 336.303 303.59 337.287 303.486C337.882 303.408 338.477 303.693 338.866 304.211C339.305 304.782 339.435 305.559 339.176 306.207C339.098 306.414 338.891 306.57 338.633 306.57Z" fill="#EB9078"/>
<path d="M343.11 303.045C343.032 303.045 342.98 303.045 342.903 303.02C342.592 302.916 342.437 302.553 342.54 302.242C342.644 301.957 342.566 301.802 342.463 301.698C341.997 301.18 340.496 300.946 339.616 301.154C338.063 301.491 329.549 301.283 327.091 300.428C326.78 300.324 326.599 299.962 326.728 299.651C326.832 299.34 327.194 299.158 327.505 299.288C329.678 300.039 337.986 300.273 339.383 299.988C340.522 299.754 342.54 299.936 343.394 300.92C343.808 301.413 343.912 302.035 343.679 302.683C343.601 302.89 343.369 303.045 343.11 303.045Z" fill="#EB9078"/>
<path d="M51.27 577.086C51.27 577.086 30.6184 590.043 32.9475 592.09C44.4896 602.3 62.7086 618.807 69.6184 624.897C71.5593 626.634 74.3025 623.213 72.5945 618.16C70.3947 611.629 63.1485 602.145 61.5699 594.889C59.8101 586.856 63.3556 581.388 63.3556 581.388L51.27 577.086Z" fill="#D57736"/>
<path d="M63.0709 599.217C63.2003 599.217 63.3297 599.191 63.4591 599.113C63.8214 598.906 63.9508 598.439 63.7438 598.076C60.9747 593.308 54.7378 591.986 51.2959 592.868C50.8818 592.971 50.6489 593.386 50.7524 593.8C50.8559 594.215 51.27 594.448 51.684 594.345C54.5825 593.593 60.0689 594.785 62.4239 598.854C62.5533 599.087 62.8121 599.217 63.0709 599.217Z" fill="#604737"/>
<path d="M67.8845 608.364C68.0139 608.364 68.1174 608.338 68.2468 608.261C68.6091 608.053 68.7385 607.613 68.5573 607.224C65.7106 601.963 60.8453 599.32 55.1519 599.968C54.7378 600.02 54.4273 600.383 54.479 600.797C54.5308 601.212 54.8931 601.523 55.3072 601.471C60.3536 600.901 64.7013 603.259 67.2116 607.924C67.341 608.209 67.5998 608.364 67.8845 608.364Z" fill="#604737"/>
<path d="M70.343 628.344C70.7053 628.344 71.0935 628.188 71.3523 627.877C71.844 627.307 71.7922 626.452 71.2487 625.96L32.9734 591.727C32.4041 591.235 31.55 591.287 31.0583 591.831C30.5666 592.401 30.6184 593.256 31.1619 593.749L69.4372 628.007C69.696 628.24 70.0065 628.344 70.343 628.344Z" fill="#604737"/>
<path d="M254.888 606.835C254.888 606.835 251.135 628.007 254.241 628.007C257.424 628.007 300.59 628.007 307.396 628.007C316.739 623.161 278.852 613.262 267.982 602.689C264.618 602.56 254.888 606.835 254.888 606.835Z" fill="#D57736"/>
<path d="M275.565 617.745C275.901 617.745 276.212 617.512 276.29 617.175C276.678 615.62 278.127 612.588 281.233 611.241C281.621 611.085 281.802 610.619 281.621 610.256C281.465 609.867 281 609.686 280.637 609.867C276.988 611.448 275.28 614.998 274.815 616.838C274.711 617.253 274.97 617.642 275.384 617.745C275.436 617.745 275.487 617.745 275.565 617.745Z" fill="#604737"/>
<path d="M281.595 620.932C281.905 620.932 282.216 620.725 282.32 620.414C282.656 619.378 284.002 615.853 287.288 614.428C287.677 614.273 287.858 613.806 287.677 613.443C287.521 613.055 287.055 612.873 286.693 613.055C282.837 614.739 281.284 618.756 280.896 619.974C280.767 620.362 280.974 620.803 281.388 620.932C281.44 620.907 281.517 620.932 281.595 620.932Z" fill="#604737"/>
<path d="M253.128 630.443H309.104C309.855 630.443 310.476 629.977 310.476 629.225C310.476 628.474 309.855 628.007 309.104 628.007H253.128C252.377 628.007 251.756 628.474 251.756 629.225C251.756 629.977 252.377 630.443 253.128 630.443Z" fill="#604737"/>
<path d="M138.535 365.006C171.686 370.629 217.182 367.701 223.807 365.006C224.583 368.297 247.848 433.315 253.024 492.969C254.241 506.989 270.493 588.203 272.434 604.503C272.951 608.805 248.702 612.044 247.9 610.541C246.451 607.82 221.296 577.086 207.373 528.549C205.743 522.874 210.556 500.795 208.538 495.353C195.132 459.359 183.383 434.818 182.348 430.646C180.795 430.646 169.176 483.77 147.411 509.813C128.882 531.97 89.0795 562.937 64.2613 590.095C61.6734 592.919 39.0809 577.475 39.0809 576.931C39.0809 573.562 60.043 528.627 83.4378 506.237C91.5639 498.437 109.524 495.379 109.524 495.379C109.524 495.379 124.612 414.45 126.035 404.136C128.39 387.059 136.387 370.448 138.535 365.006Z" fill="#3D3973"/>
<path d="M79.0643 396.362C79.0643 396.362 73.3708 399.16 72.051 397.917C70.7312 396.647 77.8221 393.563 79.5301 391.283C80.2547 390.298 80.7205 384.778 83.1532 380.606C84.4471 378.377 86.414 378.17 86.9315 376.952C89.9594 369.904 82.0145 335.827 87.5785 316.521C93.0908 297.318 107.143 272.726 112.448 268.243C118.815 275.421 138.975 293.898 138.975 293.898C138.975 293.898 121.17 321.911 117.702 329.167C115.062 334.712 101.709 374.05 97.4902 383.172C93.4013 392.034 82.2992 414.994 80.4876 414.527C79.2972 414.217 80.7723 409.293 82.4027 403.773C78.3138 407.453 72.2839 411.081 71.5593 410.252C69.903 408.334 80.0477 400.327 80.0477 400.327C80.0477 400.327 71.1711 404.965 70.5759 403.073C69.9807 401.208 79.0643 396.362 79.0643 396.362Z" fill="#F7B690"/>
<path d="M118.659 248.626C133.178 235.41 163.12 227.299 179.139 228.569C195.236 227.273 227.3 240.645 234.391 249.844C248.573 268.243 254.008 292.369 252.972 294.546C251.678 297.293 233.408 306.596 224.091 307.399C222.668 347.436 230.483 380.787 228.879 383.12C226.032 387.188 141.381 393.2 132.22 382.161C128.959 378.248 137.241 337.589 138.586 300.195C137.551 300.065 135.274 305.663 134.161 305.404C121.894 302.527 98.1631 287.782 96.9726 285.243C95.9116 283.066 100.44 265.211 118.659 248.626Z" fill="#90E2F5"/>
<path d="M161.024 223.282C161.024 223.282 165.242 218.877 180.226 218.877C193.192 218.877 196.892 223.282 196.892 223.282L179.45 246.216L161.024 223.282Z" fill="#56D1EE"/>
<path d="M191.509 212.476C194.046 211.673 196.685 202.37 198.238 198.431C200.438 192.833 203.491 186.173 201.68 177.311C201.059 174.279 198.238 168.293 189.491 167.023C181.287 165.831 171.634 170.521 168.166 177.233C160.61 181.379 164.983 192.471 165.527 198.768C166.303 207.578 173.213 211.725 176.758 210.895C184.626 209.056 185.324 214.446 191.509 212.476Z" fill="#222B54"/>
<path d="M168.891 198.068C169.409 214.834 165.967 226.133 165.268 229.528C164.673 232.378 176.396 245.491 180.537 245.491C180.537 245.491 197.798 233.752 196.219 230.927C193.813 226.599 191.458 213.927 194.175 201.826C196.892 189.724 175.749 205.428 168.891 198.068Z" fill="#F7B690"/>
<path d="M168.606 192.6C171.815 192.263 171.013 198.405 171.66 198.482C173.109 198.638 174.015 189.179 174.3 183.556C176.939 184.204 191.665 187.702 198.885 183.038C200.489 184.8 201.965 209.729 197.384 216.726C195.754 219.214 191.846 221.883 188.714 221.883C178.233 221.883 173.73 215.508 172.436 212.424C171.117 209.237 171.349 204.676 171.039 203.354C167.959 203.51 166.665 192.807 168.606 192.6Z" fill="#F7B690"/>
<path d="M161.024 223.282L152.587 232.378L180.174 246.216L161.024 223.282Z" fill="#90E2F5"/>
<path d="M196.866 223.282L204.164 232.87L180.174 245.464L196.866 223.282Z" fill="#90E2F5"/>
<path d="M181.002 246.683L170.547 236.421L163.87 243.832L152.276 232.274L153.208 231.341L163.819 241.966L170.495 234.555L181.908 245.75L181.002 246.683Z" fill="#56D1EE"/>
<path d="M186.773 272.908H182.038C181.08 272.908 180.278 272.13 180.278 271.145V245.646L186.696 236.835L193.243 242.355L203.31 232.404L204.216 233.337L193.295 244.117L186.903 238.727L181.546 246.061V271.145C181.546 271.404 181.753 271.612 182.012 271.612H186.748V272.908H186.773Z" fill="#56D1EE"/>
<path d="M185.402 251.269C184.082 251.269 182.995 250.181 182.995 248.859C182.995 247.538 184.082 246.449 185.402 246.449C186.722 246.449 187.809 247.538 187.809 248.859C187.783 250.181 186.722 251.269 185.402 251.269ZM185.402 247.745C184.807 247.745 184.289 248.237 184.289 248.859C184.289 249.455 184.781 249.974 185.402 249.974C186.023 249.974 186.515 249.481 186.515 248.859C186.489 248.263 185.997 247.745 185.402 247.745Z" fill="#56D1EE"/>
<path d="M185.402 259.536C184.082 259.536 182.995 258.447 182.995 257.126C182.995 255.804 184.082 254.716 185.402 254.716C186.722 254.716 187.809 255.804 187.809 257.126C187.783 258.447 186.722 259.536 185.402 259.536ZM185.402 256.037C184.807 256.037 184.289 256.53 184.289 257.152C184.289 257.748 184.781 258.266 185.402 258.266C186.023 258.266 186.515 257.774 186.515 257.152C186.489 256.53 185.997 256.037 185.402 256.037Z" fill="#56D1EE"/>
<path d="M185.402 267.491C184.082 267.491 182.995 266.403 182.995 265.081C182.995 263.76 184.082 262.671 185.402 262.671C186.722 262.671 187.809 263.76 187.809 265.081C187.783 266.429 186.722 267.491 185.402 267.491ZM185.402 263.993C184.807 263.993 184.289 264.485 184.289 265.107C184.289 265.703 184.781 266.222 185.402 266.222C186.023 266.222 186.515 265.729 186.515 265.107C186.489 264.485 185.997 263.993 185.402 263.993Z" fill="#56D1EE"/>
<path d="M188.326 222.246C183.306 222.246 179.243 220.717 176.215 217.685C170.702 212.165 170.651 203.691 170.651 203.329C170.651 203.121 170.832 202.94 171.039 202.94C171.246 202.94 171.427 203.121 171.427 203.329C171.427 203.406 171.479 211.828 176.758 217.141C179.631 220.017 183.513 221.468 188.326 221.468C190.448 221.468 191.82 221.209 192.855 220.639C193.036 220.535 193.269 220.613 193.373 220.795C193.476 220.976 193.399 221.209 193.217 221.313C192.079 221.987 190.604 222.246 188.326 222.246Z" fill="#DE8675"/>
<path d="M188.947 175.264C200.179 172.75 211.669 179.436 212.886 180.706C213.248 181.094 213.688 182.183 212.316 181.82C209.987 181.198 206.623 179.591 203.103 180.032C198.73 180.576 194.046 182.649 191.613 183.297C185.738 184.826 173.756 181.431 173.756 181.431L188.947 175.264Z" fill="#90E2F5"/>
<path d="M201.111 175.549C201.085 171.661 197.177 164.276 192.648 161.762C188.792 159.611 182.012 159.534 176.965 161.089C170.728 163.006 164.906 182.519 174.119 181.431C174.998 181.302 191.535 173.398 201.111 175.549Z" fill="#90E2F5"/>
<path d="M163.456 185.448C163.793 185.836 172.126 182.208 173.886 181.327C174.041 181.25 174.119 181.068 174.041 180.887C172.126 176.792 169.823 165.131 176.965 161.037C171.142 162.203 166.329 164.82 164.129 168.215C159.756 174.978 162.473 184.256 163.456 185.448Z" fill="#56D1EE"/>
<path d="M225.308 307.036L224.014 306.881C225.411 295.116 225.075 284.543 225.075 284.439L226.369 284.387C226.369 284.491 226.705 295.168 225.308 307.036Z" fill="#56D1EE"/>
<path d="M148.223 280.89L137.898 299.632L139.031 300.258L149.356 281.516L148.223 280.89Z" fill="#56D1EE"/>
<path d="M335.708 278.297H244.018V292.093H335.708V278.297Z" fill="#DCDEC9"/>
<path d="M387.078 278.297H334.991V292.093H387.078V278.297Z" fill="#CACCB9"/>
<path d="M331.69 264.646H240V278.441H331.69V264.646Z" fill="#EAECD8"/>
<path d="M382.917 264.646H330.829V278.441H382.917V264.646Z" fill="#DADCC9"/>
<path d="M335.565 252H243.874V265.795H335.565V252Z" fill="#DCDEC9"/>
<path d="M386.791 252H334.704V265.795H386.791V252Z" fill="#CACCB9"/>
<path d="M456.202 500.329C458.117 509.839 462.594 533.706 459.721 583.694C470.901 587.607 479.493 586.052 479.7 586.026C486.946 569.986 495.15 548.244 496.159 527.746C496.625 518.339 484.125 497.375 484.721 489.574C485.031 485.35 488.033 467.366 488.473 463.401C492.148 476.98 493.675 488.227 497.634 494.809C504.13 505.641 526.464 536.323 536.013 588.281C542.949 588.799 552.007 587.918 554.569 587.633C556.329 564.129 556.975 529.352 550.35 513.934C546.054 503.931 530.993 490.404 529.595 484.521C526.257 470.554 529.336 407.401 526.723 389.728C522.142 358.761 513.033 333.08 513.033 333.08C513.033 333.08 470.151 334.142 465.907 330.644C461.818 327.249 451.078 374.179 450.793 388.328C450.405 408.023 448.49 462.002 456.202 500.329Z" fill="#0A3C5F"/>
<path d="M489.586 462.779C489.534 462.779 489.482 462.779 489.431 462.754C489.017 462.676 488.732 462.261 488.835 461.847C490.181 455.316 494.374 442.929 498.799 429.843C503.845 414.89 509.073 399.42 509.72 393.511C509.772 393.097 510.16 392.786 510.574 392.812C510.988 392.863 511.299 393.252 511.273 393.667C510.6 399.757 505.372 415.305 500.3 430.335C496.082 442.826 491.734 455.731 490.388 462.158C490.259 462.546 489.948 462.779 489.586 462.779Z" fill="#222B54"/>
<path d="M453.459 285.268C452.346 277.391 469.271 251.606 471.936 247.667C474.68 243.625 481.227 235.436 489.25 235.436C502.396 235.436 512.722 236.706 516.656 244.48C531.433 273.685 518.778 293.379 519.658 333.183C521.366 360.834 542.845 423.027 515.776 425.463C474.654 429.169 465.932 379.829 465.932 379.829C465.932 379.829 457.004 425.282 450.275 425.463C443.547 425.645 457.547 329.374 457.547 329.374C457.056 318.723 455.141 297.189 453.459 285.268Z" fill="#FFBF34"/>
<path d="M424.448 629.976C429.443 629.899 466.372 629.614 468.702 629.588C470.875 629.562 468.287 611.888 468.003 610.1C464.199 609.789 459.696 608.934 457.755 608.079C447.196 617.926 417.642 626.141 424.448 629.976Z" fill="#FFBF34"/>
<path d="M454.856 619.378C454.908 619.378 454.985 619.378 455.037 619.352C455.477 619.248 455.762 618.808 455.632 618.367C455.218 616.683 452.786 613.962 450.12 612.796C449.706 612.614 449.214 612.796 449.033 613.21C448.852 613.625 449.033 614.117 449.447 614.299C451.699 615.283 453.743 617.641 454.002 618.756C454.131 619.119 454.468 619.378 454.856 619.378Z" fill="white"/>
<path d="M449.887 621.995C449.965 621.995 450.068 621.995 450.146 621.943C450.586 621.814 450.819 621.347 450.664 620.907C450.146 619.326 447.817 616.449 445.177 615.283C444.763 615.102 444.271 615.283 444.09 615.698C443.909 616.113 444.09 616.605 444.504 616.786C446.73 617.745 448.749 620.311 449.085 621.399C449.214 621.788 449.525 621.995 449.887 621.995Z" fill="white"/>
<path d="M508.297 629.821C513.265 629.743 550.221 629.458 552.55 629.432C554.62 629.406 552.343 613.262 551.903 610.282C548.021 610.645 541.422 610.826 538.938 610.1C526.852 618.989 502.008 626.271 508.297 629.821Z" fill="#FFBF34"/>
<path d="M538.705 619.222C538.756 619.222 538.834 619.222 538.886 619.196C539.326 619.093 539.61 618.652 539.481 618.211C539.067 616.527 536.634 613.806 533.969 612.64C533.555 612.459 533.063 612.64 532.882 613.055C532.701 613.469 532.882 613.962 533.296 614.143C535.547 615.128 537.592 617.486 537.851 618.6C537.98 618.963 538.316 619.222 538.705 619.222Z" fill="white"/>
<path d="M533.736 621.866C533.814 621.866 533.917 621.866 533.995 621.814C534.435 621.684 534.668 621.218 534.512 620.777C533.995 619.196 531.666 616.32 529.026 615.154C528.612 614.972 528.12 615.154 527.939 615.568C527.758 615.983 527.939 616.475 528.353 616.657C530.579 617.616 532.597 620.181 532.934 621.27C533.063 621.632 533.374 621.866 533.736 621.866Z" fill="white"/>
<path d="M499.627 238.338C499.265 235.229 495.564 217.633 495.9 202.292C494.529 193.688 475.637 185.655 467.873 188.791C466.993 190.812 466.191 194.44 466.062 195.969C465.311 204.909 468.287 219.421 470.539 221.753C472.169 223.438 478.587 222.479 481.227 222.038C482.987 227.739 481.952 235.255 480.684 238.364C478.846 242.821 500.119 242.562 499.627 238.338Z" fill="#BC7551"/>
<path d="M505.217 179.695C498.074 172.465 482.185 170.081 475.508 180.887C475.197 181.405 463.474 179.721 463.267 193.118C463.215 196.98 472.143 193.377 477.966 196.565C488.628 202.421 486.817 202.111 482.443 208.848C474.395 221.209 471.91 235.436 476.439 239.453C484.1 246.216 489.198 241.241 491.113 251.243C493.08 261.454 496.133 273.53 500.585 275.758C513.809 282.418 527.758 278.894 531.459 273.685C539.766 261.946 525.584 258.862 536.013 246.734C543.285 238.286 530.294 233 527.033 225.148C524.368 218.747 532.701 216.493 527.007 208.278C521.702 200.608 515.621 202.732 512.722 199.441C509.72 196.021 512.877 187.469 505.217 179.695Z" fill="#082D47"/>
<path d="M466.191 197.394C466.191 197.394 466.243 204.624 463.5 208.459C462.025 210.507 468.365 211.44 468.365 211.44L466.191 197.394Z" fill="#BC7551"/>
<path d="M463.215 195.14C463.215 195.14 477.966 194.699 477.449 203.018C477.138 208.019 479.286 197.368 485.445 201.022C491.527 204.624 462.827 178.736 463.215 195.14Z" fill="#082D47"/>
<path d="M408.61 313.515C422.015 317.558 438.19 319.346 444.401 318.283C452.216 316.961 476.62 303.823 486.196 287.471L477.656 240.308C462.879 245.309 445.902 288.352 439.872 292.084C437.646 293.457 421.705 292.24 409.412 294.572L408.765 312.686C408.765 312.971 408.688 313.256 408.61 313.515Z" fill="#FFC834"/>
<path d="M367.747 296.489C375.381 301.128 386.716 306.077 398.362 310.172C401.778 311.364 405.22 312.504 408.61 313.515C408.688 313.256 408.765 312.997 408.791 312.711L410.111 296.386C406.565 295.816 402.891 295.22 399.319 294.623C386.147 292.473 374.294 290.503 374.294 290.503L367.747 296.489Z" fill="#BC7551"/>
<path d="M401.053 314.577L405.142 315.536C406.773 315.925 408.377 314.992 408.895 313.515C408.972 313.256 409.05 312.996 409.076 312.711L410.396 296.386L410.473 295.453C410.629 293.665 409.257 292.11 407.471 292.006L402.994 291.747C401.286 291.643 399.785 292.939 399.63 294.623C399.63 294.649 399.63 294.701 399.63 294.727L398.672 310.172L398.595 311.286C398.491 312.815 399.552 314.214 401.053 314.577Z" fill="#F6AA33"/>
<path d="M456.797 314.525L455.969 313.204C480.321 297.94 490.569 279.956 490.673 279.775L492.019 280.526C491.941 280.734 481.486 299.055 456.797 314.525Z" fill="#F3A308"/>
<path d="M536.013 588.281C537.307 595.33 538.368 602.793 539.119 610.645L551.256 611.189C551.8 611.111 553.145 601.523 554.569 587.633C552.007 587.918 542.975 588.799 536.013 588.281Z" fill="#BC7551"/>
<path d="M457.884 608.131C458.712 608.416 463.448 610.049 467.226 610.826C467.718 610.671 468.106 610.386 468.287 609.945C468.805 607.872 473.955 598.75 479.7 586C479.493 586.052 470.901 587.581 459.721 583.668C459.307 591.209 458.686 599.346 457.884 608.131Z" fill="#BC7551"/>
<path d="M375.717 290.399C373.776 289.026 372.638 284.724 369.998 283.532C368.031 282.625 363.451 282.548 361.872 281.926C360.112 281.226 359.465 279.775 358.56 280.371C357.809 280.863 358.378 283.869 360.061 284.854C361.251 285.554 363.14 285.865 363.347 287.108C363.761 289.57 344.895 285.735 344.248 288.093C343.653 290.296 355.609 290.71 356.722 291.877C357.421 292.628 349.942 292.784 345.439 292.162C343.213 291.851 341.971 293.483 342.514 294.416C344.248 297.319 349.347 301.931 356.929 301.957C366.453 301.983 370.464 299.029 374.165 299.806C377.322 300.428 377.736 291.851 375.717 290.399Z" fill="#BC7551"/>
<path d="M711.857 543.973C708.646 534.573 690.708 541.718 683.404 522.04C681.905 518.004 697.464 511.025 697.155 506.254C697.012 503.999 680.716 504.165 680.644 501.815C679.74 474.374 693.111 455.573 687.853 439.408C686.021 433.758 697.988 433.521 696.608 429.106C696.132 427.586 684.142 430.649 683.071 429.438C676.838 422.364 663.396 408.976 661.041 400.929C659.328 395.042 660.375 385.618 661.683 376.692C661.969 374.746 674.197 375.197 674.483 373.345C675.41 367.221 662.159 371.517 661.755 368.384C660.66 359.767 648.218 327.721 662.445 322.261C673.055 318.178 700.486 359.197 703.84 370.117C704.221 371.375 693.919 382.437 695.252 383.41C696.417 384.265 709.811 374.603 711.167 375.553C721.611 382.84 736.385 392.525 739.621 402.258C743.76 414.697 734.934 438.245 736.29 446.078C738.408 458.28 756.012 480.759 759.272 503.619C759.462 505.02 742.381 501.696 742.476 503.097C742.618 505.542 759.819 512.734 759.557 515.156C759.367 516.912 728.13 502.29 727.702 504.046C727.107 506.373 757.226 525.054 756.131 527.309C747.876 544.567 732.793 538.205 725.68 537.944C718.543 537.707 711.857 543.973 711.857 543.973Z" fill="#78A72C"/>
<path d="M710.145 514.894C711.096 514.657 712.048 514.467 713.024 514.277C714.38 546.134 713.285 575.046 711.001 593.515C710.716 595.888 707.1 595.461 707.385 593.064C709.883 572.768 711.096 544.828 710.145 514.894Z" fill="#98B51C"/>
<path d="M671.651 355.02C672.27 354.497 672.603 355.21 674.316 357.18C699.224 388.561 709.787 452.084 712.714 508.153C711.786 508.319 710.834 508.509 709.906 508.723C708.098 464.76 700.247 389.629 671.604 355.874C671.366 355.589 671.413 355.233 671.651 355.02Z" fill="#98B51C"/>
<path d="M694.847 559.522C688.329 551.332 674.245 563.747 658.829 547.89C657.734 546.751 675.41 536.781 674.53 535.428C673.127 533.315 653.285 539.677 652.31 537.113C645.815 520.093 647.552 494.622 641.224 477.27C640.653 475.727 652.524 467.632 651.81 466.208C650.93 464.475 637.489 469.484 636.442 467.988C627.306 454.956 612.033 450.541 601.208 442.992C599.448 441.758 614.674 424.002 613.199 422.578C612.176 421.581 594.357 436.963 593.5 435.824C586.006 425.759 585.721 411.112 584.079 400.905C583.675 398.341 593.357 394.425 592.644 392.573C592.097 391.125 581.224 391.552 580.32 390.674C573.754 384.288 557.458 367.292 566.855 357.417C568.044 356.159 575.967 367.506 577.323 367.031C579.083 366.39 574.349 354.165 576.347 354.616C587.767 357.156 602.707 375.197 617.409 385.594C618.599 386.425 613.508 400.407 614.697 401.142C616.03 401.949 623.619 389.511 624.927 390.152C635.704 395.422 662.54 399.125 671.842 409.308C672.508 410.044 646.933 429.652 647.504 430.554C648.218 431.693 675.054 414.127 675.601 415.456C680.692 427.492 680.026 446.648 684.165 453.912C690.613 465.259 716.092 481.282 727.44 502.764C728.13 504.094 710.026 506.847 710.62 508.2C711.643 510.574 731.223 511.595 731.841 514.087C732.293 515.915 696.132 512.497 696.322 514.396C696.56 516.889 733.055 524.722 732.793 527.357C730.771 547.368 713.547 546.442 706.409 548.697C699.272 550.952 694.847 559.522 694.847 559.522Z" fill="#98B51C"/>
<path d="M618.171 412.893C617.552 412.37 616.743 413.32 617.362 413.842C664.895 454.339 694.585 542.383 701.556 604.648C701.651 605.526 702.436 606.167 703.317 606.048C704.197 605.953 704.839 605.17 704.72 604.292C698.392 547.487 668.368 454.861 618.171 412.893Z" fill="#78A72C"/>
<path d="M726.821 565.884C730.747 557.932 745.782 566.335 754.537 549.813C756.321 546.419 743.379 538.443 744.212 534.241C744.593 532.271 758.986 534.289 759.319 532.247C763.316 508.106 753.681 489.899 760.223 476.225C762.507 471.43 751.944 469.84 753.681 466.089C754.275 464.808 764.529 468.914 765.623 467.965C771.976 462.434 785.417 452.155 788.415 445.319C790.627 440.31 790.794 431.836 790.675 423.812C790.651 422.055 779.779 421.035 779.755 419.373C779.66 413.842 790.865 419.183 791.579 416.477C793.553 408.976 808.28 382.105 796.361 375.624C787.463 370.782 758.415 403.872 754.18 413.13C753.681 414.198 761.508 425.165 760.223 425.877C759.081 426.494 748.375 416.406 747.067 417.094C737.004 422.317 722.801 429.177 718.804 437.414C713.689 447.93 718.756 469.792 716.639 476.558C713.356 487.097 695.156 504.948 689.613 524.746C689.28 525.956 704.768 525.007 704.53 526.241C704.125 528.402 688.091 532.746 688.019 534.929C687.972 536.52 717.305 527.215 717.472 528.805C717.71 530.918 688.923 543.95 689.613 546.063C694.895 562.276 708.979 558.406 715.283 559C721.635 559.546 726.821 565.884 726.821 565.884Z" fill="#B0D354"/>
<path d="M780.255 408.43C780.778 407.955 781.54 408.739 780.969 409.261C779.779 410.353 778.994 411.041 777.353 412.727C742.642 449.948 726.013 551.308 725.585 601.538C725.585 602.44 724.823 603.176 723.919 603.176C723.015 603.176 722.278 602.416 722.278 601.514C722.658 557.765 740.24 444.037 780.255 408.43Z" fill="#98B51C"/>
<path d="M740.406 591.093L738.574 594.512C738.574 594.512 737.337 630.546 728.249 630.546H695.181C686.212 630.546 684.856 594.986 684.856 594.986L683.024 591.117C683.024 590.31 683.69 589.669 684.475 589.669H738.907C739.74 589.645 740.406 590.286 740.406 591.093Z" fill="#394257"/>
<g clip-path="url(#clip0)">
<path d="M1405.23 226.792C1400.66 224.857 1398.33 221.774 1397.85 219.892C1396.25 213.853 1399.8 211.756 1400.81 208.942C1402.29 204.766 1395.34 200.949 1395.02 195.608C1394.55 187.956 1405.88 184.622 1406.22 182.167C1406.92 177.167 1400.91 176.074 1400.82 171.969C1400.68 165.5 1407.49 166.79 1409.55 162.399C1410.98 159.335 1409.69 152.417 1416.02 151.108C1419.53 150.392 1422.04 153.743 1422.68 156.646C1423.44 159.998 1421.39 162.417 1422.56 165.267C1423.81 168.349 1430.48 171.02 1430.19 178.475C1429.91 185.787 1423.99 188.78 1424.76 193.583C1425.23 196.558 1427.88 197.221 1428.74 200.358C1429.91 204.569 1426.52 206.684 1427.31 209.605C1428.22 213.082 1433.04 213.046 1433.04 220.34C1433.04 224.068 1428.33 227.885 1422.11 226.792C1413.06 229.265 1406.31 227.24 1405.23 226.792Z" fill="#9CAF49"/>
<path d="M1403.53 219.623C1403.89 218.727 1404.57 218.01 1405.11 217.203C1407.17 214.174 1407.17 209.891 1405.09 206.88C1404.35 205.787 1403.37 204.855 1402.81 203.672C1400.27 198.188 1407.4 192.65 1405.84 187.005C1405.11 184.388 1402.54 182.13 1403.14 179.46C1403.49 177.829 1404.96 176.718 1405.84 175.284C1408.92 170.23 1404.08 163.581 1405.36 159.925C1405.72 158.886 1406.68 157.99 1407.79 158.043C1409.68 158.133 1410.39 160.57 1410.23 162.434C1410.07 164.298 1409.66 166.484 1410.98 167.811C1411.92 168.761 1413.38 168.886 1414.66 169.352C1418.08 170.624 1419.82 175.177 1418.13 178.42C1417.31 180.015 1415.86 181.18 1414.8 182.632C1413.74 184.084 1413.13 186.163 1414.15 187.632C1415 188.869 1416.81 189.389 1417.22 190.822C1417.4 191.45 1417.27 192.131 1416.99 192.704C1416.27 194.21 1414.75 195.088 1413.47 196.163C1412.22 197.238 1411.09 198.905 1411.66 200.464C1412.08 201.575 1413.19 202.238 1413.99 203.099C1415.77 205.052 1415.73 208.368 1413.92 210.285C1413.28 210.966 1412.43 211.486 1411.83 212.203C1411.22 212.92 1410.86 214.013 1411.36 214.82C1416.02 217.956 1418.62 218.995 1416.34 222.849C1415.28 224.623 1413.9 226.272 1412.09 227.221C1407.4 229.73 1401.45 224.82 1403.53 219.623Z" fill="#B6CE78"/>
<path d="M1404.78 227.239L1405.34 228.297C1405.34 228.297 1405.72 239.48 1408.53 239.48H1418.78C1421.56 239.48 1421.97 228.44 1421.97 228.44L1422.52 227.239C1422.52 226.988 1422.33 226.791 1422.07 226.791H1405.23C1404.98 226.791 1404.78 226.988 1404.78 227.239Z" fill="#7BA9D8"/>
<path d="M1409.85 227.239L1410.41 228.297C1410.41 228.297 1410.79 239.48 1413.6 239.48H1418.76C1421.54 239.48 1421.95 228.44 1421.95 228.44L1422.5 227.239C1422.5 226.988 1422.31 226.791 1422.06 226.791H1410.3C1410.07 226.791 1409.85 226.988 1409.85 227.239Z" fill="#7BA9D8"/>
<path d="M1442.23 239.498H1507.17C1507.51 239.498 1507.8 239.229 1507.8 238.87V224.533C1507.8 224.192 1507.53 223.906 1507.17 223.906H1442.23C1441.89 223.906 1441.61 224.174 1441.61 224.533V238.87C1441.61 239.229 1441.89 239.498 1442.23 239.498Z" fill="#FFBF34"/>
<path d="M1503.25 236.54H1469.02C1468.64 236.54 1468.34 236.236 1468.34 235.859V227.472C1468.34 227.096 1468.64 226.791 1469.02 226.791H1503.25C1503.62 226.791 1503.93 227.096 1503.93 227.472V235.859C1503.94 236.236 1503.62 236.54 1503.25 236.54Z" fill="#F3A308"/>
<path d="M1452.05 235.017C1453.97 235.017 1455.53 233.533 1455.53 231.702C1455.53 229.871 1453.97 228.386 1452.05 228.386C1450.13 228.386 1448.58 229.871 1448.58 231.702C1448.58 233.533 1450.13 235.017 1452.05 235.017Z" fill="#F3A308"/>
<path d="M1473.16 235.806C1472.68 235.806 1472.3 235.465 1472.3 235.017V228.404C1472.3 227.974 1472.69 227.615 1473.16 227.615C1473.64 227.615 1474.02 227.956 1474.02 228.404V235.017C1474.02 235.447 1473.63 235.806 1473.16 235.806Z" fill="#FFBF34"/>
<path d="M1476.05 235.806C1475.56 235.806 1475.19 235.465 1475.19 235.017V228.404C1475.19 227.974 1475.58 227.615 1476.05 227.615C1476.53 227.615 1476.91 227.956 1476.91 228.404V235.017C1476.92 235.447 1476.53 235.806 1476.05 235.806Z" fill="#FFBF34"/>
<path d="M1478.95 235.806C1478.46 235.806 1478.09 235.465 1478.09 235.017V228.404C1478.09 227.974 1478.48 227.615 1478.95 227.615C1479.43 227.615 1479.81 227.956 1479.81 228.404V235.017C1479.81 235.447 1479.41 235.806 1478.95 235.806Z" fill="#FFBF34"/>
<path d="M1442.23 222.167H1507.17C1507.51 222.167 1507.8 221.898 1507.8 221.54V207.202C1507.8 206.862 1507.53 206.575 1507.17 206.575H1442.23C1441.89 206.575 1441.61 206.844 1441.61 207.202V221.54C1441.61 221.898 1441.89 222.167 1442.23 222.167Z" fill="#FFBF34"/>
<path d="M1503.25 219.21H1469.02C1468.64 219.21 1468.34 218.905 1468.34 218.529V210.142C1468.34 209.765 1468.64 209.461 1469.02 209.461H1503.25C1503.62 209.461 1503.93 209.765 1503.93 210.142V218.529C1503.94 218.905 1503.62 219.21 1503.25 219.21Z" fill="#F3A308"/>
<path d="M1452.05 217.705C1453.97 217.705 1455.53 216.22 1455.53 214.389C1455.53 212.558 1453.97 211.073 1452.05 211.073C1450.13 211.073 1448.58 212.558 1448.58 214.389C1448.58 216.22 1450.13 217.705 1452.05 217.705Z" fill="#F3A308"/>
<path d="M1473.16 218.475C1472.68 218.475 1472.3 218.135 1472.3 217.687V211.074C1472.3 210.643 1472.69 210.285 1473.16 210.285C1473.64 210.285 1474.02 210.626 1474.02 211.074V217.687C1474.02 218.117 1473.63 218.475 1473.16 218.475Z" fill="#FFBF34"/>
<path d="M1476.05 218.475C1475.56 218.475 1475.19 218.135 1475.19 217.687V211.074C1475.19 210.643 1475.58 210.285 1476.05 210.285C1476.53 210.285 1476.91 210.626 1476.91 211.074V217.687C1476.92 218.117 1476.53 218.475 1476.05 218.475Z" fill="#FFBF34"/>
<path d="M1478.95 218.475C1478.46 218.475 1478.09 218.135 1478.09 217.687V211.074C1478.09 210.643 1478.48 210.285 1478.95 210.285C1479.43 210.285 1479.81 210.626 1479.81 211.074V217.687C1479.81 218.117 1479.41 218.475 1478.95 218.475Z" fill="#FFBF34"/>
<path d="M1507.15 205.088H1442.23C1441.89 205.088 1441.61 204.819 1441.61 204.461V190.123C1441.61 189.783 1441.87 189.496 1442.23 189.496H1507.17C1507.51 189.496 1507.8 189.765 1507.8 190.123V204.461C1507.78 204.801 1507.51 205.088 1507.15 205.088Z" fill="#90E2F5"/>
<path d="M1446.14 202.131H1477.71C1478.09 202.131 1478.39 201.826 1478.39 201.45V193.062C1478.39 192.686 1478.09 192.381 1477.71 192.381H1446.14C1445.76 192.381 1445.46 192.686 1445.46 193.062V201.45C1445.46 201.826 1445.76 202.131 1446.14 202.131Z" fill="#56D1EE"/>
<path d="M1498.68 200.51C1500.46 200.089 1501.57 198.303 1501.15 196.521C1500.73 194.739 1498.94 193.636 1497.16 194.057C1495.38 194.477 1494.27 196.263 1494.69 198.045C1495.11 199.827 1496.9 200.931 1498.68 200.51Z" fill="#56D1EE"/>
<path d="M1473.57 201.378C1473.09 201.378 1472.71 201.037 1472.71 200.589V193.976C1472.71 193.546 1473.11 193.188 1473.57 193.188C1474.06 193.188 1474.43 193.528 1474.43 193.976V200.589C1474.45 201.037 1474.06 201.378 1473.57 201.378Z" fill="#90E2F5"/>
<path d="M1470.69 201.378C1470.2 201.378 1469.83 201.037 1469.83 200.589V193.976C1469.83 193.546 1470.22 193.188 1470.69 193.188C1471.17 193.188 1471.55 193.528 1471.55 193.976V200.589C1471.55 201.037 1471.15 201.378 1470.69 201.378Z" fill="#90E2F5"/>
<path d="M1467.78 201.378C1467.3 201.378 1466.92 201.037 1466.92 200.589V193.976C1466.92 193.546 1467.32 193.188 1467.78 193.188C1468.27 193.188 1468.64 193.528 1468.64 193.976V200.589C1468.66 201.037 1468.27 201.378 1467.78 201.378Z" fill="#90E2F5"/>
<path d="M1515.02 239.551H1395.61V250H1515.02V239.551Z" fill="#C8DFEE"/>
</g>
<defs>
<linearGradient id="paint0_linear" x1="181.416" y1="408.974" x2="181.416" y2="229.886" gradientUnits="userSpaceOnUse">
<stop stop-color="white"/>
<stop offset="0.5774" stop-color="#E9F7FF"/>
<stop offset="1" stop-color="#DFF3FF"/>
</linearGradient>
<clipPath id="clip0">
<rect x="1395" y="151" width="120" height="99" fill="white"/>
</clipPath>
</defs>
</svg>
