<svg width="24" height="24" viewBox="0 0 24 24" fill="none" xmlns="http://www.w3.org/2000/svg">
<g clip-path="url(#clip0)">
<path d="M12.5624 2.86387C12.5782 2.86387 12.5936 2.86377 12.6093 2.86377C14.894 2.86377 17.0349 3.74709 18.6415 5.35368C20.2613 6.97355 21.1474 9.13266 21.1364 11.4332C21.134 11.951 21.5517 12.3727 22.0694 12.3752C22.071 12.3752 22.0724 12.3752 22.074 12.3752C22.5896 12.3752 23.0089 11.9584 23.0113 11.4421C23.0247 8.63728 21.9436 6.00422 19.9673 4.02782C18.0063 2.0668 15.3952 0.98877 12.6096 0.98877C12.5925 0.98877 12.5752 0.988816 12.5581 0.988863C12.0403 0.991348 11.6226 1.41308 11.625 1.93082C11.6275 2.44705 12.0467 2.86387 12.5624 2.86387Z" fill="#56D1EE"/>
<path d="M23.9979 19.3394C23.9644 18.411 23.5777 17.5447 22.909 16.8999C21.5998 15.6374 20.5028 14.9086 19.4569 14.6064C18.0155 14.1898 16.6806 14.5686 15.4893 15.7321C15.4875 15.7339 15.4857 15.7356 15.4839 15.7374L14.2152 16.9967C13.4272 16.554 11.8953 15.5798 10.2199 13.9043L10.0965 13.781C8.43204 12.1167 7.45164 10.5761 7.00558 9.7848L8.26366 8.51726C8.26544 8.51547 8.26718 8.51369 8.26896 8.51186C9.43244 7.32058 9.81124 5.98567 9.39471 4.54436C9.09246 3.49843 8.36369 2.40146 7.10116 1.09219C6.45639 0.42352 5.59004 0.036801 4.66178 0.00333215C3.7337 -0.0300898 2.84152 0.293067 2.15016 0.913693L2.12326 0.937881C2.11074 0.949084 2.09855 0.960662 2.08669 0.972522C0.71044 2.34868 -0.0109679 4.27534 0.000375887 6.54414C0.0195947 10.3982 2.13783 14.8058 5.66659 18.3345C5.66955 18.3375 5.67245 18.3404 5.6754 18.3433C6.33878 19.0057 7.09197 19.6612 7.91425 20.2917C8.32511 20.6068 8.91358 20.529 9.22868 20.1182C9.54373 19.7073 9.46605 19.1188 9.05515 18.8038C8.29408 18.2203 7.6001 17.6163 6.99246 17.0086C6.98955 17.0057 6.98664 17.0028 6.98369 17C3.80157 13.8142 1.89216 9.90279 1.87533 6.53472C1.86661 4.7874 2.39223 3.32898 3.39554 2.31531L3.40271 2.30884C4.08418 1.69721 5.1159 1.73443 5.75153 2.39359C8.17877 4.91069 8.00299 6.09902 6.93049 7.1988L5.19264 8.94972C4.92011 9.22432 4.84422 9.63813 5.00162 9.99157C5.04573 10.0907 6.11298 12.4491 8.77104 15.1071L8.89441 15.2304C11.5521 17.8882 13.9106 18.9554 14.0097 18.9995C14.3631 19.157 14.7769 19.081 15.0515 18.8085L16.8021 17.0709C17.9021 15.9983 19.0905 15.8223 21.6076 18.2496C22.2668 18.8852 22.304 19.917 21.6925 20.5983L21.6859 20.6056C20.6804 21.6008 19.2375 22.1259 17.5092 22.1259C17.495 22.1259 17.4807 22.1259 17.4665 22.1258C16.085 22.119 14.4853 21.7403 12.8404 21.0308C12.365 20.8256 11.8133 21.0448 11.6082 21.5203C11.4032 21.9957 11.6224 22.5473 12.0978 22.7524C13.9991 23.5726 15.8023 23.9926 17.4571 24.0008C17.4747 24.0009 17.4922 24.0009 17.5097 24.0009C19.7557 24.0009 21.6632 23.2801 23.0287 21.9145C23.0406 21.9026 23.0521 21.8905 23.0633 21.878L23.0876 21.8509C23.7081 21.1597 24.0314 20.2677 23.9979 19.3394Z" fill="#56D1EE"/>
<path d="M17.3184 6.68205C16.3127 5.67639 15.3476 5.40954 14.8837 5.28124C14.3845 5.14319 13.8683 5.43588 13.7303 5.93496C13.5923 6.43399 13.8849 6.95041 14.384 7.08841C14.7633 7.19332 15.3365 7.35185 15.9925 8.00786C16.6241 8.63941 16.7919 9.20955 16.9029 9.58685L16.9164 9.63274C17.0371 10.0404 17.4104 10.3044 17.815 10.3044C17.9031 10.3045 17.9927 10.2919 18.0815 10.2656C18.578 10.1186 18.8613 9.59702 18.7143 9.10057L18.7016 9.05753C18.557 8.56619 18.2879 7.65157 17.3184 6.68205Z" fill="#56D1EE"/>
</g>
<defs>
<clipPath id="clip0">
<path d="M0 0H24V24H0V0Z" fill="white"/>
</clipPath>
</defs>
</svg>
