<svg width="830" height="467" viewBox="0 0 830 467" fill="none" xmlns="http://www.w3.org/2000/svg">
<g clip-path="url(#clip0)">
<path d="M830 0H0V334.913H830V0Z" fill="url(#paint0_linear)"/>
<path d="M560.748 57.1519C542.246 57.1519 542.08 45.4345 559.344 45.1655C573.816 44.9413 580.954 56.2103 590.145 54.641C597.434 53.4005 586.719 29.8612 603.44 29.8612C626.136 29.8612 640.941 54.5962 656.967 54.5962C674.095 54.5962 667.848 46.5106 678.441 46.4957C684.191 46.4807 700.263 57.1519 700.263 57.1519C700.263 57.1519 599.743 57.1519 560.748 57.1519Z" fill="white"/>
<path d="M375.175 45.2701C332.619 45.2701 286.063 44.8367 274.066 45.2701C253.15 46.0174 251.143 34.9726 261.239 33.4033C271.334 31.834 279.936 38.8136 289.428 38.993C298.921 39.1723 273.855 26.8721 291.345 22.7621C308.82 18.652 333.388 37.902 342.443 37.902C346.397 37.902 344.359 29.9957 349.505 28.546C358.137 26.1099 375.175 45.2701 375.175 45.2701Z" fill="white"/>
<path d="M295.299 141.49C295.299 141.49 253.225 141.49 249.06 141.49C244.895 141.49 240.489 135.063 243.899 134.331C249.845 133.046 256.364 139.532 260.363 139.532C262.748 139.532 257.194 129.115 265.132 128.726C273.07 128.308 295.299 141.49 295.299 141.49Z" fill="white"/>
<path d="M583.731 112.436C583.731 112.436 526.084 112.436 520.365 112.436C514.661 112.436 508.624 103.633 513.287 102.616C521.451 100.853 530.37 109.73 535.863 109.73C539.138 109.73 531.517 95.4574 542.382 94.9193C553.278 94.3813 583.731 112.436 583.731 112.436Z" fill="white"/>
<path d="M422.198 78.4941C402.625 78.4941 382.826 78.4941 372.73 78.4941C362.634 78.4941 366.633 66.7619 382.494 66.7619C398.355 66.7619 422.198 78.4941 422.198 78.4941Z" fill="white"/>
<path d="M742.864 88.4778C726.189 88.4778 709.333 88.4778 700.716 88.4778C692.099 88.4778 695.525 78.4941 709.031 78.4941C722.537 78.4941 742.864 88.4778 742.864 88.4778Z" fill="white"/>
<path d="M195.11 72.5906C148.826 72.5906 98.1661 72.1273 85.1275 72.5906C62.3704 73.3977 60.1822 61.3964 71.1835 59.6777C82.1697 57.9589 91.5261 65.5662 101.848 65.7605C112.17 65.9548 84.9162 52.5785 103.931 48.1098C122.945 43.6411 149.656 64.5798 159.511 64.5798C163.812 64.5798 161.593 55.9861 167.192 54.4019C176.578 51.7565 195.11 72.5906 195.11 72.5906Z" fill="white"/>
<path d="M87.1649 133.599C70.4895 133.599 53.6329 133.599 45.016 133.599C36.3991 133.599 39.8247 123.615 53.3311 123.615C66.8375 123.615 87.1649 133.599 87.1649 133.599Z" fill="white"/>
<path d="M722.519 200.642C725.1 193.827 746.801 210.969 748.476 220.37C749.849 228.067 743.269 239.396 744.537 244.134C745.744 248.647 749.14 259.498 746.801 267.06C744.462 274.608 734.079 283.381 731.74 283.426C730.397 283.441 711.11 277.178 706.734 271.32C703.504 267.015 714.657 263.428 714.777 260.23C715.064 252.697 706.356 245.718 709.405 234.225C710.763 229.113 721.704 228.486 724.33 224.151C726.956 219.787 720.316 206.441 722.519 200.642Z" fill="#70CDE3"/>
<path d="M728.736 316.575L727.227 316.171C727.257 316.052 730.502 303.826 730.955 283.381C731.045 279.031 731.045 275.086 731.03 271.26C731 260.065 730.985 250.396 733.792 238.125L735.316 238.469C732.539 250.575 732.569 260.155 732.584 271.26C732.6 275.086 732.6 279.046 732.509 283.411C732.056 304.08 728.781 316.455 728.736 316.575Z" fill="#97EBFF"/>
<path d="M720.135 210.969C719.124 207.846 719.064 204.408 719.984 201.255C720.527 199.401 721.659 197.429 723.575 197.115C723.575 197.115 716.332 198.146 716.136 202.316C715.925 206.486 720.135 210.969 720.135 210.969Z" fill="#97EBFF"/>
<path d="M711.533 259.886C712.665 258.93 713.133 257.435 712.891 256C712.62 254.386 711.503 253.056 710.265 252.04C709.903 251.741 708.348 252.413 708.62 252.622C709.767 253.579 710.778 254.775 711.095 256.254C711.397 257.614 711.035 259.094 709.933 260.021C709.631 260.275 710.205 260.305 710.341 260.305C710.748 260.29 711.231 260.14 711.533 259.886Z" fill="#97EBFF"/>
<path d="M830 315.427V334.438H145.793C195.321 309.523 211.952 321.061 226.363 315.995C240.775 310.913 286.757 289.466 302.331 289.466C321.406 289.466 352.765 312.303 418.139 317.534C418.591 317.564 419.044 317.609 419.512 317.639C425.277 318.072 431.313 318.371 437.621 318.506C516.441 320.194 581.649 281.291 635.056 279.931C661.812 279.244 730.596 315.651 750.093 318.476C755.466 319.253 767.72 319.029 783.112 318.296C783.61 318.266 784.108 318.251 784.606 318.222C798.264 317.564 814.245 316.518 830 315.427Z" fill="#B9E2EC"/>
<path d="M115.249 334.438H0V292.859C6.67018 290.781 12.4198 289.466 16.2982 289.466C33.6527 289.466 115.249 334.438 115.249 334.438Z" fill="#B9E2EC"/>
<path d="M46.7214 178.779C37.0934 183.203 45.5594 195.847 46.1329 202.05C46.7063 208.252 26.3034 216.278 27.2541 222.958C28.2049 229.639 45.1218 240.325 40.4285 250.742C27.2239 279.991 50.9469 284.639 54.2971 285.057C57.6472 285.476 82.6378 284.34 82.6378 268.468C82.6378 247.365 75.5149 235.423 73.0098 218.43C71.8931 210.867 78.6387 197.82 75.5602 191.169C72.4665 184.503 66.9282 169.483 46.7214 178.779Z" fill="#B9E2EC"/>
<path d="M53.4521 333.137C53.4219 332.958 50.7207 314.679 53.4068 284.997C53.9803 278.705 54.6292 273.026 55.263 267.541C57.1041 251.594 58.6886 237.829 56.6514 219.969L58.4019 219.775C60.4543 237.814 58.8546 251.684 57.0136 267.735C56.3797 273.22 55.7308 278.885 55.1574 285.162C52.4863 314.65 55.1574 332.719 55.1876 332.883L53.4521 333.137Z" fill="#C4EAF3"/>
<path d="M41.9527 199.628C42.33 195.354 38.9194 191.662 36.2181 191.827C33.5169 191.991 41.1529 208.775 41.9527 199.628Z" fill="#B9E2EC"/>
<path d="M66.9281 174.176C71.3497 175.88 76.375 184.982 76.375 184.982C76.375 184.982 74.5188 172.278 70.8064 171.605C67.0941 170.933 59.3675 171.277 66.9281 174.176Z" fill="#B9E2EC"/>
<path d="M125.677 131.402C114.404 137.111 99.132 158.528 102.467 179.018C103.659 186.372 112.231 199.554 114.253 207.355C116.275 215.157 88.7797 250.488 103.478 270.979C111.446 282.083 136.512 276.927 140.557 276.987C144.601 277.046 164.612 286.268 172.625 275.97C182.208 263.655 162.227 233.824 156.976 213.991C154.637 205.173 167.071 182.501 157.987 156.017C155.135 147.752 136.844 125.737 125.677 131.402Z" fill="#B9E2EC"/>
<path d="M146.2 334.079C146.14 333.87 140.496 312.572 139.711 277.017C139.576 270.65 139.666 263.551 139.772 256.018C140.149 227.577 140.632 192.17 129.495 156.944L131.11 156.451C142.337 191.946 141.854 227.487 141.477 256.048C141.371 263.566 141.281 270.65 141.417 276.987C142.201 312.318 147.8 333.451 147.845 333.66L146.2 334.079Z" fill="#C4EAF3"/>
<path d="M139.938 213.528L139.319 212.691C139.229 212.556 129.555 199.718 117.483 192.096L118.388 190.691C128.907 197.342 137.629 207.848 140.013 210.867C142.881 207.4 154.123 193.097 154.123 180.991H155.814C155.814 187.074 153.248 194.278 148.208 202.393C144.465 208.401 140.677 212.706 140.632 212.751L139.938 213.528Z" fill="#C4EAF3"/>
<path d="M140.813 259.201L140.225 258.947C138.836 258.335 136.739 257.468 134.309 256.466C125.813 252.984 114.193 248.201 111.084 245.257L112.246 244.047C115.128 246.767 127.05 251.669 134.958 254.912C137.086 255.794 138.957 256.556 140.345 257.154C146.834 249.741 157.096 244.151 157.549 243.912L158.349 245.377C158.243 245.437 147.483 251.295 141.221 258.708L140.813 259.201Z" fill="#C4EAF3"/>
<path d="M174.134 187.522C165.457 190.78 166.619 208.88 167.117 214.305C167.615 219.73 150.608 219.835 150.608 232.598C150.608 238.502 164.008 247.544 160.492 256.885C150.608 283.294 170.06 285.431 172.625 286.896C184.577 293.711 201.071 286.268 201.071 272.383C201.071 250.772 191.157 243.479 188.969 228.623C187.988 222.017 198.868 210.688 196.363 204.784C192.168 194.935 182.721 184.309 174.134 187.522Z" fill="#56D1EE"/>
<path d="M171.915 323.505C171.885 323.341 169.441 312.796 171.78 286.821C172.278 281.321 172.851 276.359 173.41 271.547C175.009 257.602 176.398 245.571 174.632 229.968L176.307 229.789C178.103 245.571 176.699 257.692 175.085 271.741C174.526 276.538 173.968 281.485 173.47 286.97C171.131 312.722 173.272 322.9 173.302 323.049L171.915 323.505Z" fill="#97EBFF"/>
<path d="M192.982 229.789C193.103 226.276 195.895 215.082 202.037 216.039C208.179 217.01 192.65 239.055 192.982 229.789Z" fill="#70CDE3"/>
<path d="M148.389 138.247C148.389 138.247 142.896 131.536 137.72 129.937C132.543 128.323 145.808 128.024 146.457 129.937C147.091 131.85 148.389 138.247 148.389 138.247Z" fill="#B9E2EC"/>
<path d="M111.084 208.521C109.56 204.53 106.964 194.308 103.086 196.37C99.2075 198.433 111.084 208.521 111.084 208.521Z" fill="#B9E2EC"/>
<path d="M336.648 202.259C343.182 205.577 350.864 221.314 349.988 225.544C349.113 229.773 342.835 235.169 341.658 239.697C340.481 244.226 352.478 254.329 350.139 261.877C347.8 269.424 327.02 279.243 324.681 279.273C322.342 279.303 307.417 263.61 307.718 256.093C308.005 248.56 313.951 243.523 316.999 232.015C318.358 226.904 312.532 216.173 315.158 211.824C317.814 207.49 330.189 198.986 336.648 202.259Z" fill="#C4EAF3"/>
<path d="M321.708 312.438L320.199 312.034C320.229 311.914 323.474 299.689 323.926 279.243C324.017 274.894 324.017 270.949 324.002 267.123C323.972 255.928 323.956 246.259 326.763 233.988L328.288 234.332C325.511 246.438 325.541 256.018 325.556 267.123C325.571 270.949 325.571 274.909 325.481 279.273C325.028 299.943 321.753 312.318 321.708 312.438Z" fill="#B9E2EC"/>
<path d="M358.243 178.869C337.221 176.463 330.159 208.087 330.295 243.389C330.415 275.372 349.309 273.489 350.939 275.627C363.329 291.887 375.839 263.371 376.533 252.267C379.325 207.385 372.217 180.453 358.243 178.869Z" fill="#B9E2EC"/>
<path d="M351.724 275.597C352.01 288.644 353.278 298.792 354.365 305.309L352.705 304.786C351.633 298.195 350.441 288.241 350.169 275.627C349.762 257.079 350.003 221.613 356.19 192.395L357.73 192.708C351.543 221.793 351.316 257.124 351.724 275.597Z" fill="#C4EAF3"/>
<path d="M350.622 237.172L350.245 236.768C346.91 233.286 340.617 223.467 335.486 212.108L336.92 211.48C341.779 222.256 347.664 231.582 350.999 235.288C359.405 230.999 370.059 211.63 370.165 211.435L371.538 212.168C371.07 213.02 360.084 232.987 351.135 236.947L350.622 237.172Z" fill="#C4EAF3"/>
<path d="M351.105 258.723C351.014 258.723 350.909 258.723 350.818 258.723L350.864 257.169C350.939 257.169 351.03 257.169 351.105 257.169C360.718 257.169 370.104 243.404 370.195 243.254L371.493 244.121C371.387 244.271 368.958 247.858 365.23 251.459C360.25 256.287 355.496 258.723 351.105 258.723Z" fill="#C4EAF3"/>
<path d="M368.369 260.816C365.245 259.56 361.654 253.806 361.503 253.567L362.831 252.76C363.781 254.299 366.739 258.499 368.942 259.381L368.369 260.816Z" fill="#C4EAF3"/>
<path d="M622.138 148.709C603.199 146.542 596.831 175.043 596.951 206.832C597.057 235.662 614.079 233.958 615.558 235.886C626.725 250.533 637.998 224.842 638.617 214.828C641.122 174.415 634.724 150.158 622.138 148.709Z" fill="#C4EAF3"/>
<path d="M616.494 287.284C616.479 286.985 615.091 257.363 614.608 235.916C614.23 218.505 614.502 206.981 617.082 188.509L618.938 188.763C616.373 207.101 616.102 218.564 616.479 235.871C616.947 257.288 618.35 286.896 618.365 287.194L616.494 287.284Z" fill="#B9E2EC"/>
<path opacity="0.35" d="M562.816 172.203C576.835 167.66 585.95 190.855 584.894 195.922C583.837 200.988 580.08 209.194 578.676 214.619C577.273 220.044 587.052 228.414 588.516 237.77C591.232 255.017 583.837 270.994 558.334 258.499C534.716 265.748 552.901 244.689 550.516 233.45C548.645 224.602 537.101 221.808 540.753 208.013C542.367 201.885 550.999 197.327 554.153 192.111C557.307 186.895 554.531 174.878 562.816 172.203Z" fill="#70CDE3"/>
<path d="M554.727 301.841L552.916 301.363C552.961 301.214 556.839 286.567 557.383 262.056C557.503 256.84 557.488 252.102 557.473 247.529C557.443 234.108 557.413 222.525 560.793 207.804L562.619 208.222C559.299 222.734 559.314 234.227 559.344 247.529C559.36 252.117 559.36 256.855 559.254 262.101C558.711 286.851 554.772 301.692 554.727 301.841Z" fill="#B9E2EC"/>
<path d="M666.007 134.137C640.7 131.252 632.203 169.319 632.354 211.794C632.49 250.294 655.247 248.022 657.209 250.593C672.119 270.156 687.18 235.841 688.01 222.465C691.375 168.482 682.818 136.065 666.007 134.137Z" fill="#B9E2EC"/>
<path d="M661.525 296.745C661.48 296.58 656.907 279.348 656.273 250.623C655.76 227.382 656.123 211.988 659.579 187.343L661.435 187.597C657.994 212.123 657.632 227.442 658.145 250.578C658.779 279.094 663.291 296.102 663.336 296.266L661.525 296.745Z" fill="#C4EAF3"/>
<path d="M657.043 222.241L656.379 221.613C650.448 215.994 648.637 199.03 648.124 191.991C647.159 178.57 648.034 165.238 650.358 158.02L652.154 158.588C649.935 165.493 649.06 178.869 649.996 191.857C650.962 205.263 653.572 215.471 657.043 219.596C674.292 202.064 675.183 179.855 675.183 175.536H677.054C677.054 180.05 676.118 203.439 657.677 221.598L657.043 222.241Z" fill="#C4EAF3"/>
<path d="M793.6 121.523C789.179 109.85 751.995 139.218 749.127 155.33C746.788 168.526 758.061 187.941 755.873 196.041C753.79 203.768 747.98 222.375 751.98 235.303C755.994 248.231 773.771 263.281 777.785 263.341C780.094 263.371 813.128 252.64 820.643 242.612C826.166 235.244 807.076 229.086 806.865 223.616C806.367 210.718 821.292 198.746 816.071 179.048C813.747 170.29 795.004 169.229 790.492 161.786C786.01 154.328 797.373 131.461 793.6 121.523Z" fill="#B9E2EC"/>
<path d="M784.591 318.236C784.093 318.266 783.595 318.281 783.097 318.311C781.769 312.617 777.725 292.963 777.076 263.356C776.91 255.869 776.925 249.098 776.94 242.537C776.985 223.481 777.015 207.041 772.247 186.237L773.68 185.908C778.494 206.877 778.449 223.407 778.404 242.537C778.389 249.083 778.374 255.854 778.54 263.311C779.204 293.307 783.354 312.991 784.591 318.236Z" fill="#C4EAF3"/>
<path d="M778.223 232.299L777.318 231.821C777.182 231.761 774.134 230.162 770.753 227.218C767.614 224.483 763.615 220.014 762.393 214.305L763.827 214.006C765.668 222.585 774.3 228.354 777.106 230.028C777.589 227.502 779.098 220.702 782.313 213.438C784.697 208.058 787.534 203.469 790.748 199.793C794.808 195.174 799.471 192.006 804.617 190.392L805.07 191.782C793.963 195.279 787.308 205.801 783.671 213.991C779.702 222.958 778.374 231.193 778.359 231.283L778.223 232.299Z" fill="#C4EAF3"/>
<path d="M753.187 141.52C749.49 144.374 745.144 149.247 744.284 154.194C743.575 158.319 745.838 162.548 746.065 166.748C744.374 163.744 739.651 157.706 739.877 152.49C740.375 141.52 752.931 141.594 753.187 141.52Z" fill="#C4EAF3"/>
<path d="M452.433 189.358C461.111 192.616 459.251 204.456 458.753 209.881C458.255 215.306 469.532 219.485 469.532 232.249C469.532 238.152 461.862 243.12 465.378 252.461C475.262 278.87 455.81 281.007 453.245 282.472C441.293 289.287 424.798 281.844 424.798 267.96C424.798 246.348 434.713 239.055 436.901 224.199C437.882 217.593 431.905 207.581 434.41 201.678C438.605 191.828 443.847 186.145 452.433 189.358Z" fill="#56D1EE"/>
<path d="M453.955 319.082C453.985 318.917 456.429 308.373 454.09 282.397C453.592 276.897 453.019 271.935 452.46 267.123C450.861 253.178 449.472 241.147 451.238 225.544L449.563 225.365C447.767 241.147 449.171 253.268 450.785 267.317C451.344 272.114 451.902 277.061 452.4 282.546C454.739 308.298 452.598 318.476 452.568 318.625L453.955 319.082Z" fill="#97EBFF"/>
<path d="M428.15 234.415C430.379 231.675 435.658 221.392 430.371 218.162C425.074 214.942 422.279 241.652 428.15 234.415Z" fill="#97EBFF"/>
<path d="M466.144 211.882C465.133 208.758 465.073 205.321 465.994 202.167C466.537 200.314 467.669 198.341 469.585 198.027C469.585 198.027 462.342 199.059 462.146 203.228C461.934 207.398 466.144 211.882 466.144 211.882Z" fill="#97EBFF"/>
</g>
<path d="M320.104 454.018C339.536 453.061 277.181 466.636 224.535 466.636C176.58 466.636 247.548 459.348 210.598 458.133C173.648 456.918 56.4395 466.12 63.5856 457.632C70.7317 449.129 136.405 453.654 136.405 453.654L320.104 454.018Z" fill="#E9EFF3"/>
<path d="M104.061 136.465V243.738C104.061 247.433 107.858 250.532 112.366 250.532H200.866C205.493 250.532 209.171 247.552 209.171 243.738V136.465C209.171 132.77 205.374 129.671 200.866 129.671H112.484C107.858 129.79 104.061 132.77 104.061 136.465Z" fill="#007AA9"/>
<path d="M98.0111 126.691H215.221V148.623H98.0111V126.691Z" fill="#0E688C"/>
<path opacity="0.39" d="M98.0111 126.691V148.623H103.705V243.857C103.705 247.552 107.264 250.651 111.654 250.651H171.92V126.691H98.0111Z" fill="#0E688C"/>
<path d="M223.881 164.833C219.61 168.17 226.847 201.663 233.253 213.583C235.033 216.801 250.692 238.613 270.03 246.241C271.216 247.076 271.097 243.5 269.555 240.282C260.42 235.633 243.693 213.106 241.795 209.768C235.507 198.564 233.491 172.223 231.237 166.382C228.627 159.35 227.084 162.449 223.881 164.833Z" fill="#F7C399"/>
<path d="M240.253 107.144L223.051 109.17L218.068 102.018C218.068 102.018 232.304 100.826 232.66 100.707C232.897 100.588 238.71 101.303 240.015 104.045C241.32 106.786 240.846 107.144 240.846 107.144H240.253Z" fill="#70CDE3"/>
<path d="M270.148 240.162C273.47 240.997 278.453 244.453 281.419 248.148C282.723 249.698 286.638 256.134 286.282 256.253C283.791 257.207 281.893 249.579 279.876 249.698C279.283 249.698 284.622 259.829 284.028 259.829C281.774 259.71 278.334 250.294 277.741 250.651C276.673 251.367 279.995 260.068 279.52 260.187C277.622 260.783 275.843 251.247 274.656 251.605C273.589 251.843 275.605 258.995 274.894 258.995C273.351 259.114 273.351 252.797 271.809 251.128C271.097 250.413 265.166 248.029 265.759 244.93C266.352 242.427 266.827 239.328 270.148 240.162Z" fill="#F7C399"/>
<path d="M277.86 248.983C278.097 248.983 278.334 248.983 278.571 248.864C278.809 248.744 279.046 248.625 279.046 248.268C279.283 247.552 278.571 246.599 277.504 245.169L277.266 244.93C276.555 243.977 275.843 243.381 274.775 242.666C274.538 242.427 274.182 242.546 273.945 242.785C273.707 243.023 273.826 243.381 274.063 243.619C275.25 244.453 275.843 244.93 276.317 245.645L276.555 245.884C276.91 246.36 277.504 247.195 277.86 247.672C277.385 247.672 276.673 247.314 275.368 246.122C273.945 244.811 272.284 245.049 270.86 245.169C270.386 245.169 269.911 245.288 269.555 245.169C269.199 245.169 268.962 245.407 268.962 245.645C268.962 246.003 269.199 246.241 269.437 246.241C269.911 246.241 270.386 246.241 270.979 246.241C272.165 246.122 273.47 246.003 274.538 246.956C275.724 248.148 276.792 248.983 277.86 248.983Z" fill="#FFA085"/>
<path d="M226.135 156.251C226.135 156.251 230.525 156.847 236.694 187.122C236.694 187.122 236.575 194.035 222.102 193.32C207.628 192.605 222.102 154.821 222.102 154.821L226.135 156.251Z" fill="#90E2F5"/>
<path d="M253.658 443.505C253.658 443.505 255.438 457.808 257.455 456.735C267.538 451.253 278.927 445.174 284.977 441.955C288.892 439.81 277.859 439.214 268.725 438.976C263.03 438.856 258.166 438.976 258.166 438.976L253.658 443.505Z" fill="#005781"/>
<path d="M267.182 445.531C267.538 445.531 267.776 445.293 267.776 444.935C267.894 443.982 269.792 440.525 272.877 439.572C273.233 439.452 273.351 439.095 273.233 438.856C273.114 438.499 272.758 438.38 272.521 438.499C268.843 439.572 266.708 443.505 266.589 444.935C266.471 445.174 266.708 445.412 267.182 445.531C267.064 445.531 267.064 445.531 267.182 445.531Z" fill="#DC8D63"/>
<path d="M264.098 444.458C264.335 444.458 264.573 444.339 264.691 444.101C264.81 443.624 266.589 440.406 269.318 439.572C269.674 439.452 269.792 439.095 269.674 438.856C269.555 438.499 269.199 438.38 268.962 438.499C265.996 439.452 263.979 442.79 263.623 443.863C263.505 444.22 263.623 444.459 263.979 444.578C263.979 444.459 263.979 444.458 264.098 444.458Z" fill="#DC8D63"/>
<path d="M261.014 443.386C261.251 443.386 261.488 443.267 261.488 443.028L261.607 442.909C261.963 442.194 262.912 440.168 264.81 439.452C265.166 439.333 265.284 438.976 265.166 438.737C265.047 438.38 264.691 438.26 264.454 438.38C262.081 439.214 261.014 441.598 260.539 442.432L260.42 442.551C260.302 442.79 260.42 443.147 260.658 443.386C260.895 443.386 261.014 443.386 261.014 443.386Z" fill="#DC8D63"/>
<path d="M256.505 457.808C256.624 457.808 256.743 457.808 256.743 457.689L286.638 441.598C286.876 441.479 286.994 441.121 286.876 440.764C286.757 440.525 286.401 440.406 286.045 440.525L256.15 456.616C255.912 456.735 255.794 457.093 255.912 457.451C256.031 457.689 256.268 457.808 256.505 457.808Z" fill="#DC8D63"/>
<path d="M259.471 438.857L253.777 444.459C247.845 435.4 220.441 401.072 220.797 369.963C220.915 358.997 224.949 352.084 224.356 344.098C224 339.212 204.544 284.502 203.951 284.502C202.883 287.482 193.63 329.199 189.478 339.688C186.156 348.032 154.718 400.834 134.55 432.063L128.856 428.248C135.025 407.032 144.041 369.01 156.853 352.68C163.141 344.575 172.157 339.212 172.038 333.49C171.327 309.89 172.513 294.753 174.886 269.722C175.123 266.981 167.174 258.518 171.208 246.36C175.123 234.441 191.85 232.057 195.884 224.191C204.544 226.932 217.238 227.29 222.458 225.263C224 233.13 224.949 237.421 227.678 257.803C229.22 269.365 245.947 335.874 243.574 346.363C241.439 354.826 253.658 426.818 259.471 438.857Z" fill="#172755"/>
<g opacity="0.3">
<path opacity="0.3" d="M195.884 239.805C198.968 239.805 201.341 238.613 202.527 237.779C204.663 236.348 206.086 234.441 205.968 233.011C205.968 232.653 205.612 232.415 205.374 232.415C205.018 232.415 204.781 232.772 204.781 233.011C204.781 233.607 203.951 235.276 201.815 236.587C200.155 237.659 195.765 239.924 190.308 236.944C190.071 236.825 189.715 236.944 189.478 237.183C189.359 237.421 189.478 237.779 189.715 238.017C191.969 239.328 193.986 239.805 195.884 239.805Z" fill="white"/>
</g>
<path opacity="0.3" d="M213.204 231.104C214.746 231.223 214.272 234.918 213.323 234.918C212.137 234.799 211.662 230.985 213.204 231.104Z" fill="white"/>
<g opacity="0.39">
<g opacity="0.39">
<path opacity="0.39" d="M186.63 245.884C186.868 245.884 187.105 245.765 187.223 245.526C187.698 244.453 188.291 243.381 188.766 242.427C188.884 242.189 188.766 241.831 188.528 241.593C188.291 241.474 187.935 241.593 187.698 241.831C187.105 242.785 186.63 243.977 186.037 245.049C185.919 245.288 186.037 245.645 186.274 245.884C186.512 245.884 186.512 245.884 186.63 245.884Z" fill="white"/>
</g>
<g opacity="0.39">
<path opacity="0.39" d="M134.787 413.111C135.025 413.111 135.262 412.992 135.381 412.634C136.092 410.25 136.804 407.866 137.516 405.483C137.635 405.125 137.397 404.887 137.16 404.767C136.804 404.648 136.567 404.887 136.448 405.125C135.736 407.509 135.025 410.012 134.432 412.277C134.313 412.634 134.55 412.872 134.787 412.992C134.669 413.111 134.787 413.111 134.787 413.111ZM140.363 393.921C140.6 393.921 140.838 393.802 140.956 393.444C141.668 391.06 142.38 388.676 143.21 386.293C143.329 385.935 143.092 385.697 142.855 385.577C142.499 385.458 142.261 385.697 142.143 385.935C141.431 388.319 140.6 390.703 139.889 393.087C139.77 393.444 140.007 393.682 140.245 393.802C140.245 393.921 140.245 393.921 140.363 393.921ZM146.769 374.969C147.007 374.969 147.244 374.85 147.363 374.612C148.312 372.109 149.379 369.844 150.328 367.818C150.447 367.579 150.328 367.222 150.091 366.983C149.854 366.864 149.498 366.983 149.261 367.222C148.193 369.248 147.244 371.513 146.176 374.135C146.058 374.492 146.176 374.731 146.532 374.969C146.532 374.969 146.651 374.969 146.769 374.969ZM156.616 357.806C156.735 357.806 156.972 357.686 157.091 357.567C158.514 355.898 160.175 354.111 162.192 352.203C162.429 351.965 162.429 351.608 162.192 351.369C161.955 351.131 161.599 351.131 161.361 351.369C159.345 353.395 157.684 355.064 156.26 356.852C156.023 357.09 156.023 357.448 156.379 357.686C156.379 357.806 156.497 357.806 156.616 357.806ZM170.378 343.502C170.496 343.502 170.733 343.383 170.852 343.264C172.632 340.999 173.818 338.735 174.411 336.47C174.53 336.112 174.292 335.874 173.937 335.755C173.581 335.636 173.343 335.874 173.225 336.232C172.632 338.377 171.682 340.403 169.903 342.549C169.666 342.787 169.784 343.145 170.022 343.383C170.14 343.383 170.259 343.502 170.378 343.502ZM175.004 324.432C175.36 324.432 175.597 324.193 175.597 323.836C175.716 322.286 175.716 320.737 175.835 318.949L175.953 316.327C175.953 315.969 175.716 315.731 175.36 315.731C175.004 315.731 174.767 315.969 174.767 316.327L174.648 318.949C174.53 320.617 174.53 322.286 174.411 323.836C174.292 324.193 174.648 324.432 175.004 324.432C174.886 324.432 174.886 324.432 175.004 324.432ZM175.953 304.526C176.309 304.526 176.546 304.288 176.546 303.93C176.665 301.547 176.902 299.044 177.021 296.421C177.021 296.064 176.784 295.825 176.428 295.825C176.072 295.825 175.835 296.064 175.835 296.421C175.597 298.924 175.479 301.427 175.36 303.93C175.241 304.288 175.597 304.526 175.953 304.526C175.835 304.526 175.953 304.526 175.953 304.526ZM177.614 284.621C177.97 284.621 178.207 284.383 178.207 284.145C178.445 281.641 178.8 279.138 179.156 276.755C179.156 276.397 178.919 276.159 178.682 276.039C178.326 276.039 178.089 276.278 177.97 276.516C177.614 278.9 177.258 281.403 177.021 283.906C176.902 284.264 177.14 284.621 177.614 284.621C177.496 284.621 177.496 284.621 177.614 284.621ZM180.699 264.955C180.936 264.955 181.173 264.716 181.292 264.478C181.885 261.975 182.478 259.472 183.071 257.207C183.19 256.849 182.953 256.611 182.715 256.492C182.36 256.373 182.122 256.611 182.004 256.849C181.41 259.114 180.817 261.617 180.224 264.12C180.105 264.478 180.343 264.716 180.699 264.835C180.58 264.955 180.58 264.955 180.699 264.955Z" fill="white"/>
</g>
<g opacity="0.39">
<path opacity="0.39" d="M129.805 428.248C130.042 428.248 130.279 428.129 130.398 427.891C130.873 426.818 131.228 425.745 131.584 424.553C131.703 424.196 131.584 423.957 131.228 423.838C130.873 423.719 130.635 423.838 130.517 424.196C130.161 425.388 129.686 426.46 129.33 427.533C129.212 427.891 129.33 428.129 129.686 428.248H129.805Z" fill="#37709C"/>
</g>
</g>
<g opacity="0.3">
<path opacity="0.3" d="M247.608 430.394C247.727 430.394 247.845 430.394 247.964 430.275C248.201 430.155 248.32 429.679 248.201 429.44C247.015 427.533 245.71 425.507 244.523 423.361C244.405 423.123 244.049 423.004 243.693 423.123C243.456 423.242 243.337 423.6 243.456 423.957C244.761 426.103 245.947 428.129 247.133 430.036C247.252 430.275 247.489 430.394 247.608 430.394ZM237.999 413.945C238.117 413.945 238.236 413.945 238.236 413.826C238.473 413.707 238.592 413.349 238.473 412.992C237.287 410.846 236.219 408.701 235.151 406.674C235.033 406.436 234.677 406.317 234.321 406.436C234.084 406.555 233.965 406.913 234.084 407.27C235.151 409.297 236.219 411.442 237.405 413.588C237.643 413.826 237.88 413.945 237.999 413.945ZM229.813 396.662C229.932 396.662 229.932 396.662 230.05 396.662C230.406 396.543 230.525 396.186 230.406 395.828C229.457 393.563 228.627 391.299 227.915 389.153C227.796 388.796 227.44 388.676 227.203 388.796C226.847 388.915 226.728 389.272 226.847 389.511C227.559 391.656 228.389 393.921 229.338 396.305C229.338 396.543 229.576 396.662 229.813 396.662ZM224.474 378.426C224.949 378.426 225.068 378.068 225.068 377.711C224.712 375.565 224.593 373.539 224.474 371.513C224.474 371.274 224.474 371.155 224.474 370.917V370.678C224.474 370.321 224.237 370.082 223.881 370.082C223.525 370.082 223.288 370.321 223.288 370.678V371.036C223.288 371.274 223.288 371.393 223.288 371.632C223.288 373.658 223.525 375.804 223.881 377.949C223.881 378.187 224.118 378.426 224.474 378.426ZM225.186 359.474C225.423 359.474 225.779 359.236 225.779 358.997C226.135 356.614 226.61 354.23 226.966 351.965C226.966 351.608 226.847 351.369 226.491 351.25C226.135 351.25 225.898 351.369 225.779 351.727C225.305 353.991 224.949 356.375 224.593 358.759C224.474 359.117 224.712 359.474 225.186 359.474C225.068 359.474 225.068 359.474 225.186 359.474ZM228.864 340.046V339.807C228.864 338.496 228.389 336.351 227.203 332.894C227.084 332.537 226.728 332.418 226.491 332.537C226.135 332.656 226.017 333.014 226.135 333.252C227.203 336.47 227.678 338.616 227.678 339.807V339.927L228.271 340.046H228.864ZM222.458 322.525C222.576 322.525 222.576 322.525 222.695 322.525C223.051 322.405 223.169 322.048 223.051 321.809C222.22 319.664 221.39 317.399 220.441 315.135C220.322 314.777 219.966 314.658 219.729 314.777C219.373 314.896 219.255 315.254 219.373 315.492C220.322 317.757 221.153 320.022 221.983 322.167C221.983 322.405 222.22 322.525 222.458 322.525ZM215.577 304.765C215.696 304.765 215.696 304.765 215.814 304.765C216.17 304.646 216.289 304.288 216.17 304.05C215.34 301.785 214.509 299.52 213.679 297.375C213.56 297.017 213.204 296.898 212.967 297.017C212.611 297.137 212.492 297.494 212.611 297.733C213.441 299.997 214.272 302.143 215.102 304.407C215.102 304.526 215.34 304.765 215.577 304.765ZM209.171 286.767C209.289 286.767 209.289 286.767 209.408 286.767C209.764 286.648 209.882 286.29 209.764 286.052C208.933 283.549 208.222 281.284 207.747 279.258C207.628 278.9 207.391 278.781 207.035 278.781C206.679 278.9 206.561 279.138 206.561 279.496C207.154 281.522 207.747 283.906 208.578 286.409C208.578 286.648 208.815 286.767 209.171 286.767Z" fill="white"/>
</g>
<g opacity="0.3">
<path opacity="0.3" d="M210.238 227.766C215.458 227.766 220.441 227.17 222.458 226.098C222.695 225.979 222.814 225.621 222.695 225.263C222.576 225.025 222.22 224.906 221.864 225.025C217.95 226.932 200.748 227.17 195.884 224.191C195.646 224.071 195.291 224.071 195.053 224.429C194.935 224.667 194.935 225.025 195.291 225.263C198.138 227.051 204.425 227.766 210.238 227.766Z" fill="#007AA9"/>
</g>
<g opacity="0.3">
<path opacity="0.3" d="M211.306 230.746C216.763 230.746 221.627 230.27 223.407 229.316C223.644 229.197 223.763 228.839 223.644 228.482C223.525 228.243 223.169 228.124 222.814 228.243C219.017 230.15 199.324 230.15 194.104 226.932C193.867 226.813 193.511 226.813 193.274 227.171C193.155 227.409 193.155 227.766 193.511 228.005C196.596 229.912 204.307 230.746 211.306 230.746Z" fill="#007AA9"/>
</g>
<g opacity="0.3">
<path opacity="0.3" d="M203.832 285.217C204.069 285.217 204.307 284.979 204.425 284.74C205.968 276.516 210.832 262.451 212.255 258.28C212.374 257.922 212.255 257.684 211.899 257.565C211.543 257.445 211.306 257.565 211.187 257.922C209.764 262.094 204.781 276.159 203.358 284.502C203.239 284.86 203.476 285.217 203.832 285.217Z" fill="white"/>
</g>
<g opacity="0.3">
<path opacity="0.3" d="M212.611 250.771C212.73 250.771 212.967 250.771 213.086 250.651C213.56 250.175 216.051 247.672 216.407 246.36C216.645 245.645 216.407 241.831 216.17 236.229C216.051 233.488 215.933 230.865 215.933 230.15C215.933 229.793 215.696 229.554 215.34 229.554C214.984 229.554 214.746 229.793 214.746 230.15C214.746 230.865 214.865 233.368 214.984 236.348C215.221 239.924 215.458 245.407 215.34 246.122C215.102 246.837 213.441 248.864 212.374 249.817C212.137 250.055 212.137 250.413 212.374 250.651C212.374 250.651 212.492 250.771 212.611 250.771Z" fill="white"/>
</g>
<g opacity="0.3">
<path opacity="0.3" d="M211.187 237.898C211.543 237.898 211.781 237.54 211.781 237.302L211.543 233.964C211.425 232.057 211.306 230.508 211.306 230.15C211.306 229.793 211.069 229.554 210.713 229.554C210.357 229.554 210.12 229.793 210.12 230.15C210.12 230.508 210.238 232.057 210.357 233.964L210.594 237.302C210.713 237.659 210.95 237.898 211.187 237.898Z" fill="white"/>
</g>
<g opacity="0.3">
<path opacity="0.3" d="M196.121 257.326H196.24C197.663 256.969 198.968 256.373 200.036 255.658C200.866 255.062 201.697 254.227 202.409 253.393C202.646 253.154 202.646 252.797 202.29 252.558C202.053 252.32 201.697 252.32 201.459 252.678C200.748 253.512 200.036 254.108 199.205 254.704C198.256 255.419 197.07 255.896 195.765 256.253C195.409 256.373 195.291 256.611 195.291 256.969C195.528 257.207 195.765 257.326 196.121 257.326ZM185.207 254.585C185.325 254.585 185.444 254.585 185.563 254.466C185.8 254.227 185.919 253.87 185.681 253.631C185.325 253.035 185.088 252.32 185.088 251.486C185.088 251.247 185.088 251.009 185.207 250.771C185.207 250.413 185.088 250.175 184.732 250.055C184.376 250.055 184.139 250.175 184.02 250.532C184.02 250.89 183.902 251.128 183.902 251.486C183.902 252.559 184.139 253.512 184.732 254.346C184.851 254.466 184.969 254.585 185.207 254.585ZM206.205 242.666C206.561 242.666 206.798 242.427 206.798 242.07C206.917 241.116 206.917 240.162 206.917 239.09C206.917 237.659 206.798 236.229 206.679 234.799C206.679 234.441 206.323 234.203 205.968 234.322C205.612 234.322 205.374 234.68 205.493 235.037C205.73 236.467 205.73 237.779 205.73 239.209C205.73 240.162 205.73 241.116 205.612 242.07C205.493 242.308 205.73 242.546 206.205 242.666C206.086 242.666 206.205 242.666 206.205 242.666Z" fill="white"/>
</g>
<g opacity="0.3">
<path opacity="0.3" d="M199.799 242.07C199.917 242.07 199.917 242.07 200.036 242.07C203.12 240.758 205.137 238.613 205.849 237.421C205.968 237.183 205.849 236.825 205.612 236.587C205.374 236.467 205.019 236.587 204.781 236.825C204.307 237.779 202.409 239.805 199.561 240.997C199.205 241.116 199.087 241.474 199.205 241.831C199.324 241.95 199.561 242.07 199.799 242.07ZM188.528 240.878C188.766 240.878 188.884 240.758 189.003 240.639C189.122 240.401 189.122 240.043 188.766 239.805L188.528 239.686C188.291 239.447 187.935 239.566 187.698 239.805C187.461 240.043 187.579 240.401 187.817 240.639L188.173 240.758C188.291 240.758 188.41 240.878 188.528 240.878Z" fill="white"/>
</g>
<path d="M200.036 114.533C197.782 112.746 193.274 113.222 191.969 115.964C189.596 120.731 192.206 126.095 191.732 129.313C190.901 134.677 184.732 136.465 185.444 145.285H186.868C186.868 145.285 186.749 141.948 187.935 140.875C187.461 142.544 187.935 145.285 187.935 145.285L193.986 145.166C193.986 145.166 199.799 138.134 199.087 131.34C198.731 127.645 196.596 125.261 196.24 121.685C195.765 118.109 197.307 114.533 199.561 115.487C201.578 116.56 200.036 114.533 200.036 114.533Z" fill="#082D47"/>
<path d="M184.495 142.305C184.732 142.305 185.088 142.067 185.088 141.829C185.444 138.61 186.986 136.703 188.528 134.915C189.833 133.366 191.138 131.816 191.494 129.552C191.613 128.36 191.376 126.93 191.138 125.38C190.664 122.4 190.071 118.944 191.85 115.845C192.443 114.772 193.63 114.057 195.053 113.818C196.596 113.461 198.256 113.818 199.324 114.653C199.561 114.891 199.917 114.772 200.155 114.534C200.392 114.295 200.273 113.938 200.036 113.699C198.731 112.746 196.714 112.269 194.816 112.746C193.037 113.103 191.613 114.057 190.782 115.368C188.766 118.944 189.478 122.758 189.952 125.738C190.189 127.287 190.427 128.598 190.308 129.552C190.071 131.578 188.884 132.77 187.579 134.319C186.037 136.107 184.258 138.253 183.783 141.829C183.902 141.948 184.139 142.186 184.495 142.305Z" fill="#082D47"/>
<path d="M207.866 103.568C213.916 97.1314 219.492 97.0122 224.356 99.7536C230.406 103.329 232.897 112.507 228.982 122.877C224.356 135.154 217.594 137.418 212.374 137.418C206.679 137.418 200.51 132.174 198.494 123.473C193.155 101.422 203.951 96.1779 207.866 103.568Z" fill="#082D47"/>
<path d="M226.373 155.417C226.61 155.417 226.728 155.297 226.847 155.059C226.966 154.821 226.966 154.463 226.61 154.225C220.441 150.649 222.576 145.166 225.305 138.253C228.389 130.386 231.83 121.447 223.525 113.222C223.288 112.984 222.932 112.984 222.695 113.222C222.458 113.461 222.458 113.818 222.695 114.057C230.406 121.804 227.084 130.267 224.119 137.895C221.39 144.808 218.899 151.245 226.017 155.297C226.135 155.417 226.254 155.417 226.373 155.417Z" fill="#082D47"/>
<path d="M233.491 110.958C233.609 110.958 233.609 110.958 233.728 110.958C234.084 110.839 234.202 110.481 234.084 110.123C230.881 102.257 222.576 98.0849 216.289 98.0849C212.018 98.0849 208.815 99.992 207.391 103.329C207.273 103.687 207.391 103.925 207.747 104.164C208.103 104.283 208.34 104.164 208.578 103.806C209.764 100.946 212.492 99.2768 216.289 99.2768C222.22 99.2768 230.169 103.568 233.016 110.6C233.016 110.839 233.253 110.958 233.491 110.958Z" fill="#082D47"/>
<path d="M227.44 157.204C230.999 162.926 222.22 211.795 225.305 230.031C225.779 232.892 189.24 233.249 189.952 229.912C192.443 218.469 193.155 187.003 189.952 171.031C188.528 163.879 185.8 159.827 190.545 155.893C191.732 154.821 205.256 150.887 209.527 147.192C212.967 150.887 226.491 155.655 227.44 157.204Z" fill="#70CDE3"/>
<path d="M223.288 166.621C236.338 171.627 233.846 187.718 221.39 185.215C215.221 183.904 223.288 166.621 223.288 166.621Z" fill="#70CDE3"/>
<path d="M206.679 186.407C207.866 186.407 209.052 186.168 210.238 185.811C213.797 184.5 217 180.685 215.458 174.13C215.34 173.772 215.102 173.653 214.746 173.653C214.391 173.772 214.272 174.011 214.272 174.368C215.458 179.374 213.797 183.188 209.882 184.738C206.323 186.049 201.341 184.976 199.087 180.805C198.968 180.566 198.612 180.447 198.256 180.566C198.019 180.685 197.9 181.043 198.019 181.401C199.799 184.857 203.358 186.407 206.679 186.407Z" fill="#59BAD1"/>
<path d="M224.237 186.526C225.898 186.526 227.084 186.049 227.915 185.572C230.643 184.142 232.66 181.162 232.66 178.302C232.66 177.944 232.423 177.706 232.067 177.706C231.711 177.706 231.474 177.944 231.474 178.302C231.474 180.685 229.813 183.308 227.44 184.5C224.83 185.811 221.864 185.453 218.899 183.308C218.661 183.069 218.305 183.188 218.068 183.427C217.831 183.665 217.95 184.023 218.187 184.261C220.441 185.93 222.576 186.526 224.237 186.526Z" fill="#59BAD1"/>
<path d="M202.883 151.96C202.053 153.748 209.764 157.085 213.204 156.132C216.407 155.178 216.407 152.198 215.933 151.602C213.204 147.788 214.628 137.061 214.153 133.366C213.56 128.956 210.357 121.804 203.358 121.447C206.798 137.657 204.781 148.146 202.883 151.96Z" fill="#FFA085"/>
<path d="M226.966 118.705C227.084 129.79 221.627 140.756 217.356 141.113C210.832 141.709 204.188 133.843 204.188 123.473C203.358 124.903 200.273 123.711 199.68 119.659C199.087 115.606 202.883 116.083 203.832 120.016C205.493 119.182 208.459 116.798 209.171 112.865C214.509 118.228 221.864 119.063 226.966 118.705Z" fill="#F7C399"/>
<path d="M192.443 156.012C186.749 153.509 164.09 192.366 158.396 204.047C154.125 212.748 149.973 228.601 148.074 254.466C149.142 260.544 152.701 264.12 153.65 254.346C154.718 243.857 162.548 217.397 166.7 208.934C170.852 200.471 189.952 174.607 193.392 168.885C196.714 163.283 196.24 157.681 192.443 156.012Z" fill="#F7C399"/>
<path d="M153.65 254.227C154.243 260.306 154.837 265.074 154.599 266.981C154.125 271.987 152.108 275.682 151.633 275.443C150.803 275.086 153.65 268.173 152.701 267.219C152.345 266.862 149.023 277.351 148.43 276.874C147.007 275.92 151.04 266.385 150.447 266.266C149.261 266.027 145.702 274.728 145.346 274.371C144.397 273.536 148.193 265.789 147.837 265.312C147.244 264.597 143.804 271.033 143.329 270.557C142.261 269.603 146.651 264.001 146.888 261.975C147.244 259.233 146.058 257.088 147.244 254.942C148.786 251.605 153.294 251.128 153.65 254.227Z" fill="#F7C399"/>
<path d="M129.212 427.772C129.212 427.772 116.992 435.161 118.772 436.592C127.907 443.624 138.109 451.61 143.448 455.782C147.007 458.523 143.092 448.153 139.533 439.691C137.279 434.446 135.262 430.036 135.262 430.036L129.212 427.772Z" fill="#005781"/>
<path d="M141.075 444.101C141.194 444.101 141.312 444.101 141.431 443.982C141.668 443.743 141.668 443.386 141.55 443.147C139.058 440.287 134.669 439.81 133.364 440.287C133.008 440.406 132.889 440.764 133.008 441.002C133.127 441.36 133.482 441.479 133.72 441.359C134.669 441.002 138.584 441.479 140.719 443.863C140.838 443.982 140.956 444.101 141.075 444.101Z" fill="#DC8D63"/>
<path d="M139.77 440.764C139.889 440.764 140.007 440.764 140.126 440.644C140.363 440.406 140.363 440.048 140.126 439.81C138.109 437.426 134.194 436.949 133.127 437.069C132.771 437.069 132.533 437.426 132.533 437.665C132.533 438.022 132.889 438.261 133.127 438.261C133.601 438.261 137.279 438.38 139.177 440.525C139.414 440.644 139.533 440.764 139.77 440.764Z" fill="#DC8D63"/>
<path d="M137.991 436.711C138.109 436.711 138.346 436.711 138.465 436.592C138.702 436.353 138.702 435.996 138.465 435.757C136.686 433.97 134.194 433.85 133.245 433.85H133.127C132.771 433.85 132.533 434.089 132.533 434.446C132.533 434.804 132.771 435.042 133.127 435.042H133.364C134.194 435.042 136.448 435.161 137.872 436.592C137.753 436.592 137.872 436.711 137.991 436.711Z" fill="#DC8D63"/>
<path d="M144.871 457.451C144.99 457.451 145.227 457.331 145.346 457.212C145.583 456.974 145.464 456.616 145.227 456.378L118.416 435.519C118.179 435.281 117.823 435.4 117.586 435.638C117.348 435.877 117.467 436.234 117.704 436.473L144.515 457.331C144.634 457.451 144.753 457.451 144.871 457.451Z" fill="#DC8D63"/>
<path d="M195.646 177.11L189.952 190.817C189.952 190.817 181.41 191.293 171.801 180.447C171.801 180.447 182.715 157.8 192.799 154.821C202.883 151.96 195.646 177.11 195.646 177.11Z" fill="#90E2F5"/>
<path d="M197.307 109.527C197.663 109.766 200.748 108.097 203.002 106.786C204.188 106.428 205.493 105.952 206.917 105.594C214.272 103.568 223.763 102.018 227.915 101.422C228.745 100.588 225.898 91.5293 221.746 89.0263C218.543 87.1192 214.035 86.6424 209.645 87.3576C204.781 88.0727 200.155 90.2182 198.138 92.9596C194.223 98.3233 195.528 108.455 197.307 109.527Z" fill="#70CDE3"/>
<path d="M213.756 92.3109C215.962 91.8132 217.569 92.8739 217.618 94.7647C217.666 96.6554 216.083 98.4942 213.888 98.9892L211.67 99.4895C209.689 99.9364 208.13 98.7014 208.13 98.7014L211.333 97.979L213.919 97.3956C215.034 97.1441 215.791 96.2383 215.772 95.2043C215.741 94.173 214.932 93.6204 213.829 93.8692L211.528 94.3883L208.859 94.9903C206.88 95.4483 205.321 94.2133 205.321 94.2133L211.193 92.8888L213.756 92.3109ZM213.141 96.5911L213.103 95.0247L206.721 96.4643C206.721 96.4643 208.28 97.6992 210.261 97.2524L213.144 96.6022L213.141 96.5911Z" fill="white"/>
<path d="M203.002 106.667C204.425 108.216 215.814 111.434 220.204 109.885C224 108.574 225.068 102.257 230.525 101.541C233.491 101.184 235.507 101.303 237.05 101.541C234.084 100.35 229.457 99.7536 227.915 99.7536C223.169 99.7536 214.746 99.992 203.002 106.667Z" fill="#90E2F5"/>
<path d="M179.987 151.841C179.987 151.841 198.85 143.259 202.409 160.661C205.968 178.063 181.292 215.132 181.292 215.132V211.914C181.292 211.914 202.764 171.388 197.07 159.469C191.376 147.55 177.496 160.899 177.496 160.899L179.987 151.841Z" fill="#007AA9"/>
<path d="M215.933 151.602C215.933 151.602 225.068 156.012 225.542 168.409L229.932 171.627C229.932 171.627 226.966 151.245 215.221 150.172L215.933 151.602Z" fill="#007AA9"/>
<g clip-path="url(#clip1)">
<path d="M540.717 125.081C545.904 121.021 556.499 122.009 559.699 128.483C565.217 139.566 559.147 151.856 560.14 159.208C561.906 171.498 576.363 175.668 574.818 196.079L571.507 195.969C571.507 195.969 571.618 188.178 569.079 185.654C570.183 189.604 569.079 195.969 569.079 195.969L555.064 195.64C555.064 195.64 541.6 179.509 543.256 163.817C544.138 155.368 548.994 149.661 549.987 141.541C550.981 133.421 547.449 125.081 542.262 127.276C537.075 129.47 540.717 125.081 540.717 125.081Z" fill="#082D47"/>
<path d="M576.915 188.068C576.694 188.068 576.473 187.958 576.473 187.739C575.59 179.948 571.728 175.559 568.086 171.389C564.996 167.877 562.127 164.475 561.354 159.428C561.023 156.794 561.575 153.612 562.127 149.991C563.341 143.297 564.775 134.847 560.471 127.166C559.037 124.533 556.057 122.667 552.415 121.899C548.442 121.131 544.359 121.899 541.711 123.874C541.49 123.984 541.269 123.984 541.159 123.764C541.048 123.545 541.048 123.325 541.269 123.216C544.028 121.021 548.332 120.253 552.636 121.021C556.499 121.789 559.699 123.874 561.244 126.617C565.769 134.518 564.224 143.077 563.01 149.991C562.348 153.612 561.796 156.684 562.237 159.208C562.899 164.037 565.769 167.329 568.748 170.73C572.28 174.79 576.363 179.509 577.246 187.519C577.356 187.849 577.246 188.068 576.915 188.068C577.025 188.068 576.915 188.068 576.915 188.068Z" fill="#082D47"/>
<path d="M532.551 112.462C526.922 106.426 521.625 106.317 517.101 108.95C511.472 112.242 509.044 120.802 512.686 130.458C517.101 141.87 523.391 143.955 528.247 143.955C533.654 143.955 539.393 139.127 541.379 131.007C546.346 110.487 536.193 105.658 532.551 112.462Z" fill="#082D47"/>
<path d="M515.225 160.635C515.114 160.635 514.893 160.525 514.893 160.415C514.783 160.196 514.893 159.976 515.004 159.867C520.853 156.575 518.866 151.417 516.328 144.833C513.459 137.591 510.258 129.361 517.873 121.679C517.983 121.57 518.315 121.57 518.425 121.679C518.535 121.789 518.535 122.118 518.425 122.228C511.141 129.471 514.231 137.481 516.99 144.504C519.529 150.869 521.846 156.794 515.335 160.525C515.335 160.635 515.225 160.635 515.225 160.635Z" fill="#082D47"/>
<path d="M532.551 112.901C532.44 112.901 532.22 112.791 532.109 112.681C530.454 108.621 526.371 105.988 521.846 105.878C517.432 105.768 513.68 108.182 511.693 112.242C511.583 112.462 511.362 112.572 511.141 112.462C510.921 112.352 510.81 112.133 510.921 111.913C513.017 107.524 516.99 105 521.846 105.11C526.702 105.219 531.116 108.073 532.882 112.462C532.992 112.681 532.882 112.901 532.661 113.011C532.661 112.901 532.551 112.901 532.551 112.901Z" fill="#082D47"/>
<path d="M516.99 168.097C520.191 172.705 501.761 189.824 492.049 196.847C489.511 198.603 485.869 199.919 484.214 198.493C482.89 197.395 482.338 191.799 485.649 188.727C494.698 180.497 504.189 172.157 508.382 167.219C512.576 162.281 514.673 164.805 516.99 168.097Z" fill="#F7C399"/>
<path d="M546.566 165.573C542.042 168.975 551.201 202.224 555.285 215.611C559.258 228.779 564.665 242.167 583.536 261.041C584.75 261.809 589.496 262.577 586.075 258.407C578.901 247.544 568.528 224.5 564.665 214.404C561.354 205.735 557.492 173.364 555.064 167.438C552.636 161.403 549.767 163.049 546.566 165.573Z" fill="#F7C399"/>
<path d="M585.633 258.298C587.84 261.26 593.358 265.759 594.351 267.296C595.565 269.381 597.11 274.758 597 275.197C596.338 277.062 593.8 269.71 591.592 268.174C588.613 266.089 585.964 264.662 585.192 265.321C583.647 266.747 589.275 268.942 587.509 271.356C586.847 272.344 586.185 269.71 584.75 268.722C583.867 267.954 581.55 266.637 580.998 264.552C580.557 263.016 581.66 261.699 581.881 257.968C582.985 257.529 585.633 258.298 585.633 258.298Z" fill="#F7C399"/>
<path d="M534.648 448.136C534.979 450.55 532.109 455.379 532.771 457.793C537.075 456.696 542.483 458.89 543.256 458.89C545.242 458.89 541.821 448.904 541.71 446.929C541.6 445.283 541.931 442.869 541.379 441.772C540.055 439.248 538.069 438.37 537.296 438.37C535.751 438.37 533.323 440.345 534.648 448.136Z" fill="#FFBF34"/>
<path d="M535.53 438.37C534.648 449.124 533.765 453.513 533.875 455.708C533.875 457.683 541.379 457.793 542.704 457.793C542.593 453.733 540.055 443.637 539.724 437.712C538.952 436.834 535.641 436.943 535.53 438.37Z" fill="#F7C399"/>
<path d="M540.607 455.488C536.855 454.172 534.096 454.501 532.772 455.598C531.668 456.476 531.558 457.793 532.33 458.78C532.44 458.89 532.551 459 532.772 459H543.256C544.469 459 543.145 456.366 540.607 455.488Z" fill="#FFBF34"/>
<path d="M535.31 433.213C535.641 437.273 535.641 447.478 536.193 447.478C537.296 447.478 541.048 433.213 541.048 433.213H535.31Z" fill="#F7C399"/>
<path d="M495.36 434.09C495.47 435.188 493.594 447.149 494.698 447.149C495.581 447.149 500.768 444.954 501.65 442.211C502.092 440.784 499.664 438.48 499.774 437.492C499.995 436.395 501.209 434.09 501.209 434.09H495.36Z" fill="#F7C399"/>
<path d="M495.029 439.029C493.815 442.759 491.056 448.685 490.173 455.379C489.953 457.354 494.808 457.793 496.133 457.793C497.015 447.478 499.002 443.308 500.878 439.687C500.106 438.699 495.47 437.712 495.029 439.029Z" fill="#F7C399"/>
<path d="M498.45 447.039C499.112 448.685 499.333 454.94 499.002 459C500.106 459 500.216 459 500.216 459V443.089L498.45 447.039Z" fill="#FFBF34"/>
<path d="M501.651 445.283C500.106 447.039 500.878 459 500.878 459H499.664C499.664 459 500.216 445.942 499.112 445.283C498.009 444.625 501.651 445.283 501.651 445.283Z" fill="#FFBF34"/>
<path d="M499.885 438.37C497.567 439.358 496.905 455.159 495.581 455.708C491.608 454.172 487.414 454.391 486.09 455.488C484.986 456.366 484.876 457.793 485.649 458.671C485.759 458.78 485.869 458.89 486.09 458.89H496.574C497.898 458.89 496.574 447.258 499.774 446.161C500.768 445.832 502.313 445.503 502.313 443.418C502.423 441.443 500.437 438.151 499.885 438.37Z" fill="#FFBF34"/>
<path d="M553.629 164.366C553.96 162.939 534.758 158.879 531.006 156.026C527.033 158.879 510.038 162.939 510.258 164.366C512.576 180.497 516.549 199.59 519.86 213.087C520.301 215.831 519.418 218.464 519.529 220.001C519.639 221.317 526.702 221.647 532.551 221.537C538.4 221.647 545.573 221.317 545.683 220.001C545.794 218.464 544.911 215.941 545.242 213.087C548.663 199.59 549.105 181.813 553.629 164.366Z" fill="#FFBF34"/>
<path d="M518.866 170.84C506.837 177.863 509.155 196.189 524.053 193.006C531.447 191.47 518.866 170.84 518.866 170.84Z" fill="#FFBF34"/>
<path d="M520.632 194.543C519.197 194.543 517.763 194.213 516.439 193.555C513.128 191.909 510.7 188.178 510.7 184.667C510.7 184.337 510.921 184.118 511.252 184.118C511.583 184.118 511.803 184.337 511.803 184.667C511.803 187.739 514.011 191.031 516.99 192.567C520.08 194.104 523.833 193.555 527.254 191.031C527.474 190.812 527.805 190.921 528.026 191.141C528.247 191.36 528.136 191.689 527.916 191.909C525.488 193.665 523.06 194.543 520.632 194.543Z" fill="#F3A308"/>
<path d="M545.242 170.84C557.271 177.863 554.953 196.189 540.055 193.006C532.551 191.47 545.242 170.84 545.242 170.84Z" fill="#FFBF34"/>
<path d="M543.476 194.543C541.048 194.543 538.62 193.665 536.193 191.909C535.972 191.689 535.862 191.36 536.082 191.141C536.303 190.921 536.634 190.812 536.855 191.031C540.386 193.555 544.028 194.213 547.118 192.567C550.098 191.031 552.305 187.739 552.305 184.667C552.305 184.337 552.526 184.118 552.857 184.118C553.188 184.118 553.408 184.337 553.408 184.667C553.408 188.178 550.981 191.909 547.67 193.555C546.346 194.213 544.911 194.543 543.476 194.543Z" fill="#F3A308"/>
<path d="M549.767 230.096C547.67 228.011 545.242 224.5 544.69 220.659C544.58 220.22 544.249 220.001 543.807 220.11C539.834 221.098 528.688 221.976 520.632 220.001C520.411 222.854 518.315 227.024 515.997 232.181C524.605 237.558 541.931 235.802 549.767 230.096Z" fill="#F7C399"/>
<path d="M530.785 230.535C530.675 230.535 530.675 230.535 530.785 230.535C530.564 230.535 530.233 230.425 530.123 229.767C529.902 229.218 529.902 228.231 530.344 227.792C530.454 227.682 530.564 227.682 530.675 227.682C530.564 226.914 530.564 226.146 530.675 225.487C530.785 225.268 531.006 225.158 531.226 225.158C531.447 225.268 531.558 225.487 531.558 225.707C531.447 226.255 531.447 227.024 531.558 227.682C531.668 228.45 531.778 229.218 531.447 229.877C531.226 230.425 530.895 230.535 530.785 230.535Z" fill="#EB9078"/>
<path d="M556.609 336.428C557.271 316.017 562.679 295.387 564.665 275.416C565.217 269.82 567.645 268.942 567.534 258.956C567.424 248.641 557.161 236.57 549.656 230.096C543.476 235.144 528.578 238.107 515.887 232.181C512.686 236.241 507.831 247.434 506.396 257.42C502.644 282.219 496.795 328.856 497.457 338.732C498.119 346.852 496.795 415.655 495.25 434.09C495.912 434.09 500.326 434.09 501.099 434.09C501.099 433.871 520.191 391.514 521.405 362.654C521.736 353.656 517.321 340.378 518.535 333.026C519.749 324.796 531.006 264.991 533.985 264.991C537.075 264.991 535.972 331.599 537.296 339.829C538.4 347.291 536.193 353.875 536.524 362.873C537.517 387.125 535.089 416.533 534.979 434.09C535.641 434.09 540.276 434.09 540.828 434.09C546.346 420.154 560.14 389.868 559.478 365.288C559.478 353.656 556.499 342.682 556.609 336.428Z" fill="#0A3C5F"/>
<path d="M554.953 246.556C549.987 246.556 545.794 241.837 543.476 237.229C543.366 237.009 543.476 236.68 543.697 236.57C543.918 236.461 544.249 236.57 544.359 236.79C546.897 241.947 551.974 247.214 557.602 245.02C557.823 244.91 558.154 245.02 558.264 245.349C558.375 245.568 558.264 245.898 557.933 246.007C556.94 246.337 555.947 246.556 554.953 246.556Z" fill="#222B54"/>
<path d="M529.019 239.862C527.585 240.082 528.247 243.483 529.24 243.374C530.344 243.154 530.454 239.643 529.019 239.862Z" fill="#222B54"/>
<path d="M540.717 431.567H540.607C540.276 431.457 540.166 431.237 540.276 430.908C540.386 430.579 540.497 430.14 540.717 429.701C540.828 429.482 541.159 429.262 541.379 429.372C541.6 429.482 541.821 429.811 541.711 430.03C541.6 430.469 541.379 430.908 541.269 431.237C541.159 431.457 540.938 431.567 540.717 431.567ZM541.821 428.384C541.711 428.384 541.711 428.384 541.6 428.384C541.379 428.275 541.159 427.945 541.269 427.726L541.711 426.519C541.821 426.299 542.152 426.08 542.373 426.19C542.593 426.299 542.814 426.629 542.704 426.848L542.262 428.055C542.262 428.275 542.042 428.384 541.821 428.384ZM542.924 425.202C542.814 425.202 542.814 425.202 542.704 425.202C542.483 425.092 542.262 424.763 542.373 424.544L542.814 423.337C542.924 423.117 543.256 422.898 543.476 423.007C543.697 423.117 543.918 423.446 543.807 423.666L543.366 424.873C543.366 425.092 543.145 425.202 542.924 425.202ZM544.028 422.129C543.918 422.129 543.918 422.129 543.807 422.129C543.587 422.02 543.366 421.691 543.476 421.471L543.918 420.264C544.028 420.044 544.359 419.825 544.58 419.935C544.801 420.045 545.021 420.374 544.911 420.593L544.469 421.8C544.469 421.91 544.249 422.129 544.028 422.129ZM545.132 418.947C545.021 418.947 545.021 418.947 544.911 418.947C544.69 418.837 544.469 418.508 544.58 418.289L545.021 417.082C545.132 416.862 545.352 416.643 545.683 416.753C545.904 416.862 546.125 417.191 546.015 417.411L545.573 418.618C545.573 418.837 545.352 418.947 545.132 418.947ZM546.235 415.765C546.235 415.765 546.125 415.765 546.015 415.765C545.794 415.655 545.573 415.326 545.683 415.107L546.125 413.899C546.235 413.68 546.566 413.461 546.787 413.57C547.008 413.68 547.228 413.899 547.118 414.229L546.677 415.436C546.677 415.655 546.456 415.765 546.235 415.765ZM547.228 412.583H547.118C546.897 412.473 546.677 412.253 546.787 411.924L547.118 410.717C547.228 410.388 547.449 410.278 547.78 410.388C548.001 410.498 548.222 410.717 548.111 411.046L547.78 412.253C547.67 412.473 547.449 412.583 547.228 412.583ZM548.222 409.4H548.111C547.78 409.291 547.67 409.071 547.78 408.742L548.111 407.535C548.222 407.206 548.442 407.096 548.773 407.206C549.105 407.315 549.215 407.535 549.105 407.864L548.773 409.071C548.663 409.291 548.442 409.4 548.222 409.4ZM549.215 406.218H549.105C548.773 406.108 548.663 405.889 548.773 405.56L549.105 404.353C549.215 404.023 549.436 403.914 549.767 404.023C550.098 404.133 550.208 404.353 550.098 404.682L549.767 405.889C549.656 405.999 549.436 406.218 549.215 406.218ZM550.208 403.036H550.098C549.767 402.926 549.656 402.707 549.767 402.377L550.098 401.17C550.208 400.841 550.429 400.731 550.76 400.841C551.091 400.951 551.201 401.17 551.091 401.5L550.76 402.707C550.65 402.816 550.429 403.036 550.208 403.036ZM551.091 399.744H550.981C550.65 399.634 550.539 399.415 550.65 399.085L550.981 397.878C551.091 397.549 551.312 397.439 551.643 397.549C551.974 397.659 552.084 397.878 551.974 398.208L551.643 399.415C551.532 399.634 551.312 399.744 551.091 399.744ZM551.974 396.562H551.863C551.532 396.452 551.422 396.232 551.532 395.903L551.863 394.696C551.974 394.367 552.195 394.257 552.526 394.367C552.857 394.477 552.967 394.696 552.857 395.025L552.526 396.232C552.415 396.342 552.195 396.562 551.974 396.562ZM552.746 393.27H552.636C552.305 393.16 552.195 392.94 552.305 392.611L552.636 391.404C552.746 391.075 552.967 390.965 553.298 391.075C553.629 391.185 553.74 391.404 553.629 391.733L553.298 392.94C553.188 393.16 553.077 393.27 552.746 393.27ZM553.629 390.087H553.519C553.188 389.978 553.077 389.758 553.077 389.429L553.409 388.222C553.519 387.893 553.74 387.783 554.071 387.783C554.402 387.893 554.512 388.112 554.512 388.441L554.181 389.648C554.071 389.868 553.85 390.087 553.629 390.087ZM554.291 386.795C554.291 386.795 554.181 386.795 554.291 386.795C553.85 386.686 553.74 386.466 553.74 386.137L553.96 384.93C554.071 384.601 554.291 384.491 554.622 384.491C554.954 384.601 555.064 384.82 555.064 385.149L554.843 386.356C554.733 386.576 554.512 386.795 554.291 386.795ZM554.954 383.503C554.622 383.394 554.402 383.174 554.402 382.845C554.512 382.406 554.512 382.077 554.622 381.638C554.622 381.309 554.954 381.199 555.285 381.199C555.616 381.199 555.726 381.528 555.726 381.857C555.616 382.296 555.616 382.735 555.505 383.064C555.395 383.394 555.174 383.503 554.954 383.503ZM555.616 380.211C555.505 380.211 555.505 380.211 555.616 380.211C555.285 380.102 555.064 379.882 555.064 379.553L555.285 378.346C555.285 378.017 555.616 377.907 555.836 377.907C556.167 377.907 556.278 378.236 556.278 378.456L556.057 379.663C556.057 380.102 555.836 380.211 555.616 380.211ZM556.167 376.919C556.057 376.919 556.057 376.919 556.167 376.919C555.836 376.919 555.616 376.59 555.616 376.371C555.726 375.932 555.726 375.493 555.836 375.164C555.836 374.834 556.167 374.725 556.388 374.725C556.719 374.725 556.83 375.054 556.83 375.273C556.719 375.712 556.719 376.151 556.609 376.48C556.609 376.7 556.388 376.919 556.167 376.919ZM556.609 373.627C556.499 373.627 556.499 373.627 556.609 373.627C556.278 373.627 556.057 373.298 556.057 373.079C556.057 372.64 556.167 372.201 556.167 371.872C556.167 371.542 556.499 371.323 556.719 371.433C557.05 371.433 557.271 371.762 557.161 371.981C557.161 372.42 557.05 372.859 557.05 373.188C557.05 373.408 556.83 373.627 556.609 373.627ZM556.94 370.335C556.94 370.335 556.83 370.335 556.94 370.335C556.609 370.335 556.388 370.006 556.388 369.787C556.388 369.348 556.499 368.909 556.499 368.58C556.499 368.25 556.719 368.031 557.05 368.141C557.381 368.141 557.602 368.36 557.492 368.689C557.492 369.128 557.381 369.567 557.381 369.896C557.381 370.116 557.161 370.335 556.94 370.335ZM557.161 366.934C556.83 366.934 556.609 366.714 556.609 366.385C556.609 365.946 556.609 365.507 556.609 365.178C556.609 364.849 556.83 364.629 557.161 364.629C557.492 364.629 557.712 364.849 557.712 365.178C557.712 365.617 557.712 366.056 557.712 366.385C557.602 366.714 557.381 366.934 557.161 366.934ZM557.161 363.642C556.83 363.642 556.609 363.422 556.609 363.093V362.983C556.609 362.654 556.609 362.215 556.609 361.886C556.609 361.557 556.83 361.337 557.161 361.337C557.492 361.337 557.712 361.557 557.712 361.886C557.712 362.215 557.712 362.654 557.712 362.983V363.093C557.712 363.422 557.492 363.642 557.161 363.642ZM557.161 360.24C556.83 360.24 556.609 360.02 556.609 359.691C556.609 359.252 556.609 358.813 556.499 358.484C556.499 358.155 556.719 357.935 556.94 357.935C557.271 357.935 557.492 358.155 557.492 358.374C557.492 358.813 557.492 359.252 557.602 359.581C557.712 360.02 557.492 360.24 557.161 360.24ZM556.94 356.948C556.719 356.948 556.499 356.728 556.388 356.509C556.388 356.07 556.278 355.631 556.278 355.302C556.278 354.973 556.499 354.753 556.719 354.753C557.05 354.753 557.271 354.973 557.271 355.192C557.271 355.631 557.381 356.07 557.381 356.399C557.492 356.728 557.271 356.948 556.94 356.948ZM556.499 353.656C556.278 353.656 556.057 353.436 555.947 353.217C555.836 352.778 555.836 352.449 555.726 352.01C555.726 351.681 555.836 351.461 556.167 351.461C556.499 351.461 556.719 351.571 556.719 351.9C556.83 352.339 556.83 352.778 556.94 353.107C557.05 353.327 556.83 353.656 556.499 353.656C556.609 353.656 556.499 353.656 556.499 353.656ZM555.947 350.364C555.726 350.364 555.505 350.144 555.395 349.925L555.174 348.718C555.174 348.389 555.285 348.169 555.616 348.059C555.947 347.95 556.167 348.169 556.278 348.498L556.499 349.705C556.499 350.035 556.388 350.254 555.947 350.364C556.057 350.364 555.947 350.364 555.947 350.364ZM555.285 347.072C555.064 347.072 554.843 346.852 554.733 346.633L554.512 345.426C554.512 345.097 554.622 344.877 554.954 344.767C555.174 344.767 555.505 344.877 555.616 345.206L555.836 346.413C555.947 346.743 555.726 347.072 555.285 347.072C555.395 347.072 555.395 347.072 555.285 347.072ZM554.733 343.78C554.512 343.78 554.291 343.56 554.181 343.341C554.071 342.902 554.071 342.573 553.96 342.134C553.96 341.805 554.071 341.585 554.402 341.585C554.733 341.585 554.954 341.695 554.954 342.024C555.064 342.463 555.064 342.902 555.174 343.231C555.285 343.451 555.064 343.78 554.733 343.78ZM554.181 340.488C553.96 340.488 553.74 340.268 553.629 340.049C553.519 339.61 553.519 339.281 553.409 338.842C553.409 338.513 553.519 338.293 553.85 338.293C554.181 338.293 554.402 338.403 554.402 338.732C554.512 339.171 554.512 339.61 554.622 339.939C554.733 340.159 554.512 340.488 554.181 340.488ZM553.74 337.196C553.519 337.196 553.188 336.976 553.188 336.757C553.188 336.318 553.077 335.879 553.077 335.44C553.077 335.111 553.298 334.891 553.629 334.891C553.96 334.891 554.181 335.111 554.181 335.44C554.181 335.879 554.181 336.318 554.291 336.647C554.291 336.976 554.071 337.196 553.74 337.196ZM553.74 333.904C553.629 333.904 553.629 333.904 553.74 333.904C553.409 333.904 553.188 333.684 553.188 333.355C553.188 332.916 553.188 332.477 553.298 332.038C553.298 331.709 553.629 331.49 553.85 331.599C554.181 331.599 554.402 331.819 554.291 332.148C554.291 332.587 554.181 333.026 554.181 333.355C554.181 333.684 553.96 333.904 553.74 333.904ZM553.96 330.502C553.629 330.502 553.409 330.173 553.409 329.953C553.409 329.514 553.519 329.076 553.519 328.746C553.519 328.417 553.85 328.307 554.071 328.307C554.402 328.307 554.512 328.637 554.512 328.856C554.512 329.295 554.402 329.734 554.402 330.063C554.402 330.392 554.181 330.502 553.96 330.502ZM554.402 327.21C554.291 327.21 554.291 327.21 554.402 327.21C554.071 327.21 553.85 326.881 553.85 326.661L554.071 325.454C554.071 325.125 554.402 325.015 554.622 325.015C554.954 325.015 555.064 325.345 555.064 325.564L554.843 326.771C554.843 326.991 554.622 327.21 554.402 327.21ZM554.843 323.918C554.512 323.918 554.291 323.589 554.291 323.369L554.512 322.162C554.512 321.833 554.843 321.723 555.064 321.723C555.395 321.723 555.505 322.053 555.505 322.272L555.285 323.479C555.285 323.699 555.064 323.918 554.843 323.918ZM555.395 320.626C555.395 320.626 555.285 320.626 555.395 320.626C555.064 320.626 554.843 320.297 554.843 319.968L555.064 318.761C555.064 318.431 555.395 318.322 555.616 318.322C555.947 318.322 556.057 318.651 556.057 318.87L555.836 320.077C555.836 320.407 555.616 320.626 555.395 320.626ZM555.947 317.334C555.947 317.334 555.836 317.334 555.947 317.334C555.616 317.334 555.395 317.005 555.395 316.676L555.616 315.469C555.616 315.139 555.947 315.03 556.167 315.03C556.499 315.03 556.609 315.359 556.609 315.578L556.388 316.785C556.388 317.115 556.167 317.334 555.947 317.334ZM556.499 314.042C556.499 314.042 556.388 314.042 556.499 314.042C556.167 313.932 555.947 313.713 555.947 313.384L556.167 312.177C556.167 311.847 556.499 311.738 556.719 311.738C557.05 311.738 557.161 312.067 557.161 312.286L556.94 313.493C556.94 313.823 556.719 314.042 556.499 314.042ZM557.05 310.75C557.05 310.75 556.94 310.75 557.05 310.75C556.719 310.64 556.499 310.421 556.499 310.092L556.719 308.885C556.719 308.555 557.05 308.446 557.271 308.446C557.602 308.446 557.712 308.775 557.712 308.994L557.492 310.201C557.492 310.531 557.271 310.75 557.05 310.75ZM557.602 307.458C557.602 307.458 557.492 307.458 557.602 307.458C557.271 307.458 557.05 307.129 557.05 306.8L557.271 305.593C557.271 305.263 557.602 305.154 557.823 305.154C558.154 305.154 558.264 305.483 558.264 305.702L558.044 306.909C558.044 307.239 557.823 307.458 557.602 307.458ZM558.154 304.166C558.044 304.166 558.044 304.166 558.154 304.166C557.823 304.166 557.602 303.837 557.602 303.617L557.823 302.41C557.823 302.081 558.154 301.971 558.375 301.971C558.706 301.971 558.816 302.301 558.816 302.52L558.595 303.727C558.595 303.947 558.375 304.166 558.154 304.166ZM558.595 300.874C558.264 300.874 558.044 300.545 558.044 300.325L558.264 299.118C558.264 298.789 558.595 298.679 558.816 298.679C559.147 298.679 559.257 299.009 559.257 299.228L559.037 300.435C559.037 300.655 558.816 300.874 558.595 300.874ZM559.037 297.582C558.706 297.582 558.485 297.253 558.485 297.033L558.595 295.826C558.595 295.497 558.926 295.387 559.147 295.387C559.478 295.387 559.589 295.717 559.589 295.936L559.368 297.143C559.589 297.363 559.368 297.582 559.037 297.582ZM559.478 294.18C559.147 294.18 558.926 293.851 558.926 293.632L559.037 292.425C559.037 292.095 559.368 291.986 559.589 291.986C559.92 291.986 560.03 292.315 560.03 292.534L559.92 293.741C560.03 294.071 559.699 294.18 559.478 294.18ZM559.92 290.888C559.809 290.888 559.809 290.888 559.92 290.888C559.589 290.888 559.368 290.559 559.368 290.34L559.478 289.133C559.478 288.803 559.809 288.584 560.03 288.694C560.361 288.694 560.582 289.023 560.471 289.242L560.361 290.449C560.361 290.669 560.14 290.888 559.92 290.888ZM560.251 287.596C560.251 287.596 560.14 287.596 560.251 287.596C559.92 287.596 559.699 287.267 559.699 287.048L559.809 285.841C559.809 285.511 560.14 285.402 560.361 285.402C560.692 285.402 560.913 285.731 560.803 285.95L560.692 287.157C560.692 287.377 560.471 287.596 560.251 287.596ZM560.471 284.304C560.14 284.304 559.92 283.975 559.92 283.756L560.03 282.549C560.03 282.219 560.251 282 560.582 282.11C560.913 282.11 561.134 282.329 561.023 282.658L560.913 283.865C561.023 284.085 560.802 284.304 560.471 284.304ZM560.803 280.903C560.692 280.903 560.692 280.903 560.803 280.903C560.471 280.903 560.251 280.683 560.251 280.354L560.361 279.147C560.361 278.818 560.582 278.598 560.913 278.708C561.244 278.708 561.465 278.927 561.354 279.257L561.244 280.464C561.244 280.683 561.023 280.903 560.803 280.903ZM560.913 277.611C560.582 277.611 560.361 277.391 560.361 277.062V275.855C560.361 275.526 560.692 275.306 560.913 275.306C561.244 275.306 561.465 275.526 561.465 275.855V277.062C561.465 277.391 561.244 277.611 560.913 277.611ZM561.023 274.209C560.692 274.209 560.471 273.989 560.471 273.66C560.471 273.221 560.471 272.782 560.471 272.453C560.471 272.124 560.692 271.904 561.023 271.904C561.354 271.904 561.575 272.124 561.575 272.453C561.575 272.892 561.575 273.331 561.575 273.66C561.575 273.989 561.354 274.209 561.023 274.209ZM561.023 270.917C560.692 270.917 560.471 270.697 560.471 270.368C560.471 269.929 560.471 269.49 560.471 269.161C560.471 268.832 560.692 268.612 561.023 268.612C561.354 268.612 561.575 268.832 561.575 269.161C561.575 269.6 561.575 270.039 561.575 270.368C561.575 270.697 561.354 270.917 561.023 270.917ZM561.023 267.515C560.692 267.515 560.471 267.296 560.471 266.966V265.759C560.471 265.43 560.692 265.211 561.023 265.211C561.244 265.211 561.575 265.43 561.575 265.759V266.966C561.575 267.296 561.354 267.515 561.023 267.515ZM560.913 264.223C560.582 264.223 560.361 264.004 560.361 263.674C560.361 263.235 560.361 262.797 560.251 262.467C560.251 262.138 560.471 261.919 560.692 261.919C561.023 261.919 561.244 262.138 561.244 262.358C561.244 262.797 561.244 263.235 561.354 263.565C561.465 264.004 561.244 264.223 560.913 264.223ZM560.692 260.931C560.471 260.931 560.14 260.712 560.14 260.492C560.14 260.053 560.03 259.614 560.03 259.285C560.03 258.956 560.251 258.736 560.471 258.736C560.802 258.736 561.023 258.956 561.023 259.175C561.023 259.614 561.134 260.053 561.134 260.382C561.244 260.602 561.023 260.821 560.692 260.931ZM560.361 257.529C560.14 257.529 559.92 257.31 559.809 257.09C559.809 256.651 559.699 256.213 559.699 255.883C559.699 255.554 559.92 255.335 560.14 255.335C560.361 255.335 560.692 255.554 560.692 255.774C560.692 256.213 560.803 256.651 560.803 256.981C560.913 257.31 560.692 257.529 560.361 257.529Z" fill="#222B54"/>
<path d="M500.216 434.2C500.105 434.2 500.105 434.2 499.995 434.2C499.774 434.09 499.664 433.761 499.774 433.542C499.885 433.213 500.105 432.883 500.326 432.444C500.437 432.225 500.768 432.115 500.988 432.225C501.209 432.335 501.319 432.664 501.209 432.883C500.988 433.322 500.768 433.761 500.657 434.09C500.657 434.09 500.437 434.2 500.216 434.2ZM501.65 431.128C501.54 431.128 501.54 431.128 501.43 431.128C501.209 431.018 500.988 430.689 501.099 430.469L501.54 429.262C501.65 429.043 501.982 428.823 502.202 428.933C502.423 429.043 502.644 429.372 502.533 429.591L502.092 430.798C501.982 431.018 501.871 431.128 501.65 431.128ZM502.864 427.945C502.754 427.945 502.754 427.945 502.644 427.945C502.423 427.836 502.202 427.507 502.313 427.287L502.754 426.08C502.864 425.861 503.196 425.641 503.416 425.751C503.637 425.86 503.858 426.19 503.747 426.409L503.306 427.616C503.306 427.836 503.085 427.945 502.864 427.945ZM504.078 424.873C503.968 424.873 503.968 424.873 503.858 424.873C503.637 424.763 503.416 424.434 503.527 424.214L503.968 423.007C504.078 422.788 504.409 422.568 504.63 422.678C504.851 422.788 505.072 423.117 504.961 423.337L504.52 424.544C504.52 424.763 504.299 424.873 504.078 424.873ZM505.292 421.691C505.182 421.691 505.182 421.691 505.072 421.691C504.851 421.581 504.63 421.252 504.741 421.032L505.182 419.825C505.292 419.606 505.623 419.386 505.844 419.496C506.065 419.606 506.286 419.935 506.175 420.154L505.734 421.361C505.623 421.581 505.513 421.691 505.292 421.691ZM506.396 418.618C506.286 418.618 506.286 418.618 506.175 418.618C505.954 418.508 505.734 418.179 505.844 417.96L506.286 416.753C506.396 416.533 506.727 416.314 506.948 416.423C507.168 416.533 507.389 416.862 507.279 417.082L506.837 418.289C506.837 418.399 506.617 418.618 506.396 418.618ZM507.499 415.436C507.389 415.436 507.389 415.436 507.279 415.436C507.058 415.326 506.837 414.997 506.948 414.777L507.389 413.57C507.499 413.351 507.831 413.131 508.051 413.241C508.272 413.351 508.493 413.68 508.382 413.9L507.941 415.107C507.941 415.326 507.72 415.436 507.499 415.436ZM508.493 412.254H508.382C508.162 412.144 507.941 411.924 508.051 411.595L508.493 410.388C508.603 410.169 508.824 409.949 509.155 410.059C509.376 410.169 509.596 410.388 509.486 410.717L509.044 411.924C508.934 412.144 508.713 412.254 508.493 412.254ZM509.596 409.071H509.486C509.265 408.962 509.044 408.742 509.155 408.413L509.486 407.206C509.596 406.877 509.817 406.767 510.148 406.877C510.479 406.986 510.59 407.206 510.479 407.535L510.148 408.742C510.038 408.962 509.817 409.071 509.596 409.071ZM510.59 405.889H510.479C510.148 405.779 510.038 405.56 510.148 405.231L510.479 404.024C510.59 403.694 510.81 403.585 511.141 403.694C511.472 403.804 511.583 404.024 511.472 404.353L511.141 405.56C511.031 405.779 510.81 405.889 510.59 405.889ZM511.472 402.707H511.362C511.031 402.597 510.921 402.378 511.031 402.048L511.362 400.841C511.472 400.512 511.693 400.402 512.024 400.512C512.355 400.622 512.466 400.841 512.355 401.17L512.024 402.378C511.914 402.487 511.693 402.707 511.472 402.707ZM512.355 399.415H512.245C511.914 399.305 511.803 399.086 511.914 398.756L512.245 397.549C512.355 397.22 512.576 397.11 512.907 397.22C513.238 397.33 513.348 397.549 513.238 397.878L512.907 399.086C512.797 399.305 512.576 399.415 512.355 399.415ZM513.238 396.232H513.128C512.797 396.123 512.686 395.903 512.797 395.574L513.128 394.367C513.238 394.038 513.459 393.928 513.79 394.038C514.121 394.148 514.231 394.367 514.121 394.696L513.79 395.903C513.68 396.013 513.459 396.232 513.238 396.232ZM514.011 392.94H513.9C513.569 392.831 513.459 392.611 513.459 392.282L513.79 391.075C513.9 390.746 514.121 390.636 514.452 390.636C514.783 390.746 514.893 390.965 514.893 391.294L514.562 392.502C514.452 392.831 514.342 392.94 514.011 392.94ZM514.783 389.758H514.673C514.342 389.648 514.231 389.429 514.231 389.1L514.452 387.893C514.562 387.564 514.783 387.454 515.114 387.454C515.445 387.564 515.556 387.783 515.556 388.112L515.335 389.319C515.225 389.539 515.004 389.758 514.783 389.758ZM515.445 386.466C515.004 386.356 514.893 386.137 514.893 385.808L515.114 384.601C515.114 384.272 515.445 384.162 515.776 384.162C516.107 384.162 516.218 384.491 516.218 384.82L515.997 386.027C515.997 386.247 515.776 386.466 515.445 386.466ZM516.107 383.174C516.107 383.174 515.997 383.174 516.107 383.174C515.776 383.064 515.556 382.845 515.556 382.516C515.666 382.077 515.666 381.748 515.776 381.309C515.776 380.98 516.107 380.87 516.328 380.87C516.659 380.87 516.77 381.199 516.77 381.418C516.659 381.857 516.659 382.296 516.549 382.626C516.549 382.955 516.328 383.174 516.107 383.174ZM516.659 379.882C516.659 379.882 516.549 379.882 516.659 379.882C516.328 379.882 516.107 379.553 516.107 379.334C516.218 378.895 516.218 378.456 516.328 378.126C516.328 377.797 516.659 377.688 516.88 377.688C517.211 377.688 517.321 378.017 517.321 378.236C517.211 378.675 517.211 379.114 517.101 379.443C517.101 379.663 516.88 379.882 516.659 379.882ZM517.101 376.59C516.77 376.59 516.549 376.261 516.549 376.042C516.549 375.603 516.659 375.164 516.659 374.834C516.659 374.505 516.99 374.286 517.211 374.396C517.542 374.396 517.652 374.725 517.652 374.944C517.652 375.383 517.542 375.822 517.542 376.151C517.542 376.371 517.321 376.59 517.101 376.59ZM517.432 373.188C517.101 373.188 516.88 372.859 516.88 372.64C516.88 372.201 516.99 371.762 516.99 371.433C516.99 371.104 517.211 370.884 517.542 370.994C517.873 370.994 518.094 371.213 517.984 371.542C517.984 371.981 517.873 372.42 517.873 372.75C517.984 373.079 517.763 373.188 517.432 373.188ZM517.652 369.896C517.321 369.896 517.101 369.677 517.101 369.348C517.101 368.909 517.101 368.47 517.101 368.141C517.101 367.812 517.321 367.592 517.652 367.592C517.984 367.592 518.204 367.812 518.204 368.141C518.204 368.58 518.204 369.019 518.204 369.348C518.204 369.677 517.984 369.896 517.652 369.896ZM517.763 366.604C517.432 366.604 517.211 366.385 517.211 366.056V365.727C517.211 365.397 517.211 365.178 517.211 364.849C517.211 364.52 517.432 364.3 517.763 364.3C518.094 364.3 518.315 364.52 518.315 364.849C518.315 365.178 518.315 365.397 518.315 365.727V366.056C518.315 366.275 518.094 366.604 517.763 366.604ZM517.652 363.203C517.321 363.203 517.101 362.983 517.101 362.654V361.447C517.101 361.118 517.321 360.898 517.652 360.898C517.984 360.898 518.204 361.118 518.204 361.447V362.654C518.204 362.983 517.984 363.203 517.652 363.203ZM517.542 359.911C517.211 359.911 516.99 359.691 516.99 359.472L516.88 358.265C516.88 357.936 517.101 357.716 517.321 357.716C517.542 357.716 517.873 357.935 517.873 358.155L517.984 359.362C518.094 359.581 517.873 359.911 517.542 359.911ZM517.321 356.509C517.101 356.509 516.77 356.289 516.77 356.07L516.659 354.863C516.659 354.534 516.88 354.314 517.101 354.314C517.321 354.314 517.652 354.534 517.652 354.753L517.763 355.96C517.873 356.289 517.652 356.509 517.321 356.509ZM516.99 353.217C516.77 353.217 516.438 352.997 516.438 352.778L516.328 351.571C516.328 351.242 516.549 351.022 516.77 351.022C517.101 351.022 517.321 351.242 517.321 351.461L517.432 352.668C517.542 352.888 517.321 353.217 516.99 353.217C517.101 353.217 517.101 353.217 516.99 353.217ZM516.659 349.925C516.438 349.925 516.218 349.705 516.107 349.486L515.997 348.279C515.997 347.95 516.218 347.73 516.438 347.73C516.77 347.73 516.99 347.95 516.99 348.169L517.101 349.376C517.211 349.596 517.101 349.815 516.659 349.925C516.77 349.925 516.77 349.925 516.659 349.925ZM516.328 346.633C516.107 346.633 515.887 346.413 515.776 346.194L515.666 344.987C515.666 344.658 515.887 344.438 516.107 344.438C516.438 344.438 516.659 344.658 516.659 344.877L516.77 346.084C516.88 346.304 516.659 346.523 516.328 346.633C516.438 346.523 516.328 346.633 516.328 346.633ZM515.997 343.231C515.776 343.231 515.556 343.012 515.445 342.792L515.335 341.585C515.335 341.256 515.556 341.037 515.776 341.037C515.997 341.037 516.328 341.256 516.328 341.475L516.438 342.683C516.549 343.012 516.328 343.231 515.997 343.231ZM515.556 339.939C515.335 339.939 515.114 339.72 515.004 339.5C515.004 339.061 514.893 338.622 514.893 338.293C514.893 337.964 515.114 337.745 515.335 337.745C515.556 337.745 515.887 337.964 515.887 338.183C515.887 338.622 515.997 338.952 515.997 339.391C516.107 339.61 515.997 339.939 515.556 339.939C515.666 339.939 515.666 339.939 515.556 339.939ZM515.335 336.647C515.004 336.647 514.783 336.428 514.783 336.099V335.989C514.783 335.66 514.783 335.221 514.783 334.891C514.783 334.562 515.004 334.343 515.335 334.453C515.666 334.453 515.887 334.672 515.776 335.001C515.776 335.44 515.776 335.769 515.776 336.099V336.208C515.887 336.318 515.666 336.647 515.335 336.647ZM515.556 333.245C515.556 333.245 515.445 333.245 515.556 333.245C515.225 333.245 515.004 332.916 515.004 332.697C515.004 332.258 515.114 331.929 515.114 331.49C515.114 331.161 515.445 331.051 515.666 331.051C515.997 331.051 516.107 331.38 516.107 331.599C515.997 332.038 515.997 332.477 515.997 332.807C515.997 333.026 515.776 333.245 515.556 333.245ZM515.997 329.953C515.997 329.953 515.887 329.953 515.997 329.953C515.666 329.953 515.445 329.624 515.445 329.405C515.556 328.966 515.556 328.637 515.666 328.198C515.666 327.869 515.997 327.759 516.218 327.759C516.549 327.759 516.659 328.088 516.659 328.307C516.549 328.746 516.549 329.185 516.438 329.515C516.438 329.734 516.218 329.953 515.997 329.953ZM516.549 326.661C516.549 326.661 516.438 326.661 516.549 326.661C516.218 326.552 515.997 326.332 515.997 326.003L516.218 324.796C516.218 324.467 516.549 324.357 516.88 324.357C517.211 324.357 517.321 324.686 517.321 325.015L517.101 326.223C516.99 326.442 516.77 326.661 516.549 326.661ZM517.211 323.369C517.101 323.369 517.101 323.369 517.211 323.369C516.77 323.26 516.659 323.04 516.659 322.711L516.88 321.504C516.99 321.175 517.211 321.065 517.542 321.065C517.873 321.175 517.984 321.394 517.984 321.723L517.763 322.931C517.652 323.26 517.432 323.369 517.211 323.369ZM517.873 320.077C517.763 320.077 517.763 320.077 517.873 320.077C517.432 319.968 517.321 319.748 517.321 319.419L517.542 318.212C517.652 317.883 517.873 317.773 518.204 317.773C518.535 317.883 518.646 318.102 518.646 318.431L518.425 319.639C518.315 319.968 518.094 320.077 517.873 320.077ZM518.535 316.895H518.425C518.094 316.785 517.984 316.566 517.984 316.237L518.315 315.03C518.425 314.701 518.646 314.591 518.977 314.591C519.308 314.701 519.418 314.92 519.418 315.249L519.087 316.456C518.977 316.676 518.756 316.895 518.535 316.895ZM519.308 313.603H519.197C518.866 313.493 518.756 313.274 518.756 312.945L519.087 311.738C519.197 311.409 519.418 311.299 519.749 311.299C520.08 311.409 520.191 311.628 520.191 311.957L519.86 313.164C519.749 313.384 519.529 313.603 519.308 313.603ZM520.08 310.311H519.97C519.639 310.201 519.529 309.982 519.529 309.653L519.86 308.446C519.97 308.117 520.191 308.007 520.522 308.117C520.853 308.226 520.963 308.446 520.853 308.775L520.522 309.982C520.522 310.201 520.301 310.311 520.08 310.311ZM520.853 307.129H520.742C520.411 307.019 520.301 306.8 520.411 306.471L520.742 305.263C520.853 304.934 521.074 304.825 521.405 304.934C521.736 305.044 521.846 305.263 521.736 305.593L521.405 306.8C521.294 306.909 521.074 307.129 520.853 307.129ZM521.736 303.837H521.625C521.294 303.727 521.184 303.508 521.294 303.179L521.625 301.971C521.736 301.642 521.956 301.533 522.287 301.642C522.619 301.752 522.729 301.971 522.619 302.301L522.287 303.508C522.177 303.727 521.956 303.837 521.736 303.837ZM522.619 300.655H522.508C522.177 300.545 522.067 300.325 522.177 299.996L522.508 298.789C522.619 298.46 522.839 298.35 523.17 298.46C523.501 298.57 523.612 298.789 523.501 299.118L523.17 300.325C523.06 300.435 522.839 300.655 522.619 300.655ZM523.391 297.363H523.281C522.95 297.253 522.839 297.033 522.95 296.704L523.281 295.497C523.391 295.168 523.612 295.058 523.943 295.168C524.274 295.278 524.384 295.497 524.274 295.826L523.943 297.033C523.832 297.253 523.612 297.363 523.391 297.363ZM524.274 294.18H524.164C523.832 294.071 523.722 293.851 523.832 293.522L524.164 292.315C524.274 291.986 524.495 291.876 524.826 291.986C525.157 292.095 525.267 292.315 525.157 292.644L524.826 293.851C524.715 293.961 524.605 294.18 524.274 294.18ZM525.267 290.998H525.157C524.826 290.888 524.715 290.669 524.826 290.34L525.157 289.133C525.267 288.803 525.488 288.694 525.819 288.803C526.15 288.913 526.26 289.133 526.15 289.462L525.819 290.669C525.709 290.779 525.488 290.998 525.267 290.998ZM526.15 287.706H526.04C525.709 287.596 525.598 287.377 525.709 287.048L526.04 285.841C526.15 285.511 526.371 285.402 526.702 285.511C527.033 285.621 527.143 285.841 527.033 286.17L526.702 287.377C526.591 287.596 526.371 287.706 526.15 287.706ZM527.143 284.524H527.033C526.702 284.414 526.591 284.195 526.702 283.865L527.033 282.658C527.143 282.329 527.364 282.219 527.695 282.329C528.026 282.439 528.136 282.658 528.026 282.988L527.695 284.195C527.585 284.414 527.364 284.524 527.143 284.524ZM528.136 281.342H528.026C527.805 281.232 527.585 281.012 527.695 280.683L528.026 279.476C528.136 279.147 528.357 279.037 528.688 279.147C528.909 279.257 529.13 279.476 529.019 279.805L528.688 281.012C528.578 281.232 528.357 281.342 528.136 281.342ZM529.13 278.159H529.019C528.799 278.05 528.578 277.83 528.688 277.501L529.13 276.294C529.24 276.074 529.461 275.855 529.792 275.965C530.013 276.074 530.233 276.294 530.123 276.623L529.681 277.83C529.571 278.05 529.35 278.159 529.13 278.159ZM530.233 274.977C530.233 274.977 530.123 274.977 530.013 274.977C529.792 274.867 529.571 274.538 529.681 274.319L530.123 273.112C530.233 272.892 530.564 272.673 530.785 272.782C531.006 272.892 531.226 273.221 531.116 273.441L530.675 274.648C530.564 274.867 530.454 274.977 530.233 274.977ZM531.337 271.795C531.226 271.795 531.226 271.795 531.116 271.795C530.895 271.685 530.675 271.356 530.785 271.136L531.226 269.929C531.337 269.71 531.668 269.49 531.889 269.6C532.109 269.71 532.33 270.039 532.22 270.258L531.778 271.466C531.668 271.685 531.447 271.795 531.337 271.795ZM532.44 268.722C532.33 268.722 532.33 268.722 532.22 268.722C531.999 268.612 531.778 268.283 531.889 268.064L532.33 266.857C532.44 266.637 532.771 266.418 532.992 266.528C533.213 266.637 533.434 266.966 533.323 267.186L532.882 268.393C532.771 268.503 532.661 268.722 532.44 268.722Z" fill="#222B54"/>
<path d="M530.675 235.692C524.605 235.692 519.087 234.485 515.666 232.62C515.445 232.51 515.335 232.181 515.445 231.961C515.556 231.742 515.887 231.632 516.107 231.742C522.95 235.473 539.283 236.461 549.325 229.657C549.546 229.547 549.877 229.547 550.098 229.767C550.208 229.986 550.208 230.315 549.987 230.535C544.58 234.266 537.407 235.692 530.675 235.692Z" fill="#222B54"/>
<path d="M531.778 238.984C523.722 238.984 516.549 236.79 513.68 234.595C513.459 234.376 513.459 234.046 513.569 233.827C513.79 233.607 514.121 233.607 514.342 233.717C519.529 237.558 538.952 241.728 551.643 231.742C551.863 231.523 552.195 231.632 552.415 231.852C552.636 232.071 552.526 232.4 552.305 232.62C546.346 237.338 538.731 238.984 531.778 238.984Z" fill="#222B54"/>
<path d="M555.064 248.97C554.622 248.97 554.181 248.86 553.74 248.86C553.408 248.86 553.298 248.531 553.298 248.312C553.298 247.983 553.629 247.873 553.85 247.873C554.291 247.983 554.622 247.983 555.064 247.983C555.395 247.983 555.616 248.202 555.616 248.531C555.616 248.751 555.395 248.97 555.064 248.97ZM557.161 248.86C556.94 248.86 556.719 248.641 556.609 248.421C556.609 248.092 556.719 247.873 557.05 247.873C557.492 247.763 557.823 247.763 558.264 247.653C558.595 247.544 558.816 247.763 558.926 247.983C559.037 248.312 558.816 248.531 558.595 248.641C558.154 248.751 557.712 248.86 557.161 248.86C557.271 248.86 557.271 248.86 557.161 248.86ZM551.863 248.312C551.753 248.312 551.753 248.312 551.643 248.312C551.201 248.202 550.87 247.983 550.429 247.763C550.208 247.653 550.098 247.324 550.208 247.105C550.318 246.885 550.65 246.775 550.87 246.885C551.201 247.105 551.643 247.214 551.974 247.324C552.195 247.434 552.415 247.763 552.305 247.983C552.195 248.202 552.084 248.312 551.863 248.312ZM548.884 246.775C548.773 246.775 548.663 246.775 548.553 246.666C548.222 246.446 547.891 246.227 547.449 245.898C547.228 245.678 547.228 245.349 547.339 245.129C547.56 244.91 547.891 244.91 548.111 245.02C548.442 245.239 548.773 245.459 549.105 245.678C549.325 245.788 549.436 246.117 549.215 246.446C549.215 246.775 548.994 246.775 548.884 246.775ZM546.235 244.691C546.125 244.691 546.015 244.69 545.904 244.581C545.573 244.252 545.242 243.922 545.021 243.703C544.801 243.483 544.801 243.154 545.021 242.935C545.242 242.715 545.573 242.715 545.794 242.935C546.015 243.264 546.346 243.483 546.677 243.813C546.897 244.032 546.897 244.361 546.677 244.581C546.456 244.69 546.346 244.691 546.235 244.691ZM544.028 242.167C543.918 242.167 543.697 242.057 543.587 241.947C543.366 241.618 543.035 241.179 542.814 240.85C542.704 240.63 542.704 240.301 543.035 240.082C543.256 239.972 543.587 239.972 543.807 240.301C544.028 240.63 544.249 240.96 544.469 241.289C544.69 241.508 544.58 241.837 544.359 242.057C544.249 242.167 544.138 242.167 544.028 242.167ZM542.373 239.314C542.152 239.314 541.931 239.204 541.931 238.984C541.711 238.545 541.6 238.106 541.49 237.668C541.379 237.338 541.6 237.119 541.931 237.009C542.262 237.009 542.483 237.119 542.593 237.448C542.704 237.777 542.814 238.106 542.924 238.545C543.035 238.765 542.924 239.094 542.593 239.204C542.483 239.314 542.483 239.314 542.373 239.314Z" fill="#222B54"/>
<path d="M553.96 258.736H553.74C553.408 258.736 553.188 258.517 553.188 258.188C553.188 257.859 553.408 257.639 553.74 257.639H553.96C554.291 257.639 554.622 257.639 554.953 257.529C555.174 257.529 555.505 257.749 555.505 257.968C555.505 258.297 555.285 258.517 555.064 258.517C554.733 258.627 554.291 258.736 553.96 258.736ZM551.643 258.407H551.532C551.091 258.297 550.65 258.188 550.318 257.968C550.098 257.859 549.877 257.529 549.987 257.31C550.098 257.09 550.429 256.871 550.65 256.981C550.981 257.09 551.422 257.31 551.753 257.42C552.084 257.529 552.195 257.749 552.084 258.078C552.084 258.188 551.974 258.407 551.643 258.407ZM557.05 258.078C556.83 258.078 556.609 257.968 556.609 257.749C556.499 257.529 556.609 257.2 556.94 257.09C557.271 256.981 557.712 256.761 558.044 256.651C558.264 256.542 558.595 256.651 558.706 256.871C558.816 257.09 558.706 257.42 558.485 257.529C558.044 257.749 557.712 257.859 557.271 258.078C557.161 258.078 557.161 258.078 557.05 258.078ZM548.663 256.981C548.553 256.981 548.442 256.981 548.332 256.871C548.001 256.651 547.67 256.322 547.339 256.103C547.118 255.883 547.118 255.554 547.228 255.335C547.449 255.115 547.78 255.115 548.001 255.225C548.332 255.444 548.663 255.774 548.994 255.993C549.215 256.103 549.325 256.432 549.105 256.761C548.994 256.871 548.884 256.981 548.663 256.981ZM560.03 256.542C559.92 256.542 559.699 256.432 559.589 256.322C559.368 256.103 559.478 255.774 559.699 255.554L559.92 255.335C560.14 255.115 560.471 255.225 560.692 255.444C560.913 255.664 560.802 255.993 560.582 256.213L560.251 256.432C560.251 256.432 560.14 256.542 560.03 256.542ZM546.125 254.786C546.014 254.786 545.794 254.676 545.683 254.567C545.352 254.237 545.132 253.908 544.801 253.579C544.58 253.359 544.69 253.03 544.911 252.811C545.132 252.591 545.463 252.701 545.683 252.921C545.904 253.25 546.235 253.579 546.456 253.798C546.677 254.018 546.677 254.347 546.456 254.567C546.456 254.786 546.235 254.786 546.125 254.786ZM544.138 252.152C543.918 252.152 543.807 252.043 543.697 251.933C543.476 251.604 543.256 251.165 543.035 250.836C542.924 250.616 543.035 250.287 543.256 250.177C543.476 250.067 543.807 250.177 543.918 250.397C544.138 250.726 544.359 251.165 544.469 251.494C544.58 251.713 544.58 252.043 544.249 252.262C544.359 252.043 544.249 252.152 544.138 252.152ZM542.704 249.08C542.483 249.08 542.262 248.97 542.262 248.751C542.152 248.312 541.931 247.983 541.821 247.544C541.711 247.324 541.821 246.995 542.152 246.885C542.373 246.775 542.704 246.885 542.814 247.214C542.924 247.653 543.145 247.983 543.256 248.312C543.366 248.531 543.256 248.86 542.924 248.97C542.814 249.08 542.704 249.08 542.704 249.08ZM541.6 246.007C541.379 246.007 541.159 245.898 541.048 245.568C540.938 245.129 540.828 244.8 540.717 244.361C540.607 244.032 540.828 243.813 541.159 243.703C541.49 243.593 541.711 243.813 541.821 244.142C541.931 244.581 542.042 244.91 542.152 245.349C542.262 245.678 542.042 245.898 541.821 246.007C541.711 245.898 541.6 246.007 541.6 246.007ZM540.938 242.715C540.717 242.715 540.497 242.496 540.386 242.276C540.276 241.837 540.276 241.399 540.276 240.96C540.276 240.63 540.497 240.411 540.717 240.411C541.048 240.411 541.269 240.63 541.269 240.85C541.269 241.289 541.379 241.618 541.379 242.057C541.49 242.386 541.269 242.606 540.938 242.715ZM540.717 239.314C540.386 239.314 540.165 239.094 540.165 238.765C540.165 238.545 540.165 238.326 540.165 237.997V237.448C540.165 237.119 540.386 236.899 540.717 236.899C541.048 236.899 541.269 237.119 541.269 237.448V237.997C541.269 238.216 541.269 238.436 541.269 238.765C541.159 239.094 540.938 239.314 540.717 239.314Z" fill="#222B54"/>
<path d="M530.123 259.834C530.013 259.834 529.902 259.834 529.792 259.724C529.461 259.395 526.591 256.432 526.15 255.225C525.819 254.567 525.929 252.262 526.04 247.983C526.15 244.691 526.26 240.85 526.15 238.326C526.15 237.997 526.371 237.777 526.591 237.777C526.923 237.777 527.143 237.997 527.143 238.216C527.254 240.74 527.143 244.581 527.033 247.983C526.923 250.945 526.812 254.237 527.033 254.786C527.364 255.664 529.681 258.078 530.454 258.956C530.675 259.175 530.675 259.505 530.454 259.724C530.344 259.834 530.233 259.834 530.123 259.834Z" fill="#222B54"/>
<path d="M531.006 258.627C530.675 258.627 530.454 258.407 530.454 258.188V256.981C530.454 256.651 530.675 256.432 531.006 256.432C531.337 256.432 531.558 256.651 531.558 256.981V258.188C531.558 258.407 531.337 258.627 531.006 258.627ZM531.006 255.335C530.675 255.335 530.454 255.115 530.454 254.786V253.579C530.454 253.25 530.675 253.03 531.006 253.03C531.337 253.03 531.558 253.25 531.558 253.579V254.786C531.558 255.115 531.337 255.335 531.006 255.335ZM531.006 252.043C530.675 252.043 530.454 251.823 530.454 251.494V250.287C530.454 249.958 530.675 249.738 531.006 249.738C531.337 249.738 531.558 249.958 531.558 250.287V251.494C531.558 251.823 531.337 252.043 531.006 252.043ZM531.116 248.641C530.785 248.641 530.564 248.421 530.564 248.092V246.885L531.116 246.775L531.668 246.885V248.092C531.668 248.421 531.337 248.641 531.116 248.641ZM531.116 245.349C530.785 245.349 530.564 245.129 530.564 244.8V243.593C530.564 243.264 530.785 243.045 531.116 243.045C531.447 243.045 531.668 243.264 531.668 243.593V244.8C531.668 245.129 531.447 245.349 531.116 245.349ZM531.116 241.947C530.785 241.947 530.564 241.728 530.564 241.399C530.564 240.85 530.564 240.411 530.564 240.191C530.564 239.862 530.785 239.643 531.006 239.643C531.337 239.643 531.558 239.862 531.558 240.082C531.558 240.301 531.558 240.74 531.558 241.399C531.668 241.728 531.447 241.947 531.116 241.947Z" fill="#222B54"/>
<path d="M511.252 130.678C508.382 133.311 506.065 136.274 505.954 138.469C505.844 140.663 508.603 148.784 508.603 148.784L512.245 150.539C512.245 150.539 516.107 148.125 517.432 146.26C518.756 144.394 517.432 137.591 517.432 137.591C517.432 137.591 513.79 128.263 511.252 130.678Z" fill="#F7C399"/>
<path d="M510.369 129.909L508.382 143.187C508.382 143.407 508.493 143.626 508.713 143.846L514.562 147.357C514.894 147.577 515.445 147.357 515.445 146.918L518.646 132.763C518.756 132.433 518.535 132.214 518.315 132.104L511.252 129.471C510.81 129.361 510.369 129.58 510.369 129.909Z" fill="#364E5E"/>
<path d="M509.265 146.26C504.299 155.038 486.421 179.838 484.766 184.008C482.779 189.495 482.338 197.725 484.104 198.493C485.869 199.261 493.705 194.213 496.464 190.811C499.002 187.629 512.135 150.539 512.135 150.539L509.265 146.26Z" fill="#F7C399"/>
<path d="M508.382 141.212C508.272 141.212 508.051 141.102 508.051 140.993C507.72 140.444 507.279 138.908 507.5 137.92C507.61 137.701 507.72 137.152 507.941 136.603C508.272 135.616 509.045 133.531 508.934 133.092C508.713 132.982 508.713 132.763 508.824 132.543C508.934 132.324 509.265 132.324 509.376 132.433C510.148 132.982 509.596 134.518 508.713 136.932C508.493 137.481 508.382 137.92 508.272 138.139C508.162 138.798 508.382 140.115 508.713 140.663C508.824 140.883 508.713 141.102 508.493 141.212H508.382Z" fill="#EB9078"/>
<path d="M497.567 189.275C497.457 189.275 497.457 189.275 497.347 189.165C497.126 189.056 497.126 188.727 497.236 188.617C499.774 184.996 501.651 178.741 502.864 175.01C503.196 173.803 503.527 172.925 503.747 172.267C503.858 172.047 504.078 171.937 504.299 172.047C504.52 172.157 504.63 172.376 504.52 172.596C504.299 173.144 503.968 174.132 503.637 175.229C502.423 178.96 500.437 185.325 497.898 189.056C497.788 189.165 497.678 189.275 497.567 189.275Z" fill="#EB9078"/>
<path d="M537.186 159.099C537.958 160.745 530.785 163.927 527.474 162.939C524.384 162.061 524.495 159.318 524.936 158.769C527.474 155.258 526.15 145.272 526.591 141.761C527.143 137.701 530.123 131.007 536.744 130.678C533.544 145.821 535.531 155.587 537.186 159.099Z" fill="#F7C399"/>
<path d="M514.673 128.263C514.562 138.578 519.749 148.784 523.722 149.113C529.902 149.661 536.082 142.309 536.082 132.763C536.855 134.079 539.724 132.982 540.386 129.141C541.048 125.41 537.407 125.849 536.413 129.471C534.868 128.702 532.109 126.398 531.447 122.777C526.26 127.825 519.418 128.593 514.673 128.263Z" fill="#F7C399"/>
<path d="M526.481 149.223C526.26 149.223 526.15 149.113 526.04 149.003C525.929 148.784 526.04 148.564 526.26 148.454C530.675 146.808 533.213 145.601 534.868 138.908C534.979 138.688 535.199 138.578 535.42 138.578C535.641 138.688 535.751 138.908 535.751 139.127C533.986 146.26 531.116 147.577 526.592 149.223H526.481Z" fill="#EB9078"/>
<path d="M537.627 129.909C537.517 129.909 537.517 129.909 537.407 129.909C537.186 129.8 537.075 129.58 537.186 129.361C537.627 128.373 538.62 127.605 539.503 128.044C539.724 128.154 539.834 128.373 539.724 128.593C539.614 128.812 539.393 128.922 539.172 128.812C538.841 128.702 538.289 129.141 537.958 129.8C537.958 129.8 537.848 129.909 537.627 129.909Z" fill="#EB9078"/>
</g>
<defs>
<linearGradient id="paint0_linear" x1="415" y1="334.913" x2="415.107" y2="14.8782" gradientUnits="userSpaceOnUse">
<stop offset="0.015625" stop-color="white"/>
<stop offset="0.4633" stop-color="#E7FAFF"/>
<stop offset="1" stop-color="#C7F1FB"/>
</linearGradient>
<clipPath id="clip0">
<path d="M0 20C0 8.95431 8.9543 0 20 0H810C821.046 0 830 8.95431 830 20V314C830 325.046 821.046 334 810 334H20C8.95429 334 0 325.046 0 314V20Z" fill="white"/>
</clipPath>
<clipPath id="clip1">
<path d="M483 105H597V459H483V105Z" fill="white"/>
</clipPath>
</defs>
</svg>
