<svg width="968" height="468" viewBox="0 0 968 468" fill="none" xmlns="http://www.w3.org/2000/svg">
<g clip-path="url(#clip0)">
<rect opacity="0.2" width="830" height="334" rx="20" transform="matrix(-1 0 0 1 848 0)" fill="#E8EEF3"/>
<g opacity="0.75">
<g opacity="0.65">
<g opacity="0.65">
<path opacity="0.65" d="M220.567 159.407H298.63V53.0229L220.567 53.0229V159.407Z" fill="#D4E5FB"/>
<path opacity="0.65" d="M-12.5825 53.4521L65.4808 53.4521L65.4808 -52.9321L-12.5825 -52.9321L-12.5825 53.4521Z" fill="#D4E5FB"/>
<path opacity="0.65" d="M-12.4196 373.538H65.6437L65.6437 267.154H-12.4196L-12.4196 373.538Z" fill="#D4E5FB"/>
<path opacity="0.65" d="M376.824 53.9713L456.919 53.9713V-50.3866L376.824 -50.3866V53.9713Z" fill="#D4E5FB"/>
</g>
<g opacity="0.65">
<g opacity="0.65">
<path opacity="0.65" d="M67.0725 134.055H64.0245V199.743H67.0725V134.055Z" fill="#D4E5FB"/>
</g>
<g opacity="0.65">
<path opacity="0.65" d="M67.0725 227.098H64.0245V323.182H67.0725V227.098Z" fill="#D4E5FB"/>
</g>
<g opacity="0.65">
<path opacity="0.65" d="M470.597 51.4799H442.318V54.5195H470.597V51.4799Z" fill="#D4E5FB"/>
</g>
<g opacity="0.65">
<path opacity="0.65" d="M145.305 -74.9987H142.257V72.5883H145.305V-74.9987Z" fill="#D4E5FB"/>
</g>
<g opacity="0.65">
<path opacity="0.65" d="M67.0725 19.2271H64.0245V83.0577H67.0725V19.2271Z" fill="#D4E5FB"/>
</g>
<g opacity="0.65">
<path opacity="0.65" d="M379.265 43.034L376.217 43.0404L376.341 101.636L379.389 101.63L379.265 43.034Z" fill="#D4E5FB"/>
</g>
<g opacity="0.65">
<path opacity="0.65" d="M457.389 91.8386H454.341V137.263H457.389V91.8386Z" fill="#D4E5FB"/>
</g>
<g opacity="0.65">
<path opacity="0.65" d="M209.313 51.8177H30.6652V54.8573H209.313V51.8177Z" fill="#D4E5FB"/>
</g>
<g opacity="0.65">
<path opacity="0.65" d="M393.888 51.4799H371.875V54.5195H393.888V51.4799Z" fill="#D4E5FB"/>
</g>
<g opacity="0.65">
<path opacity="0.65" d="M457.389 -1.37445H454.341V70.3927H457.389V-1.37445Z" fill="#D4E5FB"/>
</g>
<g opacity="0.65">
<path opacity="0.65" d="M209.483 264.248H118.55V267.288H209.483V264.248Z" fill="#D4E5FB"/>
</g>
<g opacity="0.65">
<path opacity="0.65" d="M311.253 264.248H234.714V267.288H311.253V264.248Z" fill="#D4E5FB"/>
</g>
<g opacity="0.65">
<path opacity="0.65" d="M391.179 264.248H359.852V267.288H391.179V264.248Z" fill="#D4E5FB"/>
</g>
<g opacity="0.65">
<path opacity="0.65" d="M379.495 249.389H376.447V276.069H379.495V249.389Z" fill="#D4E5FB"/>
</g>
<g opacity="0.65">
<path opacity="0.65" d="M379.495 129.664H376.447V170.191H379.495V129.664Z" fill="#D4E5FB"/>
</g>
<g opacity="0.65">
<path opacity="0.65" d="M391.857 157.864H352.74V160.904H391.857V157.864Z" fill="#D4E5FB"/>
</g>
<g opacity="0.65">
<path opacity="0.65" d="M300.077 167.152H297.029V308.829H300.077V167.152Z" fill="#D4E5FB"/>
</g>
<g opacity="0.65">
<path opacity="0.65" d="M222.183 297.684H219.135V363.709H222.183V297.684Z" fill="#D4E5FB"/>
</g>
<g opacity="0.65">
<path opacity="0.65" d="M222.183 170.529H219.135V247.193H222.183V170.529Z" fill="#D4E5FB"/>
</g>
<g opacity="0.65">
<path opacity="0.65" d="M145.305 227.098H142.257V366.58H145.305V227.098Z" fill="#D4E5FB"/>
</g>
<g opacity="0.65">
<path opacity="0.65" d="M145.305 104.672H142.257V202.613H145.305V104.672Z" fill="#D4E5FB"/>
</g>
<g opacity="0.65">
<path opacity="0.65" d="M201.524 157.864H-130.541V160.904H201.524V157.864Z" fill="#D4E5FB"/>
</g>
</g>
</g>
<g opacity="0.65">
<g opacity="0.65">
<path opacity="0.65" d="M671.429 53.4521L749.492 53.4521V-52.9321L671.429 -52.9321V53.4521Z" fill="#D4E5FB"/>
<path opacity="0.65" d="M671.592 373.538H749.655V267.154H671.592V373.538Z" fill="#D4E5FB"/>
<path opacity="0.65" d="M436.97 265.746H515.034V159.362H436.97V265.746Z" fill="#D4E5FB"/>
</g>
<g opacity="0.65">
<g opacity="0.65">
<path opacity="0.65" d="M751.185 134.055H748.137V199.743H751.185V134.055Z" fill="#D4E5FB"/>
</g>
<g opacity="0.65">
<path opacity="0.65" d="M751.185 227.098H748.137V323.182H751.185V227.098Z" fill="#D4E5FB"/>
</g>
<g opacity="0.65">
<path opacity="0.65" d="M672.953 174.244H669.905V238.075H672.953V174.244Z" fill="#D4E5FB"/>
</g>
<g opacity="0.65">
<path opacity="0.65" d="M672.953 29.6968H669.905V177.284H672.953V29.6968Z" fill="#D4E5FB"/>
</g>
<g opacity="0.65">
<path opacity="0.65" d="M594.72 123.923H591.672V187.753H594.72V123.923Z" fill="#D4E5FB"/>
</g>
<g opacity="0.65">
<path opacity="0.65" d="M516.656 3.3537H513.608V113.622H516.656V3.3537Z" fill="#D4E5FB"/>
</g>
<g opacity="0.65">
<path opacity="0.65" d="M594.72 244.154H591.672V335.847H594.72V244.154Z" fill="#D4E5FB"/>
</g>
<g opacity="0.65">
<path opacity="0.65" d="M516.656 136.081H513.608V179.986H516.656V136.081Z" fill="#D4E5FB"/>
</g>
<g opacity="0.65">
<path opacity="0.65" d="M516.656 234.866H513.608V285.525H516.656V234.866Z" fill="#D4E5FB"/>
</g>
<g opacity="0.65">
<path opacity="0.65" d="M594.72 -13.0262H591.672V60.0919H594.72V-13.0262Z" fill="#D4E5FB"/>
</g>
<g opacity="0.65">
<path opacity="0.65" d="M438.424 216.629H435.376V280.46H438.424V216.629Z" fill="#D4E5FB"/>
</g>
<g opacity="0.65">
<path opacity="0.65" d="M438.424 72.0815H435.376V219.669H438.424V72.0815Z" fill="#D4E5FB"/>
</g>
<g opacity="0.65">
<path opacity="0.65" d="M829.248 -74.9987H826.2V72.5883H829.248V-74.9987Z" fill="#D4E5FB"/>
</g>
<g opacity="0.65">
<path opacity="0.65" d="M751.185 19.2271H748.137V83.0577H751.185V19.2271Z" fill="#D4E5FB"/>
</g>
<g opacity="0.65">
<path opacity="0.65" d="M893.427 51.8177H714.778V54.8573H893.427V51.8177Z" fill="#D4E5FB"/>
</g>
<g opacity="0.65">
<path opacity="0.65" d="M893.426 264.248H802.493V267.288H893.426V264.248Z" fill="#D4E5FB"/>
</g>
<g opacity="0.65">
<path opacity="0.65" d="M829.248 227.098H826.2V366.58H829.248V227.098Z" fill="#D4E5FB"/>
</g>
<g opacity="0.65">
<path opacity="0.65" d="M829.248 104.672H826.2V202.613H829.248V104.672Z" fill="#D4E5FB"/>
</g>
<g opacity="0.65">
<path opacity="0.65" d="M456.373 157.864H391.687V160.904H456.373V157.864Z" fill="#D4E5FB"/>
</g>
<g opacity="0.65">
<path opacity="0.65" d="M885.468 157.864H553.402V160.904H885.468V157.864Z" fill="#D4E5FB"/>
</g>
<g opacity="0.65">
<path opacity="0.65" d="M607.589 51.4799H466.025V54.5195H607.589V51.4799Z" fill="#D4E5FB"/>
</g>
<g opacity="0.65">
<path opacity="0.65" d="M617.072 265.6H577.278V268.639H617.072V265.6Z" fill="#D4E5FB"/>
</g>
</g>
</g>
</g>
</g>
<g filter="url(#filter0_d)">
<rect x="48" y="30" width="210" height="251" rx="15" fill="white"/>
</g>
<path d="M105.433 63.2668C97.1682 63.2668 89.6855 66.6169 84.2693 72.0332L103.986 91.75C104.52 92.2839 105.433 91.9057 105.433 91.1506V63.2668Z" fill="#EFA335"/>
<path d="M101.776 63.4888V89.5393L103.986 91.75C104.52 92.2839 105.433 91.9057 105.433 91.1506V63.2668C104.195 63.2668 102.974 63.3425 101.776 63.4888Z" fill="#FD8F31"/>
<path d="M103.397 68.3677C103.397 69.2632 102.671 69.9893 101.776 69.9893C100.88 69.9893 100.154 69.2632 100.154 68.3677C100.154 67.4719 100.88 66.7458 101.776 66.7458C102.671 66.7458 103.397 67.4719 103.397 68.3677Z" fill="#FC4E51"/>
<path d="M101.776 66.7458V69.9893C102.671 69.9893 103.397 69.2632 103.397 68.3677C103.397 67.4719 102.671 66.7458 101.776 66.7458Z" fill="#EA3942"/>
<path d="M96.8977 78.7139C96.8977 79.5237 96.2412 80.1804 95.4314 80.1804C94.6213 80.1804 93.9648 79.5237 93.9648 78.7139C93.9648 77.9041 94.6213 77.2476 95.4314 77.2476C96.2412 77.2476 96.8977 77.9041 96.8977 78.7139Z" fill="#FC4E51"/>
<path d="M104.005 78.4929C104.005 79.3408 103.317 80.0281 102.47 80.0281C101.622 80.0281 100.935 79.3408 100.935 78.4929C100.935 77.6453 101.622 76.958 102.47 76.958C103.317 76.958 104.005 77.6453 104.005 78.4929Z" fill="#FC4E51"/>
<path d="M102.47 76.958C102.22 76.958 101.984 77.0181 101.776 77.124V79.8618C101.984 79.9678 102.22 80.0281 102.47 80.0281C103.317 80.0281 104.005 79.3408 104.005 78.4929C104.005 77.6453 103.317 76.958 102.47 76.958Z" fill="#EA3942"/>
<path d="M101.952 82.6599H101.597C100.677 82.6599 99.9302 83.4062 99.9302 84.3271C99.9302 84.5757 100.132 84.7773 100.38 84.7773H100.83C100.931 84.7773 101.011 84.8621 101.006 84.9631L100.968 85.6631C100.957 85.8791 101.129 86.0605 101.345 86.0605H102.204C102.42 86.0605 102.593 85.8791 102.581 85.6631L102.544 84.9631C102.538 84.8621 102.619 84.7773 102.72 84.7773H103.169C103.418 84.7773 103.619 84.5759 103.619 84.3271C103.619 83.4062 102.873 82.6599 101.952 82.6599Z" fill="#DFEDE7"/>
<path d="M95.4314 72.2808V72.6987C95.4314 73.7839 96.311 74.6636 97.3965 74.6636C97.6894 74.6636 97.927 74.4263 97.927 74.1333V73.6035C97.927 73.4844 98.0268 73.3896 98.1457 73.396L98.9707 73.4399C99.2256 73.4534 99.4394 73.2505 99.4394 72.9956V71.9836C99.4394 71.7288 99.2256 71.5259 98.9707 71.5393L98.1457 71.5833C98.0268 71.5896 97.927 71.4949 97.927 71.3757V70.8459C97.927 70.553 97.6894 70.3157 97.3965 70.3157C96.311 70.3157 95.4314 71.1956 95.4314 72.2808Z" fill="#DFEDE7"/>
<path d="M104.718 60.0012C104.634 60.0005 104.55 60 104.465 60C95.7239 60 87.8103 63.543 82.082 69.2712C82.074 69.2793 82.0659 69.2873 82.0579 69.2954C81.3967 69.9582 81.3975 71.0425 82.0596 71.7046L83.2996 72.9443C83.968 73.613 85.062 73.6128 85.7302 72.9438L85.7424 72.9316C85.7458 72.928 85.7495 72.9246 85.7529 72.9211C86.3203 72.3545 87.2449 72.3704 87.7993 72.9499L90.3245 75.5913C90.6675 75.9502 91.2356 75.9565 91.5867 75.6055C91.9377 75.2544 91.9441 74.6736 91.6011 74.3147L89.7834 72.4136C89.4477 72.0623 89.4287 71.5019 89.7637 71.1499C90.1216 70.7742 90.7161 70.7771 91.0705 71.1477L91.6428 71.7463C91.9785 72.0977 92.5373 72.1416 92.904 71.8227C93.2954 71.4824 93.3193 70.8882 92.9648 70.5173L92.5498 70.0832C91.8779 69.3806 92.0828 68.2241 92.958 67.801C96.4377 66.1194 100.341 65.1763 104.465 65.1763C104.543 65.1763 104.622 65.1768 104.7 65.1775C105.645 65.186 106.414 64.4192 106.414 63.4741V61.7065C106.414 60.7686 105.656 60.0093 104.718 60.0012Z" fill="#FCCF3F"/>
<path d="M104.718 60.0012C104.634 60.0005 104.55 60 104.465 60C103.874 60 103.287 60.0168 102.704 60.0486V60.063V65.2346C103.286 65.1965 103.873 65.1765 104.465 65.1765C104.543 65.1765 104.622 65.1768 104.7 65.1775C105.645 65.186 106.414 64.4194 106.414 63.4744V61.7065C106.414 60.7686 105.656 60.0093 104.718 60.0012Z" fill="#EFA335"/>
<line opacity="0.7" x1="78" y1="121.5" x2="228" y2="121.5" stroke="#E8EEF3"/>
<g opacity="0.5">
<rect x="135" y="82" width="45" height="6" rx="3" fill="#E8EEF3"/>
</g>
<g opacity="0.7">
<rect x="135" y="64" width="82" height="6" rx="3" fill="#E8EEF3"/>
</g>
<g opacity="0.5">
<rect x="112" y="170" width="45" height="6" rx="3" fill="#E8EEF3"/>
</g>
<g opacity="0.7">
<rect x="112" y="152" width="82" height="6" rx="3" fill="#E8EEF3"/>
</g>
<path d="M79.7232 169.894L90.5675 165.174C91.0368 164.97 91.3333 164.51 91.3333 164C91.3333 163.49 91.0368 163.03 90.5675 162.826L79.7232 158.106C79.2046 157.877 78.6117 158.03 78.2659 158.464C77.9201 158.897 77.9201 159.535 78.2164 159.994L80.9337 164L78.2164 168.006C77.92 168.465 77.92 169.103 78.2659 169.536C78.6117 169.97 79.2046 170.123 79.7232 169.894Z" fill="#56D1EE"/>
<rect x="78" y="206" width="150" height="45" rx="22.5" fill="#EFF3F7"/>
<rect opacity="0.15" x="112" y="226" width="82" height="5" rx="2.5" fill="#768099"/>
<g filter="url(#filter1_d)">
<rect x="288" y="30" width="210" height="251" rx="15" fill="white"/>
</g>
<g clip-path="url(#clip1)">
<path d="M335.39 62.4434C335.39 63.4619 334.564 64.2876 333.546 64.2876C332.527 64.2876 331.702 63.4619 331.702 62.4434C331.702 61.4248 332.527 60.5991 333.546 60.5991C334.564 60.5991 335.39 61.4248 335.39 62.4434Z" fill="#E55045"/>
<path d="M333.546 60.5991C333.261 60.5991 332.99 60.6638 332.749 60.7795C333.369 61.0769 333.796 61.7102 333.796 62.4434C333.796 63.1765 333.369 63.8096 332.749 64.1069C332.99 64.2227 333.261 64.2876 333.546 64.2876C334.564 64.2876 335.39 63.4619 335.39 62.4434C335.39 61.4248 334.564 60.5991 333.546 60.5991Z" fill="#C43730"/>
<path d="M324.813 76.5598C324.83 75.9226 325.453 75.0229 326.046 74.2607C327.243 72.7202 329.558 72.7375 330.852 72.6895C333.221 72.6016 336.599 72.1309 341.041 70.425C341.348 70.5471 342.803 71.1621 343.398 72.7126C343.463 72.8811 344.001 74.3354 343.41 75.3774C342.444 77.0774 339.127 76.5249 333.07 76.4211C329.87 76.3665 326.709 76.459 324.813 76.5598Z" fill="#FF71BF"/>
<path d="M324.822 76.4434C324.817 76.4829 324.814 76.522 324.813 76.5598C325.99 76.4973 327.657 76.4377 329.517 76.4148C327.871 76.3933 326.251 76.4089 324.822 76.4434Z" fill="#F75C9B"/>
<path d="M343.398 72.7126C342.802 71.1621 341.348 70.5471 341.041 70.425C340.368 70.6836 339.719 70.9136 339.095 71.1184C339.539 71.479 339.998 71.9956 340.274 72.7126C340.338 72.8813 340.877 74.3357 340.285 75.3777C339.846 76.1504 338.921 76.4575 337.474 76.5532C340.781 76.6584 342.711 76.6074 343.409 75.3777C344.001 74.3354 343.463 72.8813 343.398 72.7126Z" fill="#F75C9B"/>
<path d="M326.577 71.1431C326.319 70.8154 325.867 70.1401 325.823 69.2297C325.762 67.9416 326.561 67.0005 326.831 66.6819C328.979 64.1506 332.43 65.688 334.56 63.4585C335.064 62.9316 335.633 62.0481 335.821 60.4939C335.867 60.1147 336.271 59.8948 336.62 60.0505C337.326 60.366 338.329 60.9975 338.846 62.1763C339.375 63.3806 339.108 64.5005 338.927 65.261C338.815 65.7322 338.347 67.4509 336.769 68.6741C336.428 68.9382 336.143 69.0964 334.56 69.7319C330.049 71.5432 328.778 71.7099 327.524 71.4302C327.118 71.3396 326.792 71.2261 326.577 71.1431Z" fill="#FF71BF"/>
<path d="M338.846 62.1761C338.329 60.9974 337.326 60.3658 336.62 60.0506C336.271 59.8948 335.867 60.1148 335.821 60.4937C335.734 61.2103 335.566 61.784 335.362 62.2461C335.85 63.4239 335.591 64.5152 335.413 65.2608C335.301 65.732 334.833 67.451 333.255 68.6739C332.914 68.9383 332.629 69.0965 331.046 69.732C329.146 70.4947 327.821 70.9659 326.83 71.2347C327.02 71.2996 327.254 71.3699 327.524 71.4302C328.778 71.71 330.049 71.5433 334.56 69.732C336.143 69.0965 336.428 68.9383 336.769 68.6741C338.347 67.451 338.815 65.7322 338.927 65.2608C339.108 64.5005 339.375 63.3807 338.846 62.1761Z" fill="#F75C9B"/>
<path d="M324.924 76.2477C324.609 75.9037 323.831 74.9614 323.965 73.8127C323.999 73.519 324.134 72.862 324.9 72.1078C327.183 69.8613 331.116 70.6479 334.799 68.8168C335.88 68.2795 337.419 67.278 338.927 65.2609C339.2 65.3652 339.579 65.5478 339.979 65.8488C340.46 66.2097 340.982 66.756 341.284 67.5483C341.332 67.675 341.837 69.05 341.295 70.2133C340.181 72.6049 335.152 73.0097 330.941 73.3483C329.272 73.4826 326.929 73.5751 325.537 75.2543C325.227 75.6276 325.038 75.9914 324.924 76.2477Z" fill="#FFD2EF"/>
<path d="M341.284 67.5483C340.983 66.7558 340.46 66.2097 339.98 65.8488C339.579 65.5478 339.201 65.3652 338.927 65.2607C338.524 65.7997 338.119 66.2653 337.721 66.6699C337.908 66.9218 338.076 67.2128 338.203 67.5483C338.252 67.675 338.756 69.0497 338.215 70.2133C337.1 72.6049 332.071 73.0095 327.861 73.3483C326.701 73.4416 325.216 73.5153 323.951 74.1144C323.967 75.1247 324.637 75.9345 324.925 76.2477C325.038 75.9914 325.227 75.6276 325.537 75.2543C326.929 73.5749 329.272 73.4826 330.941 73.3483C335.152 73.0095 340.181 72.6049 341.295 70.2133C341.837 69.05 341.332 67.675 341.284 67.5483Z" fill="#FFB9EF"/>
<path d="M345.148 80.5769H322.8V77.6174C322.8 76.7883 323.472 76.1159 324.302 76.1159H343.647C344.476 76.1159 345.148 76.7883 345.148 77.6174V80.5769Z" fill="#876954"/>
<path d="M343.646 76.1159H340.051C340.88 76.1159 341.552 76.7883 341.552 77.6174V80.5769H345.148V77.6174C345.148 76.7883 344.476 76.1159 343.646 76.1159Z" fill="#705245"/>
<path d="M346.007 78.0362L344.12 90.0992C343.949 91.1937 343.007 92.0001 341.899 92.0001H326.051C324.943 92.0001 324.001 91.1937 323.83 90.0992L321.941 78.0362C321.908 77.8211 322.111 77.6426 322.319 77.7044C323.114 77.9402 323.267 78.7903 324.308 78.7903C325.516 78.7903 325.516 77.6451 326.724 77.6451C327.932 77.6451 327.932 78.7903 329.14 78.7903C330.348 78.7903 330.348 77.6451 331.556 77.6451C332.764 77.6451 332.764 78.7903 333.972 78.7903C335.18 78.7903 335.18 77.6451 336.388 77.6451C337.597 77.6451 337.597 78.7903 338.805 78.7903C340.013 78.7903 340.013 77.6451 341.221 77.6451C342.429 77.6451 342.429 78.7903 343.638 78.7903C344.679 78.7903 344.833 77.9402 345.629 77.7044C345.837 77.6426 346.041 77.8211 346.007 78.0362Z" fill="#FFE170"/>
<path d="M334.458 92H333.492L333.49 80.5771C333.489 80.3098 333.706 80.094 333.972 80.094H333.973C334.24 80.094 334.455 80.3098 334.456 80.5764L334.458 92Z" fill="#FF9A2D"/>
<path d="M331.124 92.0001H330.156L329.634 80.5992C329.622 80.3323 329.828 80.1063 330.094 80.0941C330.361 80.0818 330.587 80.2879 330.599 80.5547L331.123 91.9781C331.123 91.9852 331.124 91.993 331.124 92.0001Z" fill="#FF9A2D"/>
<path d="M327.789 92H326.82L325.732 80.3782C325.707 80.1128 325.903 79.877 326.168 79.8518C326.433 79.8267 326.669 80.0225 326.694 80.2879L327.787 91.9549C327.788 91.9697 327.789 91.9851 327.789 92Z" fill="#FF9A2D"/>
<path d="M338.316 80.5991L337.794 92H336.826C336.826 91.9922 336.826 91.9859 336.827 91.978L337.35 80.5547C337.363 80.2878 337.589 80.0825 337.855 80.094C338.121 80.1062 338.328 80.3323 338.316 80.5991Z" fill="#FF9A2D"/>
<path d="M342.195 80.6216L341.13 92H340.161C340.161 91.9852 340.162 91.9698 340.163 91.9551L341.233 80.532C341.258 80.2662 341.493 80.0708 341.759 80.096C342.024 80.1204 342.219 80.3562 342.195 80.6216Z" fill="#FF9A2D"/>
</g>
<line opacity="0.7" x1="318" y1="121.5" x2="468" y2="121.5" stroke="#E8EEF3"/>
<g opacity="0.5">
<rect x="375" y="82" width="45" height="6" rx="3" fill="#E8EEF3"/>
</g>
<g opacity="0.7">
<rect x="375" y="64" width="82" height="6" rx="3" fill="#E8EEF3"/>
</g>
<g opacity="0.5">
<rect x="352" y="170" width="45" height="6" rx="3" fill="#E8EEF3"/>
</g>
<g opacity="0.7">
<rect x="352" y="152" width="82" height="6" rx="3" fill="#E8EEF3"/>
</g>
<path d="M319.723 169.894L330.567 165.174C331.037 164.97 331.333 164.51 331.333 164C331.333 163.49 331.037 163.03 330.567 162.826L319.723 158.106C319.205 157.877 318.612 158.03 318.266 158.464C317.92 158.897 317.92 159.535 318.216 159.994L320.934 164L318.216 168.006C317.92 168.465 317.92 169.103 318.266 169.536C318.612 169.97 319.205 170.123 319.723 169.894Z" fill="#56D1EE"/>
<rect x="318" y="206" width="150" height="45" rx="22.5" fill="#EFF3F7"/>
<rect opacity="0.15" x="352" y="226" width="82" height="5" rx="2.5" fill="#768099"/>
<g filter="url(#filter2_d)">
<rect x="528" y="30" width="210" height="251" rx="15" fill="white"/>
</g>
<g clip-path="url(#clip2)">
<path d="M567.93 74.5816L559.576 66.2273C559.215 65.8669 558.631 65.8669 558.27 66.2273C557.91 66.5879 557.91 67.1721 558.27 67.5327L566.625 75.8867L567.93 74.5816Z" fill="#9BACB2"/>
<path d="M571.902 78.0405C571.902 74.7605 574.561 72.1013 577.841 72.1013C581.121 72.1013 583.78 74.7605 583.78 78.0405H571.902Z" fill="#F781BF"/>
<path d="M577.841 72.1013C577.632 72.1013 577.425 72.1122 577.221 72.1335C580.21 72.4435 582.54 74.9697 582.54 78.0405H583.78C583.78 74.7605 581.121 72.1013 577.841 72.1013Z" fill="#F464B7"/>
<path d="M573.925 78.0405C573.925 75.8779 575.678 74.1245 577.841 74.1245C580.004 74.1245 581.757 75.8779 581.757 78.0405H573.925Z" fill="#FFA4D8"/>
<path d="M575.883 78.0406C575.883 76.9592 576.76 76.0825 577.841 76.0825C578.922 76.0825 579.799 76.9592 579.799 78.0406H575.883Z" fill="#F781BF"/>
<path d="M577.841 76.0825C577.636 76.0825 577.439 76.114 577.254 76.1724C578.048 76.4219 578.624 77.1638 578.624 78.0406H579.799C579.799 76.9592 578.922 76.0825 577.841 76.0825Z" fill="#F464B7"/>
<path d="M573.526 70.9778C573.688 70.8156 573.957 70.8249 574.102 71.0019C575.493 72.6941 575.398 75.198 573.816 76.7788C572.134 78.4612 569.407 78.4612 567.725 76.7788L573.526 70.9778Z" fill="#FB4239"/>
<path d="M575.008 72.9619C574.906 73.9033 574.494 74.8173 573.773 75.5388C572.311 77.0007 570.06 77.1914 568.391 76.1123L567.725 76.7788C569.407 78.4612 572.134 78.4612 573.817 76.7788C574.855 75.7407 575.251 74.3049 575.008 72.9619Z" fill="#E31F1D"/>
<path d="M572.317 72.187C573.171 73.0407 573.171 74.4253 572.317 75.279C571.463 76.1328 570.078 76.1328 569.225 75.279L572.317 72.187Z" fill="#FF7373"/>
<path d="M566.728 71.5976C566.742 71.3635 566.548 71.1691 566.314 71.1836C565.249 71.2495 562.476 71.559 561.023 73.0119C558.808 75.2273 560.469 77.4424 560.469 77.4424C560.469 77.4424 562.685 79.104 564.9 76.8886C566.353 75.4355 566.662 72.663 566.728 71.5976Z" fill="#8BCC3F"/>
<path d="M565.757 71.2299C565.625 72.5087 565.219 74.7197 563.975 75.9638C562.463 77.4755 560.952 77.1818 560.144 76.8427C560.302 77.2187 560.469 77.4423 560.469 77.4423C560.469 77.4423 562.684 79.1037 564.9 76.8886C566.353 75.4355 566.662 72.663 566.728 71.5976C566.742 71.3632 566.548 71.1691 566.314 71.1836C566.16 71.1931 565.972 71.2077 565.757 71.2299Z" fill="#659922"/>
<path d="M566.417 64.5503C566.18 64.5339 565.983 64.7305 566 64.9675C566.065 65.8955 566.339 68.0718 567.495 69.229C569.314 71.0479 571.133 69.6836 571.133 69.6836C571.133 69.6836 572.497 67.8648 570.678 66.0462C569.521 64.8889 567.345 64.615 566.417 64.5503Z" fill="#8BCC3F"/>
<path d="M570.678 66.0459C570.53 65.8982 570.366 65.7651 570.19 65.6448C571.302 67.2681 570.195 68.7456 570.195 68.7456C570.195 68.7456 568.717 69.853 567.094 68.7402C567.215 68.9165 567.348 69.0811 567.495 69.229C569.314 71.0476 571.133 69.6836 571.133 69.6836C571.133 69.6836 572.497 67.8648 570.678 66.0459Z" fill="#659922"/>
<path d="M580.105 68.3359C579.869 68.3193 579.672 68.5161 579.688 68.7529C579.753 69.6809 580.027 71.8572 581.184 73.0144C583.003 74.8333 584.822 73.4693 584.822 73.4693C584.822 73.4693 586.186 71.6504 584.367 69.8316C583.21 68.6743 581.033 68.4006 580.105 68.3359Z" fill="#8BCC3F"/>
<path d="M584.367 69.8315C584.224 69.688 584.064 69.5581 583.894 69.4406C585.024 71.0698 583.909 72.5566 583.909 72.5566C583.909 72.5566 582.423 73.6714 580.793 72.541C580.911 72.7116 581.041 72.8708 581.184 73.0144C583.003 74.8332 584.822 73.469 584.822 73.469C584.822 73.469 586.186 71.6504 584.367 69.8315Z" fill="#659922"/>
<path d="M569.161 75.43C569.161 76.8719 567.992 78.0406 566.55 78.0406C565.108 78.0406 563.939 76.8719 563.939 75.43C563.939 73.988 565.108 72.8191 566.55 72.8191C567.992 72.8191 569.161 73.988 569.161 75.43Z" fill="#FE9700"/>
<path d="M568.059 73.3005C568.362 73.7268 568.541 74.2473 568.541 74.8098C568.541 76.2517 567.372 77.4204 565.93 77.4204C565.367 77.4204 564.847 77.242 564.421 76.9392C564.894 77.6055 565.671 78.0405 566.55 78.0405C567.992 78.0405 569.161 76.8718 569.161 75.4299C569.16 74.5505 568.725 73.7734 568.059 73.3005Z" fill="#FC7800"/>
<path d="M567.529 75.4299C567.529 75.9705 567.091 76.4089 566.55 76.4089C566.009 76.4089 565.571 75.9705 565.571 75.4299C565.571 74.8892 566.009 74.4509 566.55 74.4509C567.091 74.4509 567.529 74.8892 567.529 75.4299Z" fill="#FFD15F"/>
<path d="M580.843 78.0405C580.843 75.6616 582.772 73.7328 585.151 73.7328C587.53 73.7328 589.459 75.6616 589.459 78.0405H580.843Z" fill="#FB4239"/>
<path d="M585.151 73.7328C584.974 73.7328 584.8 73.7448 584.629 73.7656C586.761 74.0234 588.414 75.8383 588.414 78.0405H589.459C589.459 75.6616 587.53 73.7328 585.151 73.7328Z" fill="#E31F1D"/>
<path d="M582.964 78.0406C582.964 76.833 583.943 75.8543 585.151 75.8543C586.358 75.8543 587.337 76.833 587.337 78.0406H582.964Z" fill="#FF7373"/>
<path d="M578.429 66.423C578.429 67.8649 577.26 69.0339 575.818 69.0339C574.376 69.0339 573.207 67.8649 573.207 66.423C573.207 64.9811 574.376 63.8124 575.818 63.8124C577.26 63.8124 578.429 64.9811 578.429 66.423Z" fill="#FE9700"/>
<path d="M577.308 64.28C577.603 64.7029 577.776 65.2163 577.776 65.7705C577.776 67.2121 576.607 68.3811 575.165 68.3811C574.611 68.3811 574.098 68.208 573.675 67.9136C574.147 68.5903 574.93 69.0337 575.818 69.0337C577.26 69.0337 578.429 67.865 578.429 66.4231C578.429 65.5354 577.985 64.7519 577.308 64.28Z" fill="#FC7800"/>
<path d="M576.797 66.4231C576.797 66.9639 576.358 67.4021 575.818 67.4021C575.277 67.4021 574.839 66.9639 574.839 66.4231C574.839 65.8826 575.277 65.4441 575.818 65.4441C576.358 65.4441 576.797 65.8826 576.797 66.4231Z" fill="#FFD15F"/>
<path d="M560.469 77.9318C560.344 77.9318 560.219 77.8839 560.123 77.7885C559.932 77.5973 559.932 77.2873 560.123 77.0963L562.114 75.1054C562.305 74.9145 562.615 74.9145 562.806 75.1054C562.997 75.2965 562.997 75.6066 562.806 75.7978L560.815 77.7885C560.72 77.8839 560.594 77.9318 560.469 77.9318Z" fill="#659922"/>
<path d="M571.641 71.2853C571.637 71.2853 571.634 71.2853 571.631 71.2853C571.361 71.2802 571.146 71.057 571.151 70.7868C571.157 70.4572 570.87 70.11 570.792 70.0351C570.791 70.0334 570.789 70.0314 570.787 70.0297L569.075 68.3175C568.884 68.1264 568.884 67.8163 569.075 67.6254C569.266 67.4342 569.576 67.4342 569.767 67.6254L571.477 69.3351C571.559 69.4159 572.145 70.0172 572.13 70.8051C572.125 71.0722 571.907 71.2853 571.641 71.2853Z" fill="#659922"/>
<path d="M584.822 73.9587C584.697 73.9587 584.571 73.9109 584.476 73.8154L582.763 72.1028C582.572 71.9116 582.572 71.6018 582.763 71.4106C582.954 71.2195 583.264 71.2195 583.456 71.4106L585.168 73.123C585.359 73.3142 585.359 73.6242 585.168 73.8154C585.073 73.9109 584.947 73.9587 584.822 73.9587Z" fill="#659922"/>
<path d="M583.976 86.2722L583.849 86.5894C583.453 87.5806 582.493 88.2303 581.425 88.2303H566.686C565.618 88.2303 564.658 87.5804 564.262 86.5894L564.135 86.2722H583.976Z" fill="#B8E9FF"/>
<path d="M574.056 76.8741H558.633C558.305 76.8741 558.058 77.1734 558.121 77.4959L559.006 82.0477C559.483 84.501 561.632 86.2725 564.131 86.2725H583.98C586.479 86.2725 588.628 84.5013 589.105 82.0477L589.99 77.4959C590.053 77.1734 589.806 76.8741 589.478 76.8741H574.056Z" fill="#D7F1FF"/>
<path d="M586.065 76.874L585.059 82.0476C584.582 84.501 582.433 86.2722 579.934 86.2722H583.98C586.479 86.2722 588.628 84.501 589.105 82.0476L589.99 77.4956C590.053 77.1733 589.806 76.8737 589.478 76.8737H586.065V76.874Z" fill="#B8E9FF"/>
</g>
<line opacity="0.7" x1="558" y1="121.5" x2="708" y2="121.5" stroke="#E8EEF3"/>
<g opacity="0.5">
<rect x="615" y="82" width="45" height="6" rx="3" fill="#E8EEF3"/>
</g>
<g opacity="0.7">
<rect x="615" y="64" width="82" height="6" rx="3" fill="#E8EEF3"/>
</g>
<g opacity="0.5">
<rect x="592" y="170" width="45" height="6" rx="3" fill="#E8EEF3"/>
</g>
<g opacity="0.7">
<rect x="592" y="152" width="82" height="6" rx="3" fill="#E8EEF3"/>
</g>
<path d="M559.723 169.894L570.567 165.174C571.037 164.97 571.333 164.51 571.333 164C571.333 163.49 571.037 163.03 570.567 162.826L559.723 158.106C559.205 157.877 558.612 158.03 558.266 158.464C557.92 158.897 557.92 159.535 558.216 159.994L560.934 164L558.216 168.006C557.92 168.465 557.92 169.103 558.266 169.536C558.612 169.97 559.205 170.123 559.723 169.894Z" fill="#56D1EE"/>
<rect x="558" y="206" width="150" height="45" rx="22.5" fill="#EFF3F7"/>
<rect opacity="0.15" x="592" y="226" width="82" height="5" rx="2.5" fill="#768099"/>
<g filter="url(#filter3_d)">
<rect x="768" y="30" width="210" height="251" rx="15" fill="white"/>
</g>
<path d="M828.2 78.8618C828.2 79.4401 827.966 79.9632 827.587 80.3418C827.208 80.7204 826.685 80.9546 826.107 80.9546H801.893C800.737 80.9546 799.8 80.0179 799.8 78.8618C799.8 78.5521 799.867 78.2587 799.987 77.9946C800.092 77.765 800.236 77.5581 800.413 77.3818C800.792 77.0032 801.315 76.769 801.893 76.769H826.107C826.953 76.769 827.683 77.2712 828.013 77.9946C828.133 78.2587 828.2 78.5521 828.2 78.8618Z" fill="#884D00"/>
<path d="M828.013 77.9946C827.908 78.2236 827.763 78.4311 827.587 78.6068C827.208 78.9854 826.685 79.2196 826.107 79.2196H801.893C801.047 79.2196 800.318 78.7174 799.987 77.9947C800.092 77.765 800.236 77.5582 800.413 77.3819C800.792 77.0032 801.315 76.769 801.893 76.769H826.107C826.953 76.769 827.683 77.2712 828.013 77.9946Z" fill="#AA6100"/>
<path d="M830 82.6439C830 85.3404 828.752 87.344 826.734 88.6731C824.715 90.0028 821.927 90.6579 818.847 90.6579H809.153C802.994 90.6579 798 88.0369 798 82.6439C798 82.3433 798.075 82.0584 798.21 81.8021C798.325 81.5835 798.483 81.3864 798.675 81.2185C799.091 80.8536 799.667 80.6278 800.303 80.6278H827.697C828.625 80.6278 829.426 81.1092 829.79 81.8021C829.925 82.0585 830 82.3434 830 82.6439Z" fill="#FFA733"/>
<path d="M829.79 81.8022C829.355 83.5977 828.266 84.9963 826.734 86.0059C824.715 87.3356 821.927 87.9907 818.847 87.9907H809.153C803.734 87.9907 799.218 85.9624 798.21 81.8022C798.325 81.5836 798.483 81.3865 798.675 81.2186C799.091 80.8537 799.667 80.6279 800.303 80.6279H827.697C828.625 80.6279 829.426 81.1094 829.79 81.8022Z" fill="#FFB655"/>
<path d="M822.899 75.8908L817.485 81.3046C817.349 81.4399 817.204 81.5596 817.051 81.6631C815.905 82.4391 814.334 82.3201 813.319 81.3046L807.905 75.8908H822.899Z" fill="#EEBF00"/>
<path d="M822.899 75.8908L817.485 81.3046C817.35 81.4399 817.204 81.5596 817.051 81.663C816.638 81.5225 816.25 81.2877 815.921 80.9579L810.854 75.8908H822.899Z" fill="#FFD422"/>
<path d="M829.392 76.646C829.392 76.9296 829.346 77.2197 829.244 77.5027C828.847 78.6119 827.782 79.0425 826.953 78.4297L825.958 77.6953C825.264 77.182 824.379 77.3922 823.876 78.1897L823.834 78.2567C823.352 79.023 822.512 79.2507 821.825 78.8018L819.598 77.3453C819.084 77.0096 818.468 77.046 817.981 77.4422L816.196 78.8942C815.684 79.3112 815.03 79.3288 814.504 78.9391L812.468 77.4298C811.947 77.0441 811.302 77.0564 810.791 77.4623L808.937 78.9346C808.44 79.3295 807.814 79.3522 807.299 78.9951L804.899 77.3271C804.427 76.9992 803.857 76.9901 803.379 77.303L801.139 78.7674C799.648 78.9593 798.923 77.8645 798.923 77.8645C798.566 77.2438 798.53 76.5081 798.723 75.8907C798.953 75.153 799.509 74.5845 800.233 74.5845H827.768C828.477 74.5845 829.044 75.1446 829.277 75.8875C829.352 76.1255 829.392 76.3825 829.392 76.646Z" fill="#6DC82A"/>
<path d="M829.277 75.8875C829.267 75.92 829.256 75.9519 829.244 75.9845C828.847 77.0943 827.782 77.525 826.953 76.9122L825.958 76.177C825.264 75.6644 824.379 75.8745 823.877 76.6715L823.834 76.7391C823.352 77.5054 822.512 77.7331 821.825 77.2842L819.598 75.8277C819.084 75.4913 818.468 75.5284 817.981 75.9246L816.196 77.3766C815.684 77.7936 815.031 77.8105 814.504 77.4208L812.468 75.9116C811.948 75.5258 811.302 75.5388 810.792 75.9441L808.938 77.4169C808.44 77.8112 807.814 77.8345 807.3 77.4774L804.899 75.8094C804.427 75.4809 803.858 75.4718 803.379 75.7853L801.14 77.249C799.649 77.4416 798.923 76.3461 798.923 76.3461C798.839 76.1997 798.773 76.0468 798.724 75.8907C798.953 75.153 799.509 74.5844 800.233 74.5844H827.768C828.477 74.5845 829.044 75.1446 829.277 75.8875Z" fill="#7ED63E"/>
<path d="M828.837 73.2456C828.841 73.4622 828.813 73.671 828.757 73.8681C828.505 74.7451 827.697 75.3865 826.739 75.3865C822.979 75.3865 812.964 75.3019 811.454 75.352C811.42 75.3533 811.386 75.3546 811.353 75.3553C809.446 75.4274 809.011 75.7332 809.011 76.75V80.4704C809.011 80.6617 808.934 80.8354 808.808 80.9609C808.682 81.0865 808.509 81.1639 808.318 81.1639C807.935 81.1639 807.625 81.4742 807.625 81.8574V83.4779C807.625 83.6424 807.605 83.8019 807.567 83.9554C807.353 84.8414 806.554 85.4991 805.594 85.4991H805.542C804.451 85.4991 803.567 84.6124 803.57 83.5208L803.58 80.5876C803.58 80.3625 803.672 80.1582 803.82 80.0112C803.968 79.8635 804.172 79.7724 804.397 79.7724C804.849 79.7724 805.215 79.4062 805.215 78.9547V76.75C805.215 75.9967 804.605 75.3865 803.852 75.3865H801.3C800.152 75.3865 799.186 74.4803 799.162 73.3321C799.139 72.154 800.087 71.1912 801.26 71.1912H826.698C827.847 71.1912 828.814 72.0974 828.837 73.2456Z" fill="#FF3501"/>
<path d="M828.837 73.2456C828.841 73.4622 828.813 73.671 828.757 73.8681C824.776 73.8643 815.265 73.7855 813.796 73.8336C811.802 73.8993 811.353 74.1979 811.353 75.2323V75.3553C809.446 75.4274 809.011 75.7332 809.011 76.75V80.4704C809.011 80.6617 808.934 80.8354 808.808 80.9609C808.683 81.0865 808.509 81.1639 808.318 81.1639C807.935 81.1639 807.625 81.4742 807.625 81.8574V83.4779C807.625 83.6424 807.605 83.8019 807.567 83.9554C806.627 83.8038 805.909 82.9861 805.912 82.0024L805.922 79.0698C805.922 78.8441 806.014 78.6404 806.162 78.4934C806.31 78.3458 806.514 78.2547 806.739 78.2547C807.191 78.2547 807.557 77.8884 807.557 77.4369V75.2323C807.557 74.4789 806.947 73.8688 806.194 73.8688H803.642C802.494 73.8688 801.528 72.9626 801.504 71.8144C801.5 71.5978 801.528 71.3889 801.585 71.1912H826.698C827.847 71.1912 828.814 72.0974 828.837 73.2456Z" fill="#FF5023"/>
<path d="M816.836 69.0588L812.194 73.7024C811.729 74.1675 811.18 74.4986 810.596 74.6944C809.156 75.1811 807.501 74.8499 806.355 73.7024L801.711 69.0588H816.836Z" fill="#EEBF00"/>
<path d="M816.836 69.0588L812.194 73.7024C811.729 74.1675 811.181 74.4986 810.596 74.6944C810.013 74.4986 809.464 74.1675 809 73.7024L804.356 69.0588H816.836Z" fill="#FFD422"/>
<path d="M830 69.712C830 69.7465 829.999 69.7803 829.997 69.8141C829.971 70.2506 829.784 70.6441 829.494 70.9343C829.181 71.2473 828.749 71.4405 828.271 71.4405H799.729C798.774 71.4404 798 70.6663 798 69.712C798 67.6406 798.96 66.0813 800.41 64.9083C801.587 63.956 803.087 63.2579 804.658 62.746C809.051 61.3155 814 61.3421 814 61.3421C814 61.3421 830 61.2556 830 69.712Z" fill="#FFA733"/>
<path d="M830 69.712C830 69.7465 829.999 69.7803 829.997 69.8141H803.241C802.287 69.8141 801.513 69.04 801.513 68.0856C801.513 66.0143 802.473 64.4549 803.923 63.282C804.156 63.0933 804.401 62.9151 804.658 62.746C809.051 61.3155 814 61.3421 814 61.3421C814 61.3421 830 61.2556 830 69.712Z" fill="#FFB655"/>
<path d="M822.6 64.3658C822.877 64.6595 822.864 65.1224 822.571 65.3999C822.277 65.6773 821.814 65.6642 821.537 65.3706C821.259 65.0771 820.749 64.0598 821.042 63.7823C821.336 63.5048 822.322 64.0722 822.6 64.3658Z" fill="#FFF5CC"/>
<path d="M818.723 67.9808C818.868 68.358 818.679 68.7811 818.302 68.9259C817.925 69.0707 817.502 68.8824 817.357 68.5053C817.212 68.1282 817.127 66.9931 817.504 66.8483C817.881 66.7035 818.578 67.6037 818.723 67.9808Z" fill="#FFF5CC"/>
<path d="M814.731 64.9724C814.731 65.3764 814.404 65.7038 814 65.7038C813.596 65.7038 813.268 65.3763 813.268 64.9724C813.268 64.5684 813.596 63.4783 814 63.4783C814.404 63.4783 814.731 64.5684 814.731 64.9724Z" fill="#FFF5CC"/>
<path d="M810.709 68.4392C810.608 68.8303 810.209 69.0655 809.818 68.9645C809.427 68.8635 809.192 68.4645 809.293 68.0734C809.394 67.6823 809.984 66.7087 810.375 66.8097C810.766 66.9107 810.81 68.0481 810.709 68.4392Z" fill="#FFF5CC"/>
<path d="M806.685 65.2531C806.509 65.6166 806.072 65.7686 805.708 65.5925C805.345 65.4164 805.193 64.9789 805.369 64.6153C805.545 64.2518 806.315 63.4134 806.679 63.5896C807.042 63.7658 806.862 64.8896 806.685 65.2531Z" fill="#FFF5CC"/>
<line opacity="0.7" x1="798" y1="121.5" x2="948" y2="121.5" stroke="#E8EEF3"/>
<g opacity="0.5">
<rect x="855" y="82" width="45" height="6" rx="3" fill="#E8EEF3"/>
</g>
<g opacity="0.7">
<rect x="855" y="64" width="82" height="6" rx="3" fill="#E8EEF3"/>
</g>
<g opacity="0.5">
<rect x="832" y="170" width="45" height="6" rx="3" fill="#E8EEF3"/>
</g>
<g opacity="0.7">
<rect x="832" y="152" width="82" height="6" rx="3" fill="#E8EEF3"/>
</g>
<path d="M799.723 169.894L810.567 165.174C811.037 164.97 811.333 164.51 811.333 164C811.333 163.49 811.037 163.03 810.567 162.826L799.723 158.106C799.205 157.877 798.612 158.03 798.266 158.464C797.92 158.897 797.92 159.535 798.216 159.994L800.934 164L798.216 168.006C797.92 168.465 797.92 169.103 798.266 169.536C798.612 169.97 799.205 170.123 799.723 169.894Z" fill="#56D1EE"/>
<rect x="798" y="206" width="150" height="45" rx="22.5" fill="#EFF3F7"/>
<rect opacity="0.15" x="832" y="226" width="82" height="5" rx="2.5" fill="#768099"/>
<path opacity="0.5" d="M746.426 457.275C746.426 464.106 713.105 467.784 652.579 467.784C551.494 467.784 543 462.252 543 455.421C543 448.59 591.464 451.712 651.99 451.712C712.516 451.712 746.426 450.445 746.426 457.275Z" fill="#E8EEF3"/>
<g clip-path="url(#clip3)">
<path fill-rule="evenodd" clip-rule="evenodd" d="M648.836 352.577C646.736 356.979 643.871 361.956 639.861 363.104C636.997 363.87 628.976 358.511 627.449 356.405C625.921 354.3 630.886 249.408 634.514 243.092C639.288 234.478 677.48 246.346 676.143 261.275C674.425 280.225 669.078 300.514 662.585 319.272C658.575 330.374 653.992 341.475 648.836 352.577Z" fill="#222B54"/>
<path d="M696.194 449.812C691.993 450.387 687.792 450.004 683.782 448.855C683.973 443.879 684.355 439.094 684.546 434.117C684.546 433.543 684.546 432.777 684.928 432.394C685.501 431.629 686.455 431.246 687.219 431.246C690.656 430.672 695.812 430.48 696.003 434.691C696.003 439.668 696.003 444.644 696.194 449.812Z" fill="#F4A086"/>
<path d="M627.067 449.812C622.866 450.387 618.473 450.004 614.654 448.855C615.609 443.879 616.564 439.094 617.328 434.117C617.519 433.543 617.519 432.777 617.901 432.394C618.473 431.629 619.428 431.246 620.383 431.246C623.82 430.672 628.976 430.48 628.594 434.691C628.403 439.668 627.64 444.644 627.067 449.812Z" fill="#F4A086"/>
<path fill-rule="evenodd" clip-rule="evenodd" d="M628.403 340.327C633.75 331.522 646.927 325.589 652.464 340.71C660.867 363.679 634.323 406.937 630.313 434.691H615.991C615.609 432.203 625.539 345.304 628.403 340.327Z" fill="#222B54"/>
<path fill-rule="evenodd" clip-rule="evenodd" d="M697.531 268.549C694.094 271.229 689.511 271.803 685.119 271.803C649.6 271.803 629.167 260.318 634.132 243.857C639.097 227.013 670.797 229.884 687.41 235.244C691.038 236.392 696.194 237.541 698.677 240.795C702.114 245.58 705.933 261.85 697.531 268.549Z" fill="#0A3C5F"/>
<path d="M649.027 153.513C647.881 169.782 644.635 186.626 635.469 200.216C633.559 203.087 630.695 206.15 627.067 205.767C624.966 205.576 623.247 204.044 622.102 202.322C620.956 200.599 620.383 198.494 620.192 196.579C617.137 180.693 622.102 164.423 626.876 148.919C628.785 142.602 631.459 131.309 637.951 127.864C644.635 124.227 648.072 135.329 648.645 139.923C649.409 144.325 649.409 148.919 649.027 153.513Z" fill="#F4A086"/>
<path fill-rule="evenodd" clip-rule="evenodd" d="M649.791 130.352C649.409 127.673 648.836 124.419 646.163 123.27C643.489 122.122 640.625 123.844 638.715 125.758C626.303 136.86 621.529 152.747 619.237 169.782L649.027 171.696C651.128 157.915 651.319 144.134 649.791 130.352Z" fill="#56D1EE"/>
<path fill-rule="evenodd" clip-rule="evenodd" d="M694.476 352.577C693.33 356.979 691.42 361.956 687.601 363.105C684.928 363.87 675.762 358.511 673.661 356.405C671.56 354.3 655.138 266.252 657.429 259.936C660.485 251.322 668.314 245.771 676.334 244.623C687.983 242.709 701.35 246.346 703.069 261.275C705.169 280.225 703.833 300.514 701.35 319.272C699.823 330.374 697.531 341.475 694.476 352.577Z" fill="#0A3C5F"/>
<path d="M597.85 155.044C595.94 153.704 593.458 152.173 591.166 152.938C589.256 153.704 588.111 155.81 588.302 157.915C588.302 160.021 613.127 200.408 623.629 204.619C628.976 206.724 632.986 203.853 635.087 199.259C637.951 192.751 605.106 160.212 597.85 155.044Z" fill="#F7B690"/>
<path fill-rule="evenodd" clip-rule="evenodd" d="M670.797 340.327C674.234 331.714 687.41 324.823 694.858 340.71C706.888 366.55 699.632 405.023 697.34 434.691H683.209C682.063 432.203 668.887 345.304 670.797 340.327Z" fill="#0A3C5F"/>
<path fill-rule="evenodd" clip-rule="evenodd" d="M630.313 135.712C626.685 141.071 628.021 148.727 628.976 154.852C630.886 168.06 635.469 180.884 638.142 194.091C640.816 207.298 641.58 221.271 635.851 233.521C634.896 235.435 633.941 237.349 633.75 239.455C633.559 241.56 634.514 243.857 636.615 244.814C637.76 245.389 639.288 245.389 640.625 245.389C659.148 245.197 677.862 245.197 696.385 245.006C697.531 245.006 698.868 245.006 700.014 244.24C702.305 242.9 701.541 239.838 700.586 237.541C695.24 222.037 699.823 205.193 704.597 189.497C709.371 173.993 715.29 154.661 712.617 138.391C706.124 130.735 692.757 111.977 666.214 111.977C647.499 111.977 633.559 130.926 630.313 135.712Z" fill="#90E2F5"/>
<path d="M731.713 146.431C721.592 135.712 708.416 127.864 694.094 124.419C691.611 123.844 688.365 123.462 686.646 125.567C685.692 126.716 685.501 128.247 685.882 129.778C686.264 131.118 687.028 132.458 687.601 133.798C696.385 148.345 706.888 161.552 717.582 174.759C720.828 178.779 724.075 182.798 728.276 186.052C732.477 189.115 737.633 191.22 742.789 190.454C745.462 190.072 749.472 188.54 750.618 185.861C751.573 183.755 750.045 180.31 749.472 178.204C747.372 170.739 744.125 163.657 739.924 157.149C737.442 153.13 734.768 149.684 731.713 146.431Z" fill="#F7B690"/>
<path fill-rule="evenodd" clip-rule="evenodd" d="M726.175 176.29C726.175 176.482 726.175 176.482 726.175 176.673C726.366 176.482 726.366 176.29 726.175 176.29Z" fill="#CF76FE"/>
<path fill-rule="evenodd" clip-rule="evenodd" d="M681.681 128.055C680.345 125.758 679.199 122.696 680.727 120.399C682.254 118.102 687.601 117.528 690.275 117.911C707.27 120.59 721.401 129.969 733.05 142.794L705.551 161.552C696.194 151.407 688.174 140.114 681.681 128.055Z" fill="#90E2F5"/>
<path d="M686.264 218.974C685.501 221.463 687.601 224.142 689.893 225.291C692.375 226.248 732.859 208.638 747.372 191.411C758.256 178.587 735.914 163.657 729.994 175.333C724.456 187.009 686.646 217.252 686.264 218.974Z" fill="#F7B690"/>
<path fill-rule="evenodd" clip-rule="evenodd" d="M642.725 85.5628C643.68 87.094 644.826 86.7112 644.635 84.9885C644.444 79.4377 644.253 78.6721 646.736 73.6955C648.072 71.0158 648.454 70.8243 647.308 69.8673C643.107 66.8048 635.278 73.3127 642.725 85.5628Z" fill="#222B56"/>
<path d="M658.575 93.2191C660.485 85.1799 666.404 83.2659 670.033 85.1799C672.324 100.301 674.616 107 680.536 115.231C673.279 120.016 660.676 119.059 658.002 115.231C658.002 114.083 657.811 97.4301 658.575 93.2191Z" fill="#F4A086"/>
<path d="M666.023 71.7814C660.485 64.8907 649.218 66.0391 645.017 74.6525C641.198 82.5002 645.399 98.9613 648.645 102.407C654.374 108.34 666.214 101.45 667.932 97.0473C670.415 90.348 670.606 77.5236 666.023 71.7814Z" fill="#F7B690"/>
<path fill-rule="evenodd" clip-rule="evenodd" d="M662.967 74.0783C662.585 75.4181 665.641 92.0707 666.023 91.8792C667.741 91.1136 669.651 86.5198 672.897 86.7112C673.852 86.7112 675.189 87.4769 675.189 85.3714C675.571 72.7384 675.953 73.3127 673.852 72.1642C668.887 69.6759 663.54 71.7814 662.967 74.0783Z" fill="#222B56"/>
<path fill-rule="evenodd" clip-rule="evenodd" d="M676.716 66.2305C666.405 58.957 649.791 56.2773 644.826 59.1484C637.57 63.3594 642.916 75.6095 645.59 76.1838C646.736 76.5666 647.881 75.4181 649.027 74.8439C653.992 71.3986 658.575 74.0783 662.203 74.6525C669.078 75.9924 685.501 72.3556 676.716 66.2305Z" fill="#222B56"/>
<path d="M675.571 84.6057C675.762 86.7112 675.189 88.8167 673.852 90.348C670.224 94.9418 666.405 88.8167 667.359 84.9885C668.314 80.3947 674.998 79.2463 675.571 84.6057Z" fill="#F7B690"/>
<path fill-rule="evenodd" clip-rule="evenodd" d="M587.538 457.086C587.347 454.98 589.256 453.258 591.357 452.875C593.267 452.492 595.367 452.684 597.468 452.684C603.388 452.684 608.925 449.047 611.599 443.879C611.981 443.113 612.363 442.348 612.936 441.965C613.89 441.39 615.036 441.773 615.991 442.539C616.755 443.305 617.328 444.07 618.092 444.836C619.428 446.176 621.338 446.941 623.247 446.941C624.775 446.941 626.685 445.601 628.212 446.558C629.549 447.324 629.931 449.238 630.313 450.578C630.886 452.875 631.459 455.172 632.032 457.469C632.223 458.043 632.223 458.426 632.223 459H621.147C620.574 458.234 620.192 456.129 620.001 455.172C620.001 456.129 619.619 458.234 619.046 459H588.493C587.92 458.426 587.538 457.852 587.538 457.086Z" fill="#0A3C5F"/>
<path fill-rule="evenodd" clip-rule="evenodd" d="M678.053 457.086C678.053 454.98 678.817 453.258 679.772 452.875C680.727 452.492 682.063 449.047 683.782 443.879C684.546 441.582 689.32 441.008 691.611 444.836C692.375 446.176 693.139 446.941 693.903 446.941C694.667 446.941 695.431 445.601 696.003 446.558C696.576 447.324 696.767 449.238 696.958 450.578C697.149 452.875 697.531 455.172 697.722 457.469C697.722 458.043 697.913 458.426 697.913 459H678.435C678.244 458.426 678.053 457.852 678.053 457.086Z" fill="#0A3C5F"/>
<path d="M582 138.774C582.764 134.755 583.91 132.649 586.965 129.969C587.729 129.395 588.493 128.63 589.638 128.63C590.784 128.63 591.739 129.587 592.312 130.352C594.985 133.415 596.704 137.052 597.85 140.88C598.423 142.794 598.805 145.474 598.805 147.962C599.186 147.579 599.95 147.388 600.332 147.005C601.86 145.665 603.006 143.368 605.106 142.794C607.016 142.411 605.297 147.388 604.915 149.684C603.769 156.575 594.985 162.892 590.02 160.403C587.347 159.063 588.111 154.661 585.437 148.536C584.292 146.048 581.427 141.837 582 138.774Z" fill="#F7B690"/>
<path d="M684.737 235.818C685.882 238.115 687.601 240.029 689.893 241.178C693.712 243.092 698.486 242.135 702.687 240.986C703.451 240.795 704.024 240.603 704.597 240.221C705.169 239.838 705.551 238.881 705.17 238.306C704.597 237.349 703.069 237.541 702.114 236.967C700.968 236.392 700.586 235.053 700.586 233.713C700.586 232.373 701.159 231.224 701.159 230.076C701.35 226.822 699.441 223.951 696.958 222.037C694.094 219.931 687.792 216.295 685.119 220.314C682.254 224.716 682.254 231.033 684.737 235.818Z" fill="#F7B690"/>
</g>
<defs>
<filter id="filter0_d" x="0" y="2" width="306" height="347" filterUnits="userSpaceOnUse" color-interpolation-filters="sRGB">
<feFlood flood-opacity="0" result="BackgroundImageFix"/>
<feColorMatrix in="SourceAlpha" type="matrix" values="0 0 0 0 0 0 0 0 0 0 0 0 0 0 0 0 0 0 127 0"/>
<feOffset dy="20"/>
<feGaussianBlur stdDeviation="24"/>
<feColorMatrix type="matrix" values="0 0 0 0 0.223529 0 0 0 0 0.258824 0 0 0 0 0.341176 0 0 0 0.08 0"/>
<feBlend mode="normal" in2="BackgroundImageFix" result="effect1_dropShadow"/>
<feBlend mode="normal" in="SourceGraphic" in2="effect1_dropShadow" result="shape"/>
</filter>
<filter id="filter1_d" x="240" y="2" width="306" height="347" filterUnits="userSpaceOnUse" color-interpolation-filters="sRGB">
<feFlood flood-opacity="0" result="BackgroundImageFix"/>
<feColorMatrix in="SourceAlpha" type="matrix" values="0 0 0 0 0 0 0 0 0 0 0 0 0 0 0 0 0 0 127 0"/>
<feOffset dy="20"/>
<feGaussianBlur stdDeviation="24"/>
<feColorMatrix type="matrix" values="0 0 0 0 0.223529 0 0 0 0 0.258824 0 0 0 0 0.341176 0 0 0 0.08 0"/>
<feBlend mode="normal" in2="BackgroundImageFix" result="effect1_dropShadow"/>
<feBlend mode="normal" in="SourceGraphic" in2="effect1_dropShadow" result="shape"/>
</filter>
<filter id="filter2_d" x="480" y="2" width="306" height="347" filterUnits="userSpaceOnUse" color-interpolation-filters="sRGB">
<feFlood flood-opacity="0" result="BackgroundImageFix"/>
<feColorMatrix in="SourceAlpha" type="matrix" values="0 0 0 0 0 0 0 0 0 0 0 0 0 0 0 0 0 0 127 0"/>
<feOffset dy="20"/>
<feGaussianBlur stdDeviation="24"/>
<feColorMatrix type="matrix" values="0 0 0 0 0.223529 0 0 0 0 0.258824 0 0 0 0 0.341176 0 0 0 0.08 0"/>
<feBlend mode="normal" in2="BackgroundImageFix" result="effect1_dropShadow"/>
<feBlend mode="normal" in="SourceGraphic" in2="effect1_dropShadow" result="shape"/>
</filter>
<filter id="filter3_d" x="720" y="2" width="306" height="347" filterUnits="userSpaceOnUse" color-interpolation-filters="sRGB">
<feFlood flood-opacity="0" result="BackgroundImageFix"/>
<feColorMatrix in="SourceAlpha" type="matrix" values="0 0 0 0 0 0 0 0 0 0 0 0 0 0 0 0 0 0 127 0"/>
<feOffset dy="20"/>
<feGaussianBlur stdDeviation="24"/>
<feColorMatrix type="matrix" values="0 0 0 0 0.223529 0 0 0 0 0.258824 0 0 0 0 0.341176 0 0 0 0.08 0"/>
<feBlend mode="normal" in2="BackgroundImageFix" result="effect1_dropShadow"/>
<feBlend mode="normal" in="SourceGraphic" in2="effect1_dropShadow" result="shape"/>
</filter>
<clipPath id="clip0">
<rect x="18" width="830" height="311" rx="20" fill="white"/>
</clipPath>
<clipPath id="clip1">
<rect x="318" y="60" width="32" height="32" fill="white"/>
</clipPath>
<clipPath id="clip2">
<rect x="558" y="60" width="32" height="32" fill="white"/>
</clipPath>
<clipPath id="clip3">
<path d="M582 58H751V459H582V58Z" fill="white"/>
</clipPath>
</defs>
</svg>
