<svg width="859" height="462" viewBox="0 0 859 462" fill="none" xmlns="http://www.w3.org/2000/svg">
<rect opacity="0.5" width="830" height="294" rx="20" transform="matrix(-1 0 0 1 859 0)" fill="#E9F5FE"/>
<g clip-path="url(#clip0)">
<path d="M124.232 133.792C119.663 131.857 117.333 128.774 116.85 126.892C115.255 120.853 118.803 118.756 119.806 115.942C121.293 111.766 114.341 107.949 114.018 102.608C113.553 94.9557 124.877 91.6222 125.217 89.1669C125.916 84.1668 119.914 83.0735 119.824 78.9694C119.681 72.4997 126.49 73.79 128.55 69.3992C129.984 66.3346 128.694 59.4168 135.019 58.1085C138.531 57.3916 141.039 60.743 141.685 63.6463C142.437 66.9977 140.394 69.4171 141.559 72.2667C142.813 75.3492 149.479 78.0196 149.192 85.4751C148.906 92.7871 142.993 95.7801 143.763 100.583C144.229 103.558 146.881 104.221 147.741 107.358C148.906 111.569 145.519 113.684 146.307 116.605C147.221 120.082 152.041 120.046 152.041 127.34C152.041 131.068 147.329 134.885 141.111 133.792C132.062 136.265 125.307 134.24 124.232 133.792Z" fill="#9CAF49"/>
<path d="M122.529 126.623C122.888 125.726 123.568 125.01 124.106 124.203C126.167 121.174 126.167 116.891 124.088 113.88C123.353 112.787 122.368 111.855 121.812 110.672C119.268 105.188 126.4 99.6503 124.841 94.0049C124.106 91.3883 121.544 89.1302 122.135 86.4598C122.493 84.8289 123.963 83.7178 124.841 82.2841C127.923 77.2301 123.085 70.5811 124.357 66.9251C124.715 65.8856 125.683 64.9895 126.794 65.0433C128.675 65.1329 129.392 67.5703 129.231 69.4341C129.069 71.298 128.657 73.4845 129.983 74.8107C130.915 75.7605 132.384 75.886 133.657 76.3519C137.079 77.6244 138.817 82.1765 137.133 85.4204C136.309 87.0154 134.857 88.1803 133.8 89.632C132.743 91.0837 132.134 93.1626 133.155 94.6322C133.997 95.8688 135.807 96.3885 136.219 97.8223C136.398 98.4495 136.273 99.1305 135.986 99.704C135.269 101.209 133.746 102.088 132.474 103.163C131.22 104.238 130.091 105.905 130.664 107.464C131.076 108.575 132.187 109.238 132.994 110.099C134.768 112.052 134.732 115.368 132.922 117.285C132.277 117.966 131.435 118.486 130.825 119.203C130.216 119.92 129.858 121.013 130.36 121.82C135.018 124.956 137.617 125.995 135.341 129.848C134.284 131.623 132.904 133.272 131.094 134.221C126.4 136.73 120.451 131.82 122.529 126.623Z" fill="#B6CE78"/>
<path d="M123.784 134.239L124.339 135.297C124.339 135.297 124.715 146.48 127.529 146.48H137.778C140.555 146.48 140.967 135.44 140.967 135.44L141.523 134.239C141.523 133.988 141.326 133.791 141.075 133.791H124.232C123.981 133.791 123.784 133.988 123.784 134.239Z" fill="#7BA9D8"/>
<path d="M128.854 134.239L129.41 135.297C129.41 135.297 129.786 146.48 132.599 146.48H137.76C140.537 146.48 140.949 135.44 140.949 135.44L141.505 134.239C141.505 133.988 141.308 133.791 141.057 133.791H129.302C129.069 133.791 128.854 133.988 128.854 134.239Z" fill="#7BA9D8"/>
<path d="M161.233 146.498H226.17C226.51 146.498 226.797 146.229 226.797 145.87V131.533C226.797 131.192 226.528 130.906 226.17 130.906H161.233C160.893 130.906 160.606 131.175 160.606 131.533V145.87C160.606 146.229 160.893 146.498 161.233 146.498Z" fill="#FFBF34"/>
<path d="M222.246 143.541H188.021C187.645 143.541 187.34 143.236 187.34 142.859V134.472C187.34 134.096 187.645 133.791 188.021 133.791H222.246C222.622 133.791 222.926 134.096 222.926 134.472V142.859C222.944 143.236 222.622 143.541 222.246 143.541Z" fill="#F3A308"/>
<path d="M171.052 142.017C172.972 142.017 174.529 140.533 174.529 138.702C174.529 136.871 172.972 135.386 171.052 135.386C169.133 135.386 167.576 136.871 167.576 138.702C167.576 140.533 169.133 142.017 171.052 142.017Z" fill="#F3A308"/>
<path d="M192.16 142.806C191.677 142.806 191.3 142.465 191.3 142.017V135.404C191.3 134.974 191.695 134.616 192.16 134.616C192.644 134.616 193.02 134.956 193.02 135.404V142.017C193.02 142.447 192.626 142.806 192.16 142.806Z" fill="#FFBF34"/>
<path d="M195.045 142.806C194.561 142.806 194.185 142.465 194.185 142.017V135.404C194.185 134.974 194.579 134.616 195.045 134.616C195.529 134.616 195.905 134.956 195.905 135.404V142.017C195.923 142.447 195.529 142.806 195.045 142.806Z" fill="#FFBF34"/>
<path d="M197.948 142.806C197.464 142.806 197.088 142.465 197.088 142.017V135.404C197.088 134.974 197.482 134.616 197.948 134.616C198.432 134.616 198.808 134.956 198.808 135.404V142.017C198.808 142.447 198.414 142.806 197.948 142.806Z" fill="#FFBF34"/>
<path d="M161.233 129.167H226.17C226.51 129.167 226.797 128.898 226.797 128.54V114.203C226.797 113.862 226.528 113.575 226.17 113.575H161.233C160.893 113.575 160.606 113.844 160.606 114.203V128.54C160.606 128.898 160.893 129.167 161.233 129.167Z" fill="#FFBF34"/>
<path d="M222.246 126.21H188.021C187.645 126.21 187.34 125.905 187.34 125.529V117.142C187.34 116.765 187.645 116.461 188.021 116.461H222.246C222.622 116.461 222.926 116.765 222.926 117.142V125.529C222.944 125.905 222.622 126.21 222.246 126.21Z" fill="#F3A308"/>
<path d="M171.052 124.705C172.972 124.705 174.529 123.22 174.529 121.389C174.529 119.558 172.972 118.074 171.052 118.074C169.133 118.074 167.576 119.558 167.576 121.389C167.576 123.22 169.133 124.705 171.052 124.705Z" fill="#F3A308"/>
<path d="M192.16 125.475C191.677 125.475 191.3 125.135 191.3 124.687V118.074C191.3 117.644 191.695 117.285 192.16 117.285C192.644 117.285 193.02 117.626 193.02 118.074V124.687C193.02 125.117 192.626 125.475 192.16 125.475Z" fill="#FFBF34"/>
<path d="M195.045 125.475C194.561 125.475 194.185 125.135 194.185 124.687V118.074C194.185 117.644 194.579 117.285 195.045 117.285C195.529 117.285 195.905 117.626 195.905 118.074V124.687C195.923 125.117 195.529 125.475 195.045 125.475Z" fill="#FFBF34"/>
<path d="M197.948 125.475C197.464 125.475 197.088 125.135 197.088 124.687V118.074C197.088 117.644 197.482 117.285 197.948 117.285C198.432 117.285 198.808 117.626 198.808 118.074V124.687C198.808 125.117 198.414 125.475 197.948 125.475Z" fill="#FFBF34"/>
<path d="M226.152 112.088H161.233C160.893 112.088 160.606 111.819 160.606 111.461V97.1232C160.606 96.7827 160.875 96.4959 161.233 96.4959H226.17C226.51 96.4959 226.797 96.7647 226.797 97.1232V111.461C226.779 111.801 226.51 112.088 226.152 112.088Z" fill="#90E2F5"/>
<path d="M165.139 109.131H196.712C197.088 109.131 197.393 108.826 197.393 108.45V100.062C197.393 99.6859 197.088 99.3812 196.712 99.3812H165.139C164.763 99.3812 164.458 99.6859 164.458 100.062V108.45C164.458 108.826 164.763 109.131 165.139 109.131Z" fill="#56D1EE"/>
<path d="M217.682 107.51C219.463 107.089 220.567 105.303 220.146 103.521C219.725 101.739 217.94 100.636 216.158 101.057C214.376 101.477 213.273 103.263 213.694 105.045C214.114 106.827 215.9 107.931 217.682 107.51Z" fill="#56D1EE"/>
<path d="M192.573 108.378C192.089 108.378 191.712 108.037 191.712 107.589V100.976C191.712 100.546 192.107 100.188 192.573 100.188C193.056 100.188 193.433 100.528 193.433 100.976V107.589C193.451 108.037 193.056 108.378 192.573 108.378Z" fill="#90E2F5"/>
<path d="M189.688 108.378C189.204 108.378 188.828 108.037 188.828 107.589V100.976C188.828 100.546 189.222 100.188 189.688 100.188C190.171 100.188 190.548 100.528 190.548 100.976V107.589C190.548 108.037 190.153 108.378 189.688 108.378Z" fill="#90E2F5"/>
<path d="M186.785 108.378C186.301 108.378 185.925 108.037 185.925 107.589V100.976C185.925 100.546 186.319 100.188 186.785 100.188C187.269 100.188 187.645 100.528 187.645 100.976V107.589C187.663 108.037 187.269 108.378 186.785 108.378Z" fill="#90E2F5"/>
<path d="M234.018 146.551H114.609V157H234.018V146.551Z" fill="#C8DFEE"/>
</g>
<path d="M556.522 59.2015C556.33 58.4332 555.37 57.8569 554.602 58.2411L535.211 64.7716C534.443 64.9637 533.867 65.9241 534.251 66.6924L542.699 91.4701C542.891 92.2384 543.851 92.8146 544.619 92.4305L564.01 85.8999C564.778 85.7078 565.354 84.7475 564.97 83.9792L556.522 59.2015Z" fill="white"/>
<path d="M535.787 119.513H488.558C487.79 119.513 487.022 120.281 487.022 121.05V180.593C487.022 181.361 487.79 182.13 488.558 182.13H535.787C536.555 182.13 537.323 181.361 537.323 180.593V121.05C537.323 120.281 536.747 119.513 535.787 119.513Z" fill="white"/>
<path d="M545.963 57.0887C545.771 56.7045 545.387 56.5124 545.003 56.5124L541.739 57.6649C541.355 57.857 541.163 58.2411 541.163 58.6253L543.275 64.5796C543.467 64.9637 543.851 65.1558 544.235 65.1558L547.499 64.0033C547.883 63.8113 548.075 63.4271 548.075 63.043L545.963 57.0887Z" fill="#FA7E7E"/>
<path d="M637.35 36.9208L616.999 35C616.231 35 615.463 35.5762 615.271 36.3445L612.775 62.4667C612.775 63.2351 613.351 64.0034 614.119 64.1954L634.47 66.1162C635.238 66.1162 636.006 65.54 636.198 64.7717L638.694 38.6494C638.886 37.8811 638.118 37.1128 637.35 36.9208Z" fill="white"/>
<path d="M607.4 102.803C607.208 102.034 606.248 101.458 605.48 101.65L585.513 106.644C584.745 106.836 584.169 107.796 584.361 108.565L590.697 134.111C590.889 134.879 591.849 135.455 592.617 135.263L612.584 130.269C613.352 130.077 613.927 129.117 613.735 128.349L607.4 102.803Z" fill="white"/>
<path d="M527.148 135.263C516.972 135.263 506.797 135.263 496.429 135.263C494.893 135.263 494.893 137.76 496.429 137.76C506.605 137.76 516.78 137.76 527.148 137.76C528.876 137.76 528.876 135.263 527.148 135.263Z" fill="#C4DAE8"/>
<path d="M527.148 140.833C516.972 140.833 506.797 140.833 496.429 140.833C494.893 140.833 494.893 143.33 496.429 143.33C506.605 143.33 516.78 143.33 527.148 143.33C528.876 143.33 528.876 140.833 527.148 140.833Z" fill="#C4DAE8"/>
<path d="M527.148 146.404C516.972 146.404 506.797 146.404 496.429 146.404C494.893 146.404 494.893 148.901 496.429 148.901C506.605 148.901 516.78 148.901 527.148 148.901C528.876 148.901 528.876 146.404 527.148 146.404Z" fill="#C4DAE8"/>
<path d="M527.148 151.782C516.972 151.782 506.797 151.782 496.429 151.782C494.893 151.782 494.893 154.279 496.429 154.279C506.605 154.279 516.78 154.279 527.148 154.279C528.876 154.279 528.876 151.782 527.148 151.782Z" fill="#C4DAE8"/>
<path d="M527.148 157.352C516.972 157.352 506.797 157.352 496.429 157.352C494.893 157.352 494.893 159.849 496.429 159.849C506.605 159.849 516.78 159.849 527.148 159.849C528.876 159.849 528.876 157.352 527.148 157.352Z" fill="#C4DAE8"/>
<path d="M527.148 162.922C516.972 162.922 506.797 162.922 496.429 162.922C494.893 162.922 494.893 165.419 496.429 165.419C506.605 165.419 516.78 165.419 527.148 165.419C528.876 165.227 528.876 162.922 527.148 162.922Z" fill="#C4DAE8"/>
<path d="M379.022 85.8869C379.022 92.9636 376.911 99.6678 373.187 105.131C366.979 114.566 356.178 120.898 344.011 120.898C324.643 120.898 309 105.255 309 85.8869C309 82.1623 309.621 78.686 310.614 75.3339C315.083 61.1805 328.368 51 344.011 51C363.379 51 379.022 66.6432 379.022 85.8869Z" fill="white"/>
<path d="M342.77 62.2979C342.77 70.1195 342.77 78.0652 342.77 85.8868C342.77 86.5076 343.391 87.1284 344.011 87.1284C352.95 87.1284 362.013 87.1284 370.952 87.1284C372.566 87.1284 372.566 84.6453 370.952 84.6453C362.013 84.6453 352.95 84.6453 344.011 84.6453C344.384 85.0178 344.88 85.5144 345.253 85.8868C345.253 78.0652 345.253 70.1195 345.253 62.2979C345.253 60.6839 342.77 60.6839 342.77 62.2979Z" fill="#B4EFFF"/>
<path d="M346.37 85.8868C346.37 87.2525 345.253 88.2457 344.011 88.2457C342.645 88.2457 341.652 87.1284 341.652 85.8868C341.652 84.5211 342.769 83.5279 344.011 83.5279C345.253 83.5279 346.37 84.6453 346.37 85.8868Z" fill="#90BFCC"/>
<mask id="mask0" mask-type="alpha" maskUnits="userSpaceOnUse" x="315" y="57" width="58" height="58">
<path d="M344.011 114.069C359.576 114.069 372.194 101.452 372.194 85.8869C372.194 70.322 359.576 57.7043 344.011 57.7043C328.446 57.7043 315.828 70.322 315.828 85.8869C315.828 101.452 328.446 114.069 344.011 114.069Z" fill="url(#paint0_linear)"/>
</mask>
<g mask="url(#mask0)">
<path d="M344.011 114.069C359.576 114.069 372.194 101.452 372.194 85.8869C372.194 70.322 359.576 57.7043 344.011 57.7043C328.446 57.7043 315.828 70.322 315.828 85.8869C315.828 101.452 328.446 114.069 344.011 114.069Z" fill="url(#paint1_linear)"/>
<circle cx="344.023" cy="85.7518" r="3.26229" fill="#56D1EE"/>
<rect opacity="0.5" x="341.848" y="66.178" width="4.34972" height="19.5737" rx="2.17486" fill="#56D1EE"/>
<rect opacity="0.5" x="363.597" y="83.5769" width="4.34972" height="19.5737" rx="2.17486" transform="rotate(90 363.597 83.5769)" fill="#56D1EE"/>
</g>
<path d="M721.809 453.013C758.326 453.013 787.929 451.327 787.929 449.247C787.929 447.167 758.326 445.481 721.809 445.481C685.292 445.481 655.689 447.167 655.689 449.247C655.689 451.327 685.292 453.013 721.809 453.013Z" fill="#A6C2D7" fill-opacity="0.25"/>
<path d="M723.564 348.61C719.838 337.658 699.024 345.983 690.549 323.056C688.81 318.354 706.864 310.224 706.505 304.665C706.339 302.037 687.43 302.231 687.347 299.493C686.298 267.523 701.812 245.62 695.711 226.786C693.586 220.204 707.471 219.927 705.87 214.783C705.318 213.013 691.405 216.581 690.163 215.17C682.93 206.929 667.333 191.331 664.6 181.956C662.613 175.097 663.827 164.118 665.346 153.719C665.677 151.451 679.866 151.977 680.197 149.82C681.274 142.684 665.898 147.69 665.429 144.04C664.159 134.001 649.721 96.6651 666.229 90.3043C678.541 85.5475 710.369 133.337 714.262 146.058C714.703 147.524 702.75 160.412 704.296 161.546C705.649 162.541 721.19 151.285 722.764 152.392C734.882 160.882 752.025 172.166 755.779 183.504C760.583 197.996 750.341 225.431 751.915 234.557C754.372 248.772 774.799 274.962 778.581 301.595C778.802 303.227 758.982 299.355 759.092 300.986C759.258 303.835 779.216 312.215 778.912 315.036C778.691 317.082 742.446 300.046 741.949 302.093C741.259 304.803 776.207 326.568 774.937 329.195C765.358 349.301 747.857 341.889 739.603 341.585C731.321 341.309 723.564 348.61 723.564 348.61Z" fill="#78A72C"/>
<path d="M721.577 314.731C722.682 314.455 723.786 314.234 724.918 314.012C726.491 351.127 725.221 384.811 722.571 406.328C722.24 409.093 718.044 408.596 718.375 405.802C721.274 382.156 722.682 349.605 721.577 314.731Z" fill="#98B51C"/>
<path d="M676.912 128.469C677.63 127.861 678.016 128.691 680.004 130.986C708.906 167.547 721.163 241.554 724.558 306.877C723.481 307.071 722.377 307.292 721.301 307.541C719.203 256.322 710.093 168.792 676.857 129.465C676.581 129.133 676.636 128.718 676.912 128.469Z" fill="#98B51C"/>
<path d="M703.827 366.725C696.263 357.183 679.921 371.647 662.033 353.173C660.763 351.846 681.274 340.23 680.252 338.654C678.624 336.192 655.601 343.604 654.469 340.617C646.933 320.788 648.948 291.113 641.606 270.897C640.943 269.099 654.718 259.669 653.89 258.009C652.868 255.991 637.272 261.826 636.057 260.084C625.457 244.901 607.734 239.757 595.174 230.962C593.131 229.524 610.798 208.837 609.087 207.178C607.9 206.016 587.224 223.937 586.23 222.61C577.535 210.884 577.203 193.82 575.299 181.928C574.829 178.941 586.064 174.378 585.236 172.221C584.601 170.534 571.986 171.032 570.937 170.008C563.318 162.569 544.409 142.767 555.313 131.263C556.693 129.797 565.885 143.016 567.459 142.463C569.502 141.717 564.008 127.474 566.327 127.999C579.577 130.958 596.913 151.977 613.973 164.09C615.353 165.058 609.446 181.347 610.826 182.205C612.372 183.145 621.178 168.653 622.696 169.4C635.201 175.54 666.34 179.854 677.133 191.718C677.906 192.576 648.231 215.419 648.893 216.47C649.721 217.798 680.86 197.332 681.495 198.881C687.402 212.903 686.629 235.221 691.432 243.684C698.913 256.903 728.478 275.571 741.646 300.599C742.446 302.148 721.439 305.356 722.129 306.933C723.316 309.698 746.035 310.887 746.753 313.791C747.277 315.921 705.318 311.938 705.539 314.151C705.815 317.055 748.16 326.181 747.857 329.251C745.51 352.565 725.524 351.486 717.243 354.113C708.962 356.741 703.827 366.725 703.827 366.725Z" fill="#98B51C"/>
<path d="M614.856 195.894C614.139 195.286 613.2 196.392 613.918 197.001C669.072 244.181 703.523 346.757 711.611 419.298C711.722 420.322 712.633 421.068 713.654 420.93C714.676 420.819 715.421 419.907 715.283 418.884C707.94 352.703 673.103 244.79 614.856 195.894Z" fill="#78A72C"/>
<path d="M740.928 374.136C745.483 364.872 762.929 374.662 773.087 355.413C775.158 351.459 760.141 342.166 761.107 337.271C761.549 334.976 778.25 337.326 778.636 334.948C783.274 306.822 772.094 285.61 779.685 269.68C782.335 264.094 770.078 262.241 772.094 257.871C772.784 256.378 784.681 261.162 785.951 260.056C793.322 253.612 808.919 241.637 812.397 233.672C814.964 227.837 815.157 217.964 815.019 208.616C814.992 206.57 802.376 205.38 802.349 203.444C802.238 197.001 815.24 203.223 816.068 200.07C818.359 191.331 835.447 160.025 821.617 152.475C811.293 146.833 777.587 185.385 772.673 196.171C772.094 197.415 781.176 210.192 779.685 211.022C778.36 211.741 765.938 199.987 764.419 200.789C752.743 206.874 736.262 214.866 731.625 224.463C725.69 236.714 731.57 262.185 729.113 270.067C725.303 282.347 704.186 303.144 697.754 326.209C697.367 327.619 715.338 326.513 715.062 327.951C714.593 330.468 695.987 335.529 695.904 338.073C695.849 339.926 729.886 329.085 730.079 330.938C730.355 333.399 696.953 348.582 697.754 351.044C703.882 369.933 720.224 365.425 727.539 366.116C734.91 366.752 740.928 374.136 740.928 374.136Z" fill="#B0D354"/>
<path d="M802.929 190.695C803.536 190.142 804.419 191.055 803.757 191.663C802.377 192.935 801.466 193.737 799.561 195.701C759.285 239.065 739.99 357.156 739.493 415.675C739.493 416.726 738.609 417.583 737.56 417.583C736.511 417.583 735.656 416.699 735.656 415.648C736.097 364.678 756.497 232.179 802.929 190.695Z" fill="#98B51C"/>
<path d="M756.691 403.507L754.565 407.489C754.565 407.489 753.13 449.471 742.585 449.471H704.214C693.807 449.471 692.233 408.042 692.233 408.042L690.108 403.534C690.108 402.594 690.881 401.847 691.792 401.847H754.952C755.918 401.82 756.691 402.566 756.691 403.507Z" fill="#394257"/>
<path d="M476.5 459C522.616 459 560 455.194 560 450.5C560 445.806 522.616 442 476.5 442C430.384 442 393 445.806 393 450.5C393 455.194 430.384 459 476.5 459Z" fill="#E9EFF3"/>
<path d="M337.041 448.516C337.041 456.774 281.98 461.221 181.964 461.221C14.9279 461.221 0.891296 454.532 0.891296 446.274C0.891296 438.015 80.975 441.789 180.991 441.789C281.007 441.789 337.041 440.257 337.041 448.516Z" fill="#E9EFF3"/>
<path d="M263.695 424.357C268.692 412.753 265.51 397.824 254.618 390.65C246.869 385.549 236.894 384.932 227.723 382.783C194.035 374.917 170.529 346.124 138.956 332.503C111.725 320.75 78.2425 321.573 52.752 336.389C27.2615 351.206 11.2784 380.242 15.1338 408.213C15.976 414.286 20.5426 422.955 25.0905 431.027C31.8468 443.022 45.0599 450.552 59.4709 450.552H225.066C236.857 450.552 248.067 445.545 255.404 436.838C258.941 432.671 261.804 428.766 263.695 424.357Z" fill="#828FEB"/>
<path d="M58.4228 348.516C50.0008 354.738 42.6082 364.36 44.8915 374.207C46.37 380.541 51.6104 385.567 57.4496 389.005C67.0507 394.667 78.4858 396.89 89.7713 397.843C101.057 398.796 112.417 398.59 123.665 399.842C141.183 401.804 157.989 407.298 175.039 411.483C192.108 415.687 210.037 418.602 227.312 415.332C229.632 414.902 232.103 414.229 233.507 412.436C236.145 409.054 233.244 404.289 229.913 401.487C220.518 393.583 207.791 390.463 195.851 386.632C176.106 380.28 157.334 371.292 140.21 360.044C131.582 354.383 123.384 348.161 115.692 341.416C112.623 338.725 109.816 334.876 105.623 333.979C101.3 333.045 95.2737 334.259 90.9878 334.951C79.1783 336.894 67.8554 341.546 58.4228 348.516Z" fill="#6370C7"/>
<path d="M305.262 438.445C305.505 439.36 305.786 440.351 306.516 440.949C307.414 441.677 308.687 441.621 309.828 441.509C312.449 441.285 315.05 441.061 317.67 440.855C318.475 440.78 319.411 440.631 319.804 439.94C320.159 439.304 319.879 438.52 319.617 437.847C318.737 435.698 317.857 433.531 316.978 431.363C316.21 429.458 315.368 427.477 313.777 426.188C311.475 424.319 305.056 423.497 303.241 426.505C301.537 429.308 304.551 435.661 305.262 438.445Z" fill="#F7B690"/>
<path fill-rule="evenodd" clip-rule="evenodd" d="M347.11 448.516C347.297 446.442 345.313 444.723 343.292 444.237C341.252 443.751 339.137 444.125 337.041 444.106C331.089 444.032 325.287 440.463 322.555 435.175C322.181 434.446 321.806 433.643 321.095 433.25C320.141 432.709 318.905 433.12 318.063 433.811C317.221 434.502 316.622 435.437 315.855 436.221C314.47 437.604 312.505 438.37 310.558 438.333C308.93 438.314 307.096 437.062 305.524 437.884C304.139 438.613 303.765 440.519 303.409 441.901C302.81 444.256 302.249 446.629 301.687 448.983C301.556 449.506 301.425 450.048 301.388 450.59H312.748C313.272 449.842 313.702 447.694 313.927 446.797C313.965 447.712 314.32 449.88 314.919 450.59H346.118C346.66 449.992 347.035 449.282 347.11 448.516Z" fill="#0A3C5F"/>
<path fill-rule="evenodd" clip-rule="evenodd" d="M320.421 418.546C322.574 417.238 324.258 415.276 326.354 413.893C330.434 411.184 335.656 410.848 339.998 408.587C344.677 406.158 348.083 401.431 348.907 396.236C349.075 395.115 349.094 393.826 348.27 393.041C347.503 392.313 346.305 392.313 345.257 392.462C337.172 393.546 335.787 397.114 327.945 399.357C325.849 399.954 316.697 400.608 312.561 403.28C308.069 406.158 309.08 408.138 309.323 410.044C309.585 411.969 311.326 418.135 313.272 419.144C315.462 420.246 318.4 419.76 320.421 418.546Z" fill="#0A3C5F"/>
<path d="M308.032 402.776C307.639 401.916 307.227 400.963 307.414 400.048C307.657 398.927 308.668 398.161 309.623 397.525C311.794 396.049 313.965 394.573 316.117 393.097C316.791 392.649 317.595 392.163 318.344 392.481C319.018 392.761 319.298 393.527 319.523 394.237C320.197 396.46 320.889 398.684 321.563 400.926C322.162 402.888 322.761 404.943 322.349 406.961C321.731 409.857 317.296 414.547 313.965 413.351C310.933 412.211 309.23 405.373 308.032 402.776Z" fill="#F4A086"/>
<path d="M295.96 333.942C294.145 330.429 292.086 326.767 289.223 324.151L274.381 354.233C279.509 354.7 283.44 358.886 287.501 366.584C302.23 394.499 307.526 404.925 310.221 407.354C312.28 409.203 322.443 405.485 322.761 402.533C323.659 394.368 304.962 351.449 295.96 333.942Z" fill="#0A3C5F"/>
<path d="M178.932 397.824C184.977 400.328 212.414 394.798 218.665 392.854C227.836 389.977 237.006 387.118 246.177 384.241C250.556 382.877 260.681 376.617 264.874 378.486C270.563 381.008 296.372 426.561 302.099 431.793C304.008 433.531 316.023 431.961 316.491 427.963C316.959 423.964 301.369 386.595 295.137 371.722C292.741 366.023 290.327 360.268 286.846 355.149C283.365 350.029 278.667 345.545 272.903 343.321C264.78 340.201 197.161 358.848 194.316 361.352C190.292 364.865 172.588 395.19 178.932 397.824Z" fill="#08314E"/>
<path d="M158.382 352.215C154.696 354.794 152.206 358.811 150.784 363.071C146.985 374.487 151.121 388.09 160.647 395.451C170.173 402.813 195.383 402.402 209.551 390.986C218.927 383.437 209.925 377.141 207.099 365.444C205.677 359.577 202.027 353.86 196.356 351.711C189.207 349.002 182.058 352.738 174.852 351.879C168.545 351.15 164.821 347.712 158.382 352.215Z" fill="#0A3C5F"/>
<path d="M285.161 321.46C269.384 314.678 196.244 340.799 185.033 363.538C181.365 370.993 184.958 379.439 189.226 385.922C195.944 396.124 206.93 392.966 216.045 387.996C230.568 380.074 244.53 371.143 257.799 361.277C264.743 356.12 278.424 345.339 283.571 351.001L289.204 324.151C288.044 323.049 286.696 322.114 285.161 321.46Z" fill="#0A3C5F"/>
<path fill-rule="evenodd" clip-rule="evenodd" d="M94.2069 330.448C94.9743 323.759 96.8832 317.144 96.7709 310.418C96.6961 306.345 95.8165 302.178 93.477 298.852C91.7177 296.348 87.2073 292.518 83.7636 293.564C80.2264 294.629 78.3361 301.262 77.0073 304.308C73.0958 313.258 70.4756 322.768 69.2591 332.447C69.1094 333.68 68.9783 334.932 68.8848 336.184L93.9262 335.25C93.9262 333.624 94.0198 332.017 94.2069 330.448Z" fill="#56D1EE"/>
<path d="M139.873 361.632C133.435 358.064 125.705 358.064 118.369 357.484C111.032 356.905 103.097 355.28 98.3618 349.655C95.0304 345.713 93.9262 340.481 93.9262 335.25L68.8848 336.184C68.2859 343.845 68.8848 351.673 72.4408 358.419C77.9244 368.788 89.6029 374.73 101.244 376.3C112.885 377.869 124.657 375.72 136.205 373.59C139.667 372.955 143.897 371.554 144.327 368.06C144.664 365.294 142.287 362.978 139.873 361.632Z" fill="#F4A086"/>
<path fill-rule="evenodd" clip-rule="evenodd" d="M83.0712 293.901C80.582 297.264 79.7398 301.561 79.4591 305.747C78.1677 324.543 86.7768 342.985 99.1852 357.185C111.594 371.386 127.595 381.924 143.616 391.883C146.741 393.826 150.26 395.825 153.872 395.115C159.056 394.106 161.508 388.295 163.117 383.269C165.363 376.244 167.609 369.237 169.855 362.212C171.034 358.531 172.213 354.588 171.221 350.851C169.668 345.059 163.623 341.901 158.326 339.043C143.709 331.176 130.59 320.564 119.847 307.933C116.16 303.598 112.717 299.002 108.412 295.265C101.618 289.416 89.6216 285.1 83.0712 293.901Z" fill="#90E2F5"/>
<path d="M85.654 289.491C85.2796 290.649 84.8492 291.808 84.8866 293.022C84.9053 294.237 85.5042 295.526 86.6272 295.975C87.4132 296.292 88.2929 296.161 89.1163 296.031C93.7578 295.302 98.418 294.573 103.059 293.845C101.88 288.445 102.685 282.615 105.305 277.738C105.998 276.468 106.821 275.067 106.503 273.665C106.166 272.17 104.688 271.274 103.303 270.62C100.215 269.162 96.9394 268.116 93.5893 267.499C89.7901 266.808 87.7688 265.668 87.6191 269.611C87.3758 276.561 87.8624 282.69 85.654 289.491Z" fill="#F4A086"/>
<path d="M79.6275 254.775C77.1945 258.942 76.8951 264.771 80.2639 268.228C82.2477 270.246 85.0925 271.124 87.8062 271.928C92.6723 273.366 97.5196 274.805 102.386 276.244C105.305 277.103 112.642 275.889 115.112 274.095C117.62 272.283 115.15 270.414 115.112 267.312C115.056 262.305 110.564 255.373 108.861 250.664C107.139 245.956 106.821 243.751 102.086 242.07C93.7578 239.117 83.5391 248.086 79.6275 254.775Z" fill="#F7B690"/>
<path fill-rule="evenodd" clip-rule="evenodd" d="M74.7989 271.516C76.109 273.889 77.4752 276.337 79.5901 278.056C81.7049 279.775 84.7743 280.616 87.1886 279.383C90.2954 277.813 91.0814 273.833 91.5119 270.395C92.0359 266.21 95.3485 268.527 95.8726 264.342C96.0972 262.567 93.5144 254.289 94.2069 252.626C95.8539 248.646 99.8777 246.031 101.562 242.051C103.602 237.212 101.132 230.952 96.3218 228.803C91.5119 226.655 85.2047 228.972 82.9402 233.717C81.2932 237.174 81.9295 241.472 79.9457 244.779C78.2987 247.563 75.7908 247.339 73.4327 249.076C66.0588 254.513 71.4675 265.481 74.7989 271.516Z" fill="#0A3C5F"/>
<path d="M84.5871 266.303C83.9695 263.482 86.2528 260.455 89.1163 260.063C91.9798 259.67 95.91 269.069 94.9929 270.246C89.8462 271.255 85.8224 269.499 84.5871 266.303Z" fill="#F7B690"/>
<path d="M178.689 267.312C175.414 277.178 169.312 291.808 161.77 298.983C154.228 306.158 143.223 310.343 133.173 307.596C128.494 306.326 124.395 303.71 120.427 300.87L112.342 326.561C116.89 328.411 121.569 329.943 126.398 330.933C139.592 333.624 154.19 331.999 164.933 323.908C171.895 318.658 176.817 311.053 180.092 302.981C183.368 294.91 186.4 279.084 188.047 270.526C188.533 268.041 179.419 265.07 178.689 267.312Z" fill="#F7B690"/>
<path fill-rule="evenodd" clip-rule="evenodd" d="M115.73 297.488C110.246 293.527 104.126 289.809 97.3512 289.697C81.9483 289.454 80.3762 306.288 89.996 314.996C93.6829 318.34 99.0543 320.283 103.452 322.507C106.353 323.983 109.31 325.347 112.324 326.58L124.638 302.141C123.085 301.001 117.302 298.609 115.73 297.488Z" fill="#90E2F5"/>
<path d="M178.146 257.428H190.76C191.509 257.428 192.276 256.83 192.482 256.083L200.193 229.345C200.399 228.598 199.968 228 199.22 228H186.605C185.857 228 185.09 228.598 184.884 229.345L177.173 256.083C176.967 256.83 177.397 257.428 178.146 257.428Z" fill="#3C79A6"/>
<path d="M176.911 257.428H189.525C190.274 257.428 191.041 256.83 191.247 256.083L198.958 229.345C199.164 228.598 198.733 228 197.984 228H185.37C184.622 228 183.854 228.598 183.648 229.345L175.938 256.083C175.732 256.83 176.162 257.428 176.911 257.428Z" fill="#A2D1EB"/>
<path d="M177.959 255.99H189.338C190.012 255.99 190.704 255.448 190.891 254.775L197.835 230.672C198.022 229.999 197.629 229.457 196.955 229.457H185.576C184.902 229.457 184.21 229.999 184.023 230.672L177.079 254.775C176.892 255.448 177.285 255.99 177.959 255.99Z" fill="#3C79A6"/>
<path d="M180.242 254.065C180.766 252.477 183.667 248.198 185.221 244.125C188.065 243.153 186.549 251.281 185.595 252.253C188.907 251.599 195.121 247.88 196.581 241.939C197.161 242.443 198.976 245.059 199.014 245.825C199.164 248.721 197.311 251.412 197.479 254.308C197.592 256.475 198.602 257.615 197.947 259.689C196.899 263.015 194.054 265.407 191.266 267.481C189.806 268.564 188.29 269.611 186.549 270.134C176.892 273.03 178.651 258.96 180.242 254.065Z" fill="#F7B690"/>
<g clip-path="url(#clip1)">
<path d="M421.118 446.138C421.118 446.138 441.725 436.845 447.871 433.225C448.594 432.863 460.886 431.656 461.127 432.501C461.369 433.949 462.212 441.914 462.092 446.259C462.092 447.707 460.886 448.914 459.32 448.914H421.721C420.154 448.914 419.672 446.862 421.118 446.138Z" fill="#AB6646"/>
<path d="M438.231 443.604C438.592 443.604 438.833 443.362 438.833 443C438.833 442.88 438.833 439.863 436.543 438.294C436.302 438.052 435.82 438.173 435.7 438.414C435.459 438.656 435.579 439.138 435.82 439.259C437.508 440.345 437.508 442.759 437.508 442.88C437.628 443.362 437.869 443.604 438.231 443.604Z" fill="#DBA786"/>
<path d="M443.654 442.035C443.895 442.035 444.256 441.793 444.256 441.552C444.618 440.224 443.292 437.207 441.605 436.001C441.364 435.759 440.882 435.88 440.761 436.121C440.52 436.363 440.641 436.845 440.882 436.966C442.207 437.931 443.171 440.345 442.93 441.069C442.81 441.431 443.051 441.793 443.413 441.793C443.533 442.035 443.654 442.035 443.654 442.035Z" fill="#DBA786"/>
<path d="M419.552 450H461.127C461.73 450 462.333 449.517 462.333 448.793C462.333 448.19 461.851 447.586 461.127 447.586H419.431C418.828 447.586 418.226 448.069 418.226 448.793C418.346 449.517 418.828 450 419.552 450Z" fill="#604737"/>
<path d="M498.244 446.138C507.403 440.345 512.103 437.207 515.959 433.466C516.803 432.621 526.805 431.897 527.769 433.225C528.251 433.828 529.216 441.431 530.18 445.897C530.541 447.466 529.336 448.914 527.769 448.914H498.968C497.401 448.914 496.919 446.983 498.244 446.138Z" fill="#AB6646"/>
<path d="M497.16 450H529.698C530.3 450 530.903 449.517 530.903 448.793C530.903 448.19 530.421 447.586 529.698 447.586H497.16C496.557 447.586 495.955 448.069 495.955 448.793C495.955 449.517 496.437 450 497.16 450Z" fill="#604737"/>
<path d="M505.234 443.604C505.355 443.604 505.355 443.604 505.475 443.604C505.837 443.483 505.957 443.121 505.837 442.759C505.716 442.518 505.837 441.552 506.078 441.311C506.319 441.069 506.439 440.707 506.198 440.466C505.957 440.225 505.596 440.104 505.234 440.345C504.39 440.828 504.27 442.638 504.511 443.242C504.752 443.483 504.993 443.604 505.234 443.604Z" fill="#DBA786"/>
<path d="M509.813 441.19H509.934C510.295 441.069 510.536 440.707 510.416 440.345C510.295 439.621 510.416 438.535 510.777 438.414C511.139 438.294 511.26 437.932 511.139 437.569C511.018 437.207 510.657 437.087 510.295 437.207C509.211 437.69 508.97 439.742 509.211 440.707C509.211 441.069 509.452 441.19 509.813 441.19Z" fill="#DBA786"/>
<path d="M495.714 210.562C503.185 222.872 511.38 229.389 513.188 238.561C514.634 245.802 511.38 254.853 511.38 258.353C511.38 263.663 513.67 293.352 521.744 331.85C522.828 337.039 531.144 351.401 532.59 356.47C539.338 378.555 529.818 434.07 528.372 434.19C525.239 434.673 517.526 434.914 515.357 433.949C515.477 421.398 505.837 358.159 496.919 341.867C492.581 333.902 486.917 299.386 483.422 287.68C482.94 291.059 476.794 329.436 476.553 333.057C475.95 339.815 480.53 353.694 480.047 361.9C478.24 393.64 463.779 432.621 462.212 434.07C461.368 435.035 447.871 434.552 446.787 432.621C449.317 423.811 452.33 358.521 450.282 344.28C446.064 315.196 450.041 248.457 450.523 246.526C452.21 240.13 454.499 213.097 458.356 215.993C462.333 219.01 495.714 210.562 495.714 210.562Z" fill="#0A3C5F"/>
<path d="M479.686 312.661C480.168 312.661 480.53 312.299 480.53 311.937C481.373 307.713 482.096 301.196 482.819 294.317C484.386 281.283 486.435 263.543 489.206 261.37C490.411 260.405 493.665 259.319 496.557 258.353C498.968 257.508 501.016 256.905 502.101 256.181C502.583 255.939 502.703 255.336 502.462 254.974C502.221 254.491 501.619 254.371 501.257 254.612C500.414 255.095 498.244 255.819 496.075 256.543C492.942 257.629 489.688 258.715 488.122 259.801C484.988 262.215 483.301 275.49 481.132 293.955C480.288 300.834 479.565 307.23 478.842 311.454C478.722 311.937 479.083 312.42 479.565 312.54C479.565 312.661 479.686 312.661 479.686 312.661Z" fill="#222B54"/>
<path d="M514.875 160.719C515.839 170.254 516.923 196.08 515.477 201.994C514.272 206.821 505.716 235.906 493.665 241.578C474.504 250.509 484.868 218.769 484.868 218.769C484.868 218.769 485.229 197.408 480.891 167.236C480.409 164.461 514.031 151.91 514.875 160.719Z" fill="#F7B690"/>
<path d="M491.737 107.618C499.691 110.273 506.198 118.601 510.657 126.566C517.165 137.91 516.2 153.72 516.2 164.702C516.2 167.237 493.183 170.857 491.978 166.392C487.881 151.668 491.737 107.618 491.737 107.618Z" fill="#90E2F5"/>
<path d="M449.438 243.147C450.884 228.303 456.428 220.458 453.053 176.167C451.728 158.306 452.33 141.048 457.994 129.704C467.032 111.601 479.686 103.274 483.422 103.274C495.232 103.274 513.67 120.29 513.79 139.479C513.79 156.978 508.97 179.064 508.488 199.339C508.126 212.493 511.862 227.579 513.79 238.32C514.754 243.75 497.642 244.595 480.65 245.078C464.743 245.681 449.076 246.164 449.438 243.147Z" fill="#90E2F5"/>
<path d="M511.862 165.788C512.344 165.788 512.706 165.426 512.826 164.943C512.947 163.616 513.067 161.926 513.067 160.237C513.308 156.254 513.67 151.789 513.67 148.772C513.67 148.289 513.308 147.806 512.826 147.806C512.344 147.806 511.983 148.168 511.862 148.651C511.862 151.547 511.501 156.013 511.26 159.995C511.139 161.806 511.018 163.375 511.018 164.702C510.898 165.306 511.26 165.788 511.862 165.788C511.742 165.788 511.862 165.788 511.862 165.788Z" fill="#56D1EE"/>
<path d="M477.758 164.219C478.119 164.219 478.601 163.978 478.601 163.495C479.204 160.84 479.806 155.53 479.806 152.875C479.806 152.392 479.445 151.91 478.842 151.91C478.24 151.91 477.878 152.272 477.878 152.875C477.878 155.409 477.276 160.599 476.673 163.133C476.553 163.616 476.914 164.099 477.396 164.219C477.637 164.219 477.758 164.219 477.758 164.219Z" fill="#56D1EE"/>
<path d="M455.222 163.737C455.222 163.737 455.343 163.737 455.222 163.737C455.825 163.737 456.187 163.254 456.187 162.771C455.945 160.599 456.428 150.582 457.151 145.996C457.271 145.513 456.91 145.031 456.428 144.91C455.945 144.789 455.463 145.151 455.343 145.634C454.499 150.461 454.138 160.599 454.379 162.892C454.379 163.375 454.74 163.737 455.222 163.737Z" fill="#56D1EE"/>
<path d="M494.75 109.429C494.75 107.618 492.46 100.619 492.46 93.619C492.46 85.1711 478.963 91.2053 478.963 91.2053C478.601 95.3086 476.312 105.808 476.312 109.549C476.312 111.842 480.409 113.291 486.676 112.687C491.255 112.325 494.75 110.877 494.75 109.429Z" fill="#F7B690"/>
<path d="M489.568 62.4824C481.735 55.2413 469.804 59.7066 467.514 65.0168C463.176 77.5679 464.743 94.8258 467.876 97.3602C472.576 101.101 484.627 98.567 490.05 94.7051C495.111 91.0846 502.703 74.6715 489.568 62.4824Z" fill="#F7B690"/>
<path d="M462.935 57.7757C460.645 59.1032 461.609 61.9997 467.635 64.4134C464.14 65.8616 463.297 68.8787 466.068 70.3269C466.671 70.5683 467.273 70.8096 468.117 70.9303C468.961 71.051 469.925 71.051 471.13 71.051C471.25 71.7751 471.009 74.6715 470.889 77.4473L470.768 79.2575C470.648 81.6712 470.527 83.7229 470.648 83.9642C470.889 84.3263 473.178 84.447 473.781 81.1885C473.901 80.7057 473.901 80.1023 473.901 79.3782C473.901 75.1543 477.035 76.8438 476.794 79.861C476.794 80.3437 477.999 82.154 479.806 84.3263C481.253 86.0159 483.06 87.9468 484.868 89.5157C487.278 91.5673 489.688 93.2569 491.496 93.4983C491.616 93.4983 491.737 93.4983 491.857 93.4983C491.978 93.4983 492.219 93.3776 492.46 93.2569C493.424 92.5328 494.629 90.3605 495.714 87.4641C495.714 87.4641 495.714 87.4641 495.714 87.3434C498.726 79.6196 500.896 67.3098 494.75 65.3788C493.545 60.3101 489.447 56.9309 484.868 55C477.999 54.8793 472.214 58.1378 472.214 58.1378L462.935 57.7757Z" fill="#172755"/>
<path d="M477.758 99.8946C477.999 99.8946 478.24 99.7739 478.24 99.4119C478.36 98.6878 478.601 96.3948 478.481 95.4293C478.481 95.1879 478.119 94.9465 477.878 94.9465C477.637 94.9465 477.396 95.3086 477.396 95.55C477.517 96.2741 477.276 98.3257 477.155 99.1705C477.155 99.5326 477.396 99.7739 477.758 99.8946C477.637 99.8946 477.637 99.8946 477.758 99.8946Z" fill="#EB9078"/>
<path d="M466.912 196.321C471.009 191.253 475.348 168.564 474.745 167.599C469.443 166.512 456.066 158.306 456.066 158.306C456.066 158.306 453.897 181.477 449.318 183.408C442.087 186.425 427.867 185.581 414.129 179.908C412.08 179.064 402.198 186.305 404.849 187.753C434.254 203.804 458.476 206.7 466.912 196.321Z" fill="#F7B690"/>
<path d="M414.249 179.908C412.923 177.615 415.816 171.581 414.129 170.857C413.164 170.495 403.765 165.788 405.211 169.65C402.439 168.323 399.185 167.719 398.221 167.719C396.052 167.84 394.365 178.943 394.847 182.805C395.45 186.667 404.126 190.529 408.103 189.804C411.357 188.96 416.177 183.408 414.249 179.908Z" fill="#F7B690"/>
<path d="M404.247 172.909C405.452 172.909 406.175 172.547 406.416 171.943C406.898 171.219 406.657 170.254 405.813 169.65C405.572 169.529 405.211 169.529 405.09 169.771C404.97 170.012 404.97 170.374 405.211 170.495C405.572 170.736 405.693 171.098 405.572 171.46C405.331 171.943 404.006 172.426 400.872 170.978C400.631 170.857 400.27 170.978 400.149 171.219C400.029 171.46 400.149 171.822 400.39 171.943C402.078 172.547 403.283 172.909 404.247 172.909Z" fill="#EB9078"/>
<path d="M400.39 177.495C400.632 177.495 400.873 177.374 400.873 177.133C400.993 176.891 400.752 176.529 400.511 176.529C399.667 176.288 396.896 172.909 396.655 171.34C396.655 171.098 396.414 170.857 396.052 170.857C395.811 170.857 395.57 171.098 395.57 171.46C395.811 173.512 398.944 177.133 400.149 177.495C400.27 177.495 400.27 177.495 400.39 177.495Z" fill="#EB9078"/>
<path d="M398.221 180.753C398.342 180.753 398.462 180.753 398.583 180.632C398.824 180.391 398.824 180.15 398.583 179.908C397.739 179.064 395.932 177.495 395.57 175.322C395.57 175.081 395.209 174.84 394.968 174.84C394.726 174.84 394.485 175.202 394.485 175.443C394.847 177.977 396.896 179.788 397.739 180.632C397.98 180.632 398.101 180.753 398.221 180.753Z" fill="#EB9078"/>
<path d="M397.498 184.374C397.619 184.374 397.739 184.253 397.86 184.132C398.101 183.891 397.98 183.529 397.739 183.408C397.739 183.408 395.209 181.357 395.209 179.305C395.209 179.064 394.968 178.822 394.726 178.822C394.485 178.822 394.244 179.064 394.244 179.305C394.244 181.719 397.016 184.132 397.137 184.132C397.257 184.253 397.378 184.374 397.498 184.374Z" fill="#EB9078"/>
<path d="M475.227 169.771C474.986 169.771 474.866 169.892 474.625 169.892C470.407 170.616 461.489 169.409 455.343 167.478C455.222 167.478 454.981 167.357 454.861 167.357C454.62 167.236 454.379 167.236 454.017 167.116C454.138 166.03 454.499 164.702 454.74 163.254C456.428 154.806 459.681 142.738 459.681 142.738L472.335 140.565C473.901 153.72 475.107 167.961 475.227 169.771Z" fill="#90E2F5"/>
<path d="M370.142 171.219H447.148V182.805H370.142V171.219Z" fill="#DCDEC9"/>
<path d="M327 171.219H370.745V182.805H327V171.219Z" fill="#CACCB9"/>
<path d="M373.517 159.754H450.523V171.34H373.517V159.754Z" fill="#EAECD8"/>
<path d="M330.495 159.754H374.24V171.34H330.495V159.754Z" fill="#DADCC9"/>
<path d="M370.263 149.134H447.269V160.72H370.263V149.134Z" fill="#DCDEC9"/>
<path d="M327.241 149.134H370.986V160.72H327.241V149.134Z" fill="#CACCB9"/>
<path d="M472.214 58.1378C472.214 58.1378 442.93 56.2068 450.643 61.1549C456.428 64.8961 463.417 70.8096 470.648 79.1368L472.214 58.1378Z" fill="#56D1EE"/>
<path d="M468.117 70.8097C468.358 73.344 469.202 75.8784 470.648 79.1369C470.648 79.1369 471.732 79.861 473.66 81.0678C475.227 82.0333 477.396 83.2402 479.686 84.3263C484.386 86.4986 490.17 88.4296 494.991 87.5848C495.232 87.5848 495.473 87.4641 495.593 87.4641C495.593 87.4641 495.593 87.4641 495.593 87.3434C496.437 85.5332 505.234 66.5857 495.593 58.8619C492.098 56.0862 488.363 55.1207 484.747 55.1207C477.878 55 472.094 58.2585 472.094 58.2585C471.25 59.586 470.527 60.7929 469.925 61.9997C468.599 65.1375 467.876 67.9132 468.117 70.8097Z" fill="#90E2F5"/>
</g>
<defs>
<linearGradient id="paint0_linear" x1="-252.001" y1="416.72" x2="725.565" y2="-125.816" gradientUnits="userSpaceOnUse">
<stop stop-color="white"/>
<stop offset="1"/>
</linearGradient>
<linearGradient id="paint1_linear" x1="-252.001" y1="416.72" x2="725.565" y2="-125.816" gradientUnits="userSpaceOnUse">
<stop stop-color="#D7EEFD"/>
<stop offset="1" stop-color="#D7EEFD"/>
</linearGradient>
<clipPath id="clip0">
<rect x="114" y="58" width="120" height="99" fill="white"/>
</clipPath>
<clipPath id="clip1">
<path d="M535 55H327V450H535V55Z" fill="white"/>
</clipPath>
</defs>
</svg>
