<svg width="20" height="20" viewBox="0 0 20 20" fill="none" xmlns="http://www.w3.org/2000/svg">
<g opacity="0.5">
<path d="M5.22133 8.70353H12.6102L9.96041 6.05629C9.48529 5.57991 9.49138 4.82011 9.96651 4.34976C10.4477 3.87941 11.2213 3.88544 11.6904 4.35579L15.1137 7.78091C16.2954 8.95679 16.2954 10.8683 15.1137 12.0382L11.5076 15.6442C11.2701 15.8794 10.9533 16 10.6426 16C10.332 16 10.0213 15.8854 9.78377 15.6503C9.30864 15.1799 9.30255 14.4201 9.77767 13.9437L12.6102 11.1156H5.22133C4.55128 11.1156 4.00306 10.5729 4.00306 9.90956C4.00306 9.24624 4.55128 8.70353 5.22133 8.70353Z" fill="#768099"/>
</g>
</svg>
