<svg width="20" height="20" viewBox="0 0 20 20" fill="none" xmlns="http://www.w3.org/2000/svg">
<g opacity="0.5">
<path d="M14.7787 8.70353H7.38984L10.0396 6.05629C10.5147 5.57991 10.5086 4.82011 10.0335 4.34976C9.55228 3.87941 8.77867 3.88544 8.30964 4.35579L4.88629 7.78091C3.70457 8.95679 3.70457 10.8683 4.88629 12.0382L8.49238 15.6442C8.72994 15.8794 9.04669 16 9.35735 16C9.66801 16 9.97867 15.8854 10.2162 15.6503C10.6914 15.1799 10.6975 14.4201 10.2223 13.9437L7.38984 11.1156H14.7787C15.4487 11.1156 15.9969 10.5729 15.9969 9.90956C15.9969 9.24624 15.4487 8.70353 14.7787 8.70353Z" fill="#768099"/>
</g>
</svg>
